<svg
    width="200"
    height="200"
    viewBox="0 0 500 500"
    className="fill-[rgb(174,178,183)] my-64"
    xmlns="http://www.w3.org/2000/svg"
>
    <rect width="500" height="500" rx="60" fill="#F9FAFC"/>
<path d="M106.38 201H123.03L81.9299 313.5H65.3549L78.9299 276L52.0049 201H69.0299L86.7299 254.625L106.38 201ZM164.616 277.95C157.716 277.95 151.416 276.175 145.716 272.625C140.066 269.075 135.541 264.325 132.141 258.375C128.791 252.375 127.116 245.75 127.116 238.5C127.116 233 128.091 227.875 130.041 223.125C131.991 218.325 134.666 214.125 138.066 210.525C141.516 206.875 145.516 204.025 150.066 201.975C154.616 199.925 159.466 198.9 164.616 198.9C170.366 198.9 175.641 200.1 180.441 202.5C185.241 204.85 189.341 208.125 192.741 212.325C196.141 216.475 198.641 221.275 200.241 226.725C201.841 232.125 202.316 237.875 201.666 243.975H143.841C144.491 247.425 145.741 250.55 147.591 253.35C149.491 256.1 151.891 258.275 154.791 259.875C157.741 261.475 161.016 262.3 164.616 262.35C168.416 262.35 171.866 261.4 174.966 259.5C178.116 257.6 180.691 254.975 182.691 251.625L198.516 255.3C195.516 261.95 190.991 267.4 184.941 271.65C178.891 275.85 172.116 277.95 164.616 277.95ZM143.316 232.05H185.916C185.416 228.45 184.141 225.2 182.091 222.3C180.091 219.35 177.566 217.025 174.516 215.325C171.516 213.575 168.216 212.7 164.616 212.7C161.066 212.7 157.766 213.55 154.716 215.25C151.716 216.95 149.216 219.275 147.216 222.225C145.266 225.125 143.966 228.4 143.316 232.05ZM281.587 228.975V276H265.987V232.8C265.987 229.45 265.162 226.4 263.512 223.65C261.912 220.9 259.737 218.725 256.987 217.125C254.287 215.475 251.237 214.65 247.837 214.65C244.537 214.65 241.512 215.475 238.762 217.125C236.012 218.725 233.812 220.9 232.162 223.65C230.512 226.4 229.687 229.45 229.687 232.8V276H214.087V201H229.687V208.95C232.287 205.85 235.487 203.4 239.287 201.6C243.087 199.8 247.187 198.9 251.587 198.9C257.137 198.9 262.187 200.25 266.737 202.95C271.287 205.65 274.887 209.275 277.537 213.825C280.237 218.375 281.587 223.425 281.587 228.975ZM353.518 163.5H369.118V276H353.518V264.975C351.068 268.875 347.868 272.025 343.918 274.425C339.968 276.775 335.343 277.95 330.043 277.95C324.593 277.95 319.493 276.925 314.743 274.875C309.993 272.825 305.793 270 302.143 266.4C298.543 262.75 295.718 258.55 293.668 253.8C291.618 249.05 290.593 243.95 290.593 238.5C290.593 233.05 291.618 227.95 293.668 223.2C295.718 218.4 298.543 214.2 302.143 210.6C305.793 206.95 309.993 204.1 314.743 202.05C319.493 200 324.593 198.975 330.043 198.975C335.343 198.975 339.968 200.175 343.918 202.575C347.868 204.925 351.068 208.025 353.518 211.875V163.5ZM330.193 262.875C334.593 262.875 338.443 261.8 341.743 259.65C345.043 257.45 347.593 254.5 349.393 250.8C351.243 247.1 352.168 243 352.168 238.5C352.168 233.95 351.243 229.825 349.393 226.125C347.543 222.425 344.968 219.5 341.668 217.35C338.418 215.15 334.593 214.05 330.193 214.05C325.843 214.05 321.868 215.15 318.268 217.35C314.718 219.55 311.868 222.5 309.718 226.2C307.618 229.9 306.568 234 306.568 238.5C306.568 243.05 307.643 247.175 309.793 250.875C311.993 254.525 314.868 257.45 318.418 259.65C322.018 261.8 325.943 262.875 330.193 262.875ZM419.06 277.95C412.16 277.95 405.86 276.175 400.16 272.625C394.51 269.075 389.985 264.325 386.585 258.375C383.235 252.375 381.56 245.75 381.56 238.5C381.56 233 382.535 227.875 384.485 223.125C386.435 218.325 389.11 214.125 392.51 210.525C395.96 206.875 399.96 204.025 404.51 201.975C409.06 199.925 413.91 198.9 419.06 198.9C425.96 198.9 432.235 200.675 437.885 204.225C443.585 207.775 448.11 212.55 451.46 218.55C454.86 224.55 456.56 231.2 456.56 238.5C456.56 243.95 455.585 249.05 453.635 253.8C451.685 258.55 448.985 262.75 445.535 266.4C442.135 270 438.16 272.825 433.61 274.875C429.11 276.925 424.26 277.95 419.06 277.95ZM419.06 262.35C423.21 262.35 426.935 261.25 430.235 259.05C433.535 256.85 436.135 253.95 438.035 250.35C439.985 246.7 440.96 242.75 440.96 238.5C440.96 234.15 439.96 230.15 437.96 226.5C436.01 222.85 433.385 219.95 430.085 217.8C426.785 215.6 423.11 214.5 419.06 214.5C414.96 214.5 411.235 215.6 407.885 217.8C404.585 220 401.96 222.925 400.01 226.575C398.11 230.225 397.16 234.2 397.16 238.5C397.16 242.95 398.16 246.975 400.16 250.575C402.16 254.175 404.81 257.05 408.11 259.2C411.46 261.3 415.11 262.35 419.06 262.35Z" fill="#407BFF"/>
</svg>