<svg width="326" height="224" viewBox="0 0 326 224" fill="none" xmlns="http://www.w3.org/2000/svg">
<path d="M0 175.614H86.76C86.76 175.614 82.09 164.754 66.49 168.134C66.49 168.134 63.21 155.784 51.31 157.494C51.31 157.494 41.46 146.814 27.09 150.954C12.72 155.094 13.96 168.134 13.96 168.134C13.96 168.134 3.33 165.354 0 175.614Z" fill="#FAFAFA"/>
<path d="M200.75 25.6144H114C114 25.6144 118.66 14.7444 134.26 18.1244C134.26 18.1244 137.54 5.77435 149.45 7.48435C149.45 7.48435 159.3 -3.18564 173.66 0.954355C188.02 5.09436 186.8 18.1244 186.8 18.1244C186.8 18.1244 197.47 15.3544 200.75 25.6144Z" fill="#FAFAFA"/>
<path d="M259 223.937H325.37C325.37 223.937 322.83 214.827 313.23 217.827C313.23 217.827 315.23 205.567 308.15 204.147C301.07 202.727 298.82 212.057 298.82 212.057C297.2 210.221 295.099 208.874 292.755 208.167C290.41 207.46 287.915 207.422 285.55 208.057C283.224 208.663 281.105 209.884 279.416 211.593C277.726 213.302 276.529 215.435 275.95 217.767C275.95 217.767 264.13 210.997 259 223.937Z" fill="#FAFAFA"/>
<path d="M226.643 73.3456L131.051 101.544L154.622 181.45L250.214 153.252L226.643 73.3456Z" fill="#407BFF"/>
<path opacity="0.3" d="M159.765 93.0635L131.034 101.539L154.605 181.445L183.336 172.969L159.765 93.0635Z" fill="white"/>
<path opacity="0.3" d="M171.393 95.6659L152.14 101.417L153.743 106.784L172.996 101.033L171.393 95.6659Z" fill="white"/>
<path opacity="0.3" d="M189.261 157.93L169.992 163.614L171.577 168.985L190.846 163.301L189.261 157.93Z" fill="white"/>
<path d="M191.133 120.116L196.174 118.649L197.606 123.569L192.565 125.037L191.133 120.116Z" fill="white"/>
<path d="M199.783 112.261L204.079 127.023L188.957 131.424L184.66 116.662L199.783 112.261ZM197.978 115.455L187.897 118.389L190.761 128.23L200.843 125.296L197.978 115.455ZM203.335 143.252L198.295 144.72L199.727 149.64L204.768 148.173L203.335 143.252Z" fill="white"/>
<path d="M206.942 136.865L211.239 151.627L196.117 156.029L191.82 141.266L206.942 136.865ZM195.056 142.993L197.921 152.835L208.003 149.9L205.138 140.059L195.056 142.993ZM216.336 112.78L221.377 111.313L222.809 116.233L217.768 117.701L216.336 112.78Z" fill="white"/>
<path d="M209.864 109.326L214.161 124.088L229.283 119.687L224.987 104.924L209.864 109.326ZM223.182 108.118L226.047 117.96L215.965 120.894L213.101 111.053L223.182 108.118ZM205.54 113.254L204.823 110.793L207.344 110.06L208.776 114.98L206.256 115.714L207.688 120.635L205.168 121.368L203.019 113.987L205.54 113.254ZM209.12 125.556L207.688 120.635L210.208 119.901L211.641 124.822L209.12 125.556ZM205.512 131.944L204.796 129.483L207.316 128.75L206.6 126.289L209.12 125.556L210.552 130.476L213.073 129.743L212.357 127.282L224.959 123.614L225.675 126.075L215.593 129.009L216.309 131.47L208.748 133.67L208.032 131.21L205.512 131.944ZM205.512 131.944L206.228 134.404L196.146 137.338L195.43 134.878L192.91 135.612L193.626 138.072L191.105 138.806L189.673 133.885L197.234 131.684L197.95 134.144L205.512 131.944ZM231.432 127.068L228.911 127.802L227.479 122.881L230 122.147L231.432 127.068ZM228.911 127.802L226.391 128.535L227.823 133.456L232.864 131.989L232.148 129.528L229.628 130.262L228.911 127.802ZM218.83 130.736L223.871 129.269L224.587 131.729L222.066 132.463L222.783 134.923L220.262 135.657L218.83 130.736ZM226.019 136.65L225.303 134.19L222.783 134.923L223.499 137.384L220.978 138.117L221.694 140.578L216.654 142.045L217.37 144.505L224.931 142.304L223.499 137.384L226.019 136.65ZM226.019 136.65L233.58 134.449L234.296 136.91L229.256 138.377L229.972 140.837L227.451 141.571L226.019 136.65ZM215.221 137.124L215.937 139.584L218.458 138.851L217.026 133.93L209.464 136.131L210.18 138.591L215.221 137.124Z" fill="white"/>
<path d="M210.896 141.052L213.416 140.318L215.564 147.699L225.646 144.765L226.362 147.225L213.76 150.893L210.896 141.052ZM235.011 139.37L236.444 144.291L228.882 146.492L228.166 144.031L233.207 142.564L232.491 140.104L235.011 139.37Z" fill="white"/>
<path d="M180.426 100.889C179.55 97.2544 181.685 93.5733 185.275 92.5285L211.514 84.8911C215.35 83.7747 219.34 86.0892 220.276 89.9728V89.9728C221.152 93.6074 219.017 97.2885 215.427 98.3333L189.188 105.971C185.352 107.087 181.361 104.773 180.426 100.889V100.889Z" fill="white"/>
<path d="M190.226 108.658C189.722 109.297 188.707 109.099 188.48 108.319L187.626 105.384L194.347 103.427L190.226 108.658Z" fill="white"/>
</svg>
