<svg width="100" height="100" viewBox="0 0 100 100" fill="none" xmlns="http://www.w3.org/2000/svg">
<path d="M0 13.5135C0 6.0502 6.05021 0 13.5135 0H86.4865C93.9498 0 100 6.05021 100 13.5135V86.4865C100 93.9498 93.9498 100 86.4865 100H13.5135C6.0502 100 0 93.9498 0 86.4865V13.5135Z" fill="#F9FAFC"/>
<path d="M9.24609 55.1351V42.754H12.9434L12.7974 45.3081C13.3164 44.3513 13.965 43.654 14.7434 43.2162C15.5218 42.7784 16.3488 42.5594 17.2245 42.5594C18.0839 42.5594 18.8542 42.7784 19.5353 43.2162C20.2164 43.6378 20.7353 44.327 21.092 45.2838C21.6434 44.3594 22.3407 43.6784 23.1839 43.2405C24.0434 42.7865 24.911 42.5594 25.7866 42.5594C27.2461 42.5594 28.3407 43.0621 29.0704 44.0676C29.8001 45.0567 30.1569 46.4838 30.1407 48.3486L30.092 55.1351H26.3704L26.4191 48.4216C26.4191 47.6757 26.2812 47.0919 26.0056 46.6703C25.7299 46.2324 25.3083 46.0135 24.7407 46.0135C24.3029 46.0135 23.8893 46.1513 23.5001 46.427C23.1272 46.7027 22.7947 47.1811 22.5029 47.8621C22.211 48.5432 21.9758 49.4757 21.7974 50.6594C21.6353 51.8432 21.538 53.3351 21.5056 55.1351H17.8083V48.4216C17.8083 47.6757 17.6785 47.0919 17.4191 46.6703C17.1596 46.2324 16.7461 46.0135 16.1785 46.0135C15.7407 46.0135 15.3272 46.1513 14.938 46.427C14.565 46.7027 14.2326 47.1811 13.9407 47.8621C13.6488 48.5432 13.4137 49.4757 13.2353 50.6594C13.0569 51.8432 12.9596 53.3351 12.9434 55.1351H9.24609Z" fill="#8000FF"/>
<path d="M36.5082 42.754V55.1351H32.7865V42.754H36.5082ZM34.6352 41.2946C33.9217 41.2946 33.3541 41.0757 32.9325 40.6378C32.5109 40.2 32.3 39.6811 32.3 39.0811C32.3 38.4811 32.5027 37.9621 32.9081 37.5243C33.3298 37.0865 33.9054 36.8676 34.6352 36.8676C35.3487 36.8676 35.9163 37.0865 36.3379 37.5243C36.7595 37.9621 36.9703 38.4811 36.9703 39.0811C36.9703 39.6811 36.7595 40.2 36.3379 40.6378C35.9163 41.0757 35.3487 41.2946 34.6352 41.2946Z" fill="#8000FF"/>
<path d="M45.0103 55.3784C43.7292 55.3784 42.6184 55.1351 41.6778 54.6486C40.7373 54.1459 40.0076 53.4324 39.4886 52.5081C38.9697 51.5838 38.7103 50.4811 38.7103 49.2C38.7103 47.8865 38.9859 46.7351 39.5373 45.7459C40.1049 44.7405 40.8832 43.9621 41.8724 43.4108C42.8616 42.8432 44.013 42.5594 45.3265 42.5594C46.3967 42.5594 47.3454 42.7703 48.1724 43.1919C48.9994 43.6135 49.6643 44.2703 50.167 45.1621L47.54 47.1567C47.2805 46.6865 46.9724 46.3459 46.6157 46.1351C46.2751 45.9243 45.8454 45.8189 45.3265 45.8189C44.5319 45.8189 43.8751 46.127 43.3562 46.7432C42.8373 47.3432 42.5778 48.1378 42.5778 49.127C42.5778 50.0838 42.8049 50.8216 43.2589 51.3405C43.7292 51.8594 44.4022 52.1189 45.2778 52.1189C45.7481 52.1189 46.1778 52.0135 46.567 51.8027C46.9724 51.5757 47.313 51.227 47.5886 50.7567L50.1427 52.8C49.5913 53.7405 48.8616 54.4054 47.9535 54.7946C47.0616 55.1838 46.0805 55.3784 45.0103 55.3784Z" fill="#8000FF"/>
<path d="M51.4336 55.1351V42.754H55.1309L54.9849 45.3081C55.5039 44.3513 56.1525 43.654 56.9309 43.2162C57.7093 42.7784 58.5363 42.5594 59.412 42.5594C60.2714 42.5594 61.0417 42.7784 61.7228 43.2162C62.4039 43.6378 62.9228 44.327 63.2795 45.2838C63.8309 44.3594 64.5282 43.6784 65.3714 43.2405C66.2309 42.7865 67.0985 42.5594 67.9741 42.5594C69.4336 42.5594 70.5282 43.0621 71.2579 44.0676C71.9876 45.0567 72.3444 46.4838 72.3282 48.3486L72.2795 55.1351H68.5579L68.6066 48.4216C68.6066 47.6757 68.4687 47.0919 68.193 46.6703C67.9174 46.2324 67.4958 46.0135 66.9282 46.0135C66.4903 46.0135 66.0768 46.1513 65.6876 46.427C65.3147 46.7027 64.9822 47.1811 64.6903 47.8621C64.3985 48.5432 64.1633 49.4757 63.9849 50.6594C63.8228 51.8432 63.7255 53.3351 63.6931 55.1351H59.9958V48.4216C59.9958 47.6757 59.866 47.0919 59.6066 46.6703C59.3471 46.2324 58.9336 46.0135 58.366 46.0135C57.9282 46.0135 57.5147 46.1513 57.1255 46.427C56.7525 46.7027 56.4201 47.1811 56.1282 47.8621C55.8363 48.5432 55.6012 49.4757 55.4228 50.6594C55.2444 51.8432 55.1471 53.3351 55.1309 55.1351H51.4336Z" fill="#8000FF"/>
<path d="M78.6956 42.754V55.1351H74.974V42.754H78.6956ZM76.8227 41.2946C76.1092 41.2946 75.5416 41.0757 75.12 40.6378C74.6983 40.2 74.4875 39.6811 74.4875 39.0811C74.4875 38.4811 74.6902 37.9621 75.0956 37.5243C75.5173 37.0865 76.0929 36.8676 76.8227 36.8676C77.5362 36.8676 78.1038 37.0865 78.5254 37.5243C78.947 37.9621 79.1578 38.4811 79.1578 39.0811C79.1578 39.6811 78.947 40.2 78.5254 40.6378C78.1038 41.0757 77.5362 41.2946 76.8227 41.2946Z" fill="#8000FF"/>
<path d="M87.1978 55.3784C85.9167 55.3784 84.8059 55.1351 83.8653 54.6486C82.9248 54.1459 82.1951 53.4324 81.6761 52.5081C81.1572 51.5838 80.8978 50.4811 80.8978 49.2C80.8978 47.8865 81.1734 46.7351 81.7248 45.7459C82.2924 44.7405 83.0707 43.9621 84.0599 43.4108C85.0491 42.8432 86.2005 42.5594 87.514 42.5594C88.5842 42.5594 89.5329 42.7703 90.3599 43.1919C91.187 43.6135 91.8518 44.2703 92.3545 45.1621L89.7275 47.1567C89.468 46.6865 89.1599 46.3459 88.8032 46.1351C88.4626 45.9243 88.0329 45.8189 87.514 45.8189C86.7194 45.8189 86.0626 46.127 85.5437 46.7432C85.0248 47.3432 84.7653 48.1378 84.7653 49.127C84.7653 50.0838 84.9924 50.8216 85.4464 51.3405C85.9167 51.8594 86.5896 52.1189 87.4653 52.1189C87.9356 52.1189 88.3653 52.0135 88.7545 51.8027C89.1599 51.5757 89.5005 51.227 89.7761 50.7567L92.3302 52.8C91.7788 53.7405 91.0491 54.4054 90.141 54.7946C89.2491 55.1838 88.268 55.3784 87.1978 55.3784Z" fill="#8000FF"/>
<path d="M44.925 73.5665V63.5424H45.989L46.101 64.6904C46.325 64.3544 46.6424 64.0511 47.053 63.7804C47.473 63.5098 48.005 63.3744 48.649 63.3744C49.3397 63.3744 49.9417 63.5331 50.455 63.8504C50.9684 64.1678 51.365 64.6018 51.645 65.1525C51.9344 65.7031 52.079 66.3284 52.079 67.0285C52.079 67.7285 51.9344 68.3538 51.645 68.9045C51.365 69.4458 50.9637 69.8751 50.441 70.1925C49.9277 70.5005 49.3257 70.6545 48.635 70.6545C48.0657 70.6545 47.557 70.5378 47.109 70.3045C46.6704 70.0711 46.3344 69.7445 46.101 69.3245V73.5665H44.925ZM48.509 69.6325C48.9757 69.6325 49.3864 69.5251 49.741 69.3105C50.0957 69.0865 50.3757 68.7785 50.581 68.3865C50.7864 67.9945 50.889 67.5371 50.889 67.0145C50.889 66.4918 50.7864 66.0344 50.581 65.6424C50.3757 65.2505 50.0957 64.9471 49.741 64.7325C49.3864 64.5084 48.9757 64.3964 48.509 64.3964C48.0424 64.3964 47.6317 64.5084 47.277 64.7325C46.9224 64.9471 46.6424 65.2505 46.437 65.6424C46.2317 66.0344 46.129 66.4918 46.129 67.0145C46.129 67.5371 46.2317 67.9945 46.437 68.3865C46.6424 68.7785 46.9224 69.0865 47.277 69.3105C47.6317 69.5251 48.0424 69.6325 48.509 69.6325ZM56.0261 70.6545C55.4474 70.6545 54.9667 70.5565 54.5841 70.3605C54.2014 70.1645 53.9167 69.9031 53.7301 69.5765C53.5434 69.2498 53.4501 68.8951 53.4501 68.5125C53.4501 67.8031 53.7207 67.2571 54.2621 66.8744C54.8034 66.4918 55.5407 66.3004 56.4741 66.3004H58.3501V66.2165C58.3501 65.6098 58.1914 65.1525 57.8741 64.8444C57.5567 64.5271 57.1321 64.3685 56.6001 64.3685C56.1427 64.3685 55.7461 64.4851 55.4101 64.7184C55.0834 64.9424 54.8781 65.2738 54.7941 65.7124H53.5901C53.6367 65.2084 53.8047 64.7838 54.0941 64.4385C54.3927 64.0931 54.7614 63.8318 55.2001 63.6544C55.6387 63.4678 56.1054 63.3744 56.6001 63.3744C57.5707 63.3744 58.2987 63.6358 58.7841 64.1584C59.2787 64.6718 59.5261 65.3578 59.5261 66.2165V70.4865H58.4761L58.4061 69.2405C58.2101 69.6325 57.9207 69.9685 57.5381 70.2485C57.1647 70.5191 56.6607 70.6545 56.0261 70.6545ZM56.2081 69.6605C56.6561 69.6605 57.0387 69.5438 57.3561 69.3105C57.6827 69.0771 57.9301 68.7738 58.0981 68.4005C58.2661 68.0271 58.3501 67.6351 58.3501 67.2245V67.2105H56.5721C55.8814 67.2105 55.3914 67.3318 55.1021 67.5745C54.8221 67.8078 54.6821 68.1018 54.6821 68.4565C54.6821 68.8205 54.8127 69.1145 55.0741 69.3385C55.3447 69.5531 55.7227 69.6605 56.2081 69.6605ZM61.2903 70.4865V63.5424H62.3543L62.4523 64.8724C62.6669 64.4151 62.9936 64.0511 63.4323 63.7804C63.8709 63.5098 64.4123 63.3744 65.0563 63.3744V64.6064H64.7343C64.3236 64.6064 63.9456 64.6811 63.6003 64.8304C63.2549 64.9704 62.9796 65.2131 62.7743 65.5584C62.5689 65.9038 62.4663 66.3798 62.4663 66.9865V70.4865H61.2903ZM69.1202 70.4865C68.4855 70.4865 67.9862 70.3325 67.6222 70.0245C67.2582 69.7165 67.0762 69.1611 67.0762 68.3585V64.5365H65.8722V63.5424H67.0762L67.2302 61.8765H68.2522V63.5424H70.2962V64.5365H68.2522V68.3585C68.2522 68.7971 68.3409 69.0958 68.5182 69.2545C68.6955 69.4038 69.0082 69.4785 69.4562 69.4785H70.1842V70.4865H69.1202ZM71.7903 70.4865V63.5424H72.8543L72.9243 64.7885C73.1483 64.3498 73.4703 64.0044 73.8903 63.7524C74.3103 63.5004 74.7863 63.3744 75.3183 63.3744C76.1396 63.3744 76.7929 63.6264 77.2783 64.1304C77.7729 64.6251 78.0203 65.3904 78.0203 66.4264V70.4865H76.8443V66.5524C76.8443 65.1058 76.2469 64.3824 75.0523 64.3824C74.4549 64.3824 73.9556 64.6018 73.5543 65.0404C73.1623 65.4698 72.9663 66.0858 72.9663 66.8885V70.4865H71.7903ZM82.924 70.6545C82.2613 70.6545 81.6733 70.5051 81.16 70.2065C80.6467 69.8985 80.2407 69.4738 79.942 68.9325C79.6527 68.3911 79.508 67.7518 79.508 67.0145C79.508 66.2865 79.6527 65.6518 79.942 65.1105C80.2313 64.5598 80.6327 64.1351 81.146 63.8364C81.6687 63.5284 82.2707 63.3744 82.952 63.3744C83.624 63.3744 84.2027 63.5284 84.688 63.8364C85.1827 64.1351 85.5607 64.5318 85.822 65.0264C86.0833 65.5211 86.214 66.0531 86.214 66.6224C86.214 66.7251 86.2093 66.8278 86.2 66.9305C86.2 67.0331 86.2 67.1498 86.2 67.2804H80.67C80.698 67.8125 80.8193 68.2558 81.034 68.6105C81.258 68.9558 81.5333 69.2171 81.86 69.3945C82.196 69.5718 82.5507 69.6605 82.924 69.6605C83.4093 69.6605 83.8153 69.5485 84.142 69.3245C84.4687 69.1005 84.7067 68.7971 84.856 68.4145H86.018C85.8313 69.0585 85.472 69.5951 84.94 70.0245C84.4173 70.4445 83.7453 70.6545 82.924 70.6545ZM82.924 64.3685C82.364 64.3685 81.8647 64.5411 81.426 64.8865C80.9967 65.2224 80.7493 65.7171 80.684 66.3705H85.052C85.024 65.7451 84.8093 65.2551 84.408 64.9004C84.0067 64.5458 83.512 64.3685 82.924 64.3685ZM87.7727 70.4865V63.5424H88.8367L88.9347 64.8724C89.1494 64.4151 89.476 64.0511 89.9147 63.7804C90.3534 63.5098 90.8947 63.3744 91.5387 63.3744V64.6064H91.2167C90.806 64.6064 90.428 64.6811 90.0827 64.8304C89.7374 64.9704 89.462 65.2131 89.2567 65.5584C89.0514 65.9038 88.9487 66.3798 88.9487 66.9865V70.4865H87.7727Z" fill="#1A1A1A"/>
</svg>
