<svg width="178" height="82" viewBox="0 0 178 82" fill="none" xmlns="http://www.w3.org/2000/svg">
<path d="M1.45294 31.6108C2.19598 15.0468 15.8412 2 32.4218 2H145.578C163.244 2 177.339 16.7409 176.547 34.3892V34.3892C175.804 50.9532 162.159 64 145.578 64H32.4218C14.7557 64 0.661259 49.2591 1.45294 31.6108V31.6108Z" fill="white"/>
<path d="M29.5551 79.2395C27.5557 80.4512 25.0002 79.0117 25.0001 76.6739L25 62L58 62L29.5551 79.2395Z" fill="white"/>
<path d="M28.58 53V48.05H40.73C41.57 48.05 41.99 47.6 41.99 46.7V41.075H41.18C40.94 41.585 40.565 42.095 40.055 42.605C39.545 43.115 38.855 43.535 37.985 43.865C37.115 44.195 36.005 44.36 34.655 44.36C32.915 44.36 31.385 43.97 30.065 43.19C28.775 42.38 27.77 41.27 27.05 39.86C26.33 38.45 25.97 36.83 25.97 35V21.68H31.64V34.55C31.64 36.23 32.045 37.49 32.855 38.33C33.695 39.17 34.88 39.59 36.41 39.59C38.15 39.59 39.5 39.02 40.46 37.88C41.42 36.71 41.9 35.09 41.9 33.02V21.68H47.57V47.96C47.57 49.49 47.12 50.705 46.22 51.605C45.32 52.535 44.12 53 42.62 53H28.58ZM64.0495 44.63C61.8295 44.63 59.8645 44.165 58.1545 43.235C56.4745 42.275 55.1545 40.94 54.1945 39.23C53.2645 37.49 52.7995 35.45 52.7995 33.11V32.57C52.7995 30.23 53.2645 28.205 54.1945 26.495C55.1245 24.755 56.4295 23.42 58.1095 22.49C59.7895 21.53 61.7395 21.05 63.9595 21.05C66.1495 21.05 68.0545 21.545 69.6745 22.535C71.2945 23.495 72.5545 24.845 73.4545 26.585C74.3545 28.295 74.8045 30.29 74.8045 32.57V34.505H58.5595C58.6195 36.035 59.1895 37.28 60.2695 38.24C61.3495 39.2 62.6695 39.68 64.2295 39.68C65.8195 39.68 66.9895 39.335 67.7395 38.645C68.4895 37.955 69.0595 37.19 69.4495 36.35L74.0845 38.78C73.6645 39.56 73.0495 40.415 72.2395 41.345C71.4595 42.245 70.4095 43.025 69.0895 43.685C67.7695 44.315 66.0895 44.63 64.0495 44.63ZM58.6045 30.275H69.0445C68.9245 28.985 68.3995 27.95 67.4695 27.17C66.5695 26.39 65.3845 26 63.9145 26C62.3845 26 61.1695 26.39 60.2695 27.17C59.3695 27.95 58.8145 28.985 58.6045 30.275ZM79.8512 44V21.68H85.4312V24.605H86.2412C86.6012 23.825 87.2762 23.09 88.2662 22.4C89.2562 21.68 90.7562 21.32 92.7662 21.32C94.5062 21.32 96.0212 21.725 97.3112 22.535C98.6312 23.315 99.6512 24.41 100.371 25.82C101.091 27.2 101.451 28.82 101.451 30.68V44H95.7812V31.13C95.7812 29.45 95.3612 28.19 94.5212 27.35C93.7112 26.51 92.5412 26.09 91.0112 26.09C89.2712 26.09 87.9212 26.675 86.9612 27.845C86.0012 28.985 85.5212 30.59 85.5212 32.66V44H79.8512ZM116.581 44.63C114.811 44.63 113.146 44.195 111.586 43.325C110.056 42.425 108.826 41.12 107.896 39.41C106.966 37.7 106.501 35.63 106.501 33.2V32.48C106.501 30.05 106.966 27.98 107.896 26.27C108.826 24.56 110.056 23.27 111.586 22.4C113.116 21.5 114.781 21.05 116.581 21.05C117.931 21.05 119.056 21.215 119.956 21.545C120.886 21.845 121.636 22.235 122.206 22.715C122.776 23.195 123.211 23.705 123.511 24.245H124.321V12.5H129.991V44H124.411V41.3H123.601C123.091 42.14 122.296 42.905 121.216 43.595C120.166 44.285 118.621 44.63 116.581 44.63ZM118.291 39.68C120.031 39.68 121.486 39.125 122.656 38.015C123.826 36.875 124.411 35.225 124.411 33.065V32.615C124.411 30.455 123.826 28.82 122.656 27.71C121.516 26.57 120.061 26 118.291 26C116.551 26 115.096 26.57 113.926 27.71C112.756 28.82 112.171 30.455 112.171 32.615V33.065C112.171 35.225 112.756 36.875 113.926 38.015C115.096 39.125 116.551 39.68 118.291 39.68ZM146.897 44.63C144.677 44.63 142.682 44.18 140.912 43.28C139.142 42.38 137.747 41.075 136.727 39.365C135.707 37.655 135.197 35.6 135.197 33.2V32.48C135.197 30.08 135.707 28.025 136.727 26.315C137.747 24.605 139.142 23.3 140.912 22.4C142.682 21.5 144.677 21.05 146.897 21.05C149.117 21.05 151.112 21.5 152.882 22.4C154.652 23.3 156.047 24.605 157.067 26.315C158.087 28.025 158.597 30.08 158.597 32.48V33.2C158.597 35.6 158.087 37.655 157.067 39.365C156.047 41.075 154.652 42.38 152.882 43.28C151.112 44.18 149.117 44.63 146.897 44.63ZM146.897 39.59C148.637 39.59 150.077 39.035 151.217 37.925C152.357 36.785 152.927 35.165 152.927 33.065V32.615C152.927 30.515 152.357 28.91 151.217 27.8C150.107 26.66 148.667 26.09 146.897 26.09C145.157 26.09 143.717 26.66 142.577 27.8C141.437 28.91 140.867 30.515 140.867 32.615V33.065C140.867 35.165 141.437 36.785 142.577 37.925C143.717 39.035 145.157 39.59 146.897 39.59Z" fill="#407BFF"/>
</svg>
