<svg width="178" height="82" viewBox="0 0 178 82" fill="none" xmlns="http://www.w3.org/2000/svg">
<path d="M1.45294 31.6108C2.19598 15.0468 15.8412 2 32.4218 2H145.578C163.244 2 177.339 16.7409 176.547 34.3892V34.3892C175.804 50.9532 162.159 64 145.578 64H32.4218C14.7557 64 0.661259 49.2591 1.45294 31.6108V31.6108Z" fill="#407BFF"/>
<path d="M29.5551 79.2395C27.5557 80.4512 25.0002 79.0117 25.0001 76.6739L25 62L58 62L29.5551 79.2395Z" fill="#407BFF"/>
<path d="M44.79 20.925C45.57 20.925 46.215 21.195 46.725 21.735C47.235 22.245 47.49 22.89 47.49 23.67V42.795C47.49 45.555 46.965 47.745 45.915 49.365C44.895 51.015 43.515 52.2 41.775 52.92C40.035 53.64 38.085 54 35.925 54C34.965 54 33.945 53.925 32.865 53.775C31.785 53.625 30.9 53.4 30.21 53.1C29.31 52.71 28.68 52.215 28.32 51.615C27.99 51.045 27.93 50.43 28.14 49.77C28.41 48.9 28.845 48.3 29.445 47.97C30.045 47.67 30.675 47.64 31.335 47.88C31.815 48.03 32.445 48.255 33.225 48.555C34.005 48.885 34.905 49.05 35.925 49.05C37.305 49.05 38.445 48.855 39.345 48.465C40.275 48.105 40.965 47.475 41.415 46.575C41.895 45.705 42.135 44.505 42.135 42.975V39.96L43.08 41.04C42.57 42.03 41.925 42.855 41.145 43.515C40.395 44.145 39.495 44.625 38.445 44.955C37.395 45.285 36.195 45.45 34.845 45.45C33.255 45.45 31.86 45.09 30.66 44.37C29.49 43.62 28.575 42.6 27.915 41.31C27.255 39.99 26.925 38.49 26.925 36.81V23.67C26.925 22.89 27.18 22.245 27.69 21.735C28.2 21.195 28.845 20.925 29.625 20.925C30.405 20.925 31.05 21.195 31.56 21.735C32.07 22.245 32.325 22.89 32.325 23.67V35.19C32.325 37.14 32.745 38.52 33.585 39.33C34.455 40.11 35.655 40.5 37.185 40.5C38.235 40.5 39.12 40.305 39.84 39.915C40.56 39.495 41.115 38.895 41.505 38.115C41.895 37.305 42.09 36.33 42.09 35.19V23.67C42.09 22.89 42.345 22.245 42.855 21.735C43.365 21.195 44.01 20.925 44.79 20.925ZM64.4564 45.45C61.9064 45.45 59.6864 44.925 57.7964 43.875C55.9364 42.795 54.4964 41.34 53.4764 39.51C52.4864 37.68 51.9914 35.61 51.9914 33.3C51.9914 30.6 52.5314 28.305 53.6114 26.415C54.7214 24.495 56.1614 23.025 57.9314 22.005C59.7014 20.985 61.5764 20.475 63.5564 20.475C65.0864 20.475 66.5264 20.79 67.8764 21.42C69.2564 22.05 70.4714 22.92 71.5214 24.03C72.5714 25.11 73.3964 26.37 73.9964 27.81C74.6264 29.25 74.9414 30.78 74.9414 32.4C74.9114 33.12 74.6264 33.705 74.0864 34.155C73.5464 34.605 72.9164 34.83 72.1964 34.83H55.0064L53.6564 30.33H70.1714L69.1814 31.23V30.015C69.1214 29.145 68.8064 28.365 68.2364 27.675C67.6964 26.985 67.0064 26.445 66.1664 26.055C65.3564 25.635 64.4864 25.425 63.5564 25.425C62.6564 25.425 61.8164 25.545 61.0364 25.785C60.2564 26.025 59.5814 26.43 59.0114 27C58.4414 27.57 57.9914 28.335 57.6614 29.295C57.3314 30.255 57.1664 31.47 57.1664 32.94C57.1664 34.56 57.4964 35.94 58.1564 37.08C58.8464 38.19 59.7164 39.045 60.7664 39.645C61.8464 40.215 62.9864 40.5 64.1864 40.5C65.2964 40.5 66.1814 40.41 66.8414 40.23C67.5014 40.05 68.0264 39.84 68.4164 39.6C68.8364 39.33 69.2114 39.105 69.5414 38.925C70.0814 38.655 70.5914 38.52 71.0714 38.52C71.7314 38.52 72.2714 38.745 72.6914 39.195C73.1414 39.645 73.3664 40.17 73.3664 40.77C73.3664 41.58 72.9464 42.315 72.1064 42.975C71.3264 43.635 70.2314 44.22 68.8214 44.73C67.4114 45.21 65.9564 45.45 64.4564 45.45ZM92.5294 20.475C94.7494 20.475 96.4294 20.94 97.5694 21.87C98.7394 22.8 99.5344 24.045 99.9544 25.605C100.404 27.135 100.629 28.845 100.629 30.735V42.255C100.629 43.035 100.374 43.695 99.8644 44.235C99.3544 44.745 98.7094 45 97.9294 45C97.1494 45 96.5044 44.745 95.9944 44.235C95.4844 43.695 95.2294 43.035 95.2294 42.255V30.735C95.2294 29.745 95.0944 28.86 94.8244 28.08C94.5844 27.27 94.1344 26.625 93.4744 26.145C92.8144 25.665 91.8694 25.425 90.6394 25.425C89.4394 25.425 88.4194 25.665 87.5794 26.145C86.7694 26.625 86.1394 27.27 85.6894 28.08C85.2694 28.86 85.0594 29.745 85.0594 30.735V42.255C85.0594 43.035 84.8044 43.695 84.2944 44.235C83.7844 44.745 83.1394 45 82.3594 45C81.5794 45 80.9344 44.745 80.4244 44.235C79.9144 43.695 79.6594 43.035 79.6594 42.255V23.67C79.6594 22.89 79.9144 22.245 80.4244 21.735C80.9344 21.195 81.5794 20.925 82.3594 20.925C83.1394 20.925 83.7844 21.195 84.2944 21.735C84.8044 22.245 85.0594 22.89 85.0594 23.67V25.605L84.3844 25.47C84.6544 24.96 85.0444 24.42 85.5544 23.85C86.0644 23.25 86.6644 22.695 87.3544 22.185C88.0444 21.675 88.8244 21.27 89.6944 20.97C90.5644 20.64 91.5094 20.475 92.5294 20.475ZM126.176 11.7C126.956 11.7 127.601 11.955 128.111 12.465C128.621 12.975 128.876 13.635 128.876 14.445V42.255C128.876 43.035 128.621 43.695 128.111 44.235C127.601 44.745 126.956 45 126.176 45C125.396 45 124.751 44.745 124.241 44.235C123.731 43.695 123.476 43.035 123.476 42.255V40.05L124.466 40.455C124.466 40.845 124.256 41.325 123.836 41.895C123.416 42.435 122.846 42.975 122.126 43.515C121.406 44.055 120.551 44.52 119.561 44.91C118.601 45.27 117.551 45.45 116.411 45.45C114.341 45.45 112.466 44.925 110.786 43.875C109.106 42.795 107.771 41.325 106.781 39.465C105.821 37.575 105.341 35.415 105.341 32.985C105.341 30.525 105.821 28.365 106.781 26.505C107.771 24.615 109.091 23.145 110.741 22.095C112.391 21.015 114.221 20.475 116.231 20.475C117.521 20.475 118.706 20.67 119.786 21.06C120.866 21.45 121.796 21.945 122.576 22.545C123.386 23.145 124.001 23.76 124.421 24.39C124.871 24.99 125.096 25.5 125.096 25.92L123.476 26.505V14.445C123.476 13.665 123.731 13.02 124.241 12.51C124.751 11.97 125.396 11.7 126.176 11.7ZM117.086 40.5C118.406 40.5 119.561 40.17 120.551 39.51C121.541 38.85 122.306 37.95 122.846 36.81C123.416 35.67 123.701 34.395 123.701 32.985C123.701 31.545 123.416 30.255 122.846 29.115C122.306 27.975 121.541 27.075 120.551 26.415C119.561 25.755 118.406 25.425 117.086 25.425C115.796 25.425 114.656 25.755 113.666 26.415C112.676 27.075 111.896 27.975 111.326 29.115C110.786 30.255 110.516 31.545 110.516 32.985C110.516 34.395 110.786 35.67 111.326 36.81C111.896 37.95 112.676 38.85 113.666 39.51C114.656 40.17 115.796 40.5 117.086 40.5ZM158.078 32.985C158.078 35.445 157.523 37.62 156.413 39.51C155.333 41.37 153.863 42.825 152.003 43.875C150.173 44.925 148.118 45.45 145.838 45.45C143.558 45.45 141.488 44.925 139.628 43.875C137.798 42.825 136.328 41.37 135.218 39.51C134.138 37.62 133.598 35.445 133.598 32.985C133.598 30.525 134.138 28.365 135.218 26.505C136.328 24.615 137.798 23.145 139.628 22.095C141.488 21.015 143.558 20.475 145.838 20.475C148.118 20.475 150.173 21.015 152.003 22.095C153.863 23.145 155.333 24.615 156.413 26.505C157.523 28.365 158.078 30.525 158.078 32.985ZM152.678 32.985C152.678 31.455 152.363 30.135 151.733 29.025C151.133 27.885 150.308 27 149.258 26.37C148.238 25.74 147.098 25.425 145.838 25.425C144.578 25.425 143.423 25.74 142.373 26.37C141.353 27 140.528 27.885 139.898 29.025C139.298 30.135 138.998 31.455 138.998 32.985C138.998 34.485 139.298 35.805 139.898 36.945C140.528 38.055 141.353 38.925 142.373 39.555C143.423 40.185 144.578 40.5 145.838 40.5C147.098 40.5 148.238 40.185 149.258 39.555C150.308 38.925 151.133 38.055 151.733 36.945C152.363 35.805 152.678 34.485 152.678 32.985Z" fill="white"/>
</svg>
