<svg width="263" height="218" viewBox="0 0 263 218" fill="none" xmlns="http://www.w3.org/2000/svg">
<path d="M131.156 217.344C203.591 217.344 262.311 211.072 262.311 203.335C262.311 195.597 203.591 189.325 131.156 189.325C58.7204 189.325 0 195.597 0 203.335C0 211.072 58.7204 217.344 131.156 217.344Z" fill="#F5F5F5"/>
<path d="M240.047 18.262C237.978 36.0688 227.424 48.1125 219.716 54.7034C219.592 36.2861 219.25 22.6801 218.547 17.2791C216.643 2.57634 210.207 0 202.871 0C195.349 0 189.296 7.53244 189.42 16.71C189.131 29.9539 189.545 61.3667 190.196 98.9875C185.827 92.3793 183.113 84.8168 182.281 76.9386C180.367 58.3144 160.698 61.6874 162.001 80.9738C163.036 96.6906 170.569 118.76 190.703 127.007C191.138 150.37 191.614 174.871 192.038 198.11H218.94C219.25 157.354 219.747 110.979 219.757 75.0658C249.504 70.9271 259.209 42.4838 261.993 23.1354C264.993 2.35906 242.427 -1.9452 240.047 18.262Z" fill="#039768"/>
<path opacity="0.2" d="M240.047 18.262C237.978 36.0688 227.424 48.1125 219.716 54.7034C219.592 36.2861 219.25 22.6801 218.547 17.2791C216.643 2.57634 210.207 0 202.871 0C195.349 0 189.296 7.53244 189.42 16.71C189.131 29.9539 189.545 61.3667 190.196 98.9875C185.827 92.3793 183.113 84.8168 182.281 76.9386C180.367 58.3144 160.698 61.6874 162.001 80.9738C163.036 96.6906 170.569 118.76 190.703 127.007C191.138 150.37 191.614 174.871 192.038 198.11H218.94C219.25 157.354 219.747 110.979 219.757 75.0658C249.504 70.9271 259.209 42.4838 261.993 23.1354C264.993 2.35906 242.427 -1.9452 240.047 18.262Z" fill="white"/>
<path d="M212.928 74.9209C214.335 77.8697 218.101 80.4357 219.757 81.4911C219.757 79.3045 219.757 77.1627 219.757 75.0657C217.48 75.207 215.196 75.1585 212.928 74.9209Z" fill="#257D61"/>
<path d="M190.703 127.006C190.765 130.159 190.827 133.335 190.889 136.536C192.141 135.315 197.097 130.617 198.68 127.224C196.042 127.784 193.307 127.71 190.703 127.006Z" fill="#257D61"/>
<path d="M192.855 17.2169C192.738 17.2155 192.625 17.1754 192.534 17.1031L190.185 15.2303C190.08 15.1417 190.013 15.0161 189.998 14.8795C189.982 14.7429 190.02 14.6056 190.102 14.4957C190.191 14.39 190.317 14.3232 190.455 14.3097C190.592 14.2961 190.729 14.3369 190.837 14.4233L193.175 16.2961C193.229 16.3375 193.274 16.3893 193.308 16.4485C193.341 16.5077 193.363 16.5731 193.37 16.6407C193.378 16.7082 193.372 16.7767 193.353 16.8419C193.333 16.9071 193.301 16.9678 193.258 17.0203C193.209 17.0802 193.147 17.1288 193.078 17.1627C193.008 17.1967 192.932 17.2151 192.855 17.2169Z" fill="#257D61"/>
<path d="M211.562 5.10125C211.475 5.10043 211.39 5.07916 211.314 5.03917C211.194 4.97179 211.107 4.85989 211.07 4.72801C211.033 4.59612 211.05 4.45501 211.117 4.3356L212.317 2.19381C212.348 2.13074 212.392 2.07467 212.445 2.02903C212.499 1.98339 212.561 1.94914 212.628 1.92837C212.696 1.90759 212.766 1.90073 212.836 1.90821C212.906 1.91568 212.974 1.93735 213.035 1.97186C213.096 2.00637 213.15 2.05301 213.193 2.10893C213.235 2.16485 213.266 2.22889 213.283 2.29711C213.3 2.36533 213.303 2.4363 213.292 2.50571C213.28 2.57513 213.255 2.64151 213.217 2.70081L212.017 4.84258C211.971 4.9223 211.905 4.9883 211.825 5.03377C211.745 5.07924 211.654 5.10253 211.562 5.10125Z" fill="#257D61"/>
<path d="M201.681 14.7332C201.594 14.7452 201.505 14.7344 201.424 14.7017C201.342 14.6691 201.27 14.6157 201.215 14.547L200.181 13.0053C200.142 12.9493 200.115 12.8861 200.102 12.8195C200.088 12.7529 200.088 12.6843 200.102 12.6177C200.115 12.5511 200.142 12.4879 200.181 12.4318C200.219 12.3758 200.268 12.328 200.326 12.2914C200.44 12.2165 200.579 12.1897 200.712 12.2169C200.846 12.244 200.964 12.3229 201.04 12.4363L202.074 13.9779C202.149 14.092 202.176 14.231 202.149 14.3647C202.122 14.4984 202.043 14.616 201.929 14.6919C201.851 14.7267 201.766 14.741 201.681 14.7332Z" fill="#257D61"/>
<path d="M195.328 4.03523C195.201 4.03563 195.079 3.98751 194.987 3.90073L193.455 2.56599C193.371 2.47225 193.324 2.35083 193.322 2.22461C193.321 2.09838 193.366 1.97606 193.449 1.88067C193.531 1.78527 193.646 1.7234 193.771 1.7067C193.896 1.69 194.023 1.71961 194.128 1.78998L195.67 3.12472C195.772 3.21627 195.835 3.34429 195.845 3.48151C195.855 3.61874 195.81 3.7543 195.721 3.85933C195.672 3.91415 195.611 3.95808 195.543 3.98835C195.476 4.01862 195.402 4.03457 195.328 4.03523Z" fill="#257D61"/>
<path d="M214.863 24.7081C214.741 24.706 214.624 24.6621 214.532 24.5839C214.479 24.541 214.436 24.488 214.404 24.428C214.373 24.3681 214.353 24.3024 214.348 24.2349C214.342 24.1674 214.35 24.0994 214.371 24.0349C214.391 23.9705 214.425 23.9109 214.469 23.8596L215.877 22.1835C215.969 22.0961 216.09 22.0459 216.217 22.0422C216.344 22.0385 216.468 22.0817 216.565 22.1636C216.663 22.2455 216.726 22.3602 216.744 22.486C216.762 22.6118 216.733 22.7398 216.663 22.8457L215.266 24.5218C215.217 24.5809 215.155 24.6283 215.085 24.6605C215.016 24.6927 214.94 24.709 214.863 24.7081Z" fill="#257D61"/>
<path d="M202.25 36.9479C202.143 36.9487 202.038 36.9162 201.95 36.8548L200.543 35.8201C200.487 35.7809 200.439 35.731 200.403 35.6733C200.366 35.6156 200.341 35.5512 200.33 35.4839C200.318 35.4165 200.32 35.3476 200.335 35.281C200.351 35.2144 200.379 35.1515 200.419 35.0959C200.501 34.9867 200.623 34.9139 200.758 34.8926C200.893 34.8714 201.031 34.9035 201.143 34.9821L202.55 36.0167C202.658 36.0973 202.731 36.2171 202.752 36.3505C202.774 36.4839 202.742 36.6204 202.664 36.7307C202.618 36.7981 202.556 36.8531 202.484 36.891C202.412 36.9289 202.331 36.9485 202.25 36.9479Z" fill="#257D61"/>
<path d="M200.078 26.9637C199.966 26.9645 199.857 26.9281 199.767 26.8602L197.76 25.3186C197.702 25.2789 197.652 25.2278 197.614 25.1682C197.576 25.1086 197.551 25.0419 197.54 24.9721C197.529 24.9024 197.532 24.8311 197.549 24.7627C197.567 24.6942 197.598 24.6301 197.641 24.5742C197.684 24.5183 197.738 24.4718 197.8 24.4377C197.862 24.4035 197.93 24.3823 198 24.3755C198.071 24.3686 198.142 24.3763 198.209 24.3979C198.276 24.4195 198.338 24.4546 198.391 24.5012L200.399 26.0428C200.482 26.1097 200.543 26.2008 200.572 26.3035C200.602 26.4062 200.599 26.5156 200.563 26.6165C200.528 26.7175 200.463 26.8051 200.376 26.8672C200.289 26.9294 200.185 26.9631 200.078 26.9637Z" fill="#257D61"/>
<path d="M190.444 43.9743C190.372 43.9754 190.301 43.9613 190.235 43.9327C190.169 43.9042 190.11 43.8619 190.061 43.8088L187.847 41.3255C187.752 41.2288 187.699 41.0988 187.699 40.9634C187.699 40.828 187.752 40.698 187.847 40.6013C187.895 40.5528 187.952 40.5143 188.015 40.488C188.078 40.4618 188.146 40.4482 188.214 40.4482C188.283 40.4482 188.35 40.4618 188.413 40.488C188.476 40.5143 188.534 40.5528 188.582 40.6013L190.786 43.0742C190.856 43.1469 190.903 43.2389 190.92 43.3384C190.938 43.4379 190.925 43.5404 190.884 43.6327C190.843 43.725 190.775 43.8029 190.689 43.8564C190.604 43.9099 190.504 43.9365 190.403 43.9329L190.444 43.9743Z" fill="#257D61"/>
<path d="M218.216 42.7427C218.094 42.7444 217.976 42.7001 217.885 42.6186C217.78 42.5317 217.713 42.407 217.7 42.2714C217.686 42.1357 217.727 42.0002 217.813 41.8943L220.089 39.1835C220.132 39.1311 220.186 39.0879 220.246 39.0562C220.306 39.0245 220.372 39.005 220.44 38.9988C220.507 38.9925 220.576 38.9997 220.641 39.0198C220.706 39.04 220.766 39.0727 220.818 39.1162C220.871 39.1597 220.914 39.213 220.946 39.2732C220.977 39.3334 220.997 39.3993 221.003 39.467C221.009 39.5347 221.002 39.6031 220.982 39.668C220.962 39.733 220.929 39.7934 220.886 39.8457L218.609 42.5565C218.562 42.6148 218.502 42.6617 218.434 42.6939C218.366 42.7261 218.291 42.7428 218.216 42.7427Z" fill="#257D61"/>
<path d="M212.856 15.5821C212.739 15.586 212.624 15.5453 212.536 15.4682C212.483 15.4261 212.438 15.3736 212.406 15.3141C212.373 15.2545 212.353 15.189 212.346 15.1214C212.34 15.0539 212.346 14.9857 212.367 14.9208C212.387 14.856 212.42 14.7959 212.463 14.744L213.798 13.0988C213.885 12.9938 214.01 12.9273 214.145 12.9137C214.281 12.9001 214.416 12.9406 214.522 13.0264C214.576 13.0695 214.62 13.1229 214.653 13.1833C214.686 13.2438 214.706 13.3101 214.713 13.3785C214.719 13.4469 214.712 13.516 214.692 13.5816C214.672 13.6473 214.639 13.7083 214.595 13.761L213.26 15.3958C213.211 15.4549 213.149 15.5023 213.079 15.5345C213.009 15.5667 212.933 15.583 212.856 15.5821Z" fill="#257D61"/>
<path d="M225.013 50.8647C224.876 50.8647 224.745 50.8102 224.648 50.7132C224.551 50.6161 224.496 50.4846 224.496 50.3474V48.071C224.496 47.9338 224.551 47.8023 224.648 47.7052C224.745 47.6082 224.876 47.5537 225.013 47.5537C225.15 47.5564 225.28 47.6117 225.376 47.7082C225.473 47.8046 225.528 47.9347 225.531 48.071V50.3474C225.531 50.4846 225.476 50.6161 225.379 50.7132C225.282 50.8102 225.151 50.8647 225.013 50.8647Z" fill="#257D61"/>
<path d="M234.665 40.0318C234.593 40.0303 234.522 40.0139 234.456 39.9837C234.39 39.9534 234.331 39.9099 234.283 39.8559L232.079 37.383C232.03 37.3349 231.992 37.2777 231.966 37.2146C231.939 37.1516 231.926 37.084 231.926 37.0157C231.926 36.9474 231.939 36.8798 231.966 36.8167C231.992 36.7537 232.03 36.6965 232.079 36.6484C232.176 36.5536 232.306 36.5005 232.441 36.5005C232.576 36.5005 232.706 36.5536 232.803 36.6484L235.017 39.1213C235.113 39.2197 235.166 39.3514 235.166 39.4886C235.166 39.6257 235.113 39.7574 235.017 39.8559C234.928 39.9585 234.801 40.0217 234.665 40.0318Z" fill="#257D61"/>
<path d="M257.223 15.5826C257.131 15.5844 257.041 15.5592 256.964 15.5102C256.845 15.4428 256.757 15.3309 256.72 15.1991C256.683 15.0672 256.7 14.926 256.767 14.8066L258.123 12.4786C258.19 12.3594 258.302 12.2718 258.434 12.2349C258.566 12.1981 258.707 12.215 258.826 12.282C258.944 12.3511 259.029 12.4638 259.064 12.5955C259.099 12.7273 259.08 12.8674 259.013 12.9856L257.678 15.3343C257.631 15.4121 257.564 15.476 257.484 15.5196C257.404 15.5632 257.314 15.585 257.223 15.5826Z" fill="#257D61"/>
<path d="M243.834 10.9265C243.732 10.9247 243.633 10.8934 243.548 10.8365C243.464 10.7796 243.398 10.6994 243.358 10.6058L241.951 7.11889C241.9 6.99129 241.902 6.84874 241.956 6.72262C242.011 6.59649 242.113 6.49711 242.24 6.44634C242.368 6.39558 242.511 6.39759 242.637 6.45192C242.763 6.50625 242.862 6.60845 242.913 6.73605L244.32 10.2126C244.345 10.2757 244.358 10.3433 244.357 10.4113C244.356 10.4793 244.342 10.5465 244.315 10.6089C244.288 10.6714 244.249 10.7279 244.2 10.7753C244.151 10.8227 244.094 10.86 244.03 10.8851C243.969 10.9145 243.902 10.9286 243.834 10.9265Z" fill="#257D61"/>
<path d="M253.539 7.57374C253.474 7.58367 253.408 7.58367 253.343 7.57374C253.279 7.54772 253.222 7.50931 253.173 7.46074C253.124 7.41217 253.086 7.35441 253.06 7.29085C253.034 7.22728 253.021 7.15917 253.022 7.0905C253.022 7.02182 253.036 6.95397 253.063 6.89086L254.098 4.48006C254.124 4.41779 254.162 4.3613 254.21 4.31394C254.258 4.26658 254.315 4.22928 254.378 4.20423C254.441 4.17918 254.508 4.16687 254.575 4.16805C254.642 4.16922 254.709 4.18382 254.771 4.21104C254.834 4.23597 254.891 4.27336 254.94 4.32097C254.988 4.36857 255.027 4.42543 255.053 4.48816C255.079 4.55089 255.092 4.61821 255.092 4.68614C255.091 4.75407 255.077 4.82122 255.05 4.88358L253.984 7.30473C253.941 7.38555 253.877 7.45324 253.799 7.50061C253.721 7.54797 253.631 7.57324 253.539 7.57374Z" fill="#257D61"/>
<path d="M249.121 34.744C249.038 34.7428 248.957 34.7226 248.883 34.6849C248.81 34.6472 248.746 34.5931 248.696 34.5267C248.657 34.4705 248.63 34.4071 248.615 34.3401C248.601 34.2731 248.6 34.2039 248.612 34.1365C248.625 34.0691 248.65 34.0049 248.688 33.9475C248.726 33.8902 248.774 33.8409 248.831 33.8025L251.035 32.2608C251.09 32.2178 251.154 32.1865 251.222 32.1689C251.29 32.1513 251.361 32.1477 251.43 32.1583C251.499 32.1689 251.566 32.1936 251.626 32.2307C251.685 32.2679 251.736 32.3168 251.777 32.3744C251.817 32.432 251.845 32.4972 251.859 32.566C251.873 32.6348 251.873 32.7057 251.858 32.7745C251.844 32.8432 251.816 32.9083 251.776 32.9659C251.736 33.0234 251.684 33.0722 251.625 33.1092L249.421 34.6509C249.332 34.7111 249.228 34.7435 249.121 34.744Z" fill="#257D61"/>
<path d="M244.103 24.2425C243.999 24.2426 243.898 24.2109 243.813 24.1517C243.728 24.0925 243.663 24.0087 243.627 23.9115L242.955 22.2456C242.902 22.118 242.903 21.9749 242.957 21.8478C243.01 21.7207 243.112 21.62 243.239 21.5679C243.367 21.5158 243.51 21.5165 243.637 21.5698C243.764 21.6232 243.865 21.7248 243.917 21.8524L244.589 23.5286C244.638 23.6564 244.634 23.7979 244.58 23.9233C244.526 24.0487 244.426 24.1483 244.3 24.2012C244.238 24.2298 244.171 24.2439 244.103 24.2425Z" fill="#257D61"/>
<path d="M254.046 48.5889C253.949 48.5926 253.854 48.5681 253.771 48.5185C253.689 48.4689 253.622 48.3963 253.58 48.3095C253.548 48.2493 253.529 48.1833 253.523 48.1155C253.518 48.0476 253.526 47.9793 253.547 47.9146C253.568 47.8499 253.602 47.7901 253.647 47.7389C253.692 47.6876 253.746 47.6459 253.808 47.6163L255.515 46.7472C255.575 46.7154 255.641 46.696 255.709 46.6903C255.777 46.6845 255.845 46.6926 255.91 46.7138C255.975 46.735 256.034 46.7691 256.086 46.814C256.137 46.8588 256.179 46.9135 256.208 46.9748C256.27 47.097 256.28 47.2385 256.237 47.3684C256.195 47.4983 256.102 47.606 255.981 47.6681L254.273 48.5372C254.203 48.5739 254.125 48.5917 254.046 48.5889Z" fill="#257D61"/>
<path d="M237.212 58.9664C237.075 58.9829 236.937 58.9442 236.828 58.8588C236.719 58.7734 236.649 58.6483 236.633 58.5111C236.616 58.3739 236.655 58.2358 236.74 58.1271C236.826 58.0185 236.951 57.9482 237.088 57.9317L238.888 57.4661C238.956 57.4491 239.027 57.4457 239.096 57.456C239.165 57.4663 239.232 57.4902 239.292 57.5262C239.352 57.5622 239.404 57.6097 239.446 57.666C239.488 57.7223 239.518 57.7862 239.535 57.8541C239.552 57.9221 239.555 57.9927 239.545 58.0619C239.535 58.1312 239.511 58.1978 239.475 58.2578C239.439 58.3179 239.391 58.3702 239.335 58.4119C239.279 58.4536 239.215 58.4838 239.147 58.5008L237.347 58.9664H237.212Z" fill="#257D61"/>
<path d="M237.481 51.134C237.344 51.1423 237.209 51.0957 237.106 51.0045C237.003 50.9133 236.941 50.785 236.933 50.6478C236.924 50.5106 236.971 50.3757 237.062 50.2728C237.153 50.17 237.282 50.1076 237.419 50.0994L239.623 49.8304C239.691 49.8222 239.76 49.8275 239.825 49.846C239.891 49.8645 239.953 49.8957 240.007 49.938C240.061 49.9803 240.106 50.0327 240.139 50.0924C240.173 50.152 240.194 50.2177 240.202 50.2856C240.21 50.3536 240.205 50.4224 240.187 50.4883C240.168 50.5542 240.137 50.6158 240.095 50.6696C240.052 50.7234 240 50.7684 239.94 50.8019C239.881 50.8354 239.815 50.8569 239.747 50.865L237.543 51.134H237.481Z" fill="#257D61"/>
<path d="M229.151 73.2651H229.027L226.295 72.6132C226.163 72.5767 226.05 72.491 225.978 72.3737C225.907 72.2564 225.884 72.1163 225.912 71.9821C225.947 71.8484 226.032 71.7335 226.15 71.662C226.268 71.5904 226.409 71.5679 226.543 71.5993L229.275 72.2615C229.408 72.2934 229.523 72.3766 229.594 72.4929C229.666 72.6092 229.689 72.7492 229.658 72.8823C229.628 72.9934 229.562 73.0913 229.47 73.1607C229.378 73.23 229.266 73.2667 229.151 73.2651Z" fill="#257D61"/>
<path d="M225.499 65.1848C225.413 65.1861 225.328 65.1654 225.252 65.1247C225.176 65.0839 225.111 65.0245 225.065 64.952C225.018 64.8796 224.991 64.7964 224.985 64.7104C224.98 64.6244 224.996 64.5384 225.033 64.4605L226.234 61.7807C226.292 61.6579 226.396 61.5624 226.523 61.5142C226.65 61.466 226.791 61.4688 226.916 61.5221C226.979 61.5491 227.036 61.5882 227.083 61.6372C227.131 61.6862 227.168 61.7441 227.193 61.8075C227.218 61.871 227.23 61.9388 227.229 62.007C227.228 62.0752 227.213 62.1425 227.185 62.2049L225.975 64.8848C225.933 64.9754 225.866 65.0519 225.781 65.1052C225.697 65.1584 225.599 65.1861 225.499 65.1848Z" fill="#257D61"/>
<path d="M260.431 26.1463C260.347 26.1465 260.264 26.1258 260.19 26.086C260.116 26.0463 260.053 25.9888 260.007 25.9187C259.968 25.8624 259.94 25.799 259.926 25.732C259.911 25.665 259.91 25.5958 259.923 25.5284C259.935 25.461 259.961 25.3968 259.999 25.3394C260.036 25.2821 260.085 25.2328 260.141 25.1944L261.983 23.9631C262.097 23.8863 262.237 23.8578 262.372 23.884C262.507 23.9102 262.625 23.9889 262.702 24.1028C262.779 24.2167 262.808 24.3564 262.781 24.4913C262.755 24.6261 262.677 24.745 262.563 24.8219L260.721 26.0531C260.636 26.1131 260.535 26.1456 260.431 26.1463Z" fill="#257D61"/>
<path d="M244.672 43.6429C244.537 43.6403 244.408 43.5864 244.312 43.4922C244.216 43.3979 244.16 43.2705 244.154 43.1359L244.092 39.7939C244.089 39.7256 244.1 39.6574 244.125 39.5935C244.149 39.5296 244.186 39.4712 244.233 39.422C244.281 39.3727 244.337 39.3334 244.4 39.3067C244.463 39.2799 244.531 39.2662 244.599 39.2662C244.667 39.2648 244.735 39.2768 244.798 39.3016C244.861 39.3263 244.919 39.3633 244.968 39.4104C245.017 39.4575 245.056 39.5137 245.084 39.576C245.111 39.6382 245.126 39.7053 245.127 39.7732L245.189 43.1152C245.19 43.1831 245.178 43.2507 245.154 43.314C245.129 43.3773 245.092 43.4351 245.045 43.4841C244.998 43.5331 244.941 43.5723 244.879 43.5996C244.817 43.6268 244.75 43.6415 244.682 43.6429H244.672Z" fill="#257D61"/>
<path d="M189.906 54.9003C189.791 54.9011 189.678 54.8648 189.585 54.7968L187.764 53.2966C187.658 53.2112 187.589 53.0872 187.574 52.9515C187.558 52.8158 187.597 52.6795 187.682 52.5723C187.723 52.5183 187.775 52.4733 187.834 52.4398C187.893 52.4063 187.958 52.385 188.026 52.3773C188.094 52.3696 188.162 52.3755 188.227 52.3948C188.293 52.4141 188.353 52.4463 188.406 52.4895L190.279 53.9587C190.362 54.0256 190.423 54.1167 190.452 54.2194C190.482 54.3222 190.479 54.4315 190.443 54.5325C190.408 54.6334 190.343 54.721 190.256 54.7831C190.169 54.8453 190.065 54.879 189.958 54.8796L189.906 54.9003Z" fill="#257D61"/>
<path d="M201.217 60.4976C201.145 60.4988 201.073 60.4846 201.007 60.4561C200.941 60.4275 200.882 60.3853 200.834 60.3321L198.764 57.9937C198.716 57.9456 198.677 57.8884 198.651 57.8254C198.625 57.7623 198.611 57.6947 198.611 57.6264C198.611 57.5581 198.625 57.4905 198.651 57.4275C198.677 57.3644 198.716 57.3072 198.764 57.2591C198.812 57.2109 198.868 57.1727 198.93 57.1465C198.992 57.1204 199.059 57.1069 199.127 57.1069C199.194 57.1069 199.261 57.1204 199.323 57.1465C199.385 57.1727 199.441 57.2109 199.489 57.2591L201.558 59.5975C201.628 59.6702 201.675 59.7622 201.693 59.8617C201.71 59.9612 201.697 60.0637 201.656 60.156C201.615 60.2483 201.547 60.3262 201.462 60.3797C201.376 60.4332 201.276 60.4598 201.175 60.4562L201.217 60.4976Z" fill="#257D61"/>
<path d="M208.914 50.9992C208.827 50.9997 208.742 50.9783 208.665 50.9372C208.605 50.9047 208.552 50.8607 208.51 50.8077C208.467 50.7547 208.435 50.6937 208.416 50.6283C208.396 50.563 208.39 50.4945 208.398 50.4267C208.405 50.3589 208.426 50.2933 208.458 50.2336L209.793 47.8228C209.86 47.702 209.973 47.6129 210.106 47.5751C210.239 47.5372 210.381 47.5538 210.502 47.621C210.623 47.6882 210.712 47.8007 210.749 47.9336C210.787 48.0665 210.771 48.209 210.704 48.3297L209.369 50.7612C209.319 50.8357 209.251 50.8965 209.171 50.9381C209.092 50.9796 209.003 51.0007 208.914 50.9992Z" fill="#257D61"/>
<path d="M191.179 77.0314C191.099 77.0306 191.02 77.0115 190.949 76.9757C190.877 76.9398 190.814 76.8881 190.766 76.8244L188.562 73.948C188.515 73.8949 188.48 73.8328 188.458 73.7655C188.437 73.6983 188.429 73.6274 188.436 73.5571C188.443 73.4868 188.464 73.4186 188.498 73.3568C188.532 73.295 188.579 73.2409 188.635 73.1977C188.691 73.1545 188.755 73.1233 188.823 73.1059C188.892 73.0884 188.963 73.0852 189.033 73.0963C189.102 73.1075 189.169 73.1328 189.229 73.1708C189.288 73.2087 189.339 73.2584 189.379 73.3168L191.593 76.1932C191.636 76.2464 191.667 76.3077 191.686 76.3733C191.704 76.4389 191.709 76.5076 191.701 76.5752C191.692 76.6428 191.67 76.708 191.635 76.7668C191.601 76.8256 191.555 76.8769 191.5 76.9175C191.409 76.9898 191.296 77.0299 191.179 77.0314Z" fill="#257D61"/>
<path d="M196.041 72.9447C195.924 72.9432 195.811 72.9032 195.72 72.8308C195.612 72.747 195.541 72.6237 195.524 72.488C195.506 72.3522 195.543 72.2151 195.627 72.1066L196.765 70.6373C196.85 70.5307 196.974 70.4622 197.11 70.4467C197.246 70.4312 197.382 70.47 197.489 70.5546C197.544 70.5952 197.59 70.6465 197.624 70.7053C197.659 70.7641 197.681 70.8293 197.69 70.8969C197.698 70.9645 197.693 71.0332 197.675 71.0988C197.656 71.1644 197.625 71.2257 197.582 71.2788L196.444 72.7377C196.398 72.8012 196.337 72.8529 196.267 72.8888C196.197 72.9248 196.119 72.9439 196.041 72.9447Z" fill="#257D61"/>
<path d="M216.342 72.9445C216.259 72.9422 216.177 72.9203 216.103 72.8808C216.03 72.8413 215.966 72.7852 215.918 72.7169C215.842 72.6041 215.814 72.466 215.839 72.3324C215.864 72.1987 215.941 72.0804 216.053 72.003L217.781 70.8028C217.894 70.7253 218.033 70.6949 218.168 70.718C218.303 70.7412 218.424 70.8161 218.505 70.9269C218.544 70.9831 218.572 71.0466 218.586 71.1136C218.601 71.1806 218.602 71.2498 218.589 71.3172C218.577 71.3846 218.551 71.4488 218.513 71.5061C218.476 71.5635 218.427 71.6128 218.37 71.6512L216.642 72.8514C216.554 72.9116 216.449 72.944 216.342 72.9445Z" fill="#257D61"/>
<path d="M217.212 90.7412C217.127 90.7404 217.043 90.7193 216.967 90.6798C216.892 90.6402 216.826 90.5832 216.777 90.5135C216.739 90.4569 216.713 90.3931 216.7 90.3261C216.688 90.2591 216.688 90.1902 216.703 90.1235C216.717 90.0569 216.745 89.9938 216.785 89.9382C216.824 89.8825 216.874 89.8354 216.932 89.7996L219.871 87.8544C219.985 87.7795 220.124 87.7527 220.258 87.7799C220.391 87.807 220.509 87.8858 220.585 87.9993C220.66 88.1149 220.687 88.2556 220.66 88.391C220.633 88.5264 220.554 88.6458 220.44 88.7235L217.502 90.6584C217.416 90.7153 217.315 90.7442 217.212 90.7412Z" fill="#257D61"/>
<path d="M190.641 90.3484C190.547 90.3476 190.455 90.3212 190.375 90.272C190.294 90.2228 190.229 90.1526 190.186 90.069L189.255 88.2583C189.213 88.198 189.185 88.1296 189.172 88.0576C189.159 87.9857 189.162 87.9118 189.179 87.8409C189.197 87.77 189.23 87.7036 189.275 87.6461C189.32 87.5887 189.377 87.5415 189.442 87.5076C189.507 87.4737 189.578 87.454 189.651 87.4496C189.724 87.4453 189.797 87.4565 189.865 87.4825C189.933 87.5084 189.996 87.5486 190.047 87.6003C190.099 87.6519 190.139 87.714 190.165 87.7824L191.107 89.593C191.138 89.6533 191.158 89.7192 191.163 89.7871C191.169 89.855 191.161 89.9233 191.14 89.988C191.119 90.0527 191.085 90.1125 191.04 90.1637C190.995 90.215 190.94 90.2566 190.879 90.2863C190.806 90.3275 190.724 90.3489 190.641 90.3484Z" fill="#257D61"/>
<path d="M199.809 92.3555C199.739 92.3559 199.669 92.3413 199.605 92.3127C199.541 92.2842 199.483 92.2424 199.436 92.19L197.367 90.0482C197.319 90.001 197.281 89.9446 197.254 89.8825C197.228 89.8203 197.215 89.7535 197.215 89.6861C197.215 89.6186 197.228 89.5518 197.254 89.4897C197.281 89.4275 197.319 89.3711 197.367 89.3239C197.415 89.2754 197.472 89.2369 197.535 89.2107C197.598 89.1844 197.666 89.1709 197.734 89.1709C197.803 89.1709 197.87 89.1844 197.933 89.2107C197.996 89.2369 198.054 89.2754 198.102 89.3239L200.171 91.4657C200.219 91.5138 200.258 91.571 200.284 91.6341C200.311 91.6971 200.324 91.7647 200.324 91.833C200.324 91.9013 200.311 91.9689 200.284 92.032C200.258 92.095 200.219 92.1522 200.171 92.2003C200.074 92.296 199.945 92.3515 199.809 92.3555Z" fill="#257D61"/>
<path d="M207.424 86.5925C207.345 86.5964 207.266 86.5785 207.196 86.5408C207.135 86.5132 207.079 86.4732 207.033 86.4233C206.987 86.3734 206.952 86.3147 206.93 86.2508C206.908 86.1868 206.899 86.119 206.904 86.0514C206.909 85.9838 206.927 85.918 206.958 85.8579L208.355 82.9712C208.418 82.8494 208.525 82.7566 208.654 82.7122C208.783 82.6678 208.925 82.6753 209.049 82.7332C209.17 82.7954 209.263 82.9024 209.308 83.0317C209.352 83.161 209.344 83.3026 209.287 83.4264L207.879 86.3028C207.839 86.3899 207.775 86.4635 207.695 86.5149C207.614 86.5663 207.52 86.5933 207.424 86.5925Z" fill="#257D61"/>
<path d="M178.598 71.0721H178.453C178.387 71.0576 178.324 71.0298 178.268 70.9904C178.213 70.951 178.166 70.9009 178.13 70.8429C178.094 70.785 178.071 70.7205 178.06 70.6532C178.05 70.5859 178.054 70.5172 178.07 70.4513L178.867 67.0369C178.883 66.9689 178.912 66.9047 178.952 66.848C178.993 66.7912 179.044 66.7429 179.103 66.7059C179.162 66.6689 179.228 66.6439 179.296 66.6324C179.365 66.6208 179.436 66.6229 179.504 66.6385C179.571 66.6541 179.636 66.683 179.692 66.7234C179.749 66.7639 179.797 66.8151 179.834 66.8742C179.871 66.9332 179.896 66.9991 179.908 67.0678C179.92 67.1366 179.917 67.2069 179.902 67.2748L179.095 70.6893C179.067 70.7995 179.003 70.8972 178.913 70.9667C178.823 71.0361 178.712 71.0732 178.598 71.0721Z" fill="#257D61"/>
<path d="M164.681 75.5938C164.585 75.5916 164.492 75.5629 164.412 75.511L161.308 73.5348C161.242 73.5032 161.183 73.4581 161.136 73.4024C161.089 73.3467 161.054 73.2816 161.034 73.2115C161.014 73.1413 161.009 73.0677 161.019 72.9954C161.029 72.9231 161.055 72.8538 161.093 72.7921C161.132 72.7303 161.184 72.6775 161.245 72.6371C161.306 72.5967 161.374 72.5697 161.446 72.5577C161.518 72.5458 161.592 72.5493 161.663 72.5678C161.733 72.5864 161.799 72.6198 161.856 72.6656L164.96 74.6315C165.075 74.7059 165.156 74.8219 165.187 74.955C165.218 75.0882 165.196 75.2282 165.126 75.3454C165.078 75.4204 165.012 75.4823 164.934 75.5256C164.857 75.5689 164.77 75.5924 164.681 75.5938Z" fill="#257D61"/>
<path d="M165.891 95.4287C165.791 95.4303 165.694 95.4014 165.611 95.3459L162.838 93.6076C162.779 93.5727 162.728 93.5262 162.688 93.471C162.647 93.4157 162.618 93.3528 162.603 93.286C162.587 93.2193 162.586 93.1502 162.598 93.0827C162.61 93.0153 162.635 92.951 162.673 92.8937C162.747 92.7786 162.864 92.6976 162.998 92.6685C163.131 92.6395 163.271 92.6646 163.387 92.7385L166.16 94.4768C166.253 94.5368 166.324 94.6251 166.363 94.7286C166.402 94.8322 166.407 94.9456 166.377 95.0521C166.347 95.1587 166.283 95.2528 166.196 95.3205C166.108 95.3883 166.001 95.4262 165.891 95.4287Z" fill="#257D61"/>
<path d="M173.651 94.0937C173.514 94.0831 173.388 94.02 173.297 93.9177C173.206 93.8154 173.159 93.6819 173.165 93.5453L173.299 91.207C173.306 91.0698 173.367 90.9409 173.469 90.8487C173.571 90.7566 173.705 90.7086 173.842 90.7155C173.979 90.7224 174.108 90.7834 174.2 90.8853C174.293 90.9872 174.341 91.1215 174.334 91.2587L174.199 93.6074C174.189 93.7437 174.125 93.8706 174.023 93.9613C173.921 94.052 173.787 94.0995 173.651 94.0937Z" fill="#257D61"/>
<path d="M183.418 102.785C183.281 102.785 183.149 102.731 183.052 102.634C182.955 102.537 182.9 102.405 182.9 102.268V99.9294C182.9 99.7922 182.955 99.6607 183.052 99.5636C183.149 99.4666 183.281 99.4121 183.418 99.4121C183.555 99.4121 183.687 99.4666 183.784 99.5636C183.881 99.6607 183.935 99.7922 183.935 99.9294V102.268C183.935 102.405 183.881 102.537 183.784 102.634C183.687 102.731 183.555 102.785 183.418 102.785Z" fill="#257D61"/>
<path d="M179.871 113.359H179.778L176.963 112.832C176.896 112.819 176.831 112.792 176.773 112.755C176.715 112.717 176.665 112.668 176.626 112.61C176.588 112.553 176.56 112.489 176.546 112.421C176.532 112.354 176.532 112.284 176.544 112.216C176.557 112.148 176.583 112.083 176.621 112.025C176.659 111.968 176.708 111.918 176.765 111.879C176.823 111.84 176.887 111.813 176.955 111.799C177.022 111.785 177.092 111.784 177.16 111.797L179.974 112.335C180.041 112.346 180.105 112.37 180.162 112.407C180.219 112.444 180.268 112.492 180.306 112.548C180.344 112.604 180.369 112.667 180.382 112.734C180.394 112.801 180.393 112.869 180.378 112.935C180.358 113.055 180.296 113.163 180.203 113.241C180.11 113.319 179.992 113.361 179.871 113.359Z" fill="#257D61"/>
<path d="M178.07 83.1155H177.977C177.843 83.0927 177.724 83.018 177.644 82.9076C177.565 82.7973 177.532 82.6601 177.553 82.5258L177.957 80.2495C177.968 80.1821 177.992 80.1176 178.029 80.0597C178.065 80.0018 178.112 79.9517 178.168 79.9123C178.224 79.8728 178.287 79.8448 178.354 79.8299C178.42 79.815 178.489 79.8134 178.557 79.8252C178.692 79.8505 178.811 79.9273 178.89 80.0393C178.97 80.1514 179.002 80.2898 178.981 80.4254L178.577 82.7016C178.555 82.8194 178.492 82.9256 178.4 83.0014C178.307 83.0771 178.19 83.1175 178.07 83.1155Z" fill="#257D61"/>
<path d="M210.786 106.737C210.692 106.729 210.602 106.693 210.527 106.634C210.471 106.596 210.423 106.548 210.385 106.491C210.348 106.435 210.322 106.372 210.31 106.305C210.297 106.238 210.298 106.17 210.312 106.104C210.327 106.038 210.354 105.975 210.393 105.92L212.131 103.374C212.165 103.31 212.212 103.253 212.27 103.207C212.327 103.162 212.393 103.129 212.464 103.112C212.535 103.094 212.609 103.091 212.681 103.104C212.753 103.117 212.821 103.145 212.882 103.186C212.942 103.228 212.993 103.281 213.031 103.343C213.069 103.406 213.094 103.476 213.103 103.548C213.112 103.621 213.106 103.694 213.085 103.764C213.064 103.834 213.028 103.899 212.98 103.954L211.241 106.499C211.193 106.575 211.125 106.637 211.045 106.679C210.966 106.72 210.876 106.741 210.786 106.737Z" fill="#257D61"/>
<path d="M218.277 117.239C218.158 117.237 218.041 117.198 217.946 117.125C217.842 117.035 217.777 116.908 217.766 116.77C217.754 116.633 217.796 116.497 217.884 116.39L220.222 113.587C220.265 113.533 220.317 113.489 220.377 113.457C220.436 113.424 220.502 113.404 220.569 113.397C220.637 113.39 220.705 113.397 220.77 113.417C220.835 113.437 220.895 113.47 220.947 113.514C221 113.557 221.045 113.611 221.077 113.671C221.11 113.731 221.13 113.798 221.137 113.866C221.144 113.935 221.137 114.004 221.117 114.069C221.096 114.135 221.063 114.196 221.019 114.249L218.681 117.053C218.631 117.111 218.569 117.158 218.5 117.19C218.43 117.223 218.354 117.239 218.277 117.239Z" fill="#257D61"/>
<path d="M208.459 124.223C208.339 124.225 208.222 124.185 208.128 124.11C208.024 124.019 207.959 123.892 207.947 123.755C207.936 123.618 207.978 123.481 208.066 123.375L210.404 120.571C210.494 120.467 210.62 120.402 210.757 120.389C210.894 120.375 211.03 120.415 211.139 120.498C211.243 120.589 211.308 120.716 211.319 120.853C211.331 120.99 211.288 121.127 211.201 121.233L208.862 124.037C208.813 124.096 208.751 124.144 208.682 124.176C208.612 124.208 208.536 124.224 208.459 124.223Z" fill="#257D61"/>
<path d="M194.79 114.228C194.689 114.229 194.59 114.2 194.506 114.144C194.421 114.089 194.355 114.011 194.314 113.918L193.186 111.311C193.15 111.248 193.127 111.178 193.12 111.105C193.112 111.033 193.12 110.96 193.143 110.891C193.166 110.822 193.202 110.758 193.251 110.704C193.3 110.651 193.36 110.608 193.426 110.578C193.493 110.549 193.565 110.534 193.638 110.535C193.71 110.535 193.782 110.551 193.848 110.581C193.914 110.611 193.974 110.655 194.022 110.709C194.07 110.763 194.106 110.827 194.128 110.897L195.266 113.504C195.294 113.567 195.308 113.634 195.31 113.702C195.311 113.77 195.299 113.838 195.274 113.902C195.249 113.965 195.211 114.023 195.164 114.072C195.116 114.121 195.06 114.16 194.997 114.187C194.932 114.215 194.861 114.229 194.79 114.228Z" fill="#257D61"/>
<path d="M197.667 143.002C197.53 143 197.4 142.945 197.305 142.847L196.042 141.575C195.948 141.478 195.895 141.348 195.895 141.212C195.895 141.077 195.948 140.947 196.042 140.85C196.09 140.802 196.148 140.763 196.211 140.737C196.274 140.711 196.341 140.697 196.41 140.697C196.478 140.697 196.546 140.711 196.609 140.737C196.672 140.763 196.729 140.802 196.777 140.85L198.05 142.113C198.145 142.211 198.198 142.343 198.198 142.48C198.198 142.617 198.145 142.749 198.05 142.847C198 142.898 197.94 142.937 197.874 142.964C197.808 142.991 197.738 143.004 197.667 143.002Z" fill="#257D61"/>
<path d="M211.191 141.865C211.112 141.864 211.035 141.846 210.963 141.813C210.841 141.755 210.746 141.65 210.699 141.523C210.653 141.395 210.658 141.254 210.715 141.13L211.926 138.585C211.953 138.523 211.993 138.468 212.043 138.422C212.093 138.375 212.151 138.34 212.215 138.317C212.278 138.294 212.346 138.283 212.414 138.287C212.481 138.29 212.548 138.307 212.609 138.337C212.671 138.366 212.726 138.406 212.773 138.457C212.819 138.508 212.854 138.567 212.878 138.631C212.901 138.696 212.911 138.764 212.907 138.833C212.904 138.901 212.886 138.968 212.857 139.03L211.657 141.565C211.614 141.653 211.549 141.728 211.466 141.781C211.384 141.834 211.289 141.863 211.191 141.865Z" fill="#257D61"/>
<path d="M197.077 155.708C197.005 155.711 196.933 155.697 196.867 155.669C196.801 155.64 196.742 155.597 196.694 155.543L195.38 154.063C195.335 154.013 195.301 153.954 195.279 153.889C195.257 153.825 195.248 153.758 195.253 153.69C195.258 153.623 195.276 153.557 195.307 153.496C195.338 153.436 195.38 153.383 195.432 153.339C195.478 153.289 195.534 153.25 195.597 153.223C195.659 153.196 195.726 153.182 195.794 153.182C195.862 153.182 195.929 153.196 195.991 153.223C196.054 153.25 196.11 153.289 196.156 153.339L197.46 154.808C197.53 154.881 197.577 154.973 197.594 155.072C197.612 155.172 197.599 155.274 197.558 155.367C197.517 155.459 197.449 155.537 197.363 155.59C197.278 155.644 197.178 155.671 197.077 155.667V155.708Z" fill="#257D61"/>
<path d="M214.666 157.654C214.579 157.654 214.494 157.633 214.418 157.592C214.299 157.524 214.21 157.413 214.172 157.282C214.133 157.151 214.147 157.01 214.211 156.888L215.701 154.229C215.766 154.109 215.878 154.019 216.009 153.98C216.141 153.941 216.283 153.956 216.404 154.022C216.525 154.088 216.614 154.199 216.653 154.331C216.692 154.463 216.677 154.605 216.611 154.726L215.142 157.406C215.094 157.488 215.024 157.554 214.939 157.598C214.855 157.642 214.76 157.661 214.666 157.654Z" fill="#257D61"/>
<path d="M204.764 169.501C204.683 169.5 204.604 169.481 204.533 169.445C204.461 169.409 204.398 169.358 204.35 169.294L203.015 167.556C202.941 167.447 202.911 167.314 202.932 167.184C202.953 167.054 203.023 166.936 203.127 166.856C203.231 166.775 203.362 166.738 203.493 166.75C203.624 166.763 203.746 166.825 203.832 166.925L205.177 168.663C205.257 168.774 205.291 168.911 205.272 169.046C205.252 169.181 205.181 169.303 205.074 169.387C204.987 169.459 204.877 169.5 204.764 169.501Z" fill="#257D61"/>
<path d="M218.547 173.64C218.436 173.639 218.328 173.607 218.236 173.547C218.126 173.464 218.054 173.342 218.034 173.206C218.015 173.07 218.05 172.932 218.133 172.822L219.799 170.546C219.881 170.437 220.003 170.364 220.138 170.343C220.273 170.322 220.411 170.354 220.523 170.432C220.578 170.472 220.625 170.523 220.66 170.581C220.696 170.639 220.72 170.703 220.73 170.771C220.741 170.838 220.738 170.907 220.722 170.973C220.706 171.039 220.677 171.102 220.637 171.157L218.96 173.433C218.912 173.496 218.849 173.548 218.777 173.584C218.706 173.62 218.627 173.639 218.547 173.64Z" fill="#257D61"/>
<path d="M197.2 175.253C197.068 175.253 196.942 175.201 196.848 175.109L194.303 172.77C194.248 172.726 194.202 172.67 194.17 172.607C194.137 172.544 194.118 172.475 194.113 172.404C194.108 172.334 194.117 172.263 194.141 172.196C194.165 172.129 194.202 172.068 194.25 172.016C194.298 171.964 194.357 171.922 194.422 171.894C194.487 171.866 194.557 171.851 194.628 171.851C194.699 171.851 194.769 171.865 194.834 171.894C194.899 171.922 194.958 171.963 195.006 172.015L197.552 174.353C197.629 174.424 197.684 174.516 197.707 174.618C197.731 174.72 197.724 174.827 197.686 174.924C197.647 175.022 197.581 175.106 197.494 175.164C197.407 175.223 197.305 175.254 197.2 175.253Z" fill="#257D61"/>
<path d="M205.519 180.81C205.461 180.824 205.401 180.824 205.343 180.81C205.279 180.787 205.221 180.752 205.171 180.706C205.121 180.66 205.081 180.604 205.053 180.542C205.025 180.481 205.01 180.414 205.008 180.346C205.006 180.279 205.018 180.211 205.043 180.148L205.788 178.079C205.837 177.953 205.933 177.852 206.056 177.797C206.179 177.741 206.318 177.736 206.445 177.782C206.572 177.828 206.676 177.921 206.734 178.042C206.793 178.163 206.803 178.303 206.76 178.43L206.005 180.5C205.965 180.595 205.897 180.675 205.81 180.731C205.724 180.786 205.622 180.814 205.519 180.81Z" fill="#257D61"/>
<path d="M193.632 188.932C193.524 188.928 193.419 188.892 193.332 188.828L191.045 187.163C190.99 187.122 190.944 187.072 190.908 187.014C190.873 186.956 190.849 186.891 190.838 186.824C190.828 186.757 190.831 186.688 190.846 186.622C190.862 186.556 190.891 186.493 190.931 186.438C190.971 186.383 191.022 186.337 191.08 186.301C191.138 186.266 191.203 186.242 191.27 186.231C191.337 186.221 191.406 186.224 191.472 186.24C191.538 186.256 191.601 186.284 191.656 186.324L193.942 187.99C194.051 188.073 194.124 188.194 194.146 188.329C194.167 188.465 194.135 188.603 194.056 188.715C194.007 188.781 193.943 188.835 193.869 188.873C193.796 188.91 193.715 188.931 193.632 188.932Z" fill="#257D61"/>
<path d="M214.469 184.017C214.382 184.017 214.297 183.996 214.221 183.955C214.101 183.886 214.013 183.772 213.976 183.638C213.939 183.505 213.956 183.362 214.024 183.241L215.741 180.24C215.81 180.121 215.923 180.034 216.056 179.998C216.189 179.962 216.331 179.98 216.45 180.049C216.57 180.118 216.657 180.231 216.693 180.364C216.729 180.497 216.71 180.638 216.642 180.758L214.924 183.758C214.878 183.838 214.812 183.904 214.732 183.95C214.652 183.995 214.561 184.018 214.469 184.017Z" fill="#257D61"/>
<path d="M130.5 106.5C152.5 102 166.151 121.519 147.385 150.631C110.749 207.463 133.285 207.739 166.15 206.218C188.567 205.18 188.77 195.06 168.179 195.06" stroke="#039768" stroke-width="3"/>
<path d="M48 77.32C48 71.6204 52.6204 67 58.32 67H123.68C129.38 67 134 71.6204 134 77.32V142.68C134 148.38 129.38 153 123.68 153H58.32C52.6204 153 48 148.38 48 142.68V77.32Z" fill="#F9FAFC"/>
<path d="M66.1259 101.572H68.9897L61.9205 120.922H59.0696L61.4045 114.472L56.7734 101.572H59.7017L62.7461 110.796L66.1259 101.572Z" fill="#039768"/>
<path d="M76.1426 114.807C74.9558 114.807 73.8722 114.502 72.8918 113.892C71.92 113.281 71.1417 112.464 70.5569 111.441C69.9807 110.409 69.6926 109.269 69.6926 108.022C69.6926 107.076 69.8603 106.195 70.1957 105.378C70.5311 104.552 70.9912 103.83 71.576 103.21C72.1694 102.583 72.8574 102.092 73.64 101.74C74.4226 101.387 75.2568 101.211 76.1426 101.211C77.1316 101.211 78.0389 101.417 78.8645 101.83C79.6901 102.234 80.3953 102.798 80.9801 103.52C81.5649 104.234 81.9949 105.059 82.2701 105.997C82.5453 106.926 82.627 107.915 82.5152 108.964H72.5693C72.6811 109.557 72.8961 110.095 73.2143 110.576C73.5411 111.049 73.9539 111.423 74.4527 111.699C74.9601 111.974 75.5234 112.116 76.1426 112.124C76.7962 112.124 77.3896 111.961 77.9228 111.634C78.4646 111.307 78.9075 110.856 79.2515 110.28L81.9734 110.912C81.4574 112.055 80.6791 112.993 79.6385 113.724C78.5979 114.446 77.4326 114.807 76.1426 114.807ZM72.479 106.913H79.8062C79.7202 106.293 79.5009 105.734 79.1483 105.236C78.8043 104.728 78.37 104.328 77.8454 104.036C77.3294 103.735 76.7618 103.584 76.1426 103.584C75.532 103.584 74.9644 103.731 74.4398 104.023C73.9238 104.315 73.4938 104.715 73.1498 105.223C72.8144 105.722 72.5908 106.285 72.479 106.913Z" fill="#039768"/>
<path d="M96.2615 106.384V114.472H93.5783V107.042C93.5783 106.465 93.4364 105.941 93.1526 105.468C92.8774 104.995 92.5033 104.621 92.0303 104.346C91.5659 104.062 91.0413 103.92 90.4565 103.92C89.8889 103.92 89.3686 104.062 88.8956 104.346C88.4226 104.621 88.0442 104.995 87.7604 105.468C87.4766 105.941 87.3347 106.465 87.3347 107.042V114.472H84.6515V101.572H87.3347V102.939C87.7819 102.406 88.3323 101.985 88.9859 101.675C89.6395 101.366 90.3447 101.211 91.1015 101.211C92.0561 101.211 92.9247 101.443 93.7073 101.907C94.4899 102.372 95.1091 102.995 95.5649 103.778C96.0293 104.561 96.2615 105.429 96.2615 106.384Z" fill="#039768"/>
<path d="M108.634 95.1221H111.317V114.472H108.634V112.576C108.212 113.247 107.662 113.788 106.982 114.201C106.303 114.605 105.508 114.807 104.596 114.807C103.659 114.807 102.781 114.631 101.964 114.279C101.147 113.926 100.425 113.44 99.7972 112.821C99.178 112.193 98.6921 111.471 98.3395 110.654C97.9869 109.837 97.8106 108.959 97.8106 108.022C97.8106 107.085 97.9869 106.207 98.3395 105.39C98.6921 104.565 99.178 103.842 99.7972 103.223C100.425 102.595 101.147 102.105 101.964 101.753C102.781 101.4 103.659 101.224 104.596 101.224C105.508 101.224 106.303 101.43 106.982 101.843C107.662 102.247 108.212 102.78 108.634 103.443V95.1221ZM104.622 112.215C105.379 112.215 106.041 112.03 106.608 111.66C107.176 111.281 107.615 110.774 107.924 110.138C108.242 109.501 108.401 108.796 108.401 108.022C108.401 107.239 108.242 106.53 107.924 105.894C107.606 105.257 107.163 104.754 106.595 104.384C106.036 104.006 105.379 103.817 104.622 103.817C103.874 103.817 103.19 104.006 102.571 104.384C101.96 104.763 101.47 105.27 101.1 105.906C100.739 106.543 100.558 107.248 100.558 108.022C100.558 108.805 100.743 109.514 101.113 110.151C101.491 110.778 101.986 111.281 102.596 111.66C103.216 112.03 103.891 112.215 104.622 112.215Z" fill="#039768"/>
<path d="M119.907 114.807C118.72 114.807 117.636 114.502 116.656 113.892C115.684 113.281 114.906 112.464 114.321 111.441C113.745 110.409 113.457 109.269 113.457 108.022C113.457 107.076 113.625 106.195 113.96 105.378C114.295 104.552 114.755 103.83 115.34 103.21C115.934 102.583 116.622 102.092 117.404 101.74C118.187 101.387 119.021 101.211 119.907 101.211C121.094 101.211 122.173 101.516 123.145 102.127C124.125 102.737 124.903 103.559 125.48 104.591C126.064 105.623 126.357 106.766 126.357 108.022C126.357 108.959 126.189 109.837 125.854 110.654C125.518 111.471 125.054 112.193 124.461 112.821C123.876 113.44 123.192 113.926 122.409 114.279C121.635 114.631 120.801 114.807 119.907 114.807ZM119.907 112.124C120.621 112.124 121.261 111.935 121.829 111.557C122.397 111.178 122.844 110.679 123.171 110.06C123.506 109.432 123.674 108.753 123.674 108.022C123.674 107.274 123.502 106.586 123.158 105.958C122.822 105.33 122.371 104.831 121.803 104.462C121.236 104.083 120.603 103.894 119.907 103.894C119.202 103.894 118.561 104.083 117.985 104.462C117.417 104.84 116.966 105.343 116.63 105.971C116.303 106.599 116.14 107.282 116.14 108.022C116.14 108.787 116.312 109.48 116.656 110.099C117 110.718 117.456 111.213 118.023 111.582C118.6 111.944 119.227 112.124 119.907 112.124Z" fill="#039768"/>
<path d="M212.201 178.323C212.201 181.796 209.385 184.612 205.912 184.612C202.439 184.612 199.623 181.796 199.623 178.323C199.623 174.85 202.439 172.034 205.912 172.034C209.385 172.034 212.201 174.85 212.201 178.323Z" fill="#257D61"/>
<path d="M207.738 176.498V180.352" stroke="black" stroke-width="2" stroke-linecap="round"/>
<path d="M204.289 176.498V180.352" stroke="black" stroke-width="2" stroke-linecap="round"/>
<path d="M148.297 194.654C148.297 193.814 148.978 193.133 149.818 193.133H155.296C156.136 193.133 156.817 193.814 156.817 194.654V194.654C156.817 195.495 156.136 196.176 155.296 196.176H149.818C148.978 196.176 148.297 195.495 148.297 194.654V194.654Z" fill="#039768"/>
<path d="M168.71 191.631C167.063 190.09 160.473 188.678 156.562 189.57C154.55 190.028 155.024 199.325 156.286 200.076C158.419 201.347 166.556 199.929 168.282 198.848C169.716 197.949 169.556 192.421 168.71 191.631Z" fill="#257D61"/>
<circle cx="150.023" cy="194.654" r="0.710046" fill="#F5F5F5"/>
</svg>
