<svg width="822" height="683" viewBox="0 0 822 683" fill="none" xmlns="http://www.w3.org/2000/svg">
<path d="M393.5 683C610.824 683 787 663.077 787 638.5C787 613.923 610.824 594 393.5 594C176.176 594 0 613.923 0 638.5C0 663.077 176.176 683 393.5 683Z" fill="#F5F5F5"/>
<path d="M748.974 58.4253C742.353 115.394 708.589 153.925 683.928 175.011C683.531 116.089 682.439 72.5599 680.188 55.2806C674.097 8.24243 653.507 0 630.038 0C605.973 0 586.608 24.0984 587.005 53.46C586.078 95.8307 587.402 196.329 589.488 316.688C575.51 295.547 566.824 271.352 564.165 246.148C558.041 186.564 495.113 197.355 499.284 259.058C502.594 309.34 526.693 379.947 591.11 406.329C592.5 481.074 594.023 559.46 595.38 633.807H681.445C682.439 503.418 684.027 355.054 684.061 240.156C779.229 226.915 810.279 135.917 819.184 74.0164C828.783 7.5473 756.587 -6.22323 748.974 58.4253Z" fill="#5F2AA3"/>
<path opacity="0.2" d="M748.974 58.4253C742.353 115.394 708.589 153.925 683.928 175.011C683.531 116.089 682.439 72.5599 680.188 55.2806C674.097 8.24243 653.507 0 630.038 0C605.973 0 586.608 24.0984 587.005 53.46C586.078 95.8308 587.402 196.329 589.488 316.688C575.51 295.547 566.824 271.352 564.165 246.148C558.041 186.564 495.113 197.355 499.284 259.058C502.594 309.34 526.693 379.947 591.11 406.329C592.5 481.074 594.023 559.46 595.38 633.807H681.445C682.439 503.418 684.027 355.054 684.061 240.156C779.229 226.915 810.279 135.917 819.184 74.0164C828.783 7.5473 756.587 -6.22323 748.974 58.4253Z" fill="white"/>
<path d="M662.211 239.693C666.713 249.127 678.762 257.336 684.058 260.713C684.058 253.717 684.058 246.865 684.058 240.156C676.776 240.608 669.468 240.453 662.211 239.693Z" fill="#4C257D"/>
<path d="M591.109 406.328C591.308 416.413 591.507 426.576 591.705 436.815C595.711 432.909 611.566 417.881 616.631 407.023C608.189 408.818 599.441 408.579 591.109 406.328Z" fill="#4C257D"/>
<path d="M597.991 55.0817C597.618 55.077 597.257 54.949 596.965 54.7176L589.451 48.7261C589.115 48.4423 588.9 48.0407 588.851 47.6037C588.801 47.1666 588.921 46.7272 589.186 46.3758C589.47 46.0376 589.874 45.8239 590.314 45.7806C590.753 45.7373 591.192 45.8678 591.536 46.1441L599.017 52.1356C599.19 52.2681 599.334 52.434 599.441 52.6234C599.548 52.8128 599.616 53.0218 599.641 53.238C599.666 53.4542 599.647 53.6732 599.585 53.8819C599.523 54.0906 599.42 54.2847 599.282 54.4528C599.125 54.6444 598.928 54.7998 598.705 54.9083C598.482 55.0169 598.239 55.076 597.991 55.0817Z" fill="#4C257D"/>
<path d="M657.842 16.3203C657.565 16.3177 657.293 16.2497 657.048 16.1217C656.666 15.9062 656.386 15.5482 656.268 15.1262C656.15 14.7043 656.204 14.2528 656.419 13.8708L660.259 7.01862C660.358 6.81684 660.498 6.63747 660.669 6.49145C660.84 6.34544 661.039 6.23586 661.254 6.1694C661.469 6.10294 661.695 6.08098 661.919 6.1049C662.143 6.12882 662.359 6.19815 662.555 6.30855C662.751 6.41896 662.923 6.56817 663.059 6.74708C663.196 6.92599 663.294 7.13085 663.349 7.34911C663.403 7.56737 663.413 7.79443 663.377 8.0165C663.341 8.23856 663.26 8.45096 663.139 8.64065L659.299 15.4928C659.151 15.7478 658.939 15.959 658.683 16.1044C658.427 16.2499 658.137 16.3244 657.842 16.3203Z" fill="#4C257D"/>
<path d="M626.233 47.1357C625.954 47.1741 625.67 47.1393 625.409 47.0349C625.148 46.9304 624.919 46.7598 624.743 46.5399L621.433 41.6076C621.31 41.4284 621.224 41.2262 621.181 41.0132C621.138 40.8001 621.138 40.5805 621.181 40.3675C621.224 40.1544 621.31 39.9522 621.433 39.7729C621.556 39.5936 621.713 39.4408 621.896 39.3236C622.261 39.0841 622.706 38.9984 623.134 39.0852C623.562 39.172 623.938 39.4242 624.18 39.7871L627.491 44.7193C627.73 45.0842 627.816 45.5289 627.729 45.9567C627.642 46.3845 627.39 46.7606 627.027 47.0033C626.778 47.115 626.505 47.1605 626.233 47.1357Z" fill="#4C257D"/>
<path d="M605.906 12.9098C605.5 12.9111 605.109 12.7571 604.814 12.4795L599.914 8.20928C599.644 7.90939 599.492 7.52094 599.488 7.1171C599.484 6.71327 599.628 6.32193 599.893 6.01674C600.157 5.71155 600.524 5.51361 600.924 5.46018C601.325 5.40674 601.731 5.50149 602.066 5.72661L606.998 9.99682C607.327 10.2897 607.528 10.6993 607.559 11.1383C607.59 11.5773 607.448 12.011 607.164 12.347C607.004 12.5224 606.81 12.663 606.594 12.7598C606.377 12.8567 606.143 12.9077 605.906 12.9098Z" fill="#4C257D"/>
<path d="M668.404 79.048C668.016 79.0413 667.641 78.901 667.345 78.6507C667.177 78.5134 667.038 78.3438 666.937 78.152C666.836 77.9602 666.774 77.7501 666.756 77.5341C666.737 77.3181 666.762 77.1005 666.829 76.8943C666.896 76.6881 667.004 76.4974 667.146 76.3336L671.648 70.971C671.943 70.6917 672.331 70.5308 672.737 70.5191C673.144 70.5074 673.54 70.6456 673.851 70.9075C674.162 71.1694 674.366 71.5365 674.424 71.939C674.481 72.3414 674.389 72.751 674.164 73.0896L669.695 78.4521C669.537 78.6411 669.34 78.7927 669.117 78.8957C668.893 78.9988 668.65 79.0508 668.404 79.048Z" fill="#4C257D"/>
<path d="M628.05 118.207C627.707 118.209 627.371 118.105 627.09 117.909L622.588 114.598C622.409 114.473 622.257 114.313 622.14 114.129C622.023 113.944 621.944 113.738 621.907 113.523C621.87 113.307 621.876 113.087 621.925 112.874C621.973 112.661 622.064 112.459 622.191 112.281C622.455 111.932 622.844 111.699 623.276 111.631C623.708 111.563 624.15 111.666 624.508 111.917L629.01 115.227C629.357 115.485 629.589 115.869 629.657 116.295C629.725 116.722 629.624 117.159 629.374 117.511C629.227 117.727 629.03 117.903 628.799 118.025C628.568 118.146 628.311 118.208 628.05 118.207Z" fill="#4C257D"/>
<path d="M621.102 86.2643C620.744 86.2667 620.394 86.1503 620.109 85.9333L613.687 81.0011C613.5 80.8743 613.341 80.7105 613.22 80.5199C613.098 80.3293 613.017 80.1158 612.982 79.8927C612.946 79.6696 612.956 79.4416 613.012 79.2226C613.068 79.0037 613.168 78.7985 613.306 78.6196C613.444 78.4408 613.617 78.2921 613.815 78.1828C614.013 78.0734 614.231 78.0058 614.456 77.9839C614.681 77.962 614.908 77.9863 615.123 78.0555C615.338 78.1246 615.536 78.2371 615.706 78.386L622.128 83.3182C622.395 83.5322 622.589 83.8235 622.683 84.1522C622.778 84.4808 622.768 84.8307 622.655 85.1536C622.543 85.4766 622.333 85.7568 622.055 85.9556C621.777 86.1545 621.444 86.2623 621.102 86.2643Z" fill="#4C257D"/>
<path d="M590.282 140.686C590.052 140.69 589.824 140.644 589.612 140.553C589.401 140.462 589.212 140.326 589.057 140.156L581.973 132.212C581.67 131.902 581.5 131.486 581.5 131.053C581.5 130.62 581.67 130.204 581.973 129.895C582.127 129.74 582.31 129.616 582.512 129.532C582.713 129.448 582.93 129.405 583.148 129.405C583.367 129.405 583.583 129.448 583.785 129.532C583.986 129.616 584.17 129.74 584.323 129.895L591.374 137.806C591.599 138.039 591.749 138.333 591.805 138.651C591.861 138.97 591.82 139.298 591.689 139.593C591.557 139.888 591.34 140.138 591.066 140.309C590.792 140.48 590.472 140.565 590.149 140.554L590.282 140.686Z" fill="#4C257D"/>
<path d="M679.132 136.746C678.742 136.751 678.364 136.609 678.073 136.349C677.737 136.071 677.524 135.672 677.481 135.238C677.437 134.804 677.567 134.37 677.842 134.031L685.124 125.359C685.263 125.191 685.434 125.053 685.626 124.952C685.819 124.85 686.03 124.788 686.246 124.768C686.463 124.748 686.681 124.771 686.889 124.835C687.097 124.9 687.29 125.004 687.458 125.143C687.625 125.283 687.763 125.453 687.865 125.646C687.966 125.838 688.029 126.049 688.049 126.266C688.069 126.483 688.046 126.701 687.981 126.909C687.917 127.117 687.812 127.31 687.673 127.477L680.39 136.15C680.238 136.336 680.046 136.487 679.829 136.59C679.611 136.693 679.373 136.746 679.132 136.746Z" fill="#4C257D"/>
<path d="M661.984 49.8513C661.608 49.8638 661.242 49.7337 660.958 49.4872C660.788 49.3523 660.646 49.1845 660.542 48.9939C660.438 48.8033 660.373 48.5938 660.352 48.3776C660.33 48.1615 660.352 47.9433 660.417 47.7359C660.481 47.5284 660.586 47.336 660.726 47.1701L664.996 41.9068C665.274 41.5708 665.674 41.3579 666.107 41.3145C666.541 41.2711 666.975 41.4007 667.314 41.6751C667.485 41.813 667.627 41.9837 667.731 42.1771C667.836 42.3705 667.901 42.5828 667.922 42.8016C667.944 43.0204 667.922 43.2413 667.857 43.4514C667.792 43.6615 667.686 43.8567 667.545 44.0254L663.275 49.2555C663.118 49.4445 662.92 49.596 662.697 49.6991C662.474 49.8022 662.23 49.8542 661.984 49.8513Z" fill="#4C257D"/>
<path d="M700.878 162.73C700.439 162.73 700.018 162.556 699.707 162.245C699.397 161.935 699.223 161.514 699.223 161.075V153.793C699.223 153.354 699.397 152.933 699.707 152.622C700.018 152.312 700.439 152.137 700.878 152.137C701.314 152.146 701.73 152.323 702.039 152.632C702.347 152.94 702.524 153.356 702.533 153.793V161.075C702.533 161.514 702.358 161.935 702.048 162.245C701.738 162.556 701.317 162.73 700.878 162.73Z" fill="#4C257D"/>
<path d="M731.757 128.073C731.525 128.068 731.297 128.016 731.086 127.919C730.876 127.822 730.687 127.683 730.533 127.51L723.482 119.599C723.327 119.445 723.204 119.262 723.119 119.06C723.035 118.858 722.992 118.642 722.992 118.423C722.992 118.205 723.035 117.989 723.119 117.787C723.204 117.585 723.327 117.402 723.482 117.248C723.791 116.945 724.207 116.775 724.64 116.775C725.074 116.775 725.49 116.945 725.799 117.248L732.883 125.16C733.188 125.475 733.359 125.896 733.359 126.335C733.359 126.774 733.188 127.195 732.883 127.51C732.596 127.838 732.192 128.041 731.757 128.073Z" fill="#4C257D"/>
<path d="M803.922 49.8532C803.63 49.8589 803.342 49.7783 803.095 49.6214C802.713 49.4059 802.433 49.0479 802.315 48.626C802.197 48.204 802.251 47.7526 802.466 47.3705L806.802 39.9225C807.018 39.5411 807.376 39.2607 807.798 39.1428C808.219 39.025 808.671 39.0791 809.053 39.2936C809.429 39.5147 809.702 39.8751 809.814 40.2965C809.925 40.718 809.866 41.1665 809.649 41.5445L805.379 49.0587C805.227 49.3076 805.013 49.5121 804.757 49.6516C804.501 49.7911 804.213 49.8606 803.922 49.8532Z" fill="#4C257D"/>
<path d="M761.091 34.9569C760.765 34.951 760.448 34.851 760.178 34.6689C759.908 34.4868 759.696 34.2305 759.569 33.9307L755.067 22.7753C754.904 22.3671 754.911 21.911 755.084 21.5075C755.258 21.104 755.585 20.786 755.993 20.6236C756.402 20.4612 756.858 20.4676 757.261 20.6415C757.665 20.8153 757.983 21.1422 758.145 21.5505L762.647 32.6728C762.728 32.8749 762.768 33.0909 762.765 33.3085C762.762 33.5261 762.716 33.741 762.63 33.9409C762.544 34.1407 762.419 34.3216 762.263 34.4732C762.107 34.6249 761.922 34.7442 761.72 34.8245C761.524 34.9183 761.308 34.9637 761.091 34.9569Z" fill="#4C257D"/>
<path d="M792.141 24.2305C791.933 24.2623 791.721 24.2623 791.512 24.2305C791.309 24.1472 791.124 24.0243 790.969 23.869C790.814 23.7136 790.691 23.5288 790.608 23.3254C790.524 23.1221 790.483 22.9042 790.484 22.6845C790.486 22.4647 790.532 22.2477 790.619 22.0458L793.929 14.3329C794.012 14.1337 794.134 13.953 794.287 13.8015C794.441 13.6499 794.623 13.5306 794.824 13.4505C795.024 13.3703 795.239 13.331 795.454 13.3347C795.67 13.3385 795.883 13.3852 796.081 13.4723C796.283 13.552 796.467 13.6717 796.622 13.824C796.777 13.9763 796.9 14.1582 796.983 14.3589C797.066 14.5596 797.109 14.7749 797.107 14.9922C797.106 15.2096 797.06 15.4244 796.974 15.6239L793.565 23.3698C793.427 23.6284 793.222 23.845 792.972 23.9965C792.721 24.148 792.434 24.2289 792.141 24.2305Z" fill="#4C257D"/>
<path d="M778.002 111.156C777.738 111.152 777.478 111.087 777.242 110.967C777.007 110.846 776.803 110.673 776.645 110.461C776.52 110.281 776.431 110.078 776.385 109.863C776.339 109.649 776.335 109.428 776.375 109.212C776.415 108.996 776.498 108.791 776.618 108.608C776.738 108.424 776.894 108.266 777.075 108.143L784.126 103.211C784.303 103.074 784.507 102.974 784.725 102.917C784.942 102.861 785.169 102.849 785.391 102.883C785.613 102.917 785.825 102.996 786.016 103.115C786.207 103.234 786.371 103.39 786.499 103.575C786.627 103.759 786.717 103.968 786.762 104.188C786.807 104.408 786.806 104.635 786.761 104.855C786.715 105.074 786.626 105.283 786.497 105.467C786.368 105.651 786.204 105.807 786.013 105.926L778.962 110.858C778.679 111.05 778.345 111.154 778.002 111.156Z" fill="#4C257D"/>
<path d="M761.95 77.5586C761.619 77.5589 761.295 77.4575 761.022 77.2681C760.75 77.0787 760.543 76.8104 760.427 76.4993L758.276 71.1699C758.109 70.7617 758.111 70.3039 758.282 69.8972C758.453 69.4906 758.778 69.1685 759.186 69.0017C759.594 68.8349 760.052 68.8371 760.459 69.0078C760.865 69.1785 761.188 69.5038 761.354 69.912L763.506 75.2745C763.66 75.6834 763.649 76.1361 763.477 76.5373C763.304 76.9386 762.982 77.2572 762.579 77.4262C762.382 77.5177 762.167 77.563 761.95 77.5586Z" fill="#4C257D"/>
<path d="M793.759 155.449C793.451 155.461 793.146 155.383 792.882 155.224C792.617 155.065 792.404 154.833 792.27 154.556C792.168 154.363 792.106 154.152 792.088 153.935C792.069 153.718 792.095 153.499 792.163 153.292C792.231 153.085 792.34 152.894 792.483 152.73C792.627 152.566 792.802 152.433 792.998 152.338L798.46 149.557C798.653 149.455 798.864 149.393 799.081 149.375C799.298 149.357 799.516 149.382 799.723 149.45C799.93 149.518 800.122 149.627 800.286 149.771C800.45 149.914 800.583 150.089 800.678 150.285C800.874 150.676 800.908 151.129 800.771 151.545C800.635 151.96 800.339 152.305 799.949 152.503L794.488 155.284C794.263 155.401 794.012 155.458 793.759 155.449Z" fill="#4C257D"/>
<path d="M739.905 188.65C739.466 188.702 739.024 188.579 738.676 188.305C738.329 188.032 738.104 187.632 738.051 187.193C737.998 186.754 738.122 186.312 738.395 185.965C738.668 185.617 739.068 185.392 739.507 185.34L745.267 183.85C745.485 183.796 745.711 183.785 745.932 183.818C746.154 183.851 746.367 183.927 746.559 184.042C746.751 184.157 746.918 184.309 747.052 184.489C747.185 184.669 747.282 184.874 747.336 185.091C747.39 185.309 747.401 185.535 747.368 185.756C747.335 185.978 747.259 186.191 747.144 186.383C747.029 186.575 746.877 186.742 746.697 186.876C746.517 187.009 746.312 187.106 746.095 187.16L740.335 188.65H739.905Z" fill="#4C257D"/>
<path d="M740.765 163.592C740.326 163.618 739.895 163.469 739.566 163.177C739.237 162.886 739.037 162.475 739.011 162.036C738.984 161.597 739.134 161.166 739.425 160.837C739.717 160.508 740.128 160.308 740.567 160.282L747.617 159.421C747.835 159.395 748.055 159.412 748.266 159.471C748.477 159.53 748.674 159.63 748.846 159.765C749.018 159.901 749.162 160.068 749.269 160.259C749.376 160.45 749.445 160.66 749.471 160.878C749.497 161.095 749.48 161.315 749.421 161.526C749.362 161.737 749.262 161.934 749.127 162.106C748.992 162.278 748.824 162.422 748.633 162.529C748.442 162.637 748.232 162.705 748.015 162.731L740.964 163.592H740.765Z" fill="#4C257D"/>
<path d="M714.114 234.395H713.717L704.978 232.31C704.555 232.193 704.192 231.919 703.964 231.543C703.737 231.168 703.661 230.72 703.753 230.291C703.863 229.863 704.135 229.495 704.513 229.266C704.89 229.037 705.342 228.965 705.772 229.066L714.511 231.184C714.936 231.287 715.304 231.553 715.533 231.925C715.763 232.297 715.835 232.745 715.736 233.17C715.64 233.526 715.429 233.839 715.135 234.061C714.841 234.283 714.482 234.401 714.114 234.395Z" fill="#4C257D"/>
<path d="M702.431 208.544C702.156 208.548 701.884 208.482 701.641 208.352C701.398 208.221 701.192 208.031 701.043 207.8C700.894 207.568 700.806 207.302 700.788 207.026C700.771 206.751 700.824 206.476 700.942 206.227L704.782 197.654C704.969 197.261 705.301 196.955 705.708 196.801C706.115 196.647 706.566 196.656 706.966 196.826C707.167 196.912 707.348 197.038 707.5 197.194C707.652 197.351 707.771 197.536 707.851 197.739C707.931 197.942 707.97 198.159 707.966 198.377C707.962 198.596 707.915 198.811 707.827 199.011L703.954 207.584C703.82 207.874 703.605 208.119 703.335 208.289C703.064 208.46 702.751 208.548 702.431 208.544Z" fill="#4C257D"/>
<path d="M814.19 83.6492C813.921 83.6498 813.656 83.5835 813.419 83.4564C813.182 83.3293 812.981 83.1453 812.832 82.9209C812.707 82.741 812.619 82.538 812.572 82.3237C812.526 82.1093 812.523 81.8879 812.563 81.6723C812.603 81.4567 812.686 81.2513 812.806 81.0678C812.926 80.8844 813.081 80.7266 813.263 80.6037L819.155 76.6646C819.519 76.4188 819.966 76.3278 820.398 76.4116C820.829 76.4954 821.21 76.7472 821.455 77.1115C821.701 77.4758 821.792 77.9229 821.709 78.3543C821.625 78.7858 821.373 79.1662 821.009 79.4121L815.116 83.3512C814.845 83.5431 814.522 83.6471 814.19 83.6492Z" fill="#4C257D"/>
<path d="M763.769 139.626C763.338 139.617 762.927 139.445 762.619 139.143C762.312 138.842 762.131 138.434 762.114 138.004L761.915 127.312C761.906 127.093 761.942 126.875 762.019 126.671C762.097 126.466 762.215 126.279 762.366 126.122C762.518 125.964 762.7 125.838 762.901 125.753C763.102 125.667 763.319 125.623 763.537 125.623C763.755 125.619 763.971 125.657 764.173 125.737C764.376 125.816 764.561 125.934 764.718 126.085C764.874 126.235 765 126.415 765.087 126.614C765.174 126.814 765.221 127.028 765.226 127.245L765.424 137.937C765.429 138.155 765.39 138.371 765.311 138.573C765.232 138.776 765.114 138.961 764.963 139.118C764.812 139.274 764.632 139.4 764.433 139.487C764.234 139.574 764.02 139.621 763.802 139.626H763.769Z" fill="#4C257D"/>
<path d="M588.559 175.641C588.19 175.644 587.83 175.528 587.533 175.31L581.707 170.51C581.365 170.237 581.146 169.84 581.097 169.406C581.047 168.972 581.171 168.536 581.442 168.193C581.574 168.021 581.74 167.876 581.929 167.769C582.119 167.662 582.328 167.594 582.544 167.569C582.76 167.545 582.979 167.564 583.188 167.625C583.397 167.687 583.591 167.79 583.759 167.928L589.75 172.629C590.017 172.843 590.211 173.134 590.305 173.463C590.4 173.792 590.39 174.141 590.278 174.464C590.165 174.787 589.955 175.067 589.677 175.266C589.399 175.465 589.066 175.573 588.724 175.575L588.559 175.641Z" fill="#4C257D"/>
<path d="M624.745 193.549C624.515 193.552 624.287 193.507 624.076 193.416C623.864 193.324 623.675 193.189 623.52 193.019L616.9 185.538C616.745 185.384 616.622 185.201 616.538 184.999C616.454 184.798 616.41 184.581 616.41 184.363C616.41 184.144 616.454 183.928 616.538 183.726C616.622 183.525 616.745 183.341 616.9 183.188C617.051 183.033 617.231 182.911 617.43 182.827C617.629 182.744 617.843 182.701 618.058 182.701C618.274 182.701 618.488 182.744 618.687 182.827C618.886 182.911 619.066 183.033 619.217 183.188L625.837 190.669C626.062 190.901 626.212 191.196 626.268 191.514C626.324 191.832 626.283 192.16 626.152 192.456C626.02 192.751 625.803 193 625.529 193.171C625.255 193.342 624.936 193.428 624.613 193.416L624.745 193.549Z" fill="#4C257D"/>
<path d="M649.371 163.161C649.094 163.162 648.821 163.094 648.577 162.962C648.385 162.858 648.216 162.717 648.079 162.548C647.942 162.378 647.84 162.183 647.778 161.974C647.717 161.765 647.697 161.546 647.721 161.329C647.744 161.112 647.81 160.902 647.915 160.711L652.185 152.998C652.4 152.612 652.76 152.327 653.185 152.206C653.61 152.085 654.066 152.138 654.453 152.353C654.839 152.568 655.124 152.928 655.245 153.353C655.366 153.778 655.313 154.234 655.098 154.62L650.828 162.399C650.668 162.637 650.451 162.832 650.196 162.965C649.942 163.098 649.658 163.165 649.371 163.161Z" fill="#4C257D"/>
<path d="M592.632 246.445C592.376 246.442 592.123 246.381 591.894 246.266C591.664 246.152 591.464 245.986 591.308 245.783L584.258 236.58C584.109 236.41 583.996 236.211 583.927 235.996C583.858 235.781 583.834 235.554 583.855 235.329C583.877 235.104 583.945 234.886 584.054 234.689C584.164 234.491 584.312 234.318 584.491 234.18C584.67 234.042 584.875 233.942 585.094 233.886C585.313 233.83 585.541 233.82 585.764 233.855C585.987 233.891 586.201 233.972 586.391 234.094C586.582 234.215 586.746 234.374 586.873 234.561L593.957 243.763C594.093 243.933 594.194 244.129 594.253 244.339C594.312 244.549 594.328 244.769 594.3 244.985C594.272 245.201 594.201 245.41 594.091 245.598C593.981 245.786 593.834 245.95 593.659 246.08C593.366 246.312 593.005 246.44 592.632 246.445Z" fill="#4C257D"/>
<path d="M608.187 233.37C607.814 233.365 607.453 233.237 607.161 233.006C606.815 232.738 606.589 232.343 606.533 231.909C606.477 231.475 606.596 231.036 606.863 230.689L610.504 225.988C610.777 225.647 611.174 225.428 611.608 225.378C612.042 225.329 612.478 225.453 612.821 225.724C612.996 225.854 613.143 226.018 613.253 226.206C613.364 226.394 613.435 226.602 613.463 226.819C613.49 227.035 613.474 227.255 613.415 227.465C613.356 227.675 613.255 227.871 613.119 228.041L609.478 232.708C609.329 232.911 609.134 233.077 608.91 233.192C608.686 233.306 608.439 233.368 608.187 233.37Z" fill="#4C257D"/>
<path d="M673.135 233.37C672.868 233.362 672.606 233.292 672.37 233.166C672.135 233.039 671.932 232.86 671.778 232.641C671.535 232.281 671.444 231.839 671.525 231.411C671.605 230.984 671.851 230.605 672.208 230.357L677.736 226.518C678.098 226.27 678.543 226.172 678.975 226.247C679.408 226.321 679.795 226.56 680.053 226.915C680.179 227.095 680.267 227.298 680.313 227.512C680.36 227.726 680.363 227.948 680.323 228.163C680.283 228.379 680.2 228.584 680.08 228.768C679.96 228.951 679.805 229.109 679.623 229.232L674.095 233.072C673.812 233.264 673.478 233.368 673.135 233.37Z" fill="#4C257D"/>
<path d="M675.919 290.306C675.646 290.304 675.378 290.236 675.136 290.11C674.894 289.983 674.686 289.801 674.529 289.578C674.407 289.397 674.323 289.193 674.283 288.978C674.242 288.764 674.245 288.543 674.291 288.33C674.337 288.117 674.426 287.915 674.552 287.737C674.679 287.559 674.839 287.408 675.025 287.294L684.426 281.071C684.791 280.831 685.236 280.745 685.664 280.832C686.091 280.919 686.468 281.171 686.71 281.534C686.952 281.904 687.038 282.354 686.951 282.787C686.865 283.22 686.612 283.602 686.247 283.851L676.846 290.041C676.572 290.223 676.248 290.316 675.919 290.306Z" fill="#4C257D"/>
<path d="M590.913 289.049C590.611 289.047 590.317 288.962 590.06 288.805C589.803 288.647 589.595 288.423 589.456 288.155L586.477 282.363C586.345 282.17 586.255 281.951 586.214 281.721C586.172 281.49 586.18 281.254 586.237 281.027C586.293 280.8 586.397 280.588 586.542 280.404C586.687 280.22 586.869 280.069 587.076 279.961C587.283 279.853 587.511 279.789 587.745 279.775C587.978 279.762 588.212 279.797 588.43 279.881C588.649 279.964 588.848 280.092 589.013 280.257C589.178 280.423 589.307 280.621 589.39 280.84L592.402 286.633C592.504 286.825 592.566 287.037 592.584 287.254C592.602 287.471 592.577 287.689 592.509 287.896C592.441 288.103 592.332 288.295 592.189 288.459C592.045 288.623 591.87 288.756 591.674 288.851C591.442 288.982 591.179 289.051 590.913 289.049Z" fill="#4C257D"/>
<path d="M620.24 295.471C620.016 295.472 619.793 295.425 619.588 295.334C619.382 295.243 619.199 295.109 619.049 294.941L612.428 288.089C612.274 287.938 612.152 287.758 612.068 287.559C611.984 287.36 611.941 287.146 611.941 286.93C611.941 286.715 611.984 286.501 612.068 286.302C612.152 286.103 612.274 285.923 612.428 285.772C612.582 285.617 612.765 285.494 612.967 285.41C613.169 285.326 613.385 285.282 613.603 285.282C613.822 285.282 614.038 285.326 614.24 285.41C614.442 285.494 614.625 285.617 614.778 285.772L621.399 292.624C621.554 292.778 621.677 292.961 621.761 293.163C621.845 293.364 621.889 293.581 621.889 293.799C621.889 294.018 621.845 294.234 621.761 294.436C621.677 294.637 621.554 294.82 621.399 294.974C621.089 295.28 620.675 295.458 620.24 295.471Z" fill="#4C257D"/>
<path d="M644.607 277.033C644.353 277.046 644.102 276.988 643.879 276.868C643.681 276.779 643.503 276.652 643.356 276.492C643.21 276.332 643.097 276.145 643.026 275.94C642.955 275.735 642.926 275.518 642.942 275.302C642.957 275.086 643.017 274.875 643.117 274.683L647.586 265.448C647.785 265.058 648.127 264.761 648.541 264.619C648.955 264.477 649.408 264.501 649.804 264.686C650.193 264.885 650.49 265.228 650.632 265.641C650.774 266.055 650.75 266.508 650.565 266.904L646.063 276.107C645.936 276.385 645.73 276.621 645.472 276.785C645.214 276.949 644.913 277.036 644.607 277.033Z" fill="#4C257D"/>
<path d="M552.383 227.379H551.92C551.707 227.333 551.506 227.244 551.328 227.118C551.151 226.992 551 226.831 550.886 226.646C550.772 226.461 550.696 226.254 550.663 226.039C550.63 225.824 550.641 225.604 550.695 225.393L553.244 214.469C553.294 214.252 553.386 214.047 553.516 213.865C553.645 213.683 553.809 213.529 553.998 213.411C554.187 213.292 554.397 213.212 554.617 213.175C554.837 213.138 555.062 213.145 555.28 213.195C555.497 213.245 555.702 213.337 555.884 213.467C556.066 213.596 556.22 213.76 556.339 213.949C556.457 214.138 556.537 214.348 556.574 214.568C556.611 214.788 556.604 215.013 556.554 215.231L553.972 226.154C553.883 226.507 553.678 226.82 553.39 227.042C553.102 227.264 552.747 227.383 552.383 227.379Z" fill="#4C257D"/>
<path d="M507.857 241.845C507.551 241.838 507.253 241.747 506.996 241.581L497.065 235.258C496.855 235.157 496.668 235.013 496.517 234.835C496.366 234.656 496.254 234.448 496.19 234.224C496.125 233.999 496.109 233.764 496.141 233.532C496.174 233.301 496.256 233.079 496.38 232.882C496.505 232.684 496.67 232.515 496.865 232.386C497.059 232.257 497.279 232.17 497.509 232.132C497.74 232.094 497.976 232.105 498.202 232.165C498.427 232.224 498.638 232.331 498.82 232.477L508.751 238.767C509.117 239.005 509.378 239.376 509.477 239.802C509.575 240.228 509.505 240.676 509.28 241.051C509.127 241.291 508.917 241.489 508.669 241.627C508.42 241.766 508.141 241.841 507.857 241.845Z" fill="#4C257D"/>
<path d="M511.728 305.303C511.41 305.308 511.098 305.215 510.834 305.038L501.963 299.477C501.774 299.365 501.61 299.216 501.481 299.039C501.352 298.863 501.259 298.661 501.21 298.448C501.16 298.234 501.155 298.013 501.193 297.797C501.231 297.582 501.313 297.376 501.433 297.193C501.671 296.824 502.044 296.565 502.473 296.472C502.901 296.379 503.348 296.46 503.717 296.696L512.589 302.257C512.886 302.449 513.114 302.732 513.24 303.063C513.365 303.394 513.38 303.757 513.284 304.098C513.188 304.439 512.984 304.74 512.704 304.957C512.424 305.174 512.082 305.295 511.728 305.303Z" fill="#4C257D"/>
<path d="M536.553 301.032C536.117 300.998 535.711 300.796 535.421 300.469C535.131 300.141 534.979 299.714 534.998 299.277L535.428 291.796C535.45 291.357 535.645 290.945 535.971 290.65C536.297 290.355 536.727 290.202 537.166 290.224C537.605 290.246 538.017 290.441 538.312 290.767C538.607 291.093 538.76 291.523 538.738 291.962L538.308 299.476C538.274 299.912 538.072 300.318 537.745 300.608C537.417 300.898 536.99 301.05 536.553 301.032Z" fill="#4C257D"/>
<path d="M567.804 328.838C567.365 328.838 566.944 328.664 566.633 328.353C566.323 328.043 566.148 327.622 566.148 327.183V319.702C566.148 319.263 566.323 318.842 566.633 318.532C566.944 318.221 567.365 318.047 567.804 318.047C568.243 318.047 568.664 318.221 568.974 318.532C569.284 318.842 569.459 319.263 569.459 319.702V327.183C569.459 327.622 569.284 328.043 568.974 328.353C568.664 328.664 568.243 328.838 567.804 328.838Z" fill="#4C257D"/>
<path d="M556.453 362.667H556.155L547.151 360.979C546.934 360.938 546.727 360.854 546.542 360.733C546.357 360.612 546.198 360.455 546.073 360.272C545.949 360.089 545.862 359.884 545.817 359.667C545.771 359.45 545.77 359.227 545.811 359.01C545.852 358.792 545.936 358.585 546.057 358.4C546.178 358.215 546.335 358.056 546.518 357.931C546.701 357.807 546.906 357.72 547.123 357.675C547.34 357.63 547.563 357.628 547.78 357.669L556.784 359.39C556.998 359.426 557.202 359.504 557.385 359.621C557.567 359.738 557.723 359.892 557.844 360.071C557.965 360.251 558.048 360.454 558.088 360.667C558.128 360.88 558.123 361.099 558.075 361.31C558.012 361.693 557.813 362.04 557.516 362.289C557.218 362.539 556.841 362.673 556.453 362.667Z" fill="#4C257D"/>
<path d="M550.694 265.909H550.397C549.968 265.836 549.585 265.597 549.331 265.244C549.077 264.891 548.972 264.452 549.039 264.023L550.33 256.74C550.366 256.525 550.445 256.318 550.561 256.133C550.677 255.948 550.829 255.788 551.007 255.661C551.186 255.535 551.388 255.446 551.601 255.398C551.814 255.35 552.035 255.345 552.25 255.383C552.682 255.464 553.065 255.709 553.318 256.068C553.571 256.426 553.675 256.869 553.607 257.303L552.316 264.585C552.246 264.962 552.045 265.302 551.748 265.544C551.451 265.787 551.078 265.916 550.694 265.909Z" fill="#4C257D"/>
<path d="M655.361 341.481C655.059 341.454 654.771 341.339 654.534 341.15C654.353 341.031 654.199 340.876 654.079 340.695C653.959 340.515 653.877 340.312 653.837 340.099C653.797 339.886 653.799 339.667 653.845 339.456C653.891 339.244 653.979 339.044 654.103 338.866L659.665 330.723C659.773 330.516 659.924 330.334 660.107 330.189C660.291 330.044 660.503 329.94 660.73 329.883C660.957 329.826 661.193 329.818 661.423 329.859C661.654 329.9 661.873 329.99 662.066 330.121C662.259 330.253 662.422 330.425 662.544 330.624C662.666 330.824 662.744 331.047 662.774 331.279C662.804 331.511 662.784 331.746 662.716 331.97C662.648 332.194 662.533 332.401 662.379 332.577L656.818 340.72C656.662 340.963 656.446 341.161 656.191 341.294C655.935 341.428 655.649 341.492 655.361 341.481Z" fill="#4C257D"/>
<path d="M679.327 375.08C678.944 375.075 678.572 374.947 678.267 374.716C677.934 374.427 677.727 374.02 677.69 373.581C677.652 373.142 677.789 372.705 678.069 372.365L685.55 363.395C685.685 363.224 685.853 363.083 686.043 362.979C686.234 362.875 686.443 362.81 686.659 362.788C686.876 362.767 687.094 362.789 687.301 362.853C687.509 362.917 687.701 363.023 687.867 363.163C688.038 363.301 688.18 363.472 688.285 363.665C688.389 363.858 688.454 364.071 688.476 364.289C688.497 364.508 688.475 364.729 688.41 364.939C688.346 365.149 688.24 365.344 688.099 365.513L680.618 374.484C680.459 374.671 680.261 374.821 680.038 374.924C679.815 375.027 679.572 375.08 679.327 375.08Z" fill="#4C257D"/>
<path d="M647.917 397.425C647.532 397.43 647.157 397.301 646.857 397.061C646.524 396.772 646.317 396.365 646.279 395.926C646.242 395.487 646.378 395.05 646.659 394.71L654.14 385.74C654.428 385.408 654.832 385.2 655.269 385.157C655.706 385.114 656.143 385.239 656.49 385.508C656.823 385.796 657.031 386.203 657.068 386.643C657.105 387.082 656.969 387.518 656.689 387.858L649.208 396.829C649.05 397.018 648.853 397.169 648.629 397.272C648.406 397.375 648.163 397.427 647.917 397.425Z" fill="#4C257D"/>
<path d="M604.185 365.448C603.861 365.449 603.545 365.356 603.275 365.179C603.004 365.003 602.791 364.751 602.662 364.455L599.054 356.113C598.937 355.912 598.865 355.688 598.841 355.457C598.817 355.226 598.842 354.992 598.914 354.771C598.987 354.55 599.105 354.346 599.261 354.174C599.417 354.002 599.608 353.864 599.821 353.771C600.034 353.677 600.264 353.63 600.497 353.631C600.729 353.632 600.959 353.683 601.171 353.779C601.383 353.875 601.572 354.014 601.726 354.189C601.88 354.363 601.996 354.567 602.066 354.789L605.707 363.131C605.795 363.331 605.842 363.546 605.846 363.764C605.85 363.983 605.811 364.199 605.731 364.402C605.651 364.605 605.532 364.791 605.38 364.947C605.228 365.104 605.047 365.229 604.846 365.316C604.637 365.404 604.412 365.449 604.185 365.448Z" fill="#4C257D"/>
<path d="M613.389 457.504C612.952 457.498 612.536 457.32 612.23 457.008L608.192 452.936C607.889 452.627 607.719 452.211 607.719 451.778C607.719 451.344 607.889 450.928 608.192 450.619C608.346 450.464 608.529 450.341 608.73 450.257C608.932 450.173 609.148 450.129 609.367 450.129C609.585 450.129 609.802 450.173 610.004 450.257C610.205 450.341 610.388 450.464 610.542 450.619L614.614 454.657C614.919 454.972 615.09 455.394 615.09 455.833C615.09 456.271 614.919 456.693 614.614 457.008C614.453 457.169 614.262 457.295 614.052 457.381C613.841 457.466 613.616 457.508 613.389 457.504Z" fill="#4C257D"/>
<path d="M656.658 453.865C656.406 453.862 656.158 453.805 655.929 453.699C655.536 453.513 655.233 453.179 655.084 452.77C654.935 452.361 654.954 451.91 655.135 451.515L659.008 443.371C659.097 443.174 659.225 442.996 659.383 442.849C659.542 442.701 659.729 442.587 659.933 442.513C660.136 442.439 660.353 442.407 660.569 442.418C660.786 442.429 660.998 442.483 661.193 442.577C661.391 442.669 661.57 442.8 661.718 442.962C661.865 443.124 661.98 443.314 662.053 443.52C662.127 443.726 662.16 443.945 662.148 444.164C662.137 444.383 662.082 444.597 661.987 444.795L658.147 452.905C658.012 453.187 657.802 453.426 657.538 453.596C657.275 453.766 656.971 453.859 656.658 453.865Z" fill="#4C257D"/>
<path d="M611.503 498.154C611.272 498.162 611.043 498.119 610.831 498.027C610.619 497.935 610.43 497.798 610.278 497.624L606.074 492.891C605.93 492.729 605.82 492.54 605.75 492.335C605.681 492.13 605.653 491.913 605.668 491.697C605.684 491.481 605.742 491.27 605.84 491.077C605.938 490.884 606.074 490.713 606.24 490.573C606.388 490.415 606.568 490.289 606.767 490.203C606.966 490.116 607.181 490.072 607.398 490.072C607.615 490.072 607.83 490.116 608.029 490.203C608.229 490.289 608.408 490.415 608.557 490.573L612.728 495.274C612.952 495.506 613.102 495.801 613.158 496.119C613.214 496.438 613.174 496.766 613.042 497.061C612.91 497.356 612.694 497.605 612.419 497.776C612.145 497.948 611.826 498.033 611.503 498.021V498.154Z" fill="#4C257D"/>
<path d="M667.774 504.379C667.497 504.38 667.224 504.312 666.98 504.18C666.599 503.964 666.317 503.608 666.194 503.188C666.07 502.768 666.115 502.317 666.318 501.929L671.084 493.422C671.295 493.036 671.651 492.749 672.073 492.625C672.495 492.501 672.949 492.549 673.335 492.76C673.721 492.971 674.008 493.326 674.132 493.748C674.257 494.17 674.208 494.625 673.997 495.011L669.297 503.584C669.143 503.846 668.918 504.059 668.649 504.2C668.38 504.34 668.077 504.402 667.774 504.379Z" fill="#4C257D"/>
<path d="M636.094 542.28C635.838 542.278 635.585 542.217 635.356 542.102C635.126 541.987 634.926 541.822 634.77 541.618L630.5 536.057C630.264 535.708 630.169 535.283 630.236 534.867C630.302 534.451 630.525 534.076 630.858 533.818C631.192 533.561 631.611 533.44 632.03 533.481C632.45 533.522 632.838 533.721 633.115 534.038L637.418 539.599C637.673 539.953 637.781 540.392 637.72 540.824C637.658 541.256 637.431 541.647 637.087 541.916C636.808 542.147 636.457 542.276 636.094 542.28Z" fill="#4C257D"/>
<path d="M680.19 555.521C679.837 555.52 679.492 555.417 679.197 555.224C678.846 554.96 678.614 554.568 678.552 554.133C678.49 553.699 678.603 553.258 678.866 552.906L684.196 545.624C684.459 545.275 684.848 545.042 685.281 544.974C685.713 544.906 686.155 545.008 686.513 545.26C686.689 545.388 686.839 545.549 686.952 545.735C687.066 545.921 687.142 546.127 687.176 546.343C687.21 546.558 687.201 546.778 687.15 546.99C687.098 547.201 687.006 547.401 686.877 547.577L681.514 554.859C681.358 555.063 681.158 555.229 680.929 555.343C680.699 555.458 680.447 555.519 680.19 555.521Z" fill="#4C257D"/>
<path d="M611.893 560.684C611.472 560.682 611.068 560.515 610.767 560.221L602.624 552.74C602.448 552.597 602.303 552.419 602.198 552.218C602.094 552.016 602.032 551.796 602.016 551.569C602 551.343 602.031 551.116 602.106 550.902C602.182 550.688 602.301 550.492 602.456 550.326C602.61 550.16 602.798 550.027 603.006 549.937C603.214 549.846 603.438 549.799 603.665 549.799C603.892 549.799 604.116 549.845 604.325 549.935C604.533 550.025 604.72 550.157 604.875 550.323L613.018 557.804C613.266 558.03 613.44 558.325 613.517 558.651C613.593 558.978 613.569 559.319 613.447 559.632C613.325 559.944 613.111 560.211 612.834 560.399C612.556 560.587 612.228 560.687 611.893 560.684Z" fill="#4C257D"/>
<path d="M638.51 578.462C638.325 578.507 638.132 578.507 637.947 578.462C637.743 578.388 637.556 578.275 637.397 578.127C637.237 577.98 637.109 577.803 637.02 577.605C636.93 577.408 636.881 577.194 636.876 576.977C636.87 576.761 636.908 576.545 636.987 576.343L639.371 569.723C639.528 569.322 639.836 568.998 640.229 568.821C640.622 568.644 641.068 568.627 641.473 568.773C641.879 568.92 642.211 569.218 642.399 569.606C642.587 569.993 642.617 570.439 642.482 570.848L640.066 577.469C639.938 577.773 639.721 578.031 639.443 578.208C639.165 578.385 638.839 578.474 638.51 578.462Z" fill="#4C257D"/>
<path d="M600.481 604.445C600.135 604.432 599.801 604.317 599.521 604.114L592.206 598.785C592.029 598.656 591.88 598.495 591.767 598.309C591.653 598.123 591.577 597.917 591.544 597.701C591.51 597.486 591.519 597.267 591.57 597.055C591.621 596.843 591.713 596.644 591.841 596.467C591.97 596.291 592.131 596.142 592.317 596.029C592.503 595.915 592.709 595.839 592.924 595.806C593.14 595.772 593.359 595.781 593.571 595.832C593.783 595.883 593.982 595.975 594.159 596.103L601.474 601.433C601.823 601.697 602.056 602.086 602.124 602.518C602.192 602.95 602.09 603.392 601.838 603.75C601.681 603.962 601.476 604.135 601.241 604.256C601.005 604.377 600.745 604.441 600.481 604.445Z" fill="#4C257D"/>
<path d="M667.141 588.721C666.864 588.723 666.591 588.654 666.347 588.523C665.963 588.301 665.682 587.937 665.564 587.509C665.447 587.082 665.502 586.626 665.718 586.239L671.213 576.639C671.432 576.257 671.795 575.978 672.22 575.863C672.645 575.748 673.098 575.807 673.48 576.026C673.862 576.246 674.141 576.608 674.256 577.033C674.371 577.459 674.312 577.912 674.093 578.294L668.598 587.894C668.451 588.149 668.238 588.36 667.982 588.505C667.726 588.651 667.436 588.725 667.141 588.721Z" fill="#4C257D"/>
<path d="M596.5 628C570.008 618.336 560 625.31 560 625.31L598.312 670L709 625.31C692.528 625.31 622.992 637.663 596.5 628Z" fill="#F5F5F5"/>
<path d="M399 462.5C488.5 453 555.792 535.445 460.5 592C399 628.5 407.415 657.615 512.56 652.747C584.278 649.427 584.927 617.05 519.05 617.05" stroke="#6E55B5" stroke-width="5"/>
<path d="M74 343.284C74 321.036 92.036 303 114.284 303H369.42C391.668 303 409.704 321.036 409.704 343.284V598.42C409.704 620.668 391.668 638.704 369.42 638.704H114.284C92.036 638.704 74 620.668 74 598.42V343.284Z" fill="#EEEEEE"/>
<path d="M107.97 486V445.28H120.13L119.65 453.68C121.357 450.533 123.49 448.24 126.05 446.8C128.61 445.36 131.33 444.64 134.21 444.64C137.037 444.64 139.57 445.36 141.81 446.8C144.05 448.187 145.757 450.453 146.93 453.6C148.743 450.56 151.037 448.32 153.81 446.88C156.637 445.387 159.49 444.64 162.37 444.64C167.17 444.64 170.77 446.293 173.17 449.6C175.57 452.853 176.743 457.547 176.69 463.68L176.53 486H164.29L164.45 463.92C164.45 461.467 163.997 459.547 163.09 458.16C162.183 456.72 160.797 456 158.93 456C157.49 456 156.13 456.453 154.85 457.36C153.623 458.267 152.53 459.84 151.57 462.08C150.61 464.32 149.837 467.387 149.25 471.28C148.717 475.173 148.397 480.08 148.29 486H136.13V463.92C136.13 461.467 135.703 459.547 134.85 458.16C133.997 456.72 132.637 456 130.77 456C129.33 456 127.97 456.453 126.69 457.36C125.463 458.267 124.37 459.84 123.41 462.08C122.45 464.32 121.677 467.387 121.09 471.28C120.503 475.173 120.183 480.08 120.13 486H107.97ZM197.632 445.28V486H185.392V445.28H197.632ZM191.472 440.48C189.125 440.48 187.259 439.76 185.872 438.32C184.485 436.88 183.792 435.173 183.792 433.2C183.792 431.227 184.459 429.52 185.792 428.08C187.179 426.64 189.072 425.92 191.472 425.92C193.819 425.92 195.685 426.64 197.072 428.08C198.459 429.52 199.152 431.227 199.152 433.2C199.152 435.173 198.459 436.88 197.072 438.32C195.685 439.76 193.819 440.48 191.472 440.48ZM225.594 486.8C221.381 486.8 217.728 486 214.634 484.4C211.541 482.747 209.141 480.4 207.434 477.36C205.728 474.32 204.874 470.693 204.874 466.48C204.874 462.16 205.781 458.373 207.594 455.12C209.461 451.813 212.021 449.253 215.274 447.44C218.528 445.573 222.314 444.64 226.634 444.64C230.154 444.64 233.274 445.333 235.994 446.72C238.714 448.107 240.901 450.267 242.554 453.2L233.914 459.76C233.061 458.213 232.048 457.093 230.874 456.4C229.754 455.707 228.341 455.36 226.634 455.36C224.021 455.36 221.861 456.373 220.154 458.4C218.448 460.373 217.594 462.987 217.594 466.24C217.594 469.387 218.341 471.813 219.834 473.52C221.381 475.227 223.594 476.08 226.474 476.08C228.021 476.08 229.434 475.733 230.714 475.04C232.048 474.293 233.168 473.147 234.074 471.6L242.474 478.32C240.661 481.413 238.261 483.6 235.274 484.88C232.341 486.16 229.114 486.8 225.594 486.8ZM246.72 486V445.28H258.88L258.4 453.68C260.107 450.533 262.24 448.24 264.8 446.8C267.36 445.36 270.08 444.64 272.96 444.64C275.787 444.64 278.32 445.36 280.56 446.8C282.8 448.187 284.507 450.453 285.68 453.6C287.493 450.56 289.787 448.32 292.56 446.88C295.387 445.387 298.24 444.64 301.12 444.64C305.92 444.64 309.52 446.293 311.92 449.6C314.32 452.853 315.493 457.547 315.44 463.68L315.28 486H303.04L303.2 463.92C303.2 461.467 302.747 459.547 301.84 458.16C300.933 456.72 299.547 456 297.68 456C296.24 456 294.88 456.453 293.6 457.36C292.373 458.267 291.28 459.84 290.32 462.08C289.36 464.32 288.587 467.387 288 471.28C287.467 475.173 287.147 480.08 287.04 486H274.88V463.92C274.88 461.467 274.453 459.547 273.6 458.16C272.747 456.72 271.387 456 269.52 456C268.08 456 266.72 456.453 265.44 457.36C264.213 458.267 263.12 459.84 262.16 462.08C261.2 464.32 260.427 467.387 259.84 471.28C259.253 475.173 258.933 480.08 258.88 486H246.72ZM336.382 445.28V486H324.142V445.28H336.382ZM330.222 440.48C327.875 440.48 326.009 439.76 324.622 438.32C323.235 436.88 322.542 435.173 322.542 433.2C322.542 431.227 323.209 429.52 324.542 428.08C325.929 426.64 327.822 425.92 330.222 425.92C332.569 425.92 334.435 426.64 335.822 428.08C337.209 429.52 337.902 431.227 337.902 433.2C337.902 435.173 337.209 436.88 335.822 438.32C334.435 439.76 332.569 440.48 330.222 440.48ZM364.344 486.8C360.131 486.8 356.478 486 353.384 484.4C350.291 482.747 347.891 480.4 346.184 477.36C344.478 474.32 343.624 470.693 343.624 466.48C343.624 462.16 344.531 458.373 346.344 455.12C348.211 451.813 350.771 449.253 354.024 447.44C357.278 445.573 361.064 444.64 365.384 444.64C368.904 444.64 372.024 445.333 374.744 446.72C377.464 448.107 379.651 450.267 381.304 453.2L372.664 459.76C371.811 458.213 370.798 457.093 369.624 456.4C368.504 455.707 367.091 455.36 365.384 455.36C362.771 455.36 360.611 456.373 358.904 458.4C357.198 460.373 356.344 462.987 356.344 466.24C356.344 469.387 357.091 471.813 358.584 473.52C360.131 475.227 362.344 476.08 365.224 476.08C366.771 476.08 368.184 475.733 369.464 475.04C370.798 474.293 371.918 473.147 372.824 471.6L381.224 478.32C379.411 481.413 377.011 483.6 374.024 484.88C371.091 486.16 367.864 486.8 364.344 486.8Z" fill="#8000FF"/>
<path d="M659.889 563.505C659.889 574.617 650.881 583.625 639.769 583.625C628.657 583.625 619.648 574.617 619.648 563.505C619.648 552.393 628.657 543.385 639.769 543.385C650.881 543.385 659.889 552.393 659.889 563.505Z" fill="#4C257D"/>
<path d="M645.613 557.664V569.996" stroke="#321153" stroke-width="2" stroke-linecap="round"/>
<path d="M634.578 557.664V569.996" stroke="#321153" stroke-width="2" stroke-linecap="round"/>
<path d="M455.441 615.753C455.441 613.065 457.621 610.885 460.309 610.885H477.833C480.522 610.885 482.701 613.065 482.701 615.753C482.701 618.441 480.522 620.621 477.833 620.621H460.309C457.621 620.621 455.441 618.441 455.441 615.753Z" fill="#6E55B5"/>
<path d="M520.75 606.079C515.48 601.149 494.395 596.634 481.884 599.485C475.448 600.952 476.964 630.694 481.001 633.099C487.826 637.163 513.858 632.628 519.38 629.168C523.968 626.294 523.454 608.609 520.75 606.079Z" fill="#4C257D"/>
<circle cx="460.963" cy="615.753" r="2.27163" fill="#F5F5F5"/>
<path d="M266.255 621.755C204.387 608.125 134 635.757 83 638.792L161.5 655.381L294 662L407 638.792C368.53 638.792 328.124 635.384 266.255 621.755Z" fill="#F5F5F5"/>
</svg>
