<svg width="822" height="683" viewBox="0 0 822 683" fill="none" xmlns="http://www.w3.org/2000/svg">
<path d="M393.5 683C610.824 683 787 663.077 787 638.5C787 613.923 610.824 594 393.5 594C176.176 594 0 613.923 0 638.5C0 663.077 176.176 683 393.5 683Z" fill="#F5F5F5"/>
<path d="M748.976 58.4253C742.355 115.394 708.591 153.925 683.93 175.011C683.533 116.089 682.44 72.5599 680.19 55.2806C674.099 8.24243 653.509 0 630.04 0C605.975 0 586.61 24.0984 587.007 53.46C586.08 95.8308 587.404 196.329 589.49 316.688C575.512 295.547 566.826 271.352 564.166 246.148C558.043 186.564 495.115 197.355 499.286 259.058C502.596 309.34 526.695 379.947 591.112 406.329C592.502 481.074 594.025 559.46 595.382 633.807H681.447C682.441 503.418 684.029 355.054 684.063 240.156C779.231 226.915 810.281 135.918 819.186 74.0164C828.785 7.5473 756.589 -6.22323 748.976 58.4253Z" fill="#039768"/>
<path opacity="0.2" d="M748.976 58.4253C742.355 115.394 708.591 153.925 683.93 175.011C683.533 116.089 682.441 72.5599 680.19 55.2806C674.099 8.24243 653.509 0 630.04 0C605.975 0 586.61 24.0984 587.007 53.46C586.08 95.8308 587.404 196.329 589.49 316.688C575.512 295.547 566.826 271.352 564.166 246.148C558.043 186.564 495.115 197.355 499.286 259.058C502.596 309.34 526.695 379.947 591.112 406.329C592.502 481.074 594.025 559.46 595.382 633.807H681.447C682.441 503.418 684.029 355.054 684.063 240.156C779.231 226.915 810.281 135.918 819.186 74.0164C828.785 7.5473 756.589 -6.22323 748.976 58.4253Z" fill="white"/>
<path d="M662.215 239.692C666.717 249.127 678.766 257.336 684.062 260.712C684.062 253.717 684.062 246.864 684.062 240.156C676.78 240.608 669.472 240.453 662.215 239.692Z" fill="#257D61"/>
<path d="M591.111 406.328C591.31 416.413 591.509 426.576 591.707 436.815C595.713 432.909 611.568 417.881 616.633 407.023C608.191 408.817 599.443 408.579 591.111 406.328Z" fill="#257D61"/>
<path d="M597.995 55.0817C597.622 55.077 597.261 54.949 596.969 54.7176L589.455 48.7261C589.118 48.4423 588.904 48.0407 588.855 47.6037C588.805 47.1666 588.925 46.7272 589.19 46.3758C589.473 46.0376 589.878 45.8239 590.318 45.7806C590.757 45.7373 591.196 45.8678 591.54 46.1441L599.021 52.1356C599.194 52.2681 599.338 52.434 599.445 52.6234C599.552 52.8128 599.62 53.0218 599.645 53.238C599.67 53.4542 599.651 53.6732 599.589 53.8819C599.527 54.0906 599.424 54.2847 599.286 54.4528C599.129 54.6444 598.932 54.7998 598.709 54.9083C598.486 55.0169 598.243 55.076 597.995 55.0817Z" fill="#257D61"/>
<path d="M657.844 16.3205C657.567 16.3179 657.295 16.2498 657.05 16.1219C656.668 15.9063 656.388 15.5483 656.27 15.1264C656.152 14.7045 656.206 14.253 656.421 13.871L660.261 7.01881C660.36 6.81702 660.5 6.63765 660.671 6.49163C660.842 6.34562 661.041 6.23604 661.256 6.16958C661.471 6.10312 661.697 6.08116 661.921 6.10508C662.145 6.12901 662.361 6.19833 662.557 6.30874C662.753 6.41915 662.925 6.56836 663.061 6.74727C663.198 6.92617 663.296 7.13103 663.351 7.34929C663.405 7.56756 663.415 7.79462 663.379 8.01668C663.342 8.23874 663.261 8.45114 663.141 8.64083L659.301 15.493C659.153 15.748 658.941 15.9592 658.685 16.1046C658.429 16.2501 658.139 16.3246 657.844 16.3205Z" fill="#257D61"/>
<path d="M626.233 47.1358C625.954 47.1742 625.67 47.1395 625.409 47.035C625.148 46.9305 624.919 46.76 624.743 46.54L621.433 41.6078C621.31 41.4285 621.224 41.2264 621.181 41.0133C621.138 40.8003 621.138 40.5807 621.181 40.3676C621.224 40.1545 621.31 39.9523 621.433 39.773C621.556 39.5937 621.713 39.4409 621.896 39.3238C622.261 39.0842 622.706 38.9985 623.134 39.0853C623.562 39.1721 623.938 39.4244 624.18 39.7872L627.491 44.7194C627.73 45.0843 627.816 45.529 627.729 45.9568C627.642 46.3846 627.39 46.7608 627.027 47.0034C626.778 47.1151 626.505 47.1607 626.233 47.1358Z" fill="#257D61"/>
<path d="M605.908 12.91C605.502 12.9112 605.111 12.7573 604.815 12.4797L599.916 8.20946C599.646 7.90958 599.494 7.52112 599.49 7.11728C599.486 6.71345 599.63 6.32212 599.895 6.01693C600.159 5.71174 600.526 5.51379 600.926 5.46036C601.327 5.40692 601.733 5.50167 602.068 5.7268L607 9.99701C607.329 10.2899 607.53 10.6995 607.561 11.1385C607.592 11.5775 607.45 12.0112 607.166 12.3472C607.006 12.5226 606.812 12.6632 606.596 12.76C606.379 12.8568 606.145 12.9079 605.908 12.91Z" fill="#257D61"/>
<path d="M668.404 79.0481C668.016 79.0415 667.641 78.9011 667.345 78.6508C667.177 78.5135 667.038 78.3439 666.937 78.1521C666.836 77.9604 666.774 77.7502 666.756 77.5342C666.737 77.3182 666.762 77.1007 666.829 76.8945C666.896 76.6882 667.004 76.4976 667.146 76.3337L671.648 70.9712C671.943 70.6918 672.331 70.531 672.737 70.5192C673.144 70.5075 673.54 70.6457 673.851 70.9076C674.162 71.1695 674.366 71.5366 674.424 71.9391C674.481 72.3415 674.389 72.7511 674.164 73.0897L669.695 78.4522C669.537 78.6412 669.34 78.7928 669.117 78.8959C668.893 78.9989 668.65 79.0509 668.404 79.0481Z" fill="#257D61"/>
<path d="M628.054 118.207C627.711 118.209 627.375 118.105 627.094 117.909L622.592 114.599C622.413 114.473 622.261 114.314 622.144 114.129C622.027 113.944 621.947 113.738 621.911 113.523C621.874 113.307 621.88 113.087 621.928 112.874C621.977 112.661 622.068 112.459 622.195 112.282C622.459 111.932 622.848 111.699 623.28 111.631C623.712 111.563 624.154 111.666 624.512 111.917L629.014 115.228C629.361 115.485 629.593 115.869 629.661 116.295C629.729 116.722 629.627 117.159 629.378 117.512C629.231 117.727 629.034 117.904 628.803 118.025C628.572 118.146 628.315 118.208 628.054 118.207Z" fill="#257D61"/>
<path d="M621.104 86.2643C620.745 86.2667 620.396 86.1503 620.111 85.9333L613.689 81.0011C613.502 80.8743 613.343 80.7105 613.222 80.5199C613.1 80.3293 613.019 80.1158 612.984 79.8927C612.948 79.6696 612.958 79.4416 613.014 79.2226C613.07 79.0037 613.17 78.7985 613.308 78.6196C613.446 78.4408 613.619 78.2921 613.817 78.1828C614.015 78.0734 614.233 78.0058 614.458 77.9839C614.682 77.962 614.91 77.9863 615.125 78.0555C615.34 78.1246 615.538 78.2371 615.708 78.386L622.13 83.3182C622.397 83.5322 622.591 83.8235 622.685 84.1522C622.78 84.4808 622.77 84.8307 622.657 85.1536C622.545 85.4766 622.335 85.7568 622.057 85.9556C621.779 86.1545 621.446 86.2623 621.104 86.2643Z" fill="#257D61"/>
<path d="M590.284 140.686C590.054 140.69 589.826 140.644 589.614 140.553C589.403 140.462 589.214 140.327 589.059 140.157L581.975 132.212C581.672 131.903 581.502 131.487 581.502 131.053C581.502 130.62 581.672 130.204 581.975 129.895C582.129 129.74 582.312 129.617 582.514 129.533C582.715 129.449 582.932 129.405 583.15 129.405C583.369 129.405 583.585 129.449 583.787 129.533C583.988 129.617 584.171 129.74 584.325 129.895L591.376 137.806C591.601 138.039 591.751 138.333 591.807 138.652C591.863 138.97 591.822 139.298 591.691 139.593C591.559 139.888 591.342 140.138 591.068 140.309C590.794 140.48 590.474 140.565 590.151 140.554L590.284 140.686Z" fill="#257D61"/>
<path d="M679.132 136.746C678.742 136.751 678.364 136.609 678.073 136.349C677.737 136.071 677.524 135.672 677.481 135.238C677.437 134.804 677.567 134.37 677.842 134.031L685.124 125.359C685.263 125.191 685.434 125.053 685.626 124.951C685.819 124.85 686.03 124.788 686.246 124.768C686.463 124.748 686.681 124.771 686.889 124.835C687.097 124.9 687.29 125.004 687.458 125.143C687.625 125.283 687.763 125.453 687.865 125.646C687.966 125.838 688.029 126.049 688.049 126.266C688.069 126.482 688.046 126.701 687.981 126.909C687.917 127.117 687.812 127.31 687.673 127.477L680.39 136.15C680.238 136.336 680.046 136.487 679.829 136.59C679.611 136.693 679.373 136.746 679.132 136.746Z" fill="#257D61"/>
<path d="M661.986 49.8512C661.61 49.8637 661.244 49.7336 660.96 49.4871C660.79 49.3521 660.648 49.1844 660.544 48.9938C660.44 48.8032 660.375 48.5936 660.354 48.3775C660.332 48.1614 660.354 47.9432 660.419 47.7357C660.483 47.5283 660.588 47.3359 660.728 47.1699L664.998 41.9067C665.276 41.5706 665.675 41.3578 666.109 41.3144C666.543 41.271 666.977 41.4006 667.316 41.675C667.487 41.8129 667.629 41.9836 667.733 42.177C667.838 42.3704 667.903 42.5827 667.924 42.8015C667.946 43.0203 667.924 43.2412 667.859 43.4513C667.794 43.6614 667.688 43.8565 667.547 44.0252L663.277 49.2554C663.12 49.4444 662.922 49.5959 662.699 49.699C662.476 49.802 662.232 49.854 661.986 49.8512Z" fill="#257D61"/>
<path d="M700.88 162.73C700.441 162.73 700.02 162.556 699.709 162.245C699.399 161.935 699.225 161.514 699.225 161.075V153.792C699.225 153.353 699.399 152.932 699.709 152.622C700.02 152.312 700.441 152.137 700.88 152.137C701.316 152.146 701.732 152.323 702.041 152.631C702.349 152.94 702.526 153.356 702.535 153.792V161.075C702.535 161.514 702.36 161.935 702.05 162.245C701.74 162.556 701.319 162.73 700.88 162.73Z" fill="#257D61"/>
<path d="M731.759 128.072C731.527 128.068 731.299 128.015 731.088 127.919C730.878 127.822 730.689 127.683 730.534 127.51L723.484 119.598C723.329 119.444 723.205 119.261 723.121 119.06C723.037 118.858 722.994 118.642 722.994 118.423C722.994 118.205 723.037 117.988 723.121 117.787C723.205 117.585 723.329 117.402 723.484 117.248C723.793 116.945 724.209 116.775 724.642 116.775C725.076 116.775 725.491 116.945 725.801 117.248L732.885 125.159C733.19 125.474 733.361 125.896 733.361 126.335C733.361 126.773 733.19 127.195 732.885 127.51C732.598 127.838 732.194 128.04 731.759 128.072Z" fill="#257D61"/>
<path d="M803.926 49.8529C803.633 49.8587 803.346 49.778 803.099 49.6212C802.717 49.4056 802.437 49.0477 802.319 48.6257C802.201 48.2038 802.255 47.7523 802.47 47.3703L806.806 39.9223C807.022 39.5409 807.379 39.2605 807.801 39.1426C808.223 39.0247 808.675 39.0789 809.057 39.2933C809.433 39.5144 809.706 39.8748 809.818 40.2963C809.929 40.7178 809.87 41.1663 809.653 41.5443L805.383 49.0585C805.231 49.3073 805.017 49.5119 804.761 49.6514C804.505 49.7909 804.217 49.8604 803.926 49.8529Z" fill="#257D61"/>
<path d="M761.091 34.9569C760.765 34.9511 760.448 34.8511 760.178 34.669C759.908 34.4869 759.696 34.2305 759.569 33.9308L755.067 22.7754C754.904 22.3671 754.911 21.9111 755.084 21.5076C755.258 21.104 755.585 20.7861 755.993 20.6237C756.402 20.4613 756.858 20.4677 757.261 20.6415C757.665 20.8153 757.983 21.1423 758.145 21.5505L762.647 32.6729C762.728 32.875 762.768 33.091 762.765 33.3086C762.762 33.5262 762.716 33.7411 762.63 33.9409C762.544 34.1408 762.419 34.3217 762.263 34.4733C762.107 34.6249 761.922 34.7443 761.72 34.8245C761.524 34.9184 761.308 34.9638 761.091 34.9569Z" fill="#257D61"/>
<path d="M792.141 24.2305C791.933 24.2623 791.721 24.2623 791.512 24.2305C791.309 24.1472 791.124 24.0243 790.969 23.869C790.814 23.7136 790.691 23.5288 790.608 23.3254C790.524 23.1221 790.483 22.9042 790.484 22.6845C790.486 22.4647 790.532 22.2476 790.619 22.0458L793.929 14.3329C794.012 14.1337 794.134 13.953 794.287 13.8015C794.441 13.6499 794.623 13.5306 794.824 13.4505C795.024 13.3703 795.239 13.331 795.454 13.3347C795.67 13.3385 795.883 13.3852 796.081 13.4723C796.283 13.552 796.467 13.6717 796.622 13.824C796.777 13.9763 796.9 14.1582 796.983 14.3589C797.066 14.5596 797.109 14.7749 797.107 14.9922C797.106 15.2096 797.06 15.4244 796.974 15.6239L793.565 23.3698C793.427 23.6284 793.222 23.845 792.972 23.9965C792.721 24.148 792.434 24.2289 792.141 24.2305Z" fill="#257D61"/>
<path d="M778.006 111.156C777.742 111.152 777.482 111.087 777.246 110.967C777.011 110.846 776.806 110.673 776.649 110.461C776.523 110.281 776.435 110.078 776.389 109.863C776.343 109.649 776.339 109.428 776.379 109.212C776.419 108.996 776.502 108.791 776.622 108.608C776.742 108.424 776.898 108.266 777.079 108.143L784.13 103.211C784.307 103.074 784.511 102.974 784.728 102.917C784.946 102.861 785.172 102.849 785.394 102.883C785.616 102.917 785.829 102.996 786.02 103.115C786.21 103.234 786.375 103.39 786.503 103.575C786.631 103.759 786.72 103.968 786.765 104.188C786.811 104.408 786.81 104.635 786.765 104.855C786.719 105.075 786.63 105.283 786.501 105.467C786.372 105.651 786.208 105.807 786.017 105.926L778.966 110.858C778.683 111.05 778.348 111.154 778.006 111.156Z" fill="#257D61"/>
<path d="M761.952 77.5583C761.621 77.5586 761.297 77.4573 761.024 77.2679C760.752 77.0785 760.544 76.8102 760.429 76.4991L758.278 71.1697C758.111 70.7614 758.113 70.3036 758.284 69.897C758.455 69.4904 758.78 69.1683 759.188 69.0015C759.596 68.8347 760.054 68.8369 760.461 69.0076C760.867 69.1783 761.189 69.5035 761.356 69.9118L763.508 75.2743C763.662 75.6832 763.651 76.1358 763.479 76.5371C763.306 76.9383 762.984 77.2569 762.581 77.426C762.384 77.5175 762.169 77.5627 761.952 77.5583Z" fill="#257D61"/>
<path d="M793.763 155.449C793.455 155.461 793.15 155.383 792.886 155.224C792.621 155.065 792.408 154.833 792.274 154.555C792.172 154.363 792.11 154.152 792.092 153.934C792.073 153.717 792.099 153.499 792.167 153.292C792.235 153.085 792.344 152.894 792.487 152.73C792.631 152.566 792.806 152.432 793.002 152.338L798.464 149.557C798.656 149.455 798.868 149.393 799.085 149.375C799.302 149.357 799.52 149.382 799.727 149.45C799.934 149.518 800.126 149.627 800.289 149.771C800.453 149.914 800.587 150.089 800.682 150.285C800.878 150.676 800.912 151.129 800.775 151.544C800.639 151.96 800.343 152.305 799.953 152.503L794.492 155.284C794.267 155.401 794.016 155.458 793.763 155.449Z" fill="#257D61"/>
<path d="M739.907 188.65C739.468 188.702 739.026 188.578 738.678 188.305C738.33 188.032 738.106 187.632 738.053 187.193C738 186.754 738.124 186.312 738.397 185.965C738.67 185.617 739.07 185.392 739.509 185.339L745.269 183.85C745.486 183.795 745.712 183.784 745.934 183.817C746.156 183.85 746.369 183.927 746.561 184.042C746.753 184.157 746.92 184.309 747.054 184.489C747.187 184.669 747.284 184.874 747.338 185.091C747.392 185.308 747.403 185.534 747.37 185.756C747.337 185.978 747.261 186.191 747.146 186.383C747.031 186.575 746.879 186.742 746.699 186.876C746.519 187.009 746.314 187.106 746.097 187.16L740.337 188.65H739.907Z" fill="#257D61"/>
<path d="M740.767 163.592C740.328 163.618 739.897 163.469 739.568 163.177C739.239 162.886 739.039 162.475 739.013 162.036C738.986 161.597 739.136 161.166 739.427 160.837C739.719 160.508 740.13 160.308 740.569 160.282L747.619 159.421C747.837 159.395 748.057 159.412 748.268 159.471C748.479 159.53 748.676 159.63 748.848 159.765C749.02 159.901 749.164 160.068 749.271 160.259C749.378 160.45 749.447 160.66 749.473 160.878C749.499 161.095 749.482 161.315 749.423 161.526C749.364 161.737 749.264 161.934 749.129 162.106C748.994 162.278 748.826 162.422 748.635 162.529C748.444 162.636 748.234 162.705 748.017 162.731L740.966 163.592H740.767Z" fill="#257D61"/>
<path d="M714.116 234.395H713.719L704.98 232.31C704.557 232.193 704.194 231.919 703.966 231.543C703.739 231.168 703.663 230.72 703.755 230.29C703.864 229.863 704.137 229.495 704.515 229.266C704.892 229.037 705.344 228.965 705.774 229.066L714.513 231.184C714.938 231.286 715.306 231.553 715.535 231.925C715.764 232.297 715.837 232.745 715.738 233.17C715.642 233.526 715.431 233.839 715.137 234.061C714.843 234.283 714.484 234.4 714.116 234.395Z" fill="#257D61"/>
<path d="M702.433 208.544C702.158 208.548 701.886 208.482 701.643 208.352C701.4 208.221 701.194 208.031 701.045 207.8C700.896 207.568 700.808 207.302 700.79 207.026C700.773 206.751 700.826 206.476 700.944 206.227L704.784 197.654C704.971 197.261 705.303 196.955 705.71 196.801C706.117 196.647 706.568 196.656 706.968 196.826C707.169 196.912 707.35 197.038 707.502 197.194C707.654 197.351 707.773 197.536 707.853 197.739C707.933 197.942 707.972 198.159 707.968 198.377C707.964 198.596 707.917 198.811 707.829 199.011L703.956 207.584C703.822 207.874 703.607 208.119 703.337 208.289C703.066 208.46 702.753 208.548 702.433 208.544Z" fill="#257D61"/>
<path d="M814.192 83.6494C813.923 83.65 813.658 83.5837 813.421 83.4566C813.184 83.3295 812.983 83.1455 812.834 82.9211C812.709 82.7412 812.621 82.5382 812.574 82.3238C812.528 82.1095 812.525 81.8881 812.565 81.6725C812.605 81.4569 812.687 81.2515 812.808 81.068C812.928 80.8846 813.083 80.7268 813.265 80.6039L819.157 76.6648C819.521 76.419 819.968 76.328 820.4 76.4118C820.831 76.4956 821.212 76.7473 821.457 77.1117C821.703 77.476 821.794 77.9231 821.71 78.3545C821.627 78.786 821.375 79.1664 821.011 79.4122L815.118 83.3514C814.847 83.5433 814.524 83.6473 814.192 83.6494Z" fill="#257D61"/>
<path d="M763.771 139.626C763.34 139.617 762.929 139.445 762.621 139.143C762.314 138.842 762.133 138.434 762.116 138.004L761.917 127.312C761.908 127.093 761.944 126.875 762.021 126.67C762.099 126.466 762.217 126.279 762.368 126.122C762.52 125.964 762.702 125.838 762.903 125.753C763.104 125.667 763.321 125.623 763.539 125.623C763.757 125.619 763.973 125.657 764.175 125.737C764.378 125.816 764.563 125.934 764.719 126.085C764.876 126.235 765.002 126.415 765.089 126.614C765.176 126.814 765.223 127.028 765.228 127.245L765.426 137.937C765.431 138.155 765.392 138.371 765.313 138.573C765.234 138.776 765.116 138.961 764.965 139.118C764.814 139.274 764.634 139.4 764.435 139.487C764.236 139.574 764.022 139.621 763.804 139.626H763.771Z" fill="#257D61"/>
<path d="M588.563 175.641C588.194 175.644 587.834 175.528 587.536 175.31L581.71 170.511C581.369 170.237 581.15 169.841 581.101 169.407C581.051 168.972 581.175 168.536 581.446 168.193C581.578 168.021 581.744 167.877 581.933 167.769C582.123 167.662 582.332 167.594 582.548 167.57C582.764 167.545 582.983 167.564 583.192 167.626C583.401 167.687 583.595 167.79 583.763 167.929L589.754 172.629C590.021 172.843 590.215 173.134 590.309 173.463C590.404 173.792 590.394 174.142 590.282 174.464C590.169 174.787 589.959 175.068 589.681 175.266C589.403 175.465 589.07 175.573 588.728 175.575L588.563 175.641Z" fill="#257D61"/>
<path d="M624.747 193.548C624.517 193.552 624.289 193.507 624.078 193.415C623.866 193.324 623.677 193.189 623.522 193.019L616.902 185.538C616.747 185.384 616.624 185.201 616.539 184.999C616.455 184.797 616.412 184.581 616.412 184.363C616.412 184.144 616.455 183.928 616.539 183.726C616.624 183.524 616.747 183.341 616.902 183.187C617.053 183.033 617.233 182.911 617.432 182.827C617.631 182.744 617.845 182.701 618.06 182.701C618.276 182.701 618.49 182.744 618.689 182.827C618.888 182.911 619.068 183.033 619.219 183.187L625.839 190.669C626.064 190.901 626.214 191.196 626.27 191.514C626.326 191.832 626.285 192.16 626.154 192.456C626.022 192.751 625.805 193 625.531 193.171C625.257 193.342 624.938 193.428 624.615 193.416L624.747 193.548Z" fill="#257D61"/>
<path d="M649.371 163.161C649.094 163.162 648.821 163.094 648.577 162.962C648.385 162.858 648.216 162.717 648.079 162.548C647.942 162.378 647.84 162.183 647.778 161.974C647.717 161.765 647.697 161.546 647.721 161.329C647.744 161.112 647.81 160.902 647.915 160.711L652.185 152.998C652.4 152.612 652.76 152.327 653.185 152.206C653.61 152.085 654.066 152.138 654.453 152.353C654.839 152.568 655.124 152.928 655.245 153.353C655.366 153.778 655.313 154.234 655.098 154.62L650.828 162.399C650.668 162.637 650.451 162.832 650.196 162.965C649.942 163.098 649.658 163.165 649.371 163.161Z" fill="#257D61"/>
<path d="M592.636 246.444C592.38 246.442 592.127 246.381 591.898 246.266C591.668 246.152 591.468 245.986 591.312 245.782L584.261 236.58C584.113 236.41 584 236.211 583.931 235.996C583.862 235.781 583.837 235.554 583.859 235.329C583.881 235.104 583.949 234.886 584.058 234.689C584.168 234.491 584.316 234.318 584.495 234.18C584.674 234.041 584.879 233.941 585.098 233.886C585.317 233.83 585.545 233.82 585.768 233.855C585.991 233.891 586.205 233.972 586.395 234.093C586.586 234.215 586.75 234.374 586.877 234.561L593.96 243.763C594.097 243.933 594.198 244.129 594.257 244.339C594.316 244.549 594.332 244.769 594.304 244.985C594.276 245.201 594.205 245.41 594.095 245.598C593.985 245.786 593.837 245.95 593.662 246.08C593.37 246.312 593.009 246.44 592.636 246.444Z" fill="#257D61"/>
<path d="M608.189 233.37C607.816 233.365 607.455 233.237 607.163 233.006C606.816 232.738 606.591 232.343 606.535 231.909C606.479 231.475 606.598 231.036 606.865 230.689L610.506 225.988C610.779 225.647 611.176 225.428 611.61 225.378C612.044 225.329 612.48 225.453 612.823 225.723C612.998 225.854 613.145 226.018 613.255 226.206C613.366 226.394 613.437 226.602 613.465 226.819C613.492 227.035 613.476 227.255 613.417 227.465C613.358 227.675 613.257 227.87 613.121 228.041L609.48 232.708C609.331 232.911 609.136 233.077 608.912 233.191C608.688 233.306 608.441 233.367 608.189 233.37Z" fill="#257D61"/>
<path d="M673.139 233.37C672.872 233.362 672.61 233.292 672.374 233.166C672.139 233.039 671.936 232.86 671.782 232.641C671.539 232.281 671.448 231.839 671.529 231.411C671.609 230.984 671.855 230.605 672.212 230.357L677.74 226.517C678.102 226.27 678.547 226.172 678.979 226.246C679.412 226.321 679.798 226.56 680.057 226.915C680.183 227.095 680.271 227.298 680.317 227.512C680.364 227.726 680.367 227.948 680.327 228.163C680.287 228.379 680.204 228.584 680.084 228.768C679.964 228.951 679.809 229.109 679.627 229.232L674.099 233.072C673.816 233.264 673.481 233.368 673.139 233.37Z" fill="#257D61"/>
<path d="M675.921 290.306C675.648 290.303 675.38 290.236 675.138 290.109C674.896 289.983 674.688 289.801 674.531 289.578C674.409 289.396 674.325 289.192 674.285 288.978C674.244 288.764 674.247 288.543 674.293 288.33C674.339 288.117 674.428 287.915 674.554 287.737C674.68 287.559 674.841 287.408 675.027 287.294L684.428 281.07C684.793 280.831 685.238 280.745 685.665 280.832C686.093 280.919 686.469 281.171 686.712 281.534C686.953 281.904 687.04 282.354 686.953 282.787C686.867 283.22 686.614 283.602 686.249 283.851L676.848 290.041C676.574 290.223 676.25 290.316 675.921 290.306Z" fill="#257D61"/>
<path d="M590.913 289.049C590.611 289.047 590.317 288.962 590.06 288.805C589.803 288.647 589.595 288.423 589.456 288.155L586.477 282.362C586.345 282.169 586.255 281.951 586.214 281.721C586.172 281.49 586.18 281.254 586.237 281.027C586.293 280.8 586.397 280.588 586.542 280.404C586.687 280.22 586.869 280.069 587.076 279.961C587.283 279.852 587.511 279.789 587.745 279.775C587.978 279.762 588.212 279.797 588.43 279.88C588.649 279.963 588.848 280.092 589.013 280.257C589.178 280.423 589.307 280.621 589.39 280.84L592.402 286.633C592.504 286.825 592.566 287.036 592.584 287.254C592.602 287.471 592.577 287.689 592.509 287.896C592.441 288.103 592.332 288.294 592.189 288.458C592.045 288.622 591.87 288.756 591.674 288.851C591.442 288.982 591.179 289.051 590.913 289.049Z" fill="#257D61"/>
<path d="M620.244 295.471C620.019 295.472 619.797 295.425 619.592 295.334C619.386 295.242 619.202 295.109 619.053 294.941L612.432 288.089C612.278 287.938 612.156 287.758 612.072 287.559C611.988 287.36 611.945 287.146 611.945 286.93C611.945 286.715 611.988 286.501 612.072 286.302C612.156 286.103 612.278 285.923 612.432 285.772C612.586 285.617 612.769 285.494 612.971 285.41C613.172 285.325 613.389 285.282 613.607 285.282C613.826 285.282 614.042 285.325 614.244 285.41C614.446 285.494 614.628 285.617 614.782 285.772L621.403 292.624C621.558 292.778 621.681 292.961 621.765 293.163C621.849 293.364 621.892 293.581 621.892 293.799C621.892 294.018 621.849 294.234 621.765 294.436C621.681 294.637 621.558 294.82 621.403 294.974C621.093 295.28 620.679 295.458 620.244 295.471Z" fill="#257D61"/>
<path d="M644.607 277.034C644.353 277.046 644.102 276.989 643.879 276.868C643.681 276.78 643.503 276.652 643.356 276.492C643.21 276.333 643.097 276.145 643.026 275.94C642.955 275.736 642.926 275.518 642.942 275.302C642.957 275.086 643.017 274.876 643.117 274.683L647.586 265.448C647.785 265.058 648.127 264.761 648.541 264.619C648.955 264.477 649.408 264.501 649.804 264.686C650.193 264.886 650.49 265.228 650.632 265.642C650.774 266.055 650.75 266.508 650.565 266.904L646.063 276.107C645.936 276.385 645.73 276.621 645.472 276.785C645.214 276.95 644.913 277.036 644.607 277.034Z" fill="#257D61"/>
<path d="M552.385 227.379H551.922C551.709 227.333 551.508 227.244 551.33 227.118C551.153 226.992 551.002 226.832 550.888 226.646C550.774 226.461 550.698 226.254 550.665 226.039C550.632 225.824 550.643 225.604 550.697 225.393L553.246 214.47C553.296 214.252 553.388 214.047 553.517 213.865C553.647 213.683 553.811 213.529 554 213.411C554.189 213.292 554.399 213.212 554.619 213.175C554.839 213.138 555.064 213.145 555.282 213.195C555.499 213.245 555.704 213.337 555.886 213.467C556.068 213.596 556.222 213.76 556.34 213.949C556.459 214.138 556.539 214.349 556.576 214.569C556.613 214.788 556.606 215.013 556.556 215.231L553.974 226.155C553.885 226.507 553.68 226.82 553.392 227.042C553.104 227.264 552.749 227.383 552.385 227.379Z" fill="#257D61"/>
<path d="M507.859 241.845C507.553 241.838 507.255 241.747 506.998 241.58L497.067 235.258C496.857 235.157 496.67 235.013 496.519 234.834C496.368 234.656 496.256 234.448 496.192 234.224C496.127 233.999 496.111 233.764 496.143 233.532C496.176 233.301 496.258 233.079 496.382 232.882C496.507 232.684 496.672 232.515 496.867 232.386C497.061 232.257 497.281 232.17 497.511 232.132C497.742 232.094 497.978 232.105 498.204 232.164C498.429 232.224 498.64 232.331 498.822 232.477L508.753 238.767C509.119 239.005 509.38 239.376 509.479 239.802C509.577 240.228 509.507 240.676 509.282 241.051C509.129 241.29 508.919 241.488 508.67 241.627C508.422 241.766 508.143 241.841 507.859 241.845Z" fill="#257D61"/>
<path d="M511.73 305.303C511.412 305.308 511.1 305.215 510.836 305.038L501.965 299.477C501.776 299.365 501.612 299.216 501.483 299.039C501.354 298.863 501.261 298.661 501.212 298.448C501.162 298.234 501.157 298.013 501.195 297.797C501.233 297.582 501.315 297.376 501.435 297.193C501.673 296.824 502.046 296.565 502.475 296.472C502.903 296.379 503.35 296.46 503.719 296.696L512.591 302.257C512.888 302.449 513.116 302.732 513.241 303.063C513.367 303.395 513.382 303.757 513.286 304.098C513.19 304.439 512.986 304.74 512.706 304.957C512.426 305.174 512.084 305.295 511.73 305.303Z" fill="#257D61"/>
<path d="M536.557 301.032C536.121 300.998 535.715 300.796 535.425 300.469C535.135 300.141 534.983 299.714 535.002 299.277L535.432 291.796C535.454 291.357 535.649 290.945 535.975 290.65C536.301 290.355 536.731 290.202 537.17 290.224C537.609 290.246 538.021 290.441 538.316 290.767C538.611 291.093 538.764 291.523 538.742 291.962L538.312 299.476C538.278 299.912 538.076 300.318 537.749 300.608C537.421 300.898 536.994 301.05 536.557 301.032Z" fill="#257D61"/>
<path d="M567.804 328.838C567.365 328.838 566.944 328.664 566.633 328.353C566.323 328.043 566.148 327.622 566.148 327.183V319.702C566.148 319.263 566.323 318.842 566.633 318.532C566.944 318.221 567.365 318.047 567.804 318.047C568.243 318.047 568.664 318.221 568.974 318.532C569.284 318.842 569.459 319.263 569.459 319.702V327.183C569.459 327.622 569.284 328.043 568.974 328.353C568.664 328.664 568.243 328.838 567.804 328.838Z" fill="#257D61"/>
<path d="M556.457 362.667H556.159L547.155 360.979C546.938 360.938 546.731 360.854 546.546 360.733C546.361 360.611 546.202 360.455 546.077 360.272C545.953 360.089 545.865 359.883 545.82 359.667C545.775 359.45 545.773 359.227 545.815 359.009C545.856 358.792 545.94 358.585 546.061 358.4C546.182 358.215 546.339 358.056 546.522 357.931C546.705 357.807 546.91 357.719 547.127 357.674C547.344 357.629 547.567 357.627 547.784 357.669L556.788 359.39C557.002 359.425 557.206 359.504 557.389 359.621C557.571 359.738 557.727 359.891 557.848 360.071C557.969 360.251 558.052 360.454 558.092 360.667C558.131 360.88 558.127 361.099 558.079 361.31C558.016 361.693 557.817 362.04 557.52 362.289C557.222 362.538 556.845 362.672 556.457 362.667Z" fill="#257D61"/>
<path d="M550.696 265.91H550.398C549.97 265.836 549.587 265.598 549.333 265.244C549.079 264.891 548.974 264.453 549.041 264.023L550.332 256.74C550.368 256.525 550.447 256.318 550.563 256.133C550.679 255.948 550.831 255.788 551.009 255.661C551.188 255.535 551.39 255.446 551.603 255.398C551.816 255.35 552.037 255.345 552.252 255.383C552.684 255.464 553.067 255.71 553.32 256.068C553.573 256.426 553.677 256.869 553.609 257.303L552.318 264.585C552.248 264.962 552.047 265.302 551.75 265.544C551.453 265.787 551.08 265.916 550.696 265.91Z" fill="#257D61"/>
<path d="M655.363 341.481C655.061 341.454 654.773 341.339 654.536 341.15C654.355 341.03 654.2 340.876 654.081 340.695C653.961 340.515 653.879 340.312 653.839 340.099C653.798 339.886 653.801 339.667 653.847 339.456C653.893 339.244 653.981 339.043 654.105 338.866L659.667 330.723C659.775 330.516 659.926 330.333 660.109 330.189C660.293 330.044 660.505 329.939 660.732 329.883C660.959 329.826 661.195 329.818 661.425 329.859C661.656 329.9 661.875 329.989 662.068 330.121C662.261 330.253 662.424 330.425 662.546 330.624C662.668 330.824 662.746 331.047 662.776 331.279C662.806 331.511 662.786 331.746 662.718 331.97C662.65 332.194 662.535 332.401 662.381 332.577L656.82 340.72C656.664 340.963 656.448 341.161 656.193 341.294C655.937 341.428 655.651 341.492 655.363 341.481Z" fill="#257D61"/>
<path d="M679.329 375.08C678.946 375.075 678.574 374.947 678.269 374.716C677.936 374.427 677.729 374.02 677.692 373.581C677.654 373.142 677.79 372.705 678.071 372.365L685.552 363.395C685.687 363.224 685.854 363.083 686.045 362.979C686.236 362.875 686.445 362.81 686.661 362.788C686.878 362.767 687.096 362.789 687.303 362.853C687.511 362.917 687.703 363.023 687.869 363.163C688.04 363.301 688.182 363.471 688.287 363.665C688.391 363.858 688.456 364.071 688.478 364.289C688.499 364.508 688.477 364.729 688.412 364.939C688.348 365.149 688.242 365.344 688.101 365.513L680.62 374.484C680.461 374.671 680.263 374.821 680.04 374.924C679.817 375.027 679.574 375.08 679.329 375.08Z" fill="#257D61"/>
<path d="M647.917 397.425C647.532 397.43 647.157 397.301 646.857 397.061C646.524 396.772 646.317 396.365 646.279 395.926C646.242 395.487 646.378 395.051 646.659 394.71L654.14 385.74C654.428 385.409 654.832 385.2 655.269 385.157C655.706 385.114 656.143 385.24 656.49 385.508C656.823 385.796 657.031 386.204 657.068 386.643C657.105 387.082 656.969 387.518 656.689 387.858L649.208 396.829C649.05 397.018 648.853 397.169 648.629 397.273C648.406 397.376 648.163 397.428 647.917 397.425Z" fill="#257D61"/>
<path d="M604.188 365.448C603.865 365.449 603.549 365.356 603.279 365.179C603.008 365.003 602.795 364.751 602.666 364.455L599.058 356.113C598.941 355.912 598.869 355.688 598.845 355.457C598.821 355.225 598.846 354.992 598.918 354.771C598.991 354.55 599.109 354.346 599.265 354.174C599.421 354.002 599.612 353.864 599.825 353.771C600.038 353.677 600.268 353.63 600.501 353.631C600.733 353.632 600.963 353.683 601.175 353.779C601.387 353.875 601.576 354.014 601.73 354.189C601.884 354.363 602 354.567 602.07 354.789L605.711 363.131C605.799 363.331 605.846 363.546 605.85 363.764C605.854 363.982 605.815 364.199 605.735 364.402C605.655 364.605 605.536 364.791 605.384 364.947C605.232 365.104 605.051 365.229 604.85 365.316C604.641 365.404 604.416 365.449 604.188 365.448Z" fill="#257D61"/>
<path d="M613.391 457.504C612.954 457.498 612.538 457.32 612.232 457.008L608.194 452.936C607.891 452.627 607.721 452.211 607.721 451.778C607.721 451.344 607.891 450.928 608.194 450.619C608.348 450.464 608.531 450.341 608.732 450.257C608.934 450.173 609.15 450.129 609.369 450.129C609.587 450.129 609.804 450.173 610.005 450.257C610.207 450.341 610.39 450.464 610.544 450.619L614.616 454.658C614.921 454.972 615.092 455.394 615.092 455.833C615.092 456.271 614.921 456.693 614.616 457.008C614.455 457.169 614.264 457.295 614.054 457.381C613.843 457.466 613.618 457.508 613.391 457.504Z" fill="#257D61"/>
<path d="M656.658 453.865C656.406 453.862 656.158 453.805 655.929 453.699C655.536 453.513 655.233 453.179 655.084 452.77C654.935 452.361 654.954 451.91 655.135 451.515L659.008 443.372C659.097 443.174 659.225 442.996 659.383 442.849C659.542 442.701 659.729 442.587 659.933 442.513C660.136 442.439 660.353 442.407 660.569 442.418C660.786 442.429 660.998 442.483 661.193 442.577C661.391 442.669 661.57 442.8 661.718 442.962C661.865 443.124 661.98 443.314 662.053 443.52C662.127 443.726 662.16 443.945 662.148 444.164C662.137 444.383 662.082 444.597 661.987 444.795L658.147 452.905C658.012 453.187 657.802 453.427 657.538 453.596C657.275 453.766 656.971 453.859 656.658 453.865Z" fill="#257D61"/>
<path d="M611.503 498.154C611.272 498.162 611.043 498.118 610.831 498.027C610.619 497.935 610.43 497.798 610.278 497.624L606.074 492.89C605.93 492.729 605.82 492.54 605.75 492.335C605.681 492.13 605.653 491.913 605.668 491.697C605.684 491.481 605.742 491.27 605.84 491.077C605.938 490.884 606.074 490.713 606.24 490.573C606.388 490.415 606.568 490.289 606.767 490.202C606.966 490.116 607.181 490.072 607.398 490.072C607.615 490.072 607.83 490.116 608.029 490.202C608.229 490.289 608.408 490.415 608.557 490.573L612.728 495.274C612.952 495.506 613.102 495.801 613.158 496.119C613.214 496.438 613.174 496.765 613.042 497.061C612.91 497.356 612.694 497.605 612.419 497.776C612.145 497.948 611.826 498.033 611.503 498.021V498.154Z" fill="#257D61"/>
<path d="M667.776 504.379C667.499 504.38 667.226 504.312 666.982 504.18C666.601 503.964 666.319 503.608 666.196 503.188C666.072 502.768 666.116 502.317 666.319 501.929L671.086 493.422C671.297 493.036 671.652 492.749 672.075 492.625C672.497 492.5 672.951 492.549 673.337 492.76C673.723 492.97 674.01 493.326 674.134 493.748C674.259 494.17 674.21 494.624 673.999 495.011L669.299 503.584C669.145 503.846 668.92 504.059 668.651 504.199C668.382 504.34 668.079 504.402 667.776 504.379Z" fill="#257D61"/>
<path d="M636.094 542.28C635.838 542.278 635.585 542.217 635.356 542.102C635.126 541.987 634.926 541.822 634.77 541.618L630.5 536.057C630.264 535.708 630.169 535.283 630.236 534.867C630.302 534.451 630.525 534.076 630.858 533.818C631.192 533.561 631.611 533.44 632.03 533.481C632.45 533.522 632.838 533.721 633.115 534.038L637.418 539.599C637.673 539.953 637.781 540.392 637.72 540.824C637.658 541.256 637.431 541.648 637.087 541.916C636.808 542.147 636.457 542.276 636.094 542.28Z" fill="#257D61"/>
<path d="M680.19 555.521C679.837 555.52 679.492 555.417 679.197 555.223C678.846 554.96 678.614 554.568 678.552 554.133C678.49 553.699 678.603 553.257 678.866 552.906L684.196 545.624C684.459 545.275 684.848 545.042 685.281 544.974C685.713 544.906 686.155 545.008 686.513 545.26C686.689 545.388 686.839 545.549 686.952 545.735C687.066 545.921 687.142 546.127 687.176 546.343C687.21 546.558 687.201 546.778 687.15 546.99C687.098 547.201 687.006 547.401 686.877 547.577L681.514 554.859C681.358 555.063 681.158 555.228 680.929 555.343C680.699 555.458 680.447 555.519 680.19 555.521Z" fill="#257D61"/>
<path d="M611.897 560.684C611.476 560.681 611.072 560.515 610.771 560.221L602.628 552.74C602.452 552.597 602.307 552.419 602.202 552.218C602.098 552.016 602.035 551.796 602.02 551.569C602.004 551.343 602.035 551.116 602.11 550.902C602.186 550.688 602.305 550.492 602.46 550.326C602.614 550.16 602.801 550.027 603.009 549.937C603.217 549.846 603.442 549.799 603.669 549.799C603.896 549.799 604.12 549.845 604.328 549.935C604.537 550.025 604.724 550.157 604.879 550.323L613.022 557.804C613.27 558.03 613.444 558.325 613.521 558.651C613.597 558.977 613.573 559.319 613.451 559.631C613.329 559.944 613.115 560.211 612.837 560.399C612.56 560.587 612.232 560.687 611.897 560.684Z" fill="#257D61"/>
<path d="M638.512 578.462C638.327 578.507 638.134 578.507 637.949 578.462C637.745 578.388 637.558 578.274 637.399 578.127C637.239 577.98 637.111 577.803 637.022 577.605C636.932 577.408 636.883 577.194 636.877 576.977C636.872 576.761 636.91 576.545 636.989 576.343L639.372 569.723C639.53 569.322 639.838 568.998 640.231 568.821C640.624 568.644 641.07 568.626 641.475 568.773C641.88 568.92 642.212 569.218 642.401 569.606C642.589 569.993 642.619 570.439 642.484 570.848L640.068 577.469C639.94 577.773 639.723 578.031 639.445 578.208C639.167 578.385 638.841 578.474 638.512 578.462Z" fill="#257D61"/>
<path d="M600.481 604.445C600.135 604.432 599.801 604.316 599.521 604.114L592.206 598.784C592.029 598.656 591.88 598.494 591.767 598.309C591.653 598.123 591.577 597.916 591.544 597.701C591.51 597.486 591.519 597.266 591.57 597.055C591.621 596.843 591.713 596.643 591.841 596.467C591.97 596.291 592.131 596.142 592.317 596.029C592.503 595.915 592.709 595.839 592.924 595.805C593.14 595.771 593.359 595.78 593.571 595.831C593.783 595.883 593.982 595.975 594.159 596.103L601.474 601.433C601.823 601.696 602.056 602.085 602.124 602.518C602.192 602.95 602.09 603.392 601.838 603.75C601.681 603.962 601.476 604.135 601.241 604.256C601.005 604.376 600.745 604.441 600.481 604.445Z" fill="#257D61"/>
<path d="M667.145 588.721C666.868 588.723 666.595 588.654 666.351 588.523C665.967 588.301 665.686 587.937 665.568 587.509C665.451 587.082 665.506 586.626 665.722 586.239L671.217 576.639C671.436 576.257 671.798 575.978 672.224 575.863C672.649 575.748 673.102 575.807 673.484 576.026C673.866 576.246 674.145 576.608 674.26 577.033C674.375 577.459 674.316 577.912 674.097 578.294L668.602 587.894C668.455 588.149 668.242 588.36 667.986 588.505C667.73 588.651 667.44 588.725 667.145 588.721Z" fill="#257D61"/>
<path d="M596.5 628C570.008 618.336 560 625.31 560 625.31L598.312 670L709 625.31C692.528 625.31 622.992 637.663 596.5 628Z" fill="#F5F5F5"/>
<path d="M399 462.5C488.5 453 555.792 535.444 460.5 592C399 628.5 407.415 657.615 512.56 652.747C584.278 649.427 584.927 617.05 519.05 617.05" stroke="#039768" stroke-width="5"/>
<path d="M74 343.284C74 321.036 92.036 303 114.284 303H369.42C391.668 303 409.704 321.036 409.704 343.284V598.42C409.704 620.668 391.668 638.704 369.42 638.704H114.284C92.036 638.704 74 620.668 74 598.42V343.284Z" fill="#EEEEEE"/>
<path d="M144.756 437.953H155.935L128.34 513.487H117.211L126.326 488.309L108.248 437.953H119.679L131.563 473.957L144.756 437.953Z" fill="#006646"/>
<path d="M183.856 489.618C179.224 489.618 174.994 488.426 171.167 486.043C167.373 483.659 164.335 480.47 162.052 476.475C159.803 472.447 158.678 467.999 158.678 463.131C158.678 459.438 159.333 455.997 160.642 452.808C161.952 449.585 163.748 446.765 166.03 444.348C168.347 441.898 171.032 439.984 174.087 438.608C177.142 437.231 180.398 436.543 183.856 436.543C187.717 436.543 191.258 437.349 194.481 438.96C197.704 440.538 200.457 442.737 202.74 445.557C205.022 448.343 206.701 451.566 207.775 455.225C208.849 458.851 209.168 462.711 208.732 466.807H169.908C170.344 469.123 171.183 471.221 172.425 473.101C173.701 474.948 175.313 476.408 177.26 477.482C179.24 478.557 181.439 479.111 183.856 479.144C186.408 479.144 188.724 478.506 190.805 477.231C192.92 475.955 194.649 474.192 195.992 471.943L206.617 474.411C204.603 478.876 201.565 482.535 197.503 485.388C193.441 488.208 188.892 489.618 183.856 489.618ZM169.555 458.8H198.157C197.822 456.383 196.965 454.201 195.589 452.254C194.246 450.274 192.551 448.713 190.503 447.571C188.489 446.396 186.273 445.809 183.856 445.809C181.473 445.809 179.257 446.379 177.209 447.521C175.195 448.662 173.517 450.223 172.174 452.204C170.864 454.151 169.992 456.35 169.555 458.8Z" fill="#006646"/>
<path d="M262.391 456.736V488.309H251.917V459.304C251.917 457.055 251.363 455.007 250.256 453.161C249.181 451.314 247.721 449.854 245.875 448.78C244.062 447.672 242.014 447.118 239.731 447.118C237.516 447.118 235.485 447.672 233.638 448.78C231.792 449.854 230.315 451.314 229.207 453.161C228.099 455.007 227.545 457.055 227.545 459.304V488.309H217.071V437.953H227.545V443.291C229.291 441.21 231.439 439.565 233.991 438.356C236.542 437.148 239.295 436.543 242.249 436.543C245.975 436.543 249.366 437.45 252.421 439.262C255.476 441.075 257.893 443.509 259.672 446.564C261.485 449.619 262.391 453.01 262.391 456.736Z" fill="#006646"/>
<path d="M310.686 412.775H321.16V488.309H310.686V480.907C309.041 483.525 306.893 485.64 304.241 487.251C301.589 488.829 298.483 489.618 294.925 489.618C291.266 489.618 287.842 488.93 284.652 487.553C281.463 486.177 278.643 484.28 276.193 481.863C273.776 479.413 271.879 476.593 270.503 473.404C269.126 470.214 268.438 466.79 268.438 463.131C268.438 459.472 269.126 456.048 270.503 452.858C271.879 449.636 273.776 446.816 276.193 444.399C278.643 441.948 281.463 440.035 284.652 438.658C287.842 437.282 291.266 436.594 294.925 436.594C298.483 436.594 301.589 437.399 304.241 439.011C306.893 440.588 309.041 442.67 310.686 445.255V412.775ZM295.026 479.497C297.98 479.497 300.565 478.775 302.78 477.331C304.996 475.854 306.708 473.874 307.917 471.389C309.159 468.905 309.78 466.152 309.78 463.131C309.78 460.076 309.159 457.307 307.917 454.822C306.675 452.338 304.946 450.374 302.73 448.931C300.548 447.454 297.98 446.715 295.026 446.715C292.105 446.715 289.436 447.454 287.019 448.931C284.636 450.408 282.722 452.388 281.279 454.873C279.869 457.357 279.164 460.11 279.164 463.131C279.164 466.186 279.885 468.955 281.329 471.44C282.806 473.89 284.736 475.854 287.12 477.331C289.537 478.775 292.172 479.497 295.026 479.497Z" fill="#006646"/>
<path d="M354.692 489.618C350.059 489.618 345.829 488.426 342.002 486.043C338.209 483.659 335.17 480.47 332.888 476.475C330.638 472.447 329.514 467.999 329.514 463.131C329.514 459.438 330.168 455.997 331.478 452.808C332.787 449.585 334.583 446.765 336.866 444.348C339.182 441.898 341.868 439.984 344.923 438.608C347.978 437.231 351.234 436.543 354.692 436.543C359.324 436.543 363.537 437.735 367.331 440.118C371.158 442.502 374.196 445.708 376.445 449.736C378.728 453.765 379.869 458.23 379.869 463.131C379.869 466.79 379.215 470.214 377.906 473.404C376.596 476.593 374.783 479.413 372.467 481.863C370.184 484.28 367.515 486.177 364.461 487.553C361.439 488.93 358.183 489.618 354.692 489.618ZM354.692 479.144C357.478 479.144 359.979 478.406 362.195 476.928C364.41 475.451 366.156 473.504 367.432 471.087C368.741 468.637 369.395 465.984 369.395 463.131C369.395 460.21 368.724 457.525 367.381 455.074C366.072 452.623 364.31 450.676 362.094 449.233C359.878 447.756 357.411 447.017 354.692 447.017C351.939 447.017 349.438 447.756 347.189 449.233C344.973 450.71 343.211 452.674 341.901 455.124C340.626 457.575 339.988 460.244 339.988 463.131C339.988 466.119 340.659 468.821 342.002 471.238C343.345 473.655 345.124 475.586 347.34 477.029C349.589 478.439 352.04 479.144 354.692 479.144Z" fill="#006646"/>
<path d="M659.889 563.505C659.889 574.617 650.881 583.625 639.769 583.625C628.657 583.625 619.648 574.617 619.648 563.505C619.648 552.393 628.657 543.385 639.769 543.385C650.881 543.385 659.889 552.393 659.889 563.505Z" fill="#257D61"/>
<path d="M645.611 557.665V569.996" stroke="black" stroke-width="2" stroke-linecap="round"/>
<path d="M634.576 557.665V569.996" stroke="black" stroke-width="2" stroke-linecap="round"/>
<path d="M455.443 615.753C455.443 613.065 457.623 610.885 460.311 610.885H477.835C480.524 610.885 482.703 613.065 482.703 615.753V615.753C482.703 618.441 480.524 620.621 477.835 620.621H460.311C457.623 620.621 455.443 618.441 455.443 615.753V615.753Z" fill="#039768"/>
<path d="M520.75 606.079C515.48 601.149 494.395 596.634 481.884 599.485C475.448 600.952 476.964 630.694 481.001 633.098C487.826 637.163 513.858 632.628 519.38 629.168C523.968 626.294 523.454 608.609 520.75 606.079Z" fill="#257D61"/>
<circle cx="460.963" cy="615.753" r="2.27163" fill="#F5F5F5"/>
<path d="M266.255 621.755C204.387 608.125 134 635.757 83 638.792L161.5 655.381L294 662L407 638.792C368.53 638.792 328.124 635.384 266.255 621.755Z" fill="#F5F5F5"/>
</svg>
