<svg width="781" height="691" viewBox="0 0 781 691" fill="none" xmlns="http://www.w3.org/2000/svg">
<path d="M390.5 691C606.167 691 781 665.704 781 634.5C781 603.296 606.167 578 390.5 578C174.833 578 0 603.296 0 634.5C0 665.704 174.833 691 390.5 691Z" fill="#F5F5F5"/>
<path d="M316.38 367.475C313.961 345.505 329.81 325.734 351.78 323.315L603.72 295.574C625.69 293.155 645.461 309.004 647.881 330.974L675.621 582.914C678.041 604.884 662.191 624.655 640.222 627.075L388.281 654.816C366.311 657.235 346.54 641.386 344.121 619.416L316.38 367.475Z" fill="#F9FAFC"/>
<path d="M365.969 502.668L361.406 462.205L373.49 460.842L373.954 469.243C375.297 465.925 377.16 463.407 379.543 461.689C381.925 459.971 384.547 458.951 387.409 458.628C390.218 458.311 392.816 458.743 395.203 459.923C397.585 461.05 399.535 463.111 401.053 466.106C402.514 462.882 404.542 460.399 407.137 458.658C409.778 456.857 412.53 455.795 415.392 455.472C420.161 454.934 423.924 456.174 426.68 459.191C429.429 462.155 431.121 466.687 431.755 472.788L434.098 494.985L421.935 496.357L419.619 474.398C419.344 471.96 418.679 470.103 417.622 468.826C416.56 467.497 415.101 466.937 413.246 467.146C411.816 467.308 410.515 467.911 409.345 468.955C408.227 469.993 407.317 471.679 406.614 474.013C405.911 476.346 405.486 479.48 405.34 483.415C405.246 487.343 405.478 492.255 406.035 498.15L393.952 499.512L391.478 477.571C391.203 475.134 390.564 473.274 389.56 471.991C388.551 470.656 387.119 470.093 385.264 470.302C383.833 470.463 382.532 471.066 381.362 472.111C380.245 473.149 379.334 474.835 378.632 477.169C377.929 479.502 377.504 482.636 377.357 486.571C377.211 490.505 377.442 495.417 378.053 501.305L365.969 502.668ZM450.503 452.157L455.066 492.62L442.904 493.992L438.34 453.528L450.503 452.157ZM443.844 448.077C441.512 448.34 439.577 447.834 438.037 446.558C436.498 445.283 435.618 443.665 435.397 441.704C435.175 439.743 435.647 437.972 436.81 436.392C438.027 434.806 439.828 433.878 442.212 433.609C444.544 433.346 446.48 433.852 448.019 435.128C449.559 436.403 450.439 438.022 450.66 439.982C450.881 441.943 450.383 443.717 449.167 445.303C447.95 446.89 446.176 447.814 443.844 448.077ZM482.943 490.282C478.756 490.754 475.036 490.368 471.783 489.125C468.523 487.829 465.876 485.766 463.839 482.936C461.802 480.106 460.548 476.598 460.076 472.411C459.592 468.119 460.068 464.254 461.506 460.818C462.99 457.323 465.247 454.492 468.277 452.326C471.3 450.106 474.958 448.755 479.251 448.271C482.749 447.876 485.927 448.215 488.785 449.288C491.644 450.362 494.059 452.263 496.03 454.993L488.18 462.479C487.159 461.038 486.026 460.039 484.782 459.481C483.592 458.918 482.149 458.732 480.453 458.923C477.856 459.216 475.823 460.465 474.354 462.67C472.879 464.822 472.324 467.515 472.689 470.748C473.041 473.874 474.055 476.202 475.731 477.731C477.459 479.253 479.754 479.853 482.616 479.53C484.153 479.357 485.518 478.854 486.712 478.022C487.954 477.13 488.938 475.865 489.666 474.227L498.766 479.963C497.311 483.24 495.171 485.682 492.346 487.289C489.575 488.889 486.44 489.887 482.943 490.282ZM503.845 487.119L499.282 446.656L511.366 445.293L511.83 453.694C513.173 450.376 515.036 447.858 517.419 446.14C519.801 444.422 522.423 443.402 525.285 443.079C528.094 442.762 530.692 443.194 533.079 444.374C535.461 445.501 537.41 447.562 538.929 450.557C540.39 447.333 542.418 444.85 545.013 443.108C547.654 441.308 550.406 440.246 553.268 439.923C558.037 439.385 561.8 440.625 564.556 443.642C567.305 446.606 568.997 451.138 569.631 457.239L571.974 479.436L559.811 480.808L557.495 458.849C557.22 456.411 556.555 454.554 555.498 453.277C554.436 451.948 552.977 451.388 551.122 451.597C549.692 451.759 548.391 452.361 547.221 453.406C546.103 454.444 545.193 456.13 544.49 458.464C543.787 460.797 543.362 463.931 543.216 467.866C543.122 471.794 543.354 476.706 543.911 482.601L531.828 483.963L529.354 462.022C529.079 459.585 528.44 457.724 527.436 456.442C526.427 455.107 524.995 454.544 523.14 454.753C521.709 454.914 520.408 455.517 519.238 456.562C518.121 457.6 517.21 459.286 516.508 461.619C515.805 463.953 515.38 467.087 515.233 471.022C515.086 474.956 515.318 479.868 515.929 485.756L503.845 487.119ZM588.379 436.608L592.942 477.071L580.78 478.443L576.216 437.979L588.379 436.608ZM581.72 432.528C579.388 432.791 577.453 432.285 575.913 431.009C574.374 429.734 573.494 428.116 573.273 426.155C573.051 424.194 573.523 422.423 574.686 420.843C575.903 419.256 577.704 418.329 580.088 418.06C582.42 417.797 584.356 418.303 585.895 419.579C587.434 420.854 588.315 422.472 588.536 424.433C588.757 426.394 588.259 428.168 587.043 429.754C585.826 431.341 584.052 432.265 581.72 432.528ZM620.818 474.732C616.632 475.205 612.912 474.819 609.659 473.576C606.399 472.28 603.752 470.217 601.715 467.387C599.678 464.557 598.424 461.049 597.952 456.862C597.468 452.57 597.944 448.705 599.382 445.269C600.866 441.774 603.123 438.943 606.153 436.777C609.176 434.557 612.834 433.206 617.127 432.721C620.625 432.327 623.803 432.666 626.661 433.739C629.52 434.813 631.935 436.714 633.906 439.443L626.056 446.93C625.035 445.489 623.902 444.49 622.658 443.932C621.468 443.369 620.025 443.183 618.329 443.374C615.732 443.667 613.699 444.916 612.23 447.121C610.755 449.273 610.2 451.966 610.565 455.198C610.917 458.325 611.931 460.653 613.607 462.182C615.335 463.704 617.63 464.304 620.492 463.981C622.029 463.808 623.394 463.305 624.588 462.473C625.83 461.581 626.814 460.316 627.542 458.678L636.642 464.414C635.187 467.691 633.047 470.133 630.222 471.74C627.451 473.34 624.316 474.338 620.818 474.732Z" fill="#8000FF"/>
<path d="M477.255 617.02C415.387 599.518 345 635 294 638.897L369.5 678.5L670 638.897C631.53 638.897 539.124 634.521 477.255 617.02Z" fill="#F5F5F5"/>
<path d="M273.849 58.4253C267.228 115.394 233.464 153.925 208.803 175.011C208.406 116.089 207.314 72.5599 205.063 55.2806C198.972 8.24243 178.382 0 154.913 0C130.848 0 111.483 24.0984 111.88 53.46C110.953 95.8307 112.277 196.329 114.363 316.688C100.385 295.547 91.6994 271.352 89.0395 246.148C82.9156 186.564 19.9884 197.355 24.1593 259.058C27.4695 309.34 51.5678 379.947 115.985 406.329C117.375 481.074 118.898 559.46 120.255 633.807L131.085 637.526C152.707 644.95 176.22 644.742 197.707 636.936L206.32 633.807C207.314 503.418 208.902 355.054 208.936 240.156C304.104 226.915 335.154 135.918 344.059 74.0164C353.658 7.5473 281.462 -6.22323 273.849 58.4253Z" fill="#7F55B5"/>
<path d="M187.086 239.693C191.588 249.127 203.637 257.336 208.933 260.713C208.933 253.717 208.933 246.865 208.933 240.156C201.651 240.608 194.343 240.453 187.086 239.693Z" fill="#4C257D"/>
<path d="M115.984 406.328C116.183 416.413 116.382 426.576 116.58 436.815C120.586 432.909 136.441 417.881 141.506 407.023C133.064 408.818 124.316 408.579 115.984 406.328Z" fill="#4C257D"/>
<path d="M122.866 55.0817C122.493 55.077 122.132 54.949 121.84 54.7176L114.326 48.7261C113.99 48.4423 113.775 48.0407 113.726 47.6037C113.676 47.1666 113.796 46.7272 114.061 46.3758C114.345 46.0376 114.749 45.8239 115.189 45.7806C115.628 45.7373 116.067 45.8678 116.411 46.1441L123.892 52.1356C124.065 52.2681 124.209 52.434 124.316 52.6234C124.423 52.8128 124.491 53.0218 124.516 53.238C124.541 53.4542 124.522 53.6732 124.46 53.8819C124.398 54.0906 124.295 54.2847 124.157 54.4528C124 54.6444 123.803 54.7998 123.58 54.9083C123.357 55.0169 123.114 55.076 122.866 55.0817Z" fill="#4C257D"/>
<path d="M182.717 16.3203C182.44 16.3177 182.168 16.2497 181.923 16.1217C181.541 15.9062 181.261 15.5482 181.143 15.1262C181.025 14.7043 181.079 14.2528 181.294 13.8708L185.134 7.01862C185.233 6.81684 185.373 6.63747 185.544 6.49145C185.715 6.34544 185.914 6.23586 186.129 6.1694C186.344 6.10294 186.57 6.08098 186.794 6.1049C187.018 6.12882 187.234 6.19815 187.43 6.30855C187.626 6.41896 187.798 6.56817 187.934 6.74708C188.071 6.92599 188.169 7.13085 188.224 7.34911C188.278 7.56737 188.288 7.79443 188.252 8.0165C188.216 8.23856 188.135 8.45096 188.014 8.64065L184.174 15.4928C184.026 15.7478 183.814 15.959 183.558 16.1044C183.302 16.2499 183.012 16.3244 182.717 16.3203Z" fill="#4C257D"/>
<path d="M151.108 47.1357C150.829 47.1741 150.545 47.1393 150.284 47.0349C150.023 46.9304 149.794 46.7598 149.618 46.5399L146.308 41.6076C146.185 41.4284 146.099 41.2262 146.056 41.0132C146.013 40.8001 146.013 40.5805 146.056 40.3675C146.099 40.1544 146.185 39.9522 146.308 39.7729C146.431 39.5936 146.588 39.4408 146.771 39.3236C147.136 39.0841 147.581 38.9984 148.009 39.0852C148.437 39.172 148.813 39.4242 149.055 39.7871L152.366 44.7193C152.605 45.0842 152.691 45.5289 152.604 45.9567C152.517 46.3845 152.265 46.7606 151.902 47.0033C151.653 47.115 151.38 47.1605 151.108 47.1357Z" fill="#4C257D"/>
<path d="M130.781 12.9098C130.375 12.9111 129.984 12.7571 129.689 12.4795L124.789 8.20928C124.519 7.90939 124.367 7.52094 124.363 7.1171C124.359 6.71327 124.503 6.32193 124.768 6.01674C125.032 5.71155 125.399 5.51361 125.799 5.46018C126.2 5.40674 126.606 5.50149 126.941 5.72661L131.873 9.99682C132.202 10.2897 132.403 10.6993 132.434 11.1383C132.465 11.5773 132.323 12.011 132.039 12.347C131.879 12.5224 131.685 12.663 131.469 12.7598C131.252 12.8567 131.018 12.9077 130.781 12.9098Z" fill="#4C257D"/>
<path d="M193.279 79.048C192.891 79.0413 192.516 78.901 192.22 78.6507C192.052 78.5134 191.913 78.3438 191.812 78.152C191.711 77.9602 191.649 77.7501 191.631 77.5341C191.612 77.3181 191.637 77.1005 191.704 76.8943C191.771 76.6881 191.879 76.4974 192.021 76.3336L196.523 70.971C196.818 70.6917 197.206 70.5308 197.612 70.5191C198.019 70.5074 198.415 70.6456 198.726 70.9075C199.037 71.1694 199.241 71.5365 199.299 71.939C199.356 72.3414 199.264 72.751 199.039 73.0896L194.57 78.4521C194.412 78.6411 194.215 78.7927 193.992 78.8957C193.768 78.9988 193.525 79.0508 193.279 79.048Z" fill="#4C257D"/>
<path d="M152.925 118.207C152.582 118.209 152.246 118.105 151.965 117.909L147.463 114.598C147.284 114.473 147.132 114.313 147.015 114.129C146.898 113.944 146.819 113.738 146.782 113.523C146.745 113.307 146.751 113.087 146.8 112.874C146.848 112.661 146.939 112.459 147.066 112.281C147.33 111.932 147.719 111.699 148.151 111.631C148.583 111.563 149.025 111.666 149.383 111.917L153.885 115.227C154.232 115.485 154.464 115.869 154.532 116.295C154.6 116.722 154.499 117.159 154.249 117.511C154.102 117.727 153.905 117.903 153.674 118.025C153.443 118.146 153.186 118.208 152.925 118.207Z" fill="#4C257D"/>
<path d="M145.977 86.2643C145.619 86.2667 145.269 86.1503 144.984 85.9333L138.562 81.0011C138.375 80.8743 138.216 80.7105 138.095 80.5199C137.973 80.3293 137.892 80.1158 137.857 79.8927C137.821 79.6696 137.831 79.4416 137.887 79.2226C137.943 79.0037 138.043 78.7985 138.181 78.6196C138.319 78.4408 138.492 78.2921 138.69 78.1828C138.888 78.0734 139.106 78.0058 139.331 77.9839C139.556 77.962 139.783 77.9863 139.998 78.0555C140.213 78.1246 140.411 78.2371 140.581 78.386L147.003 83.3182C147.27 83.5322 147.464 83.8235 147.558 84.1522C147.653 84.4808 147.643 84.8307 147.53 85.1536C147.418 85.4766 147.208 85.7568 146.93 85.9556C146.652 86.1545 146.319 86.2623 145.977 86.2643Z" fill="#4C257D"/>
<path d="M115.157 140.686C114.927 140.69 114.699 140.644 114.487 140.553C114.276 140.462 114.087 140.326 113.932 140.156L106.848 132.212C106.545 131.902 106.375 131.486 106.375 131.053C106.375 130.62 106.545 130.204 106.848 129.895C107.002 129.74 107.185 129.616 107.387 129.532C107.588 129.448 107.805 129.405 108.023 129.405C108.242 129.405 108.458 129.448 108.66 129.532C108.861 129.616 109.045 129.74 109.198 129.895L116.249 137.806C116.474 138.039 116.624 138.333 116.68 138.651C116.736 138.97 116.695 139.298 116.564 139.593C116.432 139.888 116.215 140.138 115.941 140.309C115.667 140.48 115.347 140.565 115.024 140.554L115.157 140.686Z" fill="#4C257D"/>
<path d="M204.007 136.746C203.617 136.751 203.239 136.609 202.948 136.349C202.612 136.071 202.399 135.672 202.356 135.238C202.312 134.804 202.442 134.37 202.717 134.031L209.999 125.359C210.138 125.191 210.309 125.053 210.501 124.952C210.694 124.85 210.905 124.788 211.121 124.768C211.338 124.748 211.556 124.771 211.764 124.835C211.972 124.9 212.165 125.004 212.333 125.143C212.5 125.283 212.638 125.453 212.74 125.646C212.841 125.838 212.904 126.049 212.924 126.266C212.944 126.483 212.921 126.701 212.856 126.909C212.792 127.117 212.687 127.31 212.548 127.477L205.265 136.15C205.113 136.336 204.921 136.487 204.704 136.59C204.486 136.693 204.248 136.746 204.007 136.746Z" fill="#4C257D"/>
<path d="M186.859 49.8513C186.483 49.8638 186.117 49.7337 185.833 49.4872C185.663 49.3523 185.521 49.1845 185.417 48.9939C185.313 48.8033 185.248 48.5938 185.227 48.3776C185.205 48.1615 185.227 47.9433 185.292 47.7359C185.356 47.5284 185.461 47.336 185.601 47.1701L189.871 41.9068C190.149 41.5708 190.549 41.3579 190.982 41.3145C191.416 41.2711 191.85 41.4007 192.189 41.6751C192.36 41.813 192.502 41.9837 192.606 42.1771C192.711 42.3705 192.776 42.5828 192.797 42.8016C192.819 43.0204 192.797 43.2413 192.732 43.4514C192.667 43.6615 192.561 43.8567 192.42 44.0254L188.15 49.2555C187.993 49.4445 187.795 49.596 187.572 49.6991C187.349 49.8022 187.105 49.8542 186.859 49.8513Z" fill="#4C257D"/>
<path d="M225.753 162.73C225.314 162.73 224.893 162.556 224.582 162.245C224.272 161.935 224.098 161.514 224.098 161.075V153.793C224.098 153.354 224.272 152.933 224.582 152.622C224.893 152.312 225.314 152.137 225.753 152.137C226.189 152.146 226.605 152.323 226.914 152.632C227.222 152.94 227.399 153.356 227.408 153.793V161.075C227.408 161.514 227.233 161.935 226.923 162.245C226.613 162.556 226.192 162.73 225.753 162.73Z" fill="#4C257D"/>
<path d="M256.632 128.073C256.4 128.068 256.172 128.016 255.961 127.919C255.751 127.822 255.562 127.683 255.408 127.51L248.357 119.599C248.202 119.445 248.079 119.262 247.994 119.06C247.91 118.858 247.867 118.642 247.867 118.423C247.867 118.205 247.91 117.989 247.994 117.787C248.079 117.585 248.202 117.402 248.357 117.248C248.666 116.945 249.082 116.775 249.515 116.775C249.949 116.775 250.365 116.945 250.674 117.248L257.758 125.16C258.063 125.475 258.234 125.896 258.234 126.335C258.234 126.774 258.063 127.195 257.758 127.51C257.471 127.838 257.067 128.041 256.632 128.073Z" fill="#4C257D"/>
<path d="M328.797 49.8532C328.505 49.8589 328.217 49.7783 327.97 49.6214C327.588 49.4059 327.308 49.0479 327.19 48.626C327.072 48.204 327.126 47.7526 327.341 47.3705L331.677 39.9225C331.893 39.5411 332.251 39.2607 332.673 39.1428C333.094 39.025 333.546 39.0791 333.928 39.2936C334.304 39.5147 334.577 39.8751 334.689 40.2965C334.8 40.718 334.741 41.1665 334.524 41.5445L330.254 49.0587C330.102 49.3076 329.888 49.5121 329.632 49.6516C329.376 49.7911 329.088 49.8606 328.797 49.8532Z" fill="#4C257D"/>
<path d="M285.966 34.9569C285.64 34.951 285.323 34.851 285.053 34.6689C284.783 34.4868 284.571 34.2305 284.444 33.9307L279.942 22.7753C279.779 22.3671 279.786 21.911 279.959 21.5075C280.133 21.104 280.46 20.786 280.868 20.6236C281.277 20.4612 281.733 20.4676 282.136 20.6415C282.54 20.8153 282.858 21.1422 283.02 21.5505L287.522 32.6728C287.603 32.8749 287.643 33.0909 287.64 33.3085C287.637 33.5261 287.591 33.741 287.505 33.9409C287.419 34.1407 287.294 34.3216 287.138 34.4732C286.982 34.6249 286.797 34.7442 286.595 34.8245C286.399 34.9183 286.183 34.9637 285.966 34.9569Z" fill="#4C257D"/>
<path d="M317.016 24.2305C316.808 24.2623 316.596 24.2623 316.387 24.2305C316.184 24.1472 315.999 24.0243 315.844 23.869C315.689 23.7136 315.566 23.5288 315.483 23.3254C315.399 23.1221 315.358 22.9042 315.359 22.6845C315.361 22.4647 315.407 22.2477 315.494 22.0458L318.804 14.3329C318.887 14.1337 319.009 13.953 319.162 13.8015C319.316 13.6499 319.498 13.5306 319.699 13.4505C319.899 13.3703 320.114 13.331 320.329 13.3347C320.545 13.3385 320.758 13.3852 320.956 13.4723C321.158 13.552 321.342 13.6717 321.497 13.824C321.652 13.9763 321.775 14.1582 321.858 14.3589C321.941 14.5596 321.984 14.7749 321.982 14.9922C321.981 15.2096 321.935 15.4244 321.849 15.6239L318.44 23.3698C318.302 23.6284 318.097 23.845 317.847 23.9965C317.596 24.148 317.309 24.2289 317.016 24.2305Z" fill="#4C257D"/>
<path d="M302.877 111.156C302.613 111.152 302.353 111.087 302.117 110.967C301.882 110.846 301.678 110.673 301.52 110.461C301.395 110.281 301.306 110.078 301.26 109.863C301.214 109.649 301.21 109.428 301.25 109.212C301.29 108.996 301.373 108.791 301.493 108.608C301.613 108.424 301.769 108.266 301.95 108.143L309.001 103.211C309.178 103.074 309.382 102.974 309.6 102.917C309.817 102.861 310.044 102.849 310.266 102.883C310.488 102.917 310.7 102.996 310.891 103.115C311.082 103.234 311.246 103.39 311.374 103.575C311.502 103.759 311.592 103.968 311.637 104.188C311.682 104.408 311.681 104.635 311.636 104.855C311.59 105.074 311.501 105.283 311.372 105.467C311.243 105.651 311.079 105.807 310.888 105.926L303.837 110.858C303.554 111.05 303.22 111.154 302.877 111.156Z" fill="#4C257D"/>
<path d="M286.825 77.5586C286.494 77.5589 286.17 77.4575 285.897 77.2681C285.625 77.0787 285.418 76.8104 285.302 76.4993L283.151 71.1699C282.984 70.7617 282.986 70.3039 283.157 69.8972C283.328 69.4906 283.653 69.1685 284.061 69.0017C284.469 68.8349 284.927 68.8371 285.334 69.0078C285.74 69.1785 286.063 69.5038 286.229 69.912L288.381 75.2745C288.535 75.6834 288.524 76.1361 288.352 76.5373C288.179 76.9386 287.857 77.2572 287.454 77.4262C287.257 77.5177 287.042 77.563 286.825 77.5586Z" fill="#4C257D"/>
<path d="M318.634 155.449C318.326 155.461 318.021 155.383 317.757 155.224C317.492 155.065 317.279 154.833 317.145 154.556C317.043 154.363 316.981 154.152 316.963 153.935C316.944 153.718 316.97 153.499 317.038 153.292C317.106 153.085 317.215 152.894 317.358 152.73C317.502 152.566 317.677 152.433 317.873 152.338L323.335 149.557C323.528 149.455 323.739 149.393 323.956 149.375C324.173 149.357 324.391 149.382 324.598 149.45C324.805 149.518 324.997 149.627 325.161 149.771C325.325 149.914 325.458 150.089 325.553 150.285C325.749 150.676 325.783 151.129 325.646 151.545C325.51 151.96 325.214 152.305 324.824 152.503L319.363 155.284C319.138 155.401 318.887 155.458 318.634 155.449Z" fill="#4C257D"/>
<path d="M264.78 188.65C264.341 188.702 263.899 188.579 263.551 188.305C263.204 188.032 262.979 187.632 262.926 187.193C262.873 186.754 262.997 186.312 263.27 185.965C263.543 185.617 263.943 185.392 264.382 185.34L270.142 183.85C270.36 183.796 270.586 183.785 270.807 183.818C271.029 183.851 271.242 183.927 271.434 184.042C271.626 184.157 271.793 184.309 271.927 184.489C272.06 184.669 272.157 184.874 272.211 185.091C272.265 185.309 272.276 185.535 272.243 185.756C272.21 185.978 272.134 186.191 272.019 186.383C271.904 186.575 271.752 186.742 271.572 186.876C271.392 187.009 271.187 187.106 270.97 187.16L265.21 188.65H264.78Z" fill="#4C257D"/>
<path d="M265.64 163.592C265.201 163.618 264.77 163.469 264.441 163.177C264.112 162.886 263.912 162.475 263.886 162.036C263.859 161.597 264.009 161.166 264.3 160.837C264.592 160.508 265.003 160.308 265.442 160.282L272.492 159.421C272.71 159.395 272.93 159.412 273.141 159.471C273.352 159.53 273.549 159.63 273.721 159.765C273.893 159.901 274.037 160.068 274.144 160.259C274.251 160.45 274.32 160.66 274.346 160.878C274.372 161.095 274.355 161.315 274.296 161.526C274.237 161.737 274.137 161.934 274.002 162.106C273.867 162.278 273.699 162.422 273.508 162.529C273.317 162.637 273.107 162.705 272.89 162.731L265.839 163.592H265.64Z" fill="#4C257D"/>
<path d="M238.989 234.395H238.592L229.853 232.31C229.43 232.193 229.067 231.919 228.839 231.543C228.612 231.168 228.536 230.72 228.628 230.291C228.738 229.863 229.01 229.495 229.388 229.266C229.765 229.037 230.217 228.965 230.647 229.066L239.386 231.184C239.811 231.287 240.179 231.553 240.408 231.925C240.638 232.297 240.71 232.745 240.611 233.17C240.515 233.526 240.304 233.839 240.01 234.061C239.716 234.283 239.357 234.401 238.989 234.395Z" fill="#4C257D"/>
<path d="M227.306 208.544C227.031 208.548 226.759 208.482 226.516 208.352C226.273 208.221 226.067 208.031 225.918 207.8C225.769 207.568 225.681 207.302 225.663 207.026C225.646 206.751 225.699 206.476 225.817 206.227L229.657 197.654C229.844 197.261 230.176 196.955 230.583 196.801C230.99 196.647 231.441 196.656 231.841 196.826C232.042 196.912 232.223 197.038 232.375 197.194C232.527 197.351 232.646 197.536 232.726 197.739C232.806 197.942 232.845 198.159 232.841 198.377C232.837 198.596 232.79 198.811 232.702 199.011L228.829 207.584C228.695 207.874 228.48 208.119 228.21 208.289C227.939 208.46 227.626 208.548 227.306 208.544Z" fill="#4C257D"/>
<path d="M339.065 83.6492C338.796 83.6498 338.531 83.5835 338.294 83.4564C338.057 83.3293 337.856 83.1453 337.707 82.9209C337.582 82.741 337.494 82.538 337.447 82.3237C337.401 82.1093 337.398 81.8879 337.438 81.6723C337.478 81.4567 337.561 81.2513 337.681 81.0678C337.801 80.8844 337.956 80.7266 338.138 80.6037L344.03 76.6646C344.394 76.4188 344.841 76.3278 345.273 76.4116C345.704 76.4954 346.085 76.7472 346.33 77.1115C346.576 77.4758 346.667 77.9229 346.584 78.3543C346.5 78.7858 346.248 79.1662 345.884 79.4121L339.991 83.3512C339.72 83.5431 339.397 83.6471 339.065 83.6492Z" fill="#4C257D"/>
<path d="M288.644 139.626C288.213 139.617 287.802 139.445 287.494 139.143C287.187 138.842 287.006 138.434 286.989 138.004L286.79 127.312C286.781 127.093 286.817 126.875 286.894 126.671C286.972 126.466 287.09 126.279 287.241 126.122C287.393 125.964 287.575 125.838 287.776 125.753C287.977 125.667 288.194 125.623 288.412 125.623C288.63 125.619 288.846 125.657 289.048 125.737C289.251 125.816 289.436 125.934 289.593 126.085C289.749 126.235 289.875 126.415 289.962 126.614C290.049 126.814 290.096 127.028 290.101 127.245L290.299 137.937C290.304 138.155 290.265 138.371 290.186 138.573C290.107 138.776 289.989 138.961 289.838 139.118C289.687 139.274 289.507 139.4 289.308 139.487C289.109 139.574 288.895 139.621 288.677 139.626H288.644Z" fill="#4C257D"/>
<path d="M113.434 175.641C113.065 175.644 112.705 175.528 112.408 175.31L106.582 170.51C106.24 170.237 106.021 169.84 105.972 169.406C105.922 168.972 106.046 168.536 106.317 168.193C106.449 168.021 106.615 167.876 106.804 167.769C106.994 167.662 107.203 167.594 107.419 167.569C107.635 167.545 107.854 167.564 108.063 167.625C108.272 167.687 108.466 167.79 108.634 167.928L114.625 172.629C114.892 172.843 115.086 173.134 115.18 173.463C115.275 173.792 115.265 174.141 115.153 174.464C115.04 174.787 114.83 175.067 114.552 175.266C114.274 175.465 113.941 175.573 113.599 175.575L113.434 175.641Z" fill="#4C257D"/>
<path d="M149.62 193.549C149.39 193.552 149.162 193.507 148.951 193.416C148.739 193.324 148.55 193.189 148.395 193.019L141.775 185.538C141.62 185.384 141.497 185.201 141.413 184.999C141.329 184.798 141.285 184.581 141.285 184.363C141.285 184.144 141.329 183.928 141.413 183.726C141.497 183.525 141.62 183.341 141.775 183.188C141.926 183.033 142.106 182.911 142.305 182.827C142.504 182.744 142.718 182.701 142.933 182.701C143.149 182.701 143.363 182.744 143.562 182.827C143.761 182.911 143.941 183.033 144.092 183.188L150.712 190.669C150.937 190.901 151.087 191.196 151.143 191.514C151.199 191.832 151.158 192.16 151.027 192.456C150.895 192.751 150.678 193 150.404 193.171C150.13 193.342 149.811 193.428 149.488 193.416L149.62 193.549Z" fill="#4C257D"/>
<path d="M174.246 163.161C173.969 163.162 173.696 163.094 173.452 162.962C173.26 162.858 173.091 162.717 172.954 162.548C172.817 162.378 172.715 162.183 172.653 161.974C172.592 161.765 172.572 161.546 172.596 161.329C172.619 161.112 172.685 160.902 172.79 160.711L177.06 152.998C177.275 152.612 177.635 152.327 178.06 152.206C178.485 152.085 178.941 152.138 179.328 152.353C179.714 152.568 179.999 152.928 180.12 153.353C180.241 153.778 180.188 154.234 179.973 154.62L175.703 162.399C175.543 162.637 175.326 162.832 175.071 162.965C174.817 163.098 174.533 163.165 174.246 163.161Z" fill="#4C257D"/>
<path d="M117.507 246.445C117.251 246.442 116.998 246.381 116.769 246.266C116.539 246.152 116.339 245.986 116.183 245.783L109.133 236.58C108.984 236.41 108.871 236.211 108.802 235.996C108.733 235.781 108.709 235.554 108.73 235.329C108.752 235.104 108.82 234.886 108.929 234.689C109.039 234.491 109.187 234.318 109.366 234.18C109.545 234.042 109.75 233.942 109.969 233.886C110.188 233.83 110.416 233.82 110.639 233.855C110.862 233.891 111.076 233.972 111.266 234.094C111.457 234.215 111.621 234.374 111.748 234.561L118.832 243.763C118.968 243.933 119.069 244.129 119.128 244.339C119.187 244.549 119.203 244.769 119.175 244.985C119.147 245.201 119.076 245.41 118.966 245.598C118.856 245.786 118.709 245.95 118.534 246.08C118.241 246.312 117.88 246.44 117.507 246.445Z" fill="#4C257D"/>
<path d="M133.062 233.37C132.689 233.365 132.328 233.237 132.036 233.006C131.69 232.738 131.464 232.343 131.408 231.909C131.352 231.475 131.471 231.036 131.738 230.689L135.379 225.988C135.652 225.647 136.049 225.428 136.483 225.378C136.917 225.329 137.353 225.453 137.696 225.724C137.871 225.854 138.018 226.018 138.128 226.206C138.239 226.394 138.31 226.602 138.338 226.819C138.365 227.035 138.349 227.255 138.29 227.465C138.231 227.675 138.13 227.871 137.994 228.041L134.353 232.708C134.204 232.911 134.009 233.077 133.785 233.192C133.561 233.306 133.314 233.368 133.062 233.37Z" fill="#4C257D"/>
<path d="M198.01 233.37C197.743 233.362 197.481 233.292 197.245 233.166C197.01 233.039 196.807 232.86 196.653 232.641C196.41 232.281 196.319 231.839 196.4 231.411C196.48 230.984 196.726 230.605 197.083 230.357L202.611 226.518C202.973 226.27 203.418 226.172 203.85 226.247C204.283 226.321 204.67 226.56 204.928 226.915C205.054 227.095 205.142 227.298 205.188 227.512C205.235 227.726 205.238 227.948 205.198 228.163C205.158 228.379 205.075 228.584 204.955 228.768C204.835 228.951 204.68 229.109 204.498 229.232L198.97 233.072C198.687 233.264 198.353 233.368 198.01 233.37Z" fill="#4C257D"/>
<path d="M200.794 290.306C200.521 290.304 200.253 290.236 200.011 290.11C199.769 289.983 199.561 289.801 199.404 289.578C199.282 289.397 199.198 289.193 199.158 288.978C199.117 288.764 199.12 288.543 199.166 288.33C199.212 288.117 199.301 287.915 199.427 287.737C199.554 287.559 199.714 287.408 199.9 287.294L209.301 281.071C209.666 280.831 210.111 280.745 210.539 280.832C210.966 280.919 211.343 281.171 211.585 281.534C211.827 281.904 211.913 282.354 211.826 282.787C211.74 283.22 211.487 283.602 211.122 283.851L201.721 290.041C201.447 290.223 201.123 290.316 200.794 290.306Z" fill="#4C257D"/>
<path d="M115.788 289.049C115.486 289.047 115.192 288.962 114.935 288.805C114.678 288.647 114.47 288.423 114.331 288.155L111.352 282.363C111.22 282.17 111.13 281.951 111.089 281.721C111.047 281.49 111.055 281.254 111.112 281.027C111.168 280.8 111.272 280.588 111.417 280.404C111.562 280.22 111.744 280.069 111.951 279.961C112.158 279.853 112.386 279.789 112.62 279.775C112.853 279.762 113.087 279.797 113.305 279.881C113.524 279.964 113.723 280.092 113.888 280.257C114.053 280.423 114.182 280.621 114.265 280.84L117.277 286.633C117.379 286.825 117.441 287.037 117.459 287.254C117.477 287.471 117.452 287.689 117.384 287.896C117.316 288.103 117.207 288.295 117.064 288.459C116.92 288.623 116.745 288.756 116.549 288.851C116.317 288.982 116.054 289.051 115.788 289.049Z" fill="#4C257D"/>
<path d="M145.115 295.471C144.891 295.472 144.668 295.425 144.463 295.334C144.257 295.243 144.074 295.109 143.924 294.941L137.303 288.089C137.149 287.938 137.027 287.758 136.943 287.559C136.859 287.36 136.816 287.146 136.816 286.93C136.816 286.715 136.859 286.501 136.943 286.302C137.027 286.103 137.149 285.923 137.303 285.772C137.457 285.617 137.64 285.494 137.842 285.41C138.044 285.326 138.26 285.282 138.478 285.282C138.697 285.282 138.913 285.326 139.115 285.41C139.317 285.494 139.5 285.617 139.653 285.772L146.274 292.624C146.429 292.778 146.552 292.961 146.636 293.163C146.72 293.364 146.764 293.581 146.764 293.799C146.764 294.018 146.72 294.234 146.636 294.436C146.552 294.637 146.429 294.82 146.274 294.974C145.964 295.28 145.55 295.458 145.115 295.471Z" fill="#4C257D"/>
<path d="M169.482 277.033C169.228 277.046 168.977 276.988 168.754 276.868C168.556 276.779 168.378 276.652 168.231 276.492C168.085 276.332 167.972 276.145 167.901 275.94C167.83 275.735 167.801 275.518 167.817 275.302C167.832 275.086 167.892 274.875 167.992 274.683L172.461 265.448C172.66 265.058 173.002 264.761 173.416 264.619C173.83 264.477 174.283 264.501 174.679 264.686C175.068 264.885 175.365 265.228 175.507 265.641C175.649 266.055 175.625 266.508 175.44 266.904L170.938 276.107C170.811 276.385 170.605 276.621 170.347 276.785C170.089 276.949 169.788 277.036 169.482 277.033Z" fill="#4C257D"/>
<path d="M77.2583 227.379H76.7948C76.5821 227.333 76.381 227.244 76.2033 227.118C76.0257 226.992 75.8753 226.831 75.761 226.646C75.6467 226.461 75.5708 226.254 75.538 226.039C75.5052 225.824 75.5161 225.604 75.5701 225.393L78.1189 214.469C78.1689 214.252 78.2612 214.047 78.3905 213.865C78.5199 213.683 78.6839 213.529 78.8729 213.411C79.0619 213.292 79.2724 213.212 79.4923 213.175C79.7123 213.138 79.9374 213.145 80.1547 213.195C80.3721 213.245 80.5775 213.337 80.7591 213.467C80.9408 213.596 81.0952 213.76 81.2135 213.949C81.3319 214.138 81.4118 214.348 81.4488 214.568C81.4858 214.788 81.4791 215.013 81.4291 215.231L78.8471 226.154C78.758 226.507 78.5529 226.82 78.2648 227.042C77.9766 227.264 77.6221 227.383 77.2583 227.379Z" fill="#4C257D"/>
<path d="M32.7318 241.845C32.426 241.838 32.128 241.747 31.8711 241.581L21.9405 235.258C21.7298 235.157 21.5429 235.013 21.3919 234.835C21.241 234.656 21.1295 234.448 21.0647 234.224C21 233.999 20.9836 233.764 21.0165 233.532C21.0493 233.301 21.1306 233.079 21.2553 232.882C21.3799 232.684 21.545 232.515 21.7396 232.386C21.9342 232.257 22.1539 232.17 22.3844 232.132C22.6148 232.094 22.8507 232.105 23.0766 232.165C23.3024 232.224 23.5132 232.331 23.6949 232.477L33.6255 238.767C33.9925 239.005 34.2528 239.376 34.3516 239.802C34.4504 240.228 34.38 240.676 34.1552 241.051C34.0021 241.291 33.7919 241.489 33.5435 241.627C33.2951 241.766 33.0163 241.841 32.7318 241.845Z" fill="#4C257D"/>
<path d="M36.6029 305.303C36.2849 305.308 35.973 305.215 35.7092 305.038L26.8378 299.477C26.6493 299.365 26.4854 299.216 26.356 299.039C26.2266 298.863 26.1344 298.661 26.0849 298.448C26.0354 298.234 26.0297 298.013 26.068 297.797C26.1064 297.582 26.1881 297.376 26.3082 297.193C26.5456 296.824 26.9194 296.565 27.3475 296.472C27.7757 296.379 28.2233 296.46 28.5922 296.696L37.4636 302.257C37.7612 302.449 37.9894 302.732 38.1145 303.063C38.2397 303.394 38.2552 303.757 38.1589 304.098C38.0626 304.439 37.8594 304.74 37.5793 304.957C37.2993 305.174 36.957 305.295 36.6029 305.303Z" fill="#4C257D"/>
<path d="M61.4283 301.032C60.9922 300.998 60.5864 300.796 60.2962 300.469C60.006 300.141 59.8541 299.714 59.8726 299.277L60.3028 291.796C60.3248 291.357 60.5202 290.945 60.8461 290.65C61.172 290.355 61.6018 290.202 62.0408 290.224C62.4798 290.246 62.892 290.441 63.1869 290.767C63.4817 291.093 63.635 291.523 63.6131 291.962L63.1828 299.476C63.1489 299.912 62.947 300.318 62.6197 300.608C62.2925 300.898 61.8653 301.05 61.4283 301.032Z" fill="#4C257D"/>
<path d="M92.6785 328.838C92.2396 328.838 91.8186 328.664 91.5082 328.353C91.1978 328.043 91.0234 327.622 91.0234 327.183V319.702C91.0234 319.263 91.1978 318.842 91.5082 318.532C91.8186 318.221 92.2396 318.047 92.6785 318.047C93.1175 318.047 93.5386 318.221 93.849 318.532C94.1594 318.842 94.3337 319.263 94.3337 319.702V327.183C94.3337 327.622 94.1594 328.043 93.849 328.353C93.5386 328.664 93.1175 328.838 92.6785 328.838Z" fill="#4C257D"/>
<path d="M81.3282 362.667H81.0303L72.0265 360.979C71.8091 360.938 71.602 360.854 71.417 360.733C71.232 360.612 71.0728 360.455 70.9483 360.272C70.8238 360.089 70.7365 359.884 70.6915 359.667C70.6465 359.45 70.6446 359.227 70.6859 359.01C70.7272 358.792 70.8108 358.585 70.9321 358.4C71.0535 358.215 71.2101 358.056 71.393 357.931C71.5759 357.807 71.7815 357.72 71.9981 357.675C72.2147 357.63 72.4381 357.628 72.6554 357.669L81.6592 359.39C81.873 359.426 82.0774 359.504 82.2597 359.621C82.442 359.738 82.5984 359.892 82.7193 360.071C82.8403 360.251 82.9232 360.454 82.9629 360.667C83.0026 360.88 82.9982 361.099 82.9502 361.31C82.8868 361.693 82.6884 362.04 82.3908 362.289C82.0932 362.539 81.7162 362.673 81.3282 362.667Z" fill="#4C257D"/>
<path d="M75.5695 265.909H75.2715C74.8428 265.836 74.46 265.597 74.206 265.244C73.952 264.891 73.8473 264.452 73.9143 264.023L75.2053 256.74C75.2413 256.525 75.3197 256.318 75.4359 256.133C75.5521 255.948 75.7039 255.788 75.8824 255.661C76.0609 255.535 76.2627 255.446 76.476 255.398C76.6893 255.35 76.91 255.345 77.1253 255.383C77.5567 255.464 77.9397 255.709 78.193 256.068C78.4464 256.426 78.5502 256.869 78.4825 257.303L77.1914 264.585C77.1211 264.962 76.9196 265.302 76.6227 265.544C76.3258 265.787 75.9527 265.916 75.5695 265.909Z" fill="#4C257D"/>
<path d="M180.236 341.481C179.934 341.454 179.646 341.339 179.409 341.15C179.228 341.031 179.074 340.876 178.954 340.695C178.834 340.515 178.752 340.312 178.712 340.099C178.672 339.886 178.674 339.667 178.72 339.456C178.766 339.244 178.854 339.044 178.978 338.866L184.54 330.723C184.648 330.516 184.799 330.334 184.982 330.189C185.166 330.044 185.378 329.94 185.605 329.883C185.832 329.826 186.068 329.818 186.298 329.859C186.529 329.9 186.748 329.99 186.941 330.121C187.134 330.253 187.297 330.425 187.419 330.624C187.541 330.824 187.619 331.047 187.649 331.279C187.679 331.511 187.659 331.746 187.591 331.97C187.523 332.194 187.408 332.401 187.254 332.577L181.693 340.72C181.537 340.963 181.321 341.161 181.066 341.294C180.81 341.428 180.524 341.492 180.236 341.481Z" fill="#4C257D"/>
<path d="M204.202 375.08C203.819 375.075 203.447 374.947 203.142 374.716C202.809 374.427 202.602 374.02 202.565 373.581C202.527 373.142 202.664 372.705 202.944 372.365L210.425 363.395C210.56 363.224 210.728 363.083 210.918 362.979C211.109 362.875 211.318 362.81 211.534 362.788C211.751 362.767 211.969 362.789 212.176 362.853C212.384 362.917 212.576 363.023 212.742 363.163C212.913 363.301 213.055 363.472 213.16 363.665C213.264 363.858 213.329 364.071 213.351 364.289C213.372 364.508 213.35 364.729 213.285 364.939C213.221 365.149 213.115 365.344 212.974 365.513L205.493 374.484C205.334 374.671 205.136 374.821 204.913 374.924C204.69 375.027 204.447 375.08 204.202 375.08Z" fill="#4C257D"/>
<path d="M172.792 397.425C172.407 397.43 172.032 397.301 171.732 397.061C171.399 396.772 171.192 396.365 171.154 395.926C171.117 395.487 171.253 395.05 171.534 394.71L179.015 385.74C179.303 385.408 179.707 385.2 180.144 385.157C180.581 385.114 181.018 385.239 181.365 385.508C181.698 385.796 181.906 386.203 181.943 386.643C181.98 387.082 181.844 387.518 181.564 387.858L174.083 396.829C173.925 397.018 173.728 397.169 173.504 397.272C173.281 397.375 173.038 397.427 172.792 397.425Z" fill="#4C257D"/>
<path d="M129.06 365.448C128.736 365.449 128.42 365.356 128.15 365.179C127.879 365.003 127.666 364.751 127.537 364.455L123.929 356.113C123.812 355.912 123.74 355.688 123.716 355.457C123.692 355.226 123.717 354.992 123.789 354.771C123.862 354.55 123.98 354.346 124.136 354.174C124.292 354.002 124.483 353.864 124.696 353.771C124.909 353.677 125.139 353.63 125.372 353.631C125.604 353.632 125.834 353.683 126.046 353.779C126.258 353.875 126.447 354.014 126.601 354.189C126.755 354.363 126.871 354.567 126.941 354.789L130.582 363.131C130.67 363.331 130.717 363.546 130.721 363.764C130.725 363.983 130.686 364.199 130.606 364.402C130.526 364.605 130.407 364.791 130.255 364.947C130.103 365.104 129.922 365.229 129.721 365.316C129.512 365.404 129.287 365.449 129.06 365.448Z" fill="#4C257D"/>
<path d="M138.264 457.504C137.827 457.498 137.411 457.32 137.105 457.008L133.067 452.936C132.764 452.627 132.594 452.211 132.594 451.778C132.594 451.344 132.764 450.928 133.067 450.619C133.221 450.464 133.404 450.341 133.605 450.257C133.807 450.173 134.023 450.129 134.242 450.129C134.46 450.129 134.677 450.173 134.879 450.257C135.08 450.341 135.263 450.464 135.417 450.619L139.489 454.657C139.794 454.972 139.965 455.394 139.965 455.833C139.965 456.271 139.794 456.693 139.489 457.008C139.328 457.169 139.137 457.295 138.927 457.381C138.716 457.466 138.491 457.508 138.264 457.504Z" fill="#4C257D"/>
<path d="M181.533 453.865C181.281 453.862 181.033 453.805 180.804 453.699C180.411 453.513 180.108 453.179 179.959 452.77C179.81 452.361 179.829 451.91 180.01 451.515L183.883 443.371C183.972 443.174 184.1 442.996 184.258 442.849C184.417 442.701 184.604 442.587 184.808 442.513C185.011 442.439 185.228 442.407 185.444 442.418C185.661 442.429 185.873 442.483 186.068 442.577C186.266 442.669 186.445 442.8 186.593 442.962C186.74 443.124 186.855 443.314 186.928 443.52C187.002 443.726 187.035 443.945 187.023 444.164C187.012 444.383 186.957 444.597 186.862 444.795L183.022 452.905C182.887 453.187 182.677 453.426 182.413 453.596C182.15 453.766 181.846 453.859 181.533 453.865Z" fill="#4C257D"/>
<path d="M136.378 498.154C136.147 498.162 135.918 498.119 135.706 498.027C135.494 497.935 135.305 497.798 135.153 497.624L130.949 492.891C130.805 492.729 130.695 492.54 130.625 492.335C130.556 492.13 130.528 491.913 130.543 491.697C130.559 491.481 130.617 491.27 130.715 491.077C130.813 490.884 130.949 490.713 131.115 490.573C131.263 490.415 131.443 490.289 131.642 490.203C131.841 490.116 132.056 490.072 132.273 490.072C132.49 490.072 132.705 490.116 132.904 490.203C133.104 490.289 133.283 490.415 133.432 490.573L137.603 495.274C137.827 495.506 137.977 495.801 138.033 496.119C138.089 496.438 138.049 496.766 137.917 497.061C137.785 497.356 137.569 497.605 137.294 497.776C137.02 497.948 136.701 498.033 136.378 498.021V498.154Z" fill="#4C257D"/>
<path d="M192.649 504.379C192.372 504.38 192.099 504.312 191.855 504.18C191.474 503.964 191.192 503.608 191.069 503.188C190.945 502.768 190.99 502.317 191.193 501.929L195.959 493.422C196.17 493.036 196.526 492.749 196.948 492.625C197.37 492.501 197.824 492.549 198.21 492.76C198.596 492.971 198.883 493.326 199.007 493.748C199.132 494.17 199.083 494.625 198.872 495.011L194.172 503.584C194.018 503.846 193.793 504.059 193.524 504.2C193.255 504.34 192.952 504.402 192.649 504.379Z" fill="#4C257D"/>
<path d="M160.969 542.28C160.713 542.278 160.46 542.217 160.231 542.102C160.001 541.987 159.801 541.822 159.645 541.618L155.375 536.057C155.139 535.708 155.044 535.283 155.111 534.867C155.177 534.451 155.4 534.076 155.733 533.818C156.067 533.561 156.486 533.44 156.905 533.481C157.325 533.522 157.713 533.721 157.99 534.038L162.293 539.599C162.548 539.953 162.656 540.392 162.595 540.824C162.533 541.256 162.306 541.647 161.962 541.916C161.683 542.147 161.332 542.276 160.969 542.28Z" fill="#4C257D"/>
<path d="M205.065 555.521C204.712 555.52 204.367 555.417 204.072 555.224C203.721 554.96 203.489 554.568 203.427 554.133C203.365 553.699 203.478 553.258 203.741 552.906L209.071 545.624C209.334 545.275 209.723 545.042 210.156 544.974C210.588 544.906 211.03 545.008 211.388 545.26C211.564 545.388 211.714 545.549 211.827 545.735C211.941 545.921 212.017 546.127 212.051 546.343C212.085 546.558 212.076 546.778 212.025 546.99C211.973 547.201 211.881 547.401 211.752 547.577L206.389 554.859C206.233 555.063 206.033 555.229 205.804 555.343C205.574 555.458 205.322 555.519 205.065 555.521Z" fill="#4C257D"/>
<path d="M136.768 560.684C136.347 560.682 135.943 560.515 135.642 560.221L127.499 552.74C127.323 552.597 127.178 552.419 127.073 552.218C126.969 552.016 126.907 551.796 126.891 551.569C126.875 551.343 126.906 551.116 126.981 550.902C127.057 550.688 127.176 550.492 127.331 550.326C127.485 550.16 127.673 550.027 127.881 549.937C128.089 549.846 128.313 549.799 128.54 549.799C128.767 549.799 128.991 549.845 129.2 549.935C129.408 550.025 129.595 550.157 129.75 550.323L137.893 557.804C138.141 558.03 138.315 558.325 138.392 558.651C138.468 558.978 138.444 559.319 138.322 559.632C138.2 559.944 137.986 560.211 137.709 560.399C137.431 560.587 137.103 560.687 136.768 560.684Z" fill="#4C257D"/>
<path d="M163.385 578.462C163.2 578.507 163.007 578.507 162.822 578.462C162.618 578.388 162.431 578.275 162.272 578.127C162.112 577.98 161.984 577.803 161.895 577.605C161.805 577.408 161.756 577.194 161.751 576.977C161.745 576.761 161.783 576.545 161.862 576.343L164.246 569.723C164.403 569.322 164.711 568.998 165.104 568.821C165.497 568.644 165.943 568.627 166.348 568.773C166.754 568.92 167.086 569.218 167.274 569.606C167.462 569.993 167.492 570.439 167.357 570.848L164.941 577.469C164.813 577.773 164.596 578.031 164.318 578.208C164.04 578.385 163.714 578.474 163.385 578.462Z" fill="#4C257D"/>
<path d="M125.356 604.445C125.01 604.432 124.676 604.317 124.396 604.114L117.081 598.785C116.904 598.656 116.755 598.495 116.642 598.309C116.528 598.123 116.452 597.917 116.419 597.701C116.385 597.486 116.394 597.267 116.445 597.055C116.496 596.843 116.588 596.644 116.716 596.467C116.845 596.291 117.006 596.142 117.192 596.029C117.378 595.915 117.584 595.839 117.799 595.806C118.015 595.772 118.234 595.781 118.446 595.832C118.658 595.883 118.857 595.975 119.034 596.103L126.349 601.433C126.698 601.697 126.931 602.086 126.999 602.518C127.067 602.95 126.965 603.392 126.713 603.75C126.556 603.962 126.351 604.135 126.116 604.256C125.88 604.377 125.62 604.441 125.356 604.445Z" fill="#4C257D"/>
<path d="M192.016 588.721C191.739 588.723 191.466 588.654 191.222 588.523C190.838 588.301 190.557 587.937 190.439 587.509C190.322 587.082 190.377 586.626 190.593 586.239L196.088 576.639C196.307 576.257 196.67 575.978 197.095 575.863C197.52 575.748 197.973 575.807 198.355 576.026C198.737 576.246 199.016 576.608 199.131 577.033C199.246 577.459 199.187 577.912 198.968 578.294L193.473 587.894C193.326 588.149 193.113 588.36 192.857 588.505C192.601 588.651 192.311 588.725 192.016 588.721Z" fill="#4C257D"/>
<path d="M148.5 627.5C116.908 617.733 105 620.332 105 620.332L134.5 665L297 620.332C277.356 620.332 180.092 637.267 148.5 627.5Z" fill="#F5F5F5"/>
</svg>
