<svg width="315" height="211" viewBox="0 0 315 211" fill="none" xmlns="http://www.w3.org/2000/svg">
<path d="M157.445 211C244.4 211 314.89 204.938 314.89 197.46C314.89 189.982 244.4 183.92 157.445 183.92C70.4906 183.92 0 189.982 0 197.46C0 204.938 70.4906 211 157.445 211Z" fill="#F5F5F5"/>
<path d="M265.53 18.5899C263.53 35.7999 253.33 47.4399 245.88 53.8099C245.76 36.0099 245.43 22.8599 244.75 17.6399C242.91 3.42994 236.69 0.939941 229.6 0.939941C222.33 0.939941 216.48 8.21994 216.6 17.0899C216.32 29.8899 216.72 60.2499 217.35 96.6099C213.127 90.2232 210.503 82.9141 209.7 75.2999C207.85 57.2999 188.84 60.56 190.1 79.2C191.1 94.39 198.38 115.72 217.84 123.69C218.26 146.27 218.72 169.95 219.13 192.41H245.13C245.43 153.02 245.91 108.2 245.92 73.4899C274.67 69.4899 284.05 41.9999 286.74 23.2999C289.64 3.21994 267.83 -0.940065 265.53 18.5899Z" fill="#407BFF"/>
<path opacity="0.2" d="M265.53 18.5899C263.53 35.7999 253.33 47.4399 245.88 53.8099C245.76 36.0099 245.43 22.8599 244.75 17.6399C242.91 3.42994 236.69 0.939941 229.6 0.939941C222.33 0.939941 216.48 8.21994 216.6 17.0899C216.32 29.8899 216.72 60.2499 217.35 96.6099C213.127 90.2232 210.503 82.9141 209.7 75.2999C207.85 57.2999 188.84 60.56 190.1 79.2C191.1 94.39 198.38 115.72 217.84 123.69C218.26 146.27 218.72 169.95 219.13 192.41H245.13C245.43 153.02 245.91 108.2 245.92 73.4899C274.67 69.4899 284.05 41.9999 286.74 23.2999C289.64 3.21994 267.83 -0.940065 265.53 18.5899Z" fill="white"/>
<path d="M239.32 73.3501C240.68 76.2001 244.32 78.6801 245.92 79.7001C245.92 77.5868 245.92 75.5167 245.92 73.4901C243.72 73.6266 241.513 73.5798 239.32 73.3501Z" fill="#407BFF"/>
<path d="M217.84 123.69C217.9 126.737 217.96 129.807 218.02 132.9C219.23 131.72 224.02 127.18 225.55 123.9C223 124.442 220.357 124.37 217.84 123.69Z" fill="#407BFF"/>
<path d="M219.92 17.5799C219.807 17.5784 219.698 17.5398 219.61 17.4699L217.34 15.6599C217.238 15.5741 217.173 15.4528 217.159 15.3208C217.144 15.1887 217.18 15.056 217.26 14.9498C217.345 14.8477 217.468 14.7831 217.6 14.77C217.733 14.757 217.866 14.7964 217.97 14.8799L220.23 16.6899C220.282 16.7299 220.325 16.78 220.358 16.8372C220.39 16.8944 220.411 16.9576 220.418 17.0229C220.426 17.0882 220.42 17.1544 220.401 17.2174C220.383 17.2804 220.352 17.3391 220.31 17.3899C220.262 17.4477 220.203 17.4947 220.136 17.5275C220.068 17.5603 219.995 17.5781 219.92 17.5799Z" fill="#407BFF"/>
<path d="M238 5.87011C237.916 5.86932 237.834 5.84877 237.76 5.81011C237.645 5.74499 237.56 5.63685 237.524 5.50938C237.489 5.38191 237.505 5.24554 237.57 5.13012L238.73 3.06011C238.76 2.99916 238.802 2.94497 238.854 2.90086C238.905 2.85675 238.966 2.82365 239.031 2.80357C239.095 2.78349 239.164 2.77686 239.231 2.78408C239.299 2.79131 239.364 2.81225 239.424 2.84561C239.483 2.87896 239.535 2.92404 239.576 2.97808C239.617 3.03213 239.647 3.09402 239.663 3.15995C239.68 3.22589 239.683 3.29448 239.672 3.36157C239.661 3.42865 239.636 3.49282 239.6 3.55012L238.44 5.62011C238.395 5.69716 238.331 5.76095 238.254 5.8049C238.176 5.84884 238.089 5.87135 238 5.87011Z" fill="#407BFF"/>
<path d="M228.45 15.1798C228.366 15.1914 228.28 15.1809 228.201 15.1493C228.122 15.1178 228.053 15.0663 228 14.9998L227 13.5098C226.963 13.4556 226.937 13.3946 226.924 13.3302C226.911 13.2659 226.911 13.1995 226.924 13.1352C226.937 13.0708 226.963 13.0097 227 12.9555C227.037 12.9014 227.085 12.8552 227.14 12.8198C227.25 12.7475 227.385 12.7216 227.514 12.7478C227.643 12.774 227.757 12.8502 227.83 12.9598L228.83 14.4498C228.902 14.56 228.928 14.6944 228.902 14.8236C228.876 14.9529 228.8 15.0665 228.69 15.1398C228.615 15.1735 228.532 15.1873 228.45 15.1798Z" fill="#407BFF"/>
<path d="M222.31 4.83985C222.187 4.84023 222.069 4.79373 221.98 4.70986L220.5 3.41985C220.418 3.32926 220.372 3.21191 220.371 3.08991C220.37 2.96791 220.413 2.84969 220.493 2.7575C220.573 2.6653 220.684 2.6055 220.805 2.58936C220.926 2.57322 221.049 2.60184 221.15 2.66985L222.64 3.95986C222.739 4.04834 222.8 4.17207 222.809 4.30469C222.818 4.43731 222.776 4.56833 222.69 4.66985C222.642 4.72283 222.583 4.76529 222.518 4.79454C222.452 4.8238 222.381 4.83921 222.31 4.83985Z" fill="#407BFF"/>
<path d="M241.19 24.8199C241.073 24.8179 240.96 24.7755 240.87 24.6999C240.819 24.6584 240.778 24.6072 240.747 24.5492C240.716 24.4913 240.698 24.4278 240.692 24.3626C240.687 24.2973 240.694 24.2316 240.714 24.1693C240.735 24.107 240.767 24.0494 240.81 23.9999L242.17 22.3799C242.259 22.2955 242.376 22.2469 242.499 22.2434C242.622 22.2398 242.742 22.2816 242.836 22.3607C242.93 22.4398 242.991 22.5507 243.009 22.6723C243.026 22.7939 242.998 22.9176 242.93 23.0199L241.58 24.6399C241.532 24.697 241.473 24.7428 241.405 24.7739C241.338 24.805 241.264 24.8208 241.19 24.8199Z" fill="#407BFF"/>
<path d="M229 36.6498C228.896 36.6506 228.795 36.6192 228.71 36.5598L227.35 35.5598C227.296 35.5219 227.25 35.4737 227.214 35.4179C227.179 35.3621 227.155 35.2999 227.144 35.2348C227.133 35.1698 227.135 35.1031 227.149 35.0387C227.164 34.9744 227.191 34.9136 227.23 34.8598C227.309 34.7544 227.427 34.6839 227.558 34.6634C227.688 34.6429 227.822 34.6739 227.93 34.7498L229.29 35.7498C229.395 35.8277 229.465 35.9435 229.485 36.0724C229.506 36.2014 229.475 36.3332 229.4 36.4398C229.355 36.505 229.296 36.5582 229.226 36.5948C229.156 36.6315 229.079 36.6503 229 36.6498Z" fill="#407BFF"/>
<path d="M226.9 26.9999C226.792 27.0007 226.686 26.9655 226.6 26.8999L224.66 25.4099C224.603 25.3716 224.555 25.3222 224.519 25.2646C224.482 25.207 224.458 25.1425 224.447 25.0751C224.436 25.0077 224.439 24.9388 224.456 24.8727C224.473 24.8065 224.503 24.7445 224.545 24.6905C224.586 24.6365 224.639 24.5916 224.698 24.5585C224.758 24.5255 224.824 24.5051 224.892 24.4984C224.96 24.4918 225.028 24.4992 225.093 24.5201C225.158 24.541 225.218 24.575 225.27 24.6199L227.21 26.1099C227.29 26.1746 227.349 26.2626 227.378 26.3619C227.406 26.4612 227.403 26.5668 227.369 26.6644C227.335 26.762 227.272 26.8466 227.188 26.9067C227.104 26.9668 227.003 26.9993 226.9 26.9999Z" fill="#407BFF"/>
<path d="M217.59 43.4401C217.521 43.4412 217.452 43.4275 217.388 43.3999C217.324 43.3723 217.267 43.3315 217.22 43.2801L215.08 40.8801C214.989 40.7867 214.938 40.661 214.938 40.5301C214.938 40.3992 214.989 40.2736 215.08 40.1801C215.127 40.1333 215.182 40.0961 215.243 40.0707C215.304 40.0453 215.369 40.0322 215.435 40.0322C215.501 40.0322 215.567 40.0453 215.628 40.0707C215.689 40.0961 215.744 40.1333 215.79 40.1801L217.92 42.5701C217.988 42.6404 218.034 42.7293 218.05 42.8255C218.067 42.9217 218.055 43.0208 218.015 43.11C217.976 43.1992 217.91 43.2744 217.827 43.3261C217.744 43.3778 217.648 43.4036 217.55 43.4001L217.59 43.4401Z" fill="#407BFF"/>
<path d="M244.43 42.25C244.312 42.2516 244.198 42.2088 244.11 42.13C244.009 42.0461 243.944 41.9255 243.931 41.7944C243.918 41.6633 243.957 41.5324 244.04 41.43L246.24 38.81C246.282 38.7594 246.334 38.7176 246.392 38.687C246.45 38.6564 246.514 38.6375 246.579 38.6315C246.645 38.6255 246.711 38.6324 246.773 38.6519C246.836 38.6713 246.895 38.703 246.945 38.745C246.996 38.787 247.037 38.8386 247.068 38.8968C247.099 38.9549 247.118 39.0186 247.124 39.0841C247.13 39.1495 247.123 39.2155 247.103 39.2783C247.084 39.3411 247.052 39.3995 247.01 39.45L244.81 42.07C244.764 42.1263 244.706 42.1717 244.64 42.2028C244.575 42.234 244.503 42.2501 244.43 42.25Z" fill="#407BFF"/>
<path d="M239.25 15.9999C239.137 16.0036 239.026 15.9643 238.94 15.8899C238.889 15.8491 238.846 15.7984 238.815 15.7409C238.783 15.6833 238.764 15.62 238.757 15.5547C238.751 15.4894 238.757 15.4235 238.777 15.3608C238.796 15.2981 238.828 15.24 238.87 15.1899L240.16 13.5999C240.244 13.4984 240.365 13.434 240.496 13.4209C240.627 13.4078 240.758 13.447 240.86 13.5299C240.912 13.5715 240.955 13.6231 240.987 13.6815C241.018 13.74 241.038 13.8041 241.044 13.8702C241.051 13.9363 241.044 14.003 241.025 14.0665C241.005 14.13 240.973 14.1889 240.93 14.2399L239.64 15.8199C239.593 15.877 239.533 15.9227 239.466 15.9539C239.398 15.985 239.325 16.0007 239.25 15.9999Z" fill="#407BFF"/>
<path d="M251 50.0999C250.867 50.0999 250.74 50.0472 250.646 49.9535C250.553 49.8597 250.5 49.7325 250.5 49.5999V47.3999C250.5 47.2673 250.553 47.1401 250.646 47.0464C250.74 46.9526 250.867 46.8999 251 46.8999C251.132 46.9025 251.257 46.956 251.351 47.0492C251.444 47.1424 251.497 47.2681 251.5 47.3999V49.5999C251.5 49.7325 251.447 49.8597 251.354 49.9535C251.26 50.0472 251.133 50.0999 251 50.0999Z" fill="#407BFF"/>
<path d="M260.33 39.6302C260.259 39.6288 260.19 39.613 260.127 39.5837C260.063 39.5545 260.006 39.5124 259.96 39.4602L257.83 37.0702C257.783 37.0237 257.745 36.9684 257.72 36.9075C257.695 36.8466 257.682 36.7812 257.682 36.7152C257.682 36.6492 257.695 36.5838 257.72 36.5229C257.745 36.462 257.783 36.4067 257.83 36.3602C257.923 36.2686 258.049 36.2173 258.18 36.2173C258.31 36.2173 258.436 36.2686 258.53 36.3602L260.67 38.7502C260.762 38.8454 260.813 38.9727 260.813 39.1052C260.813 39.2378 260.762 39.3651 260.67 39.4602C260.583 39.5594 260.461 39.6205 260.33 39.6302Z" fill="#407BFF"/>
<path d="M282.13 16.0001C282.042 16.0018 281.955 15.9775 281.88 15.9301C281.765 15.8649 281.68 15.7568 281.644 15.6293C281.609 15.5019 281.625 15.3655 281.69 15.2501L283 13.0001C283.065 12.8849 283.173 12.8002 283.301 12.7645C283.428 12.7289 283.565 12.7453 283.68 12.8101C283.793 12.8769 283.876 12.9857 283.91 13.1131C283.943 13.2404 283.926 13.3759 283.86 13.4901L282.57 15.7601C282.524 15.8353 282.459 15.8971 282.382 15.9392C282.305 15.9813 282.218 16.0023 282.13 16.0001Z" fill="#407BFF"/>
<path d="M269.19 11.5002C269.092 11.4984 268.996 11.4682 268.915 11.4132C268.833 11.3582 268.769 11.2808 268.73 11.1902L267.37 7.82022C267.321 7.6969 267.323 7.55912 267.376 7.43723C267.428 7.31533 267.527 7.21928 267.65 7.17021C267.774 7.12115 267.912 7.12309 268.033 7.1756C268.155 7.22811 268.251 7.32689 268.3 7.45021L269.66 10.8102C269.685 10.8713 269.697 10.9365 269.696 11.0023C269.695 11.068 269.681 11.1329 269.655 11.1933C269.629 11.2537 269.592 11.3083 269.544 11.3541C269.497 11.3999 269.442 11.436 269.38 11.4602C269.321 11.4886 269.256 11.5023 269.19 11.5002Z" fill="#407BFF"/>
<path d="M278.57 8.25989C278.507 8.26949 278.443 8.26949 278.38 8.25989C278.318 8.23474 278.263 8.19762 278.216 8.15068C278.169 8.10374 278.132 8.04791 278.107 7.98648C278.081 7.92504 278.069 7.85922 278.069 7.79284C278.07 7.72647 278.084 7.66089 278.11 7.5999L279.11 5.26989C279.135 5.20971 279.172 5.15512 279.218 5.10934C279.265 5.06357 279.32 5.02752 279.38 5.00331C279.441 4.97909 279.506 4.9672 279.571 4.96834C279.636 4.96947 279.7 4.98359 279.76 5.00989C279.821 5.03399 279.877 5.07012 279.923 5.11613C279.97 5.16214 280.007 5.21709 280.033 5.27772C280.058 5.33835 280.07 5.40342 280.07 5.46907C280.07 5.53472 280.056 5.59962 280.03 5.65989L279 7.99989C278.958 8.07801 278.896 8.14343 278.821 8.18921C278.745 8.23498 278.658 8.2594 278.57 8.25989Z" fill="#407BFF"/>
<path d="M274.3 34.52C274.22 34.5188 274.141 34.4993 274.07 34.4628C273.999 34.4264 273.937 34.3741 273.89 34.31C273.852 34.2556 273.825 34.1943 273.811 34.1295C273.797 34.0648 273.796 33.9979 273.808 33.9328C273.82 33.8677 273.845 33.8056 273.882 33.7502C273.918 33.6947 273.965 33.6471 274.02 33.61L276.15 32.12C276.203 32.0784 276.265 32.0482 276.33 32.0311C276.396 32.0141 276.465 32.0106 276.532 32.0209C276.599 32.0312 276.663 32.055 276.721 32.0909C276.778 32.1268 276.828 32.174 276.866 32.2297C276.905 32.2855 276.932 32.3485 276.946 32.4149C276.959 32.4814 276.959 32.55 276.946 32.6164C276.932 32.6828 276.905 32.7458 276.866 32.8014C276.827 32.857 276.777 32.9042 276.72 32.94L274.59 34.43C274.504 34.4881 274.403 34.5195 274.3 34.52Z" fill="#407BFF"/>
<path d="M269.45 24.3699C269.35 24.37 269.252 24.3393 269.17 24.2821C269.088 24.2249 269.025 24.1438 268.99 24.0499L268.34 22.4399C268.29 22.3166 268.29 22.1783 268.342 22.0554C268.393 21.9326 268.492 21.8353 268.615 21.7849C268.738 21.7345 268.877 21.7352 269 21.7867C269.122 21.8383 269.22 21.9365 269.27 22.0599L269.92 23.6799C269.967 23.8034 269.963 23.9401 269.911 24.0614C269.859 24.1826 269.762 24.2788 269.64 24.3299C269.581 24.3575 269.516 24.3712 269.45 24.3699Z" fill="#407BFF"/>
<path d="M279.06 47.9002C278.967 47.9037 278.875 47.8801 278.795 47.8322C278.715 47.7842 278.651 47.714 278.61 47.6302C278.58 47.572 278.561 47.5082 278.555 47.4426C278.55 47.377 278.558 47.311 278.578 47.2485C278.599 47.186 278.632 47.1282 278.675 47.0787C278.718 47.0291 278.771 46.9889 278.83 46.9602L280.48 46.1202C280.539 46.0895 280.602 46.0708 280.668 46.0652C280.734 46.0597 280.8 46.0674 280.862 46.088C280.925 46.1085 280.982 46.1414 281.032 46.1848C281.081 46.2281 281.122 46.281 281.15 46.3402C281.21 46.4583 281.22 46.5951 281.179 46.7206C281.137 46.8462 281.048 46.9503 280.93 47.0102L279.28 47.8502C279.213 47.8857 279.137 47.9029 279.06 47.9002Z" fill="#407BFF"/>
<path d="M262.79 57.9302C262.658 57.9461 262.524 57.9087 262.419 57.8262C262.314 57.7437 262.246 57.6228 262.23 57.4902C262.214 57.3576 262.252 57.2241 262.334 57.1191C262.417 57.0141 262.538 56.9461 262.67 56.9302L264.41 56.4802C264.476 56.4638 264.544 56.4605 264.611 56.4705C264.678 56.4804 264.742 56.5035 264.8 56.5383C264.858 56.5731 264.909 56.619 264.949 56.6734C264.99 56.7278 265.019 56.7896 265.035 56.8552C265.052 56.9209 265.055 56.9891 265.045 57.0561C265.035 57.123 265.012 57.1874 264.977 57.2454C264.942 57.3035 264.896 57.354 264.842 57.3943C264.788 57.4346 264.726 57.4638 264.66 57.4802L262.92 57.9302H262.79Z" fill="#407BFF"/>
<path d="M263.05 50.3602C262.918 50.3682 262.787 50.3232 262.688 50.235C262.589 50.1469 262.528 50.0229 262.52 49.8903C262.512 49.7577 262.558 49.6273 262.646 49.5279C262.734 49.4285 262.858 49.3682 262.99 49.3602L265.12 49.1003C265.186 49.0924 265.253 49.0975 265.316 49.1154C265.38 49.1332 265.44 49.1634 265.492 49.2043C265.544 49.2451 265.587 49.2958 265.619 49.3535C265.652 49.4111 265.673 49.4746 265.68 49.5403C265.688 49.6059 265.683 49.6725 265.665 49.7362C265.647 49.7998 265.617 49.8594 265.576 49.9114C265.536 49.9634 265.485 50.0068 265.427 50.0392C265.37 50.0716 265.306 50.0924 265.24 50.1003L263.11 50.3602H263.05Z" fill="#407BFF"/>
<path d="M255 71.7498H254.88L252.24 71.1198C252.112 71.0845 252.003 71.0017 251.934 70.8883C251.865 70.7749 251.842 70.6395 251.87 70.5098C251.903 70.3806 251.985 70.2696 252.099 70.2004C252.213 70.1312 252.35 70.1095 252.48 70.1398L255.12 70.7798C255.248 70.8107 255.359 70.8911 255.429 71.0035C255.498 71.1159 255.52 71.2512 255.49 71.3798C255.461 71.4872 255.397 71.5819 255.308 71.6489C255.22 71.7159 255.111 71.7514 255 71.7498Z" fill="#407BFF"/>
<path d="M251.47 63.9401C251.387 63.9413 251.304 63.9213 251.231 63.8819C251.158 63.8426 251.096 63.7851 251.05 63.7151C251.005 63.645 250.979 63.5646 250.974 63.4815C250.968 63.3984 250.984 63.3153 251.02 63.24L252.18 60.65C252.237 60.5313 252.337 60.439 252.46 60.3924C252.583 60.3459 252.719 60.3486 252.84 60.4C252.901 60.4261 252.955 60.464 253.001 60.5113C253.047 60.5587 253.083 60.6146 253.107 60.676C253.131 60.7373 253.143 60.8028 253.142 60.8687C253.141 60.9347 253.126 60.9997 253.1 61.06L251.93 63.65C251.889 63.7376 251.824 63.8116 251.743 63.8631C251.661 63.9145 251.566 63.9413 251.47 63.9401Z" fill="#407BFF"/>
<path d="M285.23 26.2098C285.149 26.21 285.069 26.19 284.997 26.1516C284.926 26.1131 284.865 26.0576 284.82 25.9898C284.782 25.9354 284.756 25.8741 284.742 25.8094C284.728 25.7446 284.727 25.6777 284.739 25.6126C284.751 25.5475 284.776 25.4854 284.812 25.43C284.848 25.3746 284.895 25.3269 284.95 25.2898L286.73 24.0998C286.84 24.0255 286.975 23.998 287.106 24.0233C287.236 24.0487 287.351 24.1247 287.425 24.2348C287.5 24.3449 287.527 24.4799 287.502 24.6102C287.476 24.7406 287.4 24.8555 287.29 24.9298L285.51 26.1198C285.428 26.1777 285.331 26.2092 285.23 26.2098Z" fill="#407BFF"/>
<path d="M270 43.1202C269.87 43.1178 269.745 43.0657 269.653 42.9746C269.56 42.8835 269.505 42.7603 269.5 42.6302L269.44 39.4002C269.437 39.3342 269.448 39.2683 269.471 39.2066C269.495 39.1448 269.53 39.0884 269.576 39.0408C269.622 38.9931 269.677 38.9552 269.738 38.9293C269.798 38.9035 269.864 38.8902 269.93 38.8902C269.996 38.8889 270.061 38.9005 270.122 38.9244C270.183 38.9483 270.239 38.9841 270.286 39.0296C270.334 39.0751 270.372 39.1295 270.398 39.1896C270.424 39.2498 270.439 39.3146 270.44 39.3802L270.5 42.6102C270.501 42.6759 270.49 42.7412 270.466 42.8023C270.442 42.8635 270.406 42.9194 270.361 42.9667C270.315 43.0141 270.261 43.052 270.2 43.0783C270.14 43.1047 270.076 43.1189 270.01 43.1202H270Z" fill="#407BFF"/>
<path d="M217.07 54.0002C216.959 54.0009 216.85 53.9659 216.76 53.9002L215 52.4502C214.897 52.3677 214.831 52.2478 214.816 52.1167C214.801 51.9856 214.838 51.8538 214.92 51.7502C214.96 51.6981 215.01 51.6545 215.067 51.6221C215.125 51.5898 215.188 51.5692 215.253 51.5618C215.318 51.5543 215.384 51.56 215.448 51.5787C215.511 51.5973 215.569 51.6285 215.62 51.6702L217.43 53.0902C217.511 53.1549 217.569 53.2429 217.598 53.3422C217.626 53.4414 217.623 53.5471 217.589 53.6447C217.555 53.7422 217.492 53.8269 217.408 53.887C217.324 53.947 217.223 53.9796 217.12 53.9802L217.07 54.0002Z" fill="#407BFF"/>
<path d="M228 59.4099C227.931 59.411 227.862 59.3973 227.798 59.3697C227.734 59.3421 227.677 59.3013 227.63 59.2499L225.63 56.9899C225.583 56.9434 225.546 56.8881 225.521 56.8272C225.496 56.7662 225.482 56.7009 225.482 56.6349C225.482 56.5689 225.496 56.5035 225.521 56.4426C225.546 56.3817 225.583 56.3264 225.63 56.2799C225.676 56.2333 225.73 56.1963 225.791 56.1711C225.851 56.1458 225.915 56.1328 225.98 56.1328C226.046 56.1328 226.11 56.1458 226.17 56.1711C226.23 56.1963 226.285 56.2333 226.33 56.2799L228.33 58.5399C228.398 58.6102 228.443 58.6991 228.46 58.7953C228.477 58.8914 228.465 58.9905 228.425 59.0797C228.386 59.1689 228.32 59.2442 228.237 59.2959C228.154 59.3476 228.058 59.3734 227.96 59.3699L228 59.4099Z" fill="#407BFF"/>
<path d="M235.44 50.23C235.356 50.2304 235.274 50.2098 235.2 50.17C235.142 50.1386 235.091 50.0961 235.05 50.0448C235.008 49.9936 234.977 49.9347 234.959 49.8715C234.94 49.8084 234.934 49.7421 234.941 49.6767C234.948 49.6112 234.968 49.5477 235 49.49L236.29 47.16C236.355 47.0433 236.464 46.9572 236.592 46.9206C236.721 46.884 236.858 46.9 236.975 46.965C237.092 47.03 237.178 47.1386 237.214 47.2671C237.251 47.3956 237.235 47.5333 237.17 47.65L235.88 50C235.832 50.072 235.766 50.1307 235.689 50.1709C235.612 50.2111 235.527 50.2314 235.44 50.23Z" fill="#407BFF"/>
<path d="M218.3 75.39C218.223 75.3892 218.147 75.3708 218.077 75.3361C218.008 75.3015 217.947 75.2515 217.9 75.19L215.77 72.41C215.725 72.3586 215.691 72.2986 215.67 72.2336C215.65 72.1686 215.642 72.1001 215.649 72.0321C215.655 71.9642 215.676 71.8983 215.709 71.8386C215.742 71.7789 215.787 71.7265 215.841 71.6848C215.895 71.6431 215.957 71.6129 216.023 71.596C216.089 71.5792 216.158 71.5761 216.225 71.5869C216.293 71.5976 216.357 71.6221 216.415 71.6588C216.473 71.6954 216.522 71.7435 216.56 71.8L218.7 74.58C218.742 74.6313 218.772 74.6905 218.79 74.754C218.808 74.8174 218.813 74.8837 218.804 74.9491C218.796 75.0144 218.774 75.0774 218.741 75.1343C218.708 75.1911 218.663 75.2407 218.61 75.28C218.522 75.3499 218.413 75.3886 218.3 75.39Z" fill="#407BFF"/>
<path d="M223 71.4399C222.887 71.4385 222.778 71.3998 222.69 71.3299C222.585 71.2489 222.517 71.1297 222.5 70.9985C222.483 70.8673 222.519 70.7348 222.6 70.6299L223.7 69.2099C223.782 69.1069 223.902 69.0407 224.033 69.0257C224.164 69.0107 224.296 69.0482 224.4 69.1299C224.453 69.1692 224.497 69.2188 224.53 69.2756C224.564 69.3325 224.585 69.3955 224.594 69.4608C224.602 69.5262 224.597 69.5925 224.579 69.6559C224.561 69.7194 224.531 69.7785 224.49 69.8299L223.39 71.2399C223.345 71.3013 223.286 71.3513 223.218 71.386C223.151 71.4207 223.076 71.4392 223 71.4399Z" fill="#407BFF"/>
<path d="M242.62 71.44C242.539 71.4377 242.46 71.4166 242.389 71.3784C242.318 71.3402 242.257 71.286 242.21 71.22C242.137 71.111 242.109 70.9774 242.134 70.8483C242.158 70.7192 242.232 70.6048 242.34 70.53L244.01 69.37C244.12 69.2951 244.254 69.2657 244.384 69.2881C244.515 69.3105 244.632 69.3829 244.71 69.49C244.748 69.5443 244.775 69.6057 244.789 69.6704C244.803 69.7352 244.804 69.802 244.792 69.8672C244.779 69.9323 244.755 69.9944 244.718 70.0498C244.682 70.1052 244.635 70.1529 244.58 70.19L242.91 71.35C242.825 71.4082 242.724 71.4395 242.62 71.44Z" fill="#407BFF"/>
<path d="M243.46 88.6401C243.378 88.6394 243.297 88.619 243.223 88.5808C243.15 88.5425 243.088 88.4874 243.04 88.4201C243.003 88.3653 242.978 88.3037 242.966 88.239C242.953 88.1742 242.954 88.1076 242.968 88.0432C242.982 87.9788 243.009 87.9178 243.047 87.864C243.085 87.8102 243.134 87.7647 243.19 87.7301L246.03 85.8501C246.14 85.7777 246.275 85.7518 246.404 85.7781C246.533 85.8043 246.647 85.8805 246.72 85.9901C246.793 86.1019 246.819 86.2378 246.793 86.3687C246.767 86.4996 246.69 86.6149 246.58 86.6901L243.74 88.5601C243.657 88.6151 243.559 88.6431 243.46 88.6401Z" fill="#407BFF"/>
<path d="M217.78 88.26C217.689 88.2593 217.6 88.2337 217.522 88.1862C217.445 88.1386 217.382 88.0707 217.34 87.99L216.44 86.24C216.4 86.1816 216.373 86.1156 216.36 86.046C216.348 85.9765 216.35 85.9051 216.367 85.8365C216.385 85.768 216.416 85.7038 216.46 85.6483C216.503 85.5928 216.558 85.5472 216.621 85.5144C216.684 85.4817 216.752 85.4626 216.823 85.4584C216.893 85.4542 216.964 85.465 217.03 85.4901C217.096 85.5152 217.156 85.554 217.206 85.604C217.256 85.6539 217.295 85.7139 217.32 85.78L218.23 87.53C218.261 87.5882 218.279 87.6519 218.285 87.7175C218.29 87.7831 218.283 87.8491 218.262 87.9117C218.242 87.9742 218.209 88.032 218.165 88.0815C218.122 88.131 218.069 88.1713 218.01 88.2C217.94 88.2398 217.861 88.2605 217.78 88.26Z" fill="#407BFF"/>
<path d="M226.64 90.2C226.572 90.2003 226.505 90.1862 226.443 90.1586C226.381 90.131 226.325 90.0906 226.28 90.04L224.28 87.97C224.233 87.9243 224.196 87.8699 224.171 87.8098C224.146 87.7497 224.133 87.6852 224.133 87.62C224.133 87.5548 224.146 87.4902 224.171 87.4301C224.196 87.37 224.233 87.3156 224.28 87.27C224.326 87.2231 224.382 87.1859 224.443 87.1605C224.504 87.1351 224.569 87.1221 224.635 87.1221C224.701 87.1221 224.766 87.1351 224.827 87.1605C224.888 87.1859 224.943 87.2231 224.99 87.27L226.99 89.34C227.037 89.3864 227.074 89.4418 227.099 89.5027C227.125 89.5636 227.138 89.629 227.138 89.695C227.138 89.761 227.125 89.8263 227.099 89.8873C227.074 89.9482 227.037 90.0035 226.99 90.05C226.896 90.1424 226.771 90.196 226.64 90.2Z" fill="#407BFF"/>
<path d="M234 84.63C233.924 84.6337 233.848 84.6164 233.78 84.58C233.721 84.5533 233.667 84.5147 233.623 84.4664C233.578 84.4182 233.544 84.3615 233.523 84.2997C233.501 84.2378 233.493 84.1723 233.497 84.107C233.502 84.0417 233.52 83.9781 233.55 83.92L234.9 81.13C234.96 81.0123 235.064 80.9226 235.189 80.8797C235.314 80.8368 235.451 80.8441 235.57 80.9C235.688 80.9601 235.778 81.0635 235.821 81.1885C235.864 81.3135 235.856 81.4503 235.8 81.57L234.44 84.35C234.402 84.4341 234.34 84.5053 234.262 84.5549C234.184 84.6046 234.093 84.6307 234 84.63Z" fill="#407BFF"/>
<path d="M206.141 69.6301H206C205.936 69.616 205.875 69.5892 205.822 69.5511C205.768 69.5131 205.723 69.4646 205.688 69.4086C205.654 69.3526 205.631 69.2902 205.621 69.2252C205.611 69.1602 205.614 69.0938 205.63 69.0301L206.4 65.7301C206.416 65.6644 206.443 65.6024 206.483 65.5475C206.522 65.4926 206.571 65.446 206.628 65.4102C206.685 65.3745 206.749 65.3503 206.815 65.3391C206.882 65.328 206.95 65.33 207.016 65.3451C207.081 65.3602 207.143 65.3881 207.198 65.4271C207.253 65.4662 207.3 65.5157 207.335 65.5728C207.371 65.6299 207.395 65.6936 207.406 65.76C207.418 65.8264 207.416 65.8944 207.4 65.9601L206.62 69.2601C206.594 69.3667 206.532 69.4611 206.445 69.5282C206.357 69.5953 206.25 69.6312 206.141 69.6301Z" fill="#407BFF"/>
<path d="M192.69 74.0001C192.597 73.998 192.507 73.9703 192.43 73.9201L189.43 72.0101C189.366 71.9796 189.31 71.936 189.264 71.8822C189.218 71.8283 189.185 71.7654 189.165 71.6976C189.146 71.6298 189.141 71.5586 189.15 71.4888C189.16 71.4189 189.185 71.352 189.223 71.2923C189.26 71.2326 189.31 71.1816 189.369 71.1425C189.428 71.1035 189.494 71.0774 189.564 71.0658C189.633 71.0543 189.705 71.0576 189.773 71.0756C189.841 71.0935 189.905 71.1258 189.96 71.1701L192.96 73.0701C193.07 73.142 193.149 73.2541 193.179 73.3828C193.209 73.5115 193.188 73.6467 193.12 73.7601C193.073 73.8325 193.01 73.8923 192.935 73.9342C192.86 73.9761 192.776 73.9987 192.69 74.0001Z" fill="#407BFF"/>
<path d="M193.86 93.1703C193.764 93.1718 193.67 93.1439 193.59 93.0902L190.91 91.4102C190.853 91.3765 190.804 91.3316 190.764 91.2781C190.725 91.2247 190.698 91.1639 190.683 91.0994C190.668 91.0349 190.666 90.9681 190.677 90.9029C190.689 90.8378 190.714 90.7756 190.75 90.7202C190.822 90.609 190.935 90.5307 191.064 90.5026C191.193 90.4745 191.329 90.4988 191.44 90.5703L194.12 92.2502C194.21 92.3083 194.279 92.3936 194.317 92.4937C194.354 92.5938 194.359 92.7034 194.33 92.8063C194.301 92.9093 194.24 93.0002 194.155 93.0657C194.07 93.1312 193.967 93.1679 193.86 93.1703Z" fill="#407BFF"/>
<path d="M201.36 91.8799C201.228 91.8697 201.106 91.8087 201.018 91.7098C200.93 91.6109 200.885 91.4819 200.89 91.3499L201.02 89.0899C201.027 88.9573 201.086 88.8327 201.184 88.7437C201.283 88.6546 201.412 88.6083 201.545 88.6149C201.678 88.6215 201.802 88.6805 201.891 88.779C201.98 88.8775 202.027 89.0073 202.02 89.1399L201.89 91.4099C201.88 91.5416 201.819 91.6643 201.72 91.7519C201.621 91.8396 201.492 91.8855 201.36 91.8799Z" fill="#407BFF"/>
<path d="M210.8 100.28C210.667 100.28 210.54 100.227 210.446 100.134C210.352 100.04 210.3 99.9126 210.3 99.78V97.52C210.3 97.3874 210.352 97.2602 210.446 97.1665C210.54 97.0727 210.667 97.02 210.8 97.02C210.932 97.02 211.06 97.0727 211.153 97.1665C211.247 97.2602 211.3 97.3874 211.3 97.52V99.78C211.3 99.9126 211.247 100.04 211.153 100.134C211.06 100.227 210.932 100.28 210.8 100.28Z" fill="#407BFF"/>
<path d="M207.37 110.5H207.28L204.56 109.99C204.495 109.977 204.432 109.952 204.376 109.915C204.32 109.879 204.272 109.832 204.235 109.776C204.197 109.721 204.171 109.659 204.157 109.593C204.144 109.528 204.143 109.461 204.155 109.395C204.168 109.329 204.193 109.267 204.23 109.211C204.266 109.155 204.314 109.107 204.369 109.069C204.424 109.032 204.486 109.005 204.552 108.992C204.617 108.978 204.685 108.977 204.75 108.99L207.47 109.51C207.535 109.521 207.597 109.544 207.652 109.58C207.707 109.615 207.754 109.661 207.791 109.716C207.827 109.77 207.852 109.831 207.864 109.896C207.876 109.96 207.875 110.026 207.86 110.09C207.841 110.206 207.781 110.311 207.691 110.386C207.602 110.461 207.488 110.501 207.37 110.5Z" fill="#407BFF"/>
<path d="M205.63 81.2701H205.54C205.41 81.248 205.295 81.1759 205.218 81.0692C205.141 80.9625 205.11 80.83 205.13 80.7001L205.52 78.5001C205.531 78.435 205.555 78.3726 205.59 78.3167C205.625 78.2608 205.671 78.2123 205.725 78.1742C205.778 78.1361 205.839 78.109 205.904 78.0946C205.968 78.0802 206.035 78.0787 206.1 78.0901C206.23 78.1145 206.346 78.1888 206.423 78.297C206.499 78.4053 206.53 78.5391 206.51 78.6701L206.12 80.8701C206.099 80.9839 206.038 81.0866 205.948 81.1598C205.858 81.233 205.746 81.2721 205.63 81.2701Z" fill="#407BFF"/>
<path d="M237.25 104.1C237.159 104.092 237.072 104.057 237 104C236.946 103.964 236.899 103.917 236.863 103.862C236.827 103.808 236.802 103.747 236.79 103.682C236.778 103.618 236.778 103.552 236.792 103.488C236.806 103.424 236.833 103.363 236.87 103.31L238.55 100.85C238.583 100.787 238.629 100.732 238.684 100.688C238.74 100.645 238.804 100.613 238.872 100.596C238.941 100.579 239.012 100.576 239.082 100.589C239.151 100.601 239.217 100.628 239.276 100.668C239.334 100.708 239.383 100.76 239.42 100.82C239.457 100.88 239.481 100.948 239.49 101.018C239.499 101.088 239.493 101.159 239.472 101.227C239.451 101.294 239.417 101.357 239.37 101.41L237.69 103.87C237.643 103.943 237.578 104.003 237.501 104.043C237.424 104.084 237.337 104.103 237.25 104.1Z" fill="#407BFF"/>
<path d="M244.49 114.25C244.375 114.248 244.263 114.21 244.171 114.14C244.07 114.053 244.007 113.93 243.996 113.797C243.985 113.664 244.026 113.532 244.11 113.43L246.37 110.72C246.411 110.668 246.462 110.626 246.52 110.594C246.577 110.563 246.64 110.543 246.706 110.537C246.771 110.53 246.837 110.537 246.9 110.556C246.962 110.576 247.02 110.607 247.071 110.65C247.122 110.691 247.165 110.743 247.197 110.801C247.228 110.86 247.248 110.924 247.254 110.99C247.261 111.056 247.254 111.123 247.235 111.186C247.215 111.25 247.183 111.309 247.141 111.36L244.881 114.07C244.833 114.126 244.773 114.172 244.705 114.203C244.638 114.234 244.565 114.25 244.49 114.25Z" fill="#407BFF"/>
<path d="M235 121C234.884 121.002 234.771 120.963 234.68 120.89C234.58 120.803 234.517 120.68 234.506 120.547C234.495 120.415 234.536 120.283 234.62 120.18L236.88 117.47C236.967 117.37 237.089 117.307 237.221 117.294C237.353 117.281 237.485 117.319 237.59 117.4C237.691 117.487 237.754 117.61 237.765 117.743C237.776 117.875 237.735 118.007 237.65 118.11L235.39 120.82C235.343 120.877 235.283 120.923 235.216 120.954C235.148 120.985 235.075 121.001 235 121Z" fill="#407BFF"/>
<path d="M221.79 111.34C221.692 111.34 221.597 111.312 221.515 111.259C221.433 111.205 221.369 111.129 221.33 111.04L220.24 108.52C220.205 108.459 220.183 108.392 220.176 108.322C220.168 108.252 220.176 108.181 220.198 108.114C220.22 108.048 220.255 107.986 220.302 107.934C220.35 107.882 220.407 107.841 220.472 107.812C220.536 107.784 220.606 107.77 220.676 107.77C220.746 107.77 220.815 107.786 220.879 107.815C220.943 107.844 221.001 107.886 221.047 107.938C221.094 107.991 221.129 108.053 221.15 108.12L222.25 110.64C222.276 110.7 222.291 110.765 222.292 110.831C222.293 110.897 222.281 110.963 222.257 111.024C222.233 111.085 222.197 111.141 222.151 111.189C222.105 111.236 222.05 111.274 221.99 111.3C221.926 111.327 221.858 111.34 221.79 111.34Z" fill="#407BFF"/>
<path d="M224.57 139.15C224.438 139.148 224.313 139.094 224.22 139L223 137.77C222.909 137.676 222.857 137.551 222.857 137.42C222.857 137.289 222.909 137.163 223 137.07C223.047 137.023 223.102 136.986 223.163 136.96C223.224 136.935 223.289 136.922 223.355 136.922C223.421 136.922 223.487 136.935 223.548 136.96C223.609 136.986 223.664 137.023 223.71 137.07L224.94 138.29C225.033 138.385 225.084 138.512 225.084 138.645C225.084 138.777 225.033 138.905 224.94 139C224.892 139.048 224.834 139.087 224.771 139.112C224.707 139.138 224.639 139.151 224.57 139.15Z" fill="#407BFF"/>
<path d="M237.64 138.05C237.564 138.049 237.489 138.032 237.42 138C237.302 137.944 237.21 137.843 237.165 137.719C237.12 137.596 237.125 137.46 237.18 137.34L238.35 134.88C238.377 134.82 238.416 134.767 238.464 134.722C238.512 134.678 238.568 134.643 238.63 134.621C238.691 134.598 238.757 134.589 238.822 134.592C238.887 134.595 238.951 134.612 239.01 134.64C239.07 134.668 239.124 134.708 239.169 134.756C239.213 134.805 239.248 134.863 239.27 134.925C239.293 134.987 239.302 135.053 239.299 135.12C239.295 135.186 239.279 135.25 239.25 135.31L238.09 137.76C238.049 137.845 237.986 137.918 237.906 137.969C237.827 138.02 237.735 138.048 237.64 138.05Z" fill="#407BFF"/>
<path d="M224 151.43C223.93 151.432 223.861 151.419 223.797 151.391C223.733 151.364 223.676 151.322 223.63 151.27L222.36 149.84C222.317 149.791 222.283 149.734 222.262 149.672C222.241 149.61 222.233 149.544 222.238 149.479C222.242 149.414 222.26 149.35 222.29 149.292C222.319 149.234 222.36 149.182 222.41 149.14C222.455 149.092 222.509 149.054 222.569 149.028C222.63 149.002 222.695 148.988 222.76 148.988C222.826 148.988 222.891 149.002 222.951 149.028C223.011 149.054 223.065 149.092 223.11 149.14L224.37 150.56C224.438 150.63 224.483 150.719 224.5 150.815C224.517 150.911 224.505 151.01 224.465 151.1C224.425 151.189 224.36 151.264 224.277 151.316C224.194 151.368 224.098 151.393 224 151.39V151.43Z" fill="#407BFF"/>
<path d="M241 153.31C240.916 153.31 240.834 153.29 240.76 153.25C240.645 153.185 240.56 153.077 240.523 152.95C240.485 152.824 240.499 152.687 240.56 152.57L242 150C242.064 149.883 242.171 149.797 242.299 149.759C242.426 149.722 242.563 149.736 242.68 149.8C242.797 149.864 242.883 149.971 242.921 150.099C242.958 150.226 242.944 150.363 242.88 150.48L241.46 153.07C241.414 153.149 241.346 153.213 241.264 153.256C241.183 153.298 241.092 153.317 241 153.31Z" fill="#407BFF"/>
<path d="M231.43 164.76C231.353 164.759 231.277 164.741 231.207 164.706C231.138 164.672 231.078 164.622 231.03 164.56L229.74 162.88C229.669 162.775 229.64 162.646 229.661 162.521C229.681 162.395 229.748 162.282 229.849 162.204C229.949 162.126 230.076 162.09 230.203 162.102C230.329 162.114 230.447 162.174 230.53 162.27L231.83 163.95C231.907 164.057 231.94 164.19 231.921 164.32C231.903 164.451 231.834 164.569 231.73 164.65C231.646 164.72 231.54 164.759 231.43 164.76Z" fill="#407BFF"/>
<path d="M244.75 168.76C244.643 168.76 244.539 168.728 244.45 168.67C244.344 168.59 244.274 168.472 244.255 168.341C244.236 168.209 244.27 168.076 244.35 167.97L245.96 165.77C246.04 165.665 246.157 165.594 246.288 165.574C246.418 165.553 246.552 165.584 246.66 165.66C246.713 165.699 246.758 165.747 246.793 165.804C246.827 165.86 246.85 165.922 246.86 165.987C246.871 166.052 246.868 166.119 246.852 166.183C246.837 166.247 246.809 166.307 246.77 166.36L245.15 168.56C245.103 168.622 245.042 168.672 244.973 168.706C244.904 168.741 244.827 168.759 244.75 168.76Z" fill="#407BFF"/>
<path d="M224.12 170.32C223.993 170.319 223.871 170.269 223.78 170.18L221.32 167.92C221.267 167.877 221.223 167.823 221.191 167.762C221.16 167.702 221.141 167.635 221.136 167.567C221.131 167.498 221.141 167.43 221.163 167.365C221.186 167.3 221.222 167.241 221.269 167.191C221.316 167.141 221.372 167.101 221.435 167.073C221.498 167.046 221.566 167.032 221.634 167.032C221.703 167.032 221.771 167.046 221.833 167.073C221.896 167.1 221.953 167.14 222 167.19L224.46 169.45C224.535 169.518 224.587 169.607 224.61 169.706C224.633 169.805 224.626 169.908 224.589 170.002C224.552 170.096 224.488 170.177 224.404 170.234C224.32 170.291 224.221 170.321 224.12 170.32Z" fill="#407BFF"/>
<path d="M232.16 175.69C232.104 175.704 232.046 175.704 231.99 175.69C231.928 175.668 231.872 175.634 231.824 175.589C231.775 175.545 231.737 175.491 231.71 175.431C231.683 175.372 231.668 175.307 231.666 175.242C231.664 175.176 231.676 175.111 231.7 175.05L232.42 173.05C232.468 172.929 232.561 172.831 232.679 172.778C232.798 172.724 232.933 172.719 233.055 172.763C233.178 172.807 233.278 172.898 233.335 173.015C233.392 173.132 233.401 173.267 233.36 173.39L232.63 175.39C232.591 175.482 232.526 175.56 232.442 175.613C232.358 175.667 232.259 175.694 232.16 175.69Z" fill="#407BFF"/>
<path d="M220.67 183.54C220.566 183.536 220.465 183.501 220.38 183.44L218.17 181.83C218.117 181.791 218.072 181.742 218.037 181.686C218.003 181.63 217.98 181.568 217.97 181.503C217.96 181.438 217.962 181.371 217.978 181.307C217.993 181.243 218.021 181.183 218.06 181.13C218.099 181.077 218.148 181.032 218.204 180.997C218.26 180.963 218.322 180.94 218.387 180.93C218.452 180.92 218.519 180.922 218.582 180.938C218.646 180.953 218.707 180.981 218.76 181.02L220.97 182.63C221.075 182.71 221.146 182.827 221.166 182.958C221.187 183.088 221.156 183.222 221.08 183.33C221.032 183.394 220.971 183.446 220.899 183.483C220.828 183.519 220.75 183.539 220.67 183.54Z" fill="#407BFF"/>
<path d="M240.81 178.79C240.726 178.79 240.644 178.77 240.57 178.73C240.454 178.663 240.369 178.553 240.334 178.424C240.298 178.295 240.315 178.157 240.38 178.04L242.04 175.14C242.106 175.025 242.216 174.94 242.344 174.906C242.473 174.871 242.61 174.889 242.725 174.955C242.84 175.021 242.925 175.131 242.959 175.259C242.994 175.388 242.976 175.525 242.91 175.64L241.25 178.54C241.206 178.617 241.141 178.681 241.064 178.725C240.987 178.769 240.899 178.791 240.81 178.79Z" fill="#407BFF"/>
<path d="M160.08 115.491L60.417 115.01L60.0146 198.319L159.678 198.8L160.08 115.491Z" fill="#407BFF"/>
<path opacity="0.3" d="M90.3564 115.145L60.4023 115L60 198.309L89.954 198.454L90.3564 115.145Z" fill="white"/>
<path opacity="0.3" d="M100.745 120.981L80.6514 120.953L80.6435 126.554L100.737 126.582L100.745 120.981Z" fill="white"/>
<path opacity="0.3" d="M99.954 185.753L79.8643 185.656L79.8372 191.256L99.927 191.353L99.954 185.753Z" fill="white"/>
<path d="M112.62 150.075L117.87 150.119L117.827 155.244L112.577 155.2L112.62 150.075Z" fill="white"/>
<path d="M123.164 145.038L123.034 160.413L107.284 160.28L107.414 144.905L123.164 145.038ZM120.517 147.578L110.017 147.49L109.931 157.739L120.43 157.828L120.517 147.578ZM117.654 175.743L112.404 175.698L112.361 180.823L117.611 180.868L117.654 175.743Z" fill="white"/>
<path d="M122.946 170.662L122.816 186.036L107.066 185.904L107.196 170.529L122.946 170.662ZM109.799 173.114L109.713 183.363L120.212 183.452L120.299 173.202L109.799 173.114ZM138.868 150.296L144.118 150.34L144.075 155.465L138.825 155.421L138.868 150.296Z" fill="white"/>
<path d="M133.663 145.127L133.533 160.501L149.283 160.634L149.413 145.26L133.663 145.127ZM146.766 147.8L146.68 158.05L136.18 157.961L136.266 147.711L146.766 147.8ZM128.392 147.645L128.413 145.083L131.038 145.105L130.995 150.23L128.37 150.207L128.327 155.332L125.702 155.31L125.767 147.623L128.392 147.645ZM128.284 160.457L128.327 155.332L130.952 155.354L130.908 160.479L128.284 160.457ZM122.99 165.537L123.012 162.975L125.637 162.997L125.659 160.435L128.284 160.457L128.24 165.582L130.865 165.604L130.887 163.042L144.011 163.152L143.99 165.715L133.49 165.626L133.468 168.189L125.594 168.122L125.615 165.56L122.99 165.537ZM122.99 165.537L122.969 168.1L112.469 168.011L112.491 165.449L109.866 165.427L109.844 167.989L107.219 167.967L107.263 162.842L115.137 162.909L115.116 165.471L122.99 165.537ZM149.218 168.322L146.593 168.299L146.636 163.175L149.261 163.197L149.218 168.322ZM146.593 168.299L143.968 168.277L143.925 173.402L149.175 173.446L149.196 170.884L146.571 170.862L146.593 168.299ZM136.093 168.211L141.343 168.255L141.322 170.817L138.697 170.795L138.675 173.358L136.05 173.336L136.093 168.211ZM141.278 175.942L141.3 173.38L138.675 173.358L138.653 175.92L136.028 175.898L136.007 178.46L130.757 178.416L130.735 180.978L138.61 181.045L138.653 175.92L141.278 175.942ZM141.278 175.942L149.153 176.009L149.131 178.571L143.882 178.527L143.86 181.089L141.235 181.067L141.278 175.942ZM130.8 173.291L130.779 175.854L133.404 175.876L133.447 170.751L125.572 170.684L125.55 173.247L130.8 173.291Z" fill="white"/>
<path d="M125.528 175.809L128.153 175.831L128.088 183.518L138.588 183.607L138.566 186.17L125.442 186.059L125.528 175.809ZM149.109 181.133L149.066 186.258L141.191 186.192L141.213 183.629L146.463 183.674L146.484 181.111L149.109 181.133Z" fill="white"/>
<path d="M107.895 128.581C108.101 124.848 111.205 121.937 114.943 121.968L142.27 122.199C146.265 122.233 149.421 125.597 149.201 129.585C148.994 133.318 145.891 136.23 142.152 136.198L114.825 135.968C110.83 135.934 107.674 132.57 107.895 128.581Z" fill="white"/>
<path d="M115.046 138.84C114.38 139.307 113.465 138.826 113.472 138.013L113.498 134.956L120.497 135.015L115.046 138.84Z" fill="white"/>
</svg>
