<svg width="781" height="716" viewBox="0 0 781 716" fill="none" xmlns="http://www.w3.org/2000/svg">
<path d="M390.5 716C606.167 716 781 690.704 781 659.5C781 628.296 606.167 603 390.5 603C174.833 603 0 628.296 0 659.5C0 690.704 174.833 716 390.5 716Z" fill="#F5F5F5"/>
<path d="M316.38 392.475C313.961 370.505 329.81 350.734 351.78 348.315L603.72 320.574C625.69 318.155 645.461 334.004 647.881 355.974L675.621 607.914C678.041 629.884 662.191 649.655 640.222 652.075L388.281 679.816C366.311 682.235 346.54 666.386 344.121 644.416L316.38 392.475Z" fill="#F9FAFC"/>
<path d="M396.542 478.266L407.581 477.05L388.545 554.638L377.555 555.848L383.818 529.995L360.492 482.235L371.779 480.992L387.429 515.253L396.542 478.266Z" fill="#039768"/>
<path d="M440.77 525.032C436.196 525.536 431.889 524.819 427.851 522.881C423.846 520.94 420.499 518.121 417.81 514.425C415.151 510.691 413.557 506.421 413.028 501.614C412.626 497.968 412.899 494.499 413.845 491.207C414.787 487.882 416.254 484.902 418.246 482.267C420.266 479.596 422.71 477.414 425.577 475.723C428.444 474.031 431.585 472.998 435 472.622C438.812 472.202 442.397 472.613 445.754 473.853C449.108 475.061 452.066 476.933 454.627 479.469C457.184 481.973 459.192 484.973 460.65 488.469C462.105 491.933 462.84 495.71 462.854 499.802L424.516 504.023C425.199 506.263 426.256 508.244 427.687 509.965C429.147 511.65 430.897 512.917 432.937 513.766C435.01 514.611 437.241 514.919 439.632 514.689C442.151 514.412 444.369 513.53 446.286 512.044C448.235 510.554 449.751 508.626 450.832 506.259L461.593 507.54C460.089 512.168 457.487 516.112 453.786 519.371C450.081 522.598 445.743 524.485 440.77 525.032ZM423.298 496.155L451.542 493.045C450.947 490.695 449.865 488.633 448.294 486.86C446.752 485.051 444.909 483.693 442.762 482.789C440.646 481.848 438.394 481.508 436.007 481.771C433.653 482.03 431.528 482.835 429.629 484.185C427.765 485.531 426.277 487.255 425.166 489.357C424.085 491.422 423.462 493.688 423.298 496.155Z" fill="#039768"/>
<path d="M514.747 484.022L518.18 515.2L507.837 516.339L504.683 487.697C504.439 485.476 503.669 483.514 502.374 481.812C501.113 480.105 499.512 478.822 497.572 477.962C495.661 477.065 493.579 476.741 491.325 476.989C489.137 477.23 487.192 477.998 485.489 479.292C483.782 480.554 482.482 482.156 481.589 484.1C480.696 486.044 480.372 488.126 480.616 490.347L483.77 518.989L473.427 520.128L467.952 470.403L478.295 469.264L478.875 474.535C480.373 472.29 482.315 470.432 484.703 468.961C487.091 467.49 489.744 466.594 492.661 466.273C496.341 465.868 499.788 466.394 503.001 467.852C506.215 469.31 508.867 471.45 510.956 474.274C513.078 477.093 514.342 480.343 514.747 484.022Z" fill="#039768"/>
<path d="M557.657 435.361L568 434.223L576.213 508.81L565.87 509.949L565.065 502.639C563.725 505.404 561.834 507.726 559.39 509.606C556.943 511.452 553.962 512.569 550.448 512.956C546.835 513.353 543.379 513.046 540.08 512.034C536.781 511.021 533.79 509.455 531.107 507.335C528.454 505.177 526.275 502.599 524.569 499.6C522.863 496.6 521.811 493.293 521.413 489.68C521.015 486.067 521.322 482.611 522.335 479.312C523.344 475.98 524.91 472.989 527.034 470.339C529.187 467.653 531.764 465.457 534.764 463.751C537.763 462.045 541.07 460.993 544.683 460.595C548.197 460.208 551.351 460.666 554.145 461.969C556.935 463.239 559.283 465.06 561.189 467.434L557.657 435.361ZM549.447 502.95C552.365 502.629 554.839 501.635 556.87 499.968C558.897 498.269 560.372 496.127 561.295 493.542C562.252 490.954 562.566 488.168 562.237 485.185C561.905 482.168 560.991 479.501 559.494 477.183C557.997 474.865 556.077 473.114 553.732 471.929C551.416 470.708 548.8 470.258 545.883 470.579C542.999 470.896 540.444 471.916 538.218 473.637C536.025 475.355 534.35 477.519 533.195 480.129C532.073 482.735 531.676 485.53 532.004 488.514C532.337 491.531 533.351 494.187 535.046 496.483C536.771 498.742 538.891 500.472 541.405 501.671C543.949 502.834 546.63 503.26 549.447 502.95Z" fill="#039768"/>
<path d="M609.467 506.457C604.892 506.961 600.585 506.244 596.547 504.306C592.542 502.365 589.195 499.546 586.507 495.85C583.848 492.116 582.253 487.846 581.724 483.039C581.323 479.393 581.595 475.924 582.541 472.632C583.483 469.307 584.95 466.327 586.942 463.692C588.963 461.021 591.407 458.839 594.274 457.148C597.141 455.456 600.281 454.423 603.696 454.047C608.27 453.543 612.56 454.262 616.565 456.203C620.604 458.141 623.952 460.976 626.611 464.71C629.304 468.439 630.916 472.724 631.449 477.564C631.847 481.177 631.573 484.63 630.627 487.922C629.681 491.213 628.197 494.195 626.176 496.867C624.185 499.502 621.756 501.665 618.889 503.356C616.055 505.044 612.914 506.077 609.467 506.457ZM608.328 496.114C611.079 495.811 613.469 494.81 615.496 493.111C617.523 491.411 619.035 489.299 620.032 486.773C621.059 484.211 621.417 481.521 621.106 478.703C620.789 475.819 619.834 473.24 618.241 470.966C616.682 468.688 614.73 466.957 612.385 465.773C610.037 464.555 607.52 464.094 604.835 464.39C602.116 464.689 599.727 465.69 597.666 467.393C595.639 469.093 594.112 471.224 593.086 473.786C592.093 476.345 591.753 479.05 592.067 481.9C592.392 484.851 593.349 487.446 594.937 489.687C596.526 491.928 598.493 493.641 600.838 494.825C603.212 495.973 605.709 496.403 608.328 496.114Z" fill="#039768"/>
<path d="M298.471 60.4711C291.624 119.435 256.7 159.315 231.191 181.139C230.781 120.154 229.651 75.1006 227.322 57.2163C221.022 8.53104 199.726 0 175.45 0C150.558 0 130.528 24.9422 130.939 55.3319C129.98 99.1863 131.35 203.203 133.507 327.777C119.049 305.895 110.065 280.854 107.314 254.767C100.98 193.096 35.891 204.266 40.2052 268.129C43.6291 320.171 68.5552 393.251 135.185 420.557C136.623 497.919 138.198 579.049 139.602 656H228.623C229.651 521.045 231.294 367.486 231.328 248.565C329.766 234.861 361.882 140.677 371.093 76.6081C381.022 7.81157 306.346 -6.44114 298.471 60.4711Z" fill="#039768"/>
<path opacity="0.2" d="M298.471 60.4711C291.624 119.435 256.7 159.315 231.191 181.139C230.781 120.154 229.651 75.1006 227.322 57.2163C221.022 8.53104 199.726 0 175.45 0C150.558 0 130.528 24.9422 130.939 55.3319C129.98 99.1863 131.35 203.203 133.507 327.777C119.049 305.895 110.065 280.854 107.314 254.767C100.98 193.096 35.891 204.266 40.2052 268.129C43.6291 320.171 68.5552 393.251 135.185 420.557C136.623 497.919 138.198 579.049 139.602 656H228.623C229.651 521.045 231.294 367.486 231.328 248.565C329.766 234.861 361.882 140.677 371.093 76.6081C381.022 7.81157 306.346 -6.44114 298.471 60.4711Z" fill="white"/>
<path d="M209 248C213.739 257.874 226.424 266.466 232 270C232 262.678 232 255.506 232 248.485C224.333 248.958 216.64 248.796 209 248Z" fill="#257D61"/>
<path d="M135 421C135.21 431.255 135.42 441.588 135.63 452C139.868 448.028 156.642 432.747 162 421.707C153.069 423.531 143.815 423.289 135 421Z" fill="#257D61"/>
<path d="M142.311 57C141.931 56.9949 141.564 56.8574 141.266 56.6089L133.621 50.1728C133.28 49.868 133.061 49.4366 133.011 48.9671C132.961 48.4976 133.083 48.0256 133.352 47.6481C133.641 47.2848 134.053 47.0553 134.499 47.0088C134.946 46.9622 135.393 47.1024 135.743 47.3992L143.355 53.8353C143.53 53.9777 143.677 54.1558 143.786 54.3593C143.895 54.5627 143.964 54.7873 143.989 55.0195C144.014 55.2518 143.995 55.487 143.932 55.7112C143.87 55.9353 143.765 56.1439 143.624 56.3244C143.464 56.5302 143.264 56.6971 143.037 56.8137C142.811 56.9303 142.563 56.9939 142.311 57Z" fill="#257D61"/>
<path d="M204.592 16.9998C204.322 16.997 204.057 16.9238 203.818 16.7862C203.447 16.5543 203.174 16.1691 203.059 15.7152C202.945 15.2613 202.997 14.7756 203.206 14.3646L206.944 6.99307C207.041 6.77599 207.177 6.58302 207.343 6.42594C207.51 6.26886 207.704 6.15098 207.913 6.07948C208.122 6.00798 208.342 5.98435 208.56 6.01009C208.778 6.03583 208.989 6.1104 209.179 6.22918C209.37 6.34796 209.537 6.50848 209.67 6.70095C209.803 6.89342 209.899 7.1138 209.952 7.34861C210.005 7.58342 210.014 7.82769 209.979 8.06658C209.944 8.30548 209.865 8.53398 209.747 8.73804L206.009 16.1095C205.866 16.3839 205.659 16.6111 205.41 16.7676C205.161 16.9241 204.878 17.0042 204.592 16.9998Z" fill="#257D61"/>
<path d="M171.381 48.9831C171.086 49.0258 170.786 48.9872 170.51 48.8711C170.233 48.755 169.99 48.5655 169.805 48.321L166.301 42.8399C166.171 42.6407 166.08 42.4161 166.034 42.1793C165.989 41.9425 165.989 41.6985 166.034 41.4617C166.08 41.2249 166.171 41.0002 166.301 40.801C166.431 40.6017 166.598 40.4319 166.792 40.3017C167.178 40.0355 167.649 39.9403 168.101 40.0367C168.554 40.1332 168.952 40.4135 169.209 40.8167L172.713 46.2978C172.966 46.7033 173.057 47.1976 172.965 47.6729C172.873 48.1483 172.606 48.5663 172.222 48.836C171.959 48.9601 171.669 49.0107 171.381 48.9831Z" fill="#257D61"/>
<path d="M150.358 13C149.956 13.0012 149.569 12.8568 149.276 12.5965L144.422 8.5918C144.154 8.31056 144.004 7.94626 144 7.56754C143.996 7.18882 144.139 6.82182 144.401 6.53561C144.663 6.2494 145.026 6.06376 145.423 6.01365C145.819 5.96354 146.222 6.05239 146.554 6.26352L151.441 10.2682C151.766 10.5429 151.965 10.927 151.996 11.3387C152.026 11.7504 151.886 12.1571 151.605 12.4723C151.446 12.6367 151.254 12.7685 151.04 12.8594C150.825 12.9502 150.593 12.998 150.358 13Z" fill="#257D61"/>
<path d="M215.72 81.9999C215.317 81.9929 214.927 81.8448 214.619 81.5807C214.444 81.4358 214.3 81.2569 214.195 81.0545C214.09 80.8522 214.025 80.6305 214.006 80.4025C213.987 80.1746 214.013 79.9451 214.083 79.7275C214.152 79.5099 214.264 79.3087 214.412 79.1358L219.095 73.4776C219.402 73.1828 219.806 73.0131 220.229 73.0007C220.651 72.9884 221.064 73.1342 221.387 73.4105C221.711 73.6868 221.923 74.0742 221.983 74.4989C222.043 74.9235 221.946 75.3557 221.712 75.7129L217.063 81.3712C216.9 81.5706 216.694 81.7305 216.462 81.8393C216.23 81.948 215.976 82.0029 215.72 81.9999Z" fill="#257D61"/>
<path d="M173.329 122C172.977 122.002 172.633 121.908 172.344 121.729L167.724 118.718C167.54 118.604 167.384 118.459 167.264 118.291C167.144 118.123 167.062 117.935 167.024 117.739C166.987 117.543 166.993 117.343 167.043 117.149C167.093 116.955 167.186 116.772 167.316 116.61C167.587 116.292 167.986 116.08 168.43 116.019C168.873 115.957 169.327 116.05 169.694 116.279L174.315 119.29C174.671 119.524 174.909 119.873 174.979 120.261C175.049 120.65 174.944 121.047 174.688 121.368C174.538 121.564 174.335 121.724 174.098 121.834C173.861 121.945 173.597 122.002 173.329 122Z" fill="#257D61"/>
<path d="M166.319 89C165.952 89.0023 165.595 88.8899 165.304 88.6804L158.742 83.9198C158.551 83.7974 158.388 83.6393 158.264 83.4554C158.14 83.2714 158.058 83.0653 158.021 82.85C157.985 82.6347 157.995 82.4145 158.052 82.2032C158.109 81.9919 158.211 81.7938 158.353 81.6212C158.494 81.4486 158.671 81.305 158.873 81.1995C159.075 81.094 159.297 81.0286 159.527 81.0075C159.757 80.9864 159.989 81.0099 160.209 81.0767C160.429 81.1434 160.632 81.252 160.805 81.3956L167.367 86.1563C167.64 86.3629 167.838 86.6441 167.934 86.9613C168.031 87.2785 168.021 87.6162 167.906 87.9279C167.791 88.2396 167.577 88.5101 167.292 88.702C167.008 88.894 166.668 88.9981 166.319 89Z" fill="#257D61"/>
<path d="M134.352 146C134.107 146.004 133.864 145.955 133.639 145.858C133.414 145.761 133.213 145.617 133.048 145.436L125.504 136.986C125.181 136.656 125 136.214 125 135.753C125 135.292 125.181 134.85 125.504 134.521C125.668 134.356 125.863 134.225 126.077 134.135C126.292 134.046 126.523 134 126.755 134C126.988 134 127.218 134.046 127.433 134.135C127.648 134.225 127.843 134.356 128.007 134.521L135.515 142.936C135.755 143.184 135.914 143.497 135.974 143.836C136.034 144.174 135.99 144.523 135.85 144.837C135.71 145.151 135.479 145.416 135.187 145.598C134.895 145.78 134.555 145.871 134.211 145.859L134.352 146Z" fill="#257D61"/>
<path d="M226.725 142C226.319 142.005 225.926 141.852 225.624 141.569C225.275 141.268 225.054 140.835 225.009 140.364C224.963 139.893 225.098 139.423 225.383 139.056L232.953 129.648C233.097 129.467 233.275 129.317 233.475 129.207C233.675 129.097 233.894 129.029 234.119 129.008C234.345 128.986 234.572 129.011 234.788 129.081C235.004 129.151 235.205 129.264 235.379 129.415C235.553 129.566 235.696 129.751 235.802 129.96C235.907 130.169 235.972 130.397 235.993 130.632C236.013 130.868 235.99 131.105 235.923 131.33C235.856 131.555 235.747 131.765 235.602 131.946L228.033 141.354C227.874 141.556 227.675 141.719 227.449 141.83C227.223 141.942 226.975 142 226.725 142Z" fill="#257D61"/>
<path d="M208.73 51.9991C208.334 52.0123 207.947 51.8753 207.648 51.6157C207.468 51.4736 207.319 51.2969 207.209 51.0962C207.1 50.8954 207.031 50.6747 207.008 50.4471C206.986 50.2196 207.009 49.9897 207.077 49.7713C207.145 49.5528 207.256 49.3502 207.403 49.1754L211.906 43.6325C212.199 43.2785 212.62 43.0543 213.078 43.0087C213.535 42.963 213.992 43.0994 214.35 43.3884C214.53 43.5337 214.68 43.7134 214.79 43.9171C214.9 44.1208 214.969 44.3444 214.992 44.5748C215.014 44.8052 214.991 45.0379 214.923 45.2591C214.854 45.4804 214.743 45.6859 214.594 45.8636L210.091 51.3717C209.925 51.5707 209.717 51.7303 209.481 51.8388C209.246 51.9474 208.989 52.0021 208.73 51.9991Z" fill="#257D61"/>
<path d="M249 168C248.47 168 247.961 167.835 247.586 167.542C247.211 167.249 247 166.852 247 166.438V159.562C247 159.148 247.211 158.751 247.586 158.458C247.961 158.165 248.47 158 249 158C249.527 158.008 250.03 158.175 250.403 158.467C250.776 158.758 250.99 159.151 251 159.562V166.438C251 166.852 250.789 167.249 250.414 167.542C250.039 167.835 249.53 168 249 168Z" fill="#257D61"/>
<path d="M281.3 133C281.054 132.995 280.812 132.939 280.589 132.837C280.365 132.734 280.165 132.586 280.001 132.402L272.519 123.999C272.355 123.836 272.224 123.641 272.135 123.427C272.046 123.213 272 122.983 272 122.751C272 122.519 272.046 122.289 272.135 122.075C272.224 121.86 272.355 121.666 272.519 121.503C272.848 121.18 273.289 121 273.749 121C274.209 121 274.65 121.18 274.978 121.503L282.495 129.906C282.819 130.24 283 130.688 283 131.154C283 131.62 282.819 132.068 282.495 132.402C282.191 132.751 281.762 132.966 281.3 133Z" fill="#257D61"/>
<path d="M355.753 51.9994C355.445 52.0053 355.143 51.923 354.883 51.7628C354.483 51.5427 354.188 51.1771 354.064 50.7463C353.94 50.3154 353.997 49.8543 354.222 49.4642L358.778 41.8585C359.005 41.4691 359.381 41.1827 359.824 41.0624C360.267 40.942 360.742 40.9973 361.143 41.2163C361.538 41.442 361.825 41.8101 361.942 42.2405C362.059 42.6709 361.997 43.1289 361.769 43.5149L357.283 51.1882C357.124 51.4423 356.898 51.6512 356.63 51.7936C356.361 51.9361 356.059 52.0071 355.753 51.9994Z" fill="#257D61"/>
<path d="M311.287 35.9993C310.953 35.9932 310.629 35.8894 310.352 35.7004C310.076 35.5114 309.859 35.2453 309.728 34.9342L305.12 23.3552C304.954 22.9314 304.96 22.4581 305.138 22.0392C305.316 21.6204 305.651 21.2904 306.069 21.1218C306.487 20.9532 306.954 20.9599 307.367 21.1403C307.78 21.3207 308.105 21.6601 308.271 22.0838L312.879 33.6285C312.962 33.8383 313.003 34.0625 313 34.2884C312.997 34.5142 312.95 34.7373 312.862 34.9447C312.774 35.1522 312.646 35.3399 312.486 35.4973C312.327 35.6547 312.138 35.7786 311.931 35.8619C311.73 35.9593 311.509 36.0064 311.287 35.9993Z" fill="#257D61"/>
<path d="M343.751 24.976C343.531 25.008 343.307 25.008 343.087 24.976C342.872 24.8921 342.676 24.7684 342.512 24.6118C342.348 24.4553 342.218 24.2692 342.13 24.0643C342.042 23.8594 341.998 23.6399 342 23.4186C342.002 23.1973 342.05 22.9786 342.142 22.7752L345.641 15.0058C345.728 14.8051 345.857 14.6231 346.02 14.4704C346.182 14.3178 346.375 14.1976 346.587 14.1169C346.798 14.0361 347.025 13.9965 347.253 14.0002C347.481 14.004 347.706 14.0511 347.915 14.1388C348.129 14.2192 348.323 14.3397 348.487 14.4931C348.651 14.6465 348.781 14.8297 348.869 15.0319C348.957 15.2341 349.002 15.451 349 15.6699C348.998 15.8889 348.951 16.1053 348.86 16.3063L345.256 24.109C345.111 24.3695 344.894 24.5877 344.629 24.7403C344.364 24.8929 344.061 24.9744 343.751 24.976Z" fill="#257D61"/>
<path d="M328.742 115C328.463 114.996 328.19 114.934 327.942 114.818C327.694 114.701 327.479 114.534 327.313 114.329C327.181 114.156 327.088 113.96 327.039 113.753C326.991 113.546 326.987 113.333 327.029 113.125C327.071 112.917 327.158 112.718 327.285 112.541C327.411 112.364 327.575 112.212 327.766 112.094L335.19 107.335C335.377 107.202 335.591 107.106 335.82 107.051C336.049 106.997 336.287 106.986 336.521 107.018C336.755 107.051 336.979 107.127 337.18 107.242C337.38 107.357 337.553 107.508 337.688 107.685C337.823 107.863 337.917 108.065 337.965 108.277C338.012 108.489 338.012 108.708 337.964 108.92C337.916 109.133 337.821 109.334 337.686 109.511C337.551 109.689 337.377 109.839 337.176 109.954L329.753 114.713C329.454 114.898 329.103 114.998 328.742 115Z" fill="#257D61"/>
<path d="M312.172 79.9997C311.808 80 311.452 79.8949 311.153 79.6985C310.854 79.5022 310.626 79.224 310.499 78.9015L308.136 73.376C307.952 72.9528 307.955 72.4781 308.142 72.0566C308.33 71.635 308.687 71.301 309.136 71.1281C309.584 70.9551 310.087 70.9574 310.534 71.1344C310.98 71.3114 311.334 71.6486 311.517 72.0718L313.881 77.6316C314.05 78.0555 314.039 78.5249 313.849 78.9409C313.659 79.3569 313.305 79.6872 312.863 79.8624C312.647 79.9573 312.41 80.0043 312.172 79.9997Z" fill="#257D61"/>
<path d="M344.721 160.999C344.405 161.01 344.092 160.933 343.82 160.777C343.549 160.62 343.331 160.391 343.193 160.117C343.088 159.927 343.025 159.719 343.006 159.504C342.987 159.29 343.013 159.075 343.083 158.87C343.153 158.666 343.265 158.477 343.412 158.316C343.559 158.154 343.739 158.022 343.94 157.929L349.544 155.185C349.742 155.085 349.958 155.024 350.181 155.006C350.404 154.988 350.628 155.013 350.84 155.08C351.053 155.147 351.249 155.255 351.417 155.396C351.585 155.538 351.722 155.71 351.819 155.904C352.021 156.289 352.055 156.736 351.915 157.146C351.775 157.556 351.472 157.896 351.072 158.092L345.468 160.836C345.238 160.952 344.981 161.008 344.721 160.999Z" fill="#257D61"/>
<path d="M288.996 194.988C288.526 195.042 288.053 194.915 287.682 194.634C287.31 194.353 287.069 193.941 287.013 193.49C286.956 193.039 287.089 192.584 287.381 192.227C287.673 191.869 288.101 191.638 288.571 191.584L294.732 190.052C294.965 189.997 295.207 189.985 295.444 190.019C295.681 190.053 295.908 190.131 296.114 190.25C296.319 190.369 296.499 190.525 296.641 190.71C296.784 190.895 296.887 191.105 296.946 191.329C297.004 191.552 297.015 191.785 296.98 192.012C296.945 192.24 296.863 192.459 296.74 192.657C296.617 192.854 296.454 193.027 296.261 193.164C296.069 193.301 295.85 193.4 295.618 193.456L289.456 194.988H288.996Z" fill="#257D61"/>
<path d="M289.845 168.997C289.384 169.022 288.931 168.88 288.586 168.601C288.24 168.322 288.031 167.93 288.003 167.51C287.975 167.091 288.132 166.679 288.438 166.364C288.745 166.05 289.176 165.859 289.637 165.834L297.041 165.011C297.269 164.986 297.501 165.003 297.722 165.059C297.943 165.116 298.15 165.211 298.331 165.34C298.512 165.47 298.663 165.63 298.775 165.812C298.888 165.995 298.96 166.196 298.988 166.403C299.015 166.611 298.997 166.821 298.935 167.023C298.873 167.224 298.768 167.413 298.626 167.577C298.484 167.742 298.308 167.879 298.107 167.982C297.907 168.084 297.686 168.15 297.458 168.175L290.054 168.997H289.845Z" fill="#257D61"/>
<path d="M262.343 243H261.948L253.256 240.671C252.835 240.541 252.475 240.235 252.248 239.816C252.022 239.397 251.947 238.896 252.038 238.417C252.147 237.939 252.418 237.529 252.794 237.273C253.169 237.018 253.619 236.937 254.046 237.049L262.739 239.415C263.161 239.529 263.527 239.826 263.755 240.241C263.983 240.657 264.056 241.157 263.957 241.632C263.862 242.029 263.651 242.379 263.359 242.627C263.067 242.874 262.71 243.006 262.343 243Z" fill="#257D61"/>
<path d="M250.605 216C250.336 216.004 250.071 215.937 249.834 215.805C249.597 215.673 249.396 215.481 249.251 215.246C249.106 215.011 249.02 214.742 249.003 214.463C248.986 214.185 249.037 213.906 249.153 213.654L252.896 204.974C253.078 204.576 253.402 204.267 253.798 204.111C254.195 203.955 254.635 203.964 255.025 204.136C255.221 204.224 255.397 204.35 255.545 204.509C255.693 204.668 255.81 204.855 255.888 205.061C255.966 205.267 256.004 205.486 256 205.707C255.996 205.928 255.95 206.146 255.864 206.348L252.089 215.028C251.958 215.321 251.748 215.569 251.485 215.742C251.222 215.914 250.916 216.004 250.605 216Z" fill="#257D61"/>
<path d="M365.798 87C365.505 87.0007 365.218 86.9277 364.96 86.7878C364.703 86.6479 364.484 86.4454 364.323 86.1984C364.187 86.0004 364.091 85.7769 364.04 85.541C363.99 85.305 363.987 85.0613 364.03 84.824C364.074 84.5867 364.163 84.3606 364.294 84.1587C364.424 83.9567 364.593 83.7831 364.791 83.6478L371.192 79.312C371.588 79.0414 372.074 78.9412 372.543 79.0335C373.012 79.1257 373.425 79.4028 373.692 79.8039C373.959 80.2049 374.058 80.697 373.967 81.1719C373.876 81.6468 373.602 82.0656 373.207 82.3361L366.805 86.672C366.51 86.8832 366.158 86.9977 365.798 87Z" fill="#257D61"/>
<path d="M314.114 145C313.623 144.991 313.154 144.807 312.804 144.483C312.453 144.16 312.247 143.724 312.228 143.262L312.002 131.809C311.991 131.575 312.032 131.341 312.12 131.122C312.208 130.903 312.343 130.703 312.515 130.534C312.688 130.365 312.895 130.231 313.125 130.139C313.354 130.047 313.6 130 313.85 130C314.097 129.996 314.344 130.037 314.574 130.122C314.805 130.206 315.016 130.333 315.194 130.494C315.373 130.656 315.516 130.849 315.615 131.062C315.715 131.275 315.768 131.505 315.773 131.738L316 143.191C316.005 143.424 315.961 143.656 315.871 143.873C315.78 144.09 315.646 144.288 315.474 144.456C315.302 144.624 315.097 144.758 314.87 144.852C314.643 144.945 314.399 144.995 314.151 145H314.114Z" fill="#257D61"/>
<path d="M133.049 182C132.652 182.003 132.265 181.873 131.944 181.631L125.668 176.287C125.301 175.983 125.065 175.541 125.012 175.057C124.958 174.574 125.092 174.088 125.383 173.706C125.526 173.514 125.705 173.354 125.909 173.234C126.113 173.115 126.338 173.039 126.571 173.012C126.803 172.984 127.039 173.005 127.264 173.074C127.489 173.143 127.698 173.258 127.879 173.411L134.333 178.646C134.62 178.884 134.829 179.208 134.931 179.574C135.032 179.94 135.022 180.33 134.901 180.689C134.78 181.049 134.554 181.361 134.254 181.583C133.954 181.804 133.596 181.924 133.227 181.926L133.049 182Z" fill="#257D61"/>
<path d="M170.434 200C170.201 200.003 169.971 199.957 169.757 199.865C169.543 199.772 169.352 199.635 169.195 199.463L162.495 191.877C162.338 191.721 162.214 191.535 162.129 191.331C162.044 191.126 162 190.907 162 190.685C162 190.464 162.044 190.244 162.129 190.04C162.214 189.835 162.338 189.65 162.495 189.494C162.648 189.337 162.831 189.213 163.032 189.128C163.233 189.044 163.45 189 163.668 189C163.886 189 164.102 189.044 164.304 189.128C164.505 189.213 164.687 189.337 164.84 189.494L171.539 197.08C171.767 197.315 171.918 197.614 171.975 197.937C172.032 198.26 171.991 198.592 171.858 198.892C171.725 199.191 171.505 199.444 171.228 199.617C170.95 199.791 170.627 199.877 170.3 199.866L170.434 200Z" fill="#257D61"/>
<path d="M195.748 169C195.456 169.001 195.169 168.933 194.912 168.802C194.71 168.698 194.532 168.557 194.388 168.388C194.243 168.219 194.136 168.024 194.071 167.815C194.006 167.606 193.985 167.388 194.01 167.171C194.035 166.955 194.104 166.745 194.215 166.554L198.711 158.855C198.938 158.469 199.316 158.184 199.764 158.064C200.212 157.943 200.692 157.995 201.099 158.21C201.505 158.425 201.805 158.784 201.933 159.209C202.06 159.633 202.005 160.088 201.778 160.474L197.282 168.24C197.114 168.478 196.885 168.672 196.617 168.804C196.349 168.937 196.051 169.004 195.748 169Z" fill="#257D61"/>
<path d="M137.233 255C136.964 254.997 136.698 254.935 136.457 254.816C136.216 254.698 136.005 254.527 135.842 254.317L128.431 244.83C128.274 244.655 128.156 244.45 128.083 244.229C128.011 244.007 127.985 243.773 128.008 243.541C128.031 243.309 128.102 243.084 128.217 242.881C128.332 242.677 128.488 242.498 128.676 242.356C128.864 242.213 129.08 242.11 129.31 242.053C129.54 241.995 129.78 241.985 130.015 242.021C130.249 242.058 130.473 242.142 130.674 242.267C130.874 242.392 131.046 242.556 131.179 242.749L138.625 252.236C138.768 252.411 138.874 252.613 138.936 252.83C138.998 253.046 139.015 253.272 138.986 253.495C138.957 253.718 138.882 253.933 138.766 254.127C138.65 254.321 138.496 254.49 138.312 254.625C138.004 254.863 137.625 254.995 137.233 255Z" fill="#257D61"/>
<path d="M152.678 242C152.302 241.995 151.939 241.851 151.645 241.59C151.297 241.289 151.07 240.845 151.014 240.357C150.957 239.868 151.077 239.375 151.345 238.984L155.009 233.698C155.284 233.314 155.684 233.068 156.12 233.012C156.557 232.956 156.996 233.096 157.341 233.4C157.517 233.546 157.665 233.731 157.776 233.943C157.887 234.154 157.959 234.389 157.987 234.632C158.015 234.875 157.998 235.122 157.939 235.358C157.88 235.595 157.778 235.815 157.641 236.006L153.977 241.255C153.827 241.484 153.631 241.67 153.406 241.799C153.18 241.928 152.931 241.997 152.678 242Z" fill="#257D61"/>
<path d="M220.666 242C220.394 241.991 220.128 241.913 219.889 241.772C219.649 241.63 219.443 241.429 219.286 241.185C219.04 240.781 218.947 240.286 219.029 239.808C219.111 239.329 219.36 238.906 219.724 238.628L225.343 234.331C225.711 234.053 226.162 233.944 226.602 234.027C227.042 234.11 227.435 234.378 227.698 234.775C227.825 234.976 227.915 235.204 227.962 235.444C228.009 235.684 228.012 235.931 227.972 236.173C227.931 236.414 227.847 236.644 227.725 236.849C227.603 237.055 227.445 237.231 227.26 237.369L221.642 241.667C221.354 241.882 221.014 241.998 220.666 242Z" fill="#257D61"/>
<path d="M222.831 300.999C222.531 300.997 222.236 300.926 221.97 300.793C221.704 300.659 221.475 300.468 221.302 300.233C221.168 300.043 221.076 299.828 221.031 299.603C220.987 299.377 220.99 299.145 221.041 298.921C221.092 298.697 221.189 298.485 221.328 298.297C221.467 298.11 221.644 297.951 221.848 297.831L232.187 291.286C232.588 291.034 233.077 290.943 233.548 291.035C234.018 291.126 234.432 291.391 234.699 291.773C234.964 292.162 235.059 292.635 234.964 293.091C234.869 293.547 234.59 293.948 234.189 294.21L223.85 300.721C223.549 300.912 223.193 301.01 222.831 300.999Z" fill="#257D61"/>
<path d="M135.166 299C134.837 298.998 134.515 298.916 134.234 298.763C133.953 298.61 133.725 298.392 133.574 298.133L130.316 292.513C130.172 292.326 130.074 292.113 130.029 291.89C129.983 291.667 129.992 291.437 130.054 291.217C130.116 290.997 130.229 290.791 130.388 290.613C130.546 290.434 130.745 290.288 130.971 290.183C131.198 290.078 131.447 290.016 131.702 290.003C131.958 289.989 132.213 290.024 132.452 290.105C132.691 290.185 132.908 290.31 133.089 290.47C133.27 290.631 133.41 290.823 133.501 291.036L136.795 296.656C136.906 296.842 136.974 297.047 136.994 297.258C137.014 297.469 136.986 297.681 136.912 297.881C136.837 298.082 136.718 298.268 136.561 298.427C136.404 298.586 136.213 298.715 135.999 298.807C135.745 298.935 135.458 299.002 135.166 299Z" fill="#257D61"/>
<path d="M165.343 306C165.117 306.001 164.893 305.951 164.687 305.852C164.48 305.754 164.296 305.609 164.145 305.428L157.489 298.03C157.334 297.867 157.211 297.673 157.127 297.458C157.043 297.243 157 297.012 157 296.779C157 296.546 157.043 296.316 157.127 296.101C157.211 295.886 157.334 295.692 157.489 295.529C157.644 295.361 157.828 295.228 158.031 295.137C158.234 295.047 158.451 295 158.671 295C158.89 295 159.108 295.047 159.311 295.137C159.513 295.228 159.697 295.361 159.852 295.529L166.508 302.926C166.664 303.093 166.788 303.29 166.872 303.508C166.957 303.726 167 303.959 167 304.195C167 304.431 166.957 304.665 166.872 304.882C166.788 305.1 166.664 305.298 166.508 305.464C166.197 305.794 165.78 305.986 165.343 306Z" fill="#257D61"/>
<path d="M190.715 286.998C190.455 287.011 190.196 286.952 189.967 286.826C189.764 286.734 189.581 286.601 189.43 286.436C189.28 286.27 189.164 286.074 189.091 285.862C189.018 285.649 188.988 285.423 189.004 285.199C189.02 284.974 189.082 284.755 189.185 284.556L193.776 274.956C193.98 274.551 194.332 274.243 194.757 274.095C195.182 273.947 195.648 273.972 196.055 274.165C196.455 274.372 196.76 274.728 196.906 275.158C197.052 275.588 197.027 276.058 196.837 276.47L192.212 286.035C192.08 286.324 191.869 286.569 191.604 286.74C191.338 286.911 191.03 287.001 190.715 286.998Z" fill="#257D61"/>
<path d="M95.0446 235H94.4996C94.2495 234.954 94.013 234.867 93.8041 234.743C93.5952 234.619 93.4183 234.461 93.2839 234.278C93.1495 234.096 93.0603 233.893 93.0218 233.681C92.9832 233.469 92.996 233.253 93.0594 233.046L96.0566 222.297C96.1154 222.083 96.2239 221.881 96.3761 221.702C96.5282 221.523 96.721 221.371 96.9433 221.255C97.1656 221.138 97.4131 221.06 97.6717 221.023C97.9303 220.987 98.195 220.993 98.4506 221.043C98.7062 221.092 98.9477 221.183 99.1614 221.31C99.375 221.437 99.5565 221.598 99.6957 221.784C99.8348 221.97 99.9288 222.178 99.9723 222.394C100.016 222.61 100.008 222.832 99.9492 223.046L96.913 233.795C96.8082 234.142 96.567 234.449 96.2282 234.668C95.8893 234.887 95.4725 235.004 95.0446 235Z" fill="#257D61"/>
<path d="M49.2615 250C48.9419 249.993 48.6305 249.899 48.362 249.728L37.9829 243.234C37.7627 243.13 37.5674 242.982 37.4096 242.799C37.2519 242.616 37.1353 242.402 37.0677 242.171C37 241.941 36.9829 241.699 37.0172 241.461C37.0515 241.224 37.1365 240.996 37.2668 240.793C37.3971 240.59 37.5696 240.416 37.7729 240.284C37.9763 240.151 38.206 240.062 38.4469 240.023C38.6877 239.984 38.9342 239.995 39.1703 240.056C39.4064 240.117 39.6266 240.227 39.8166 240.377L50.1956 246.838C50.5791 247.082 50.8511 247.463 50.9544 247.901C51.0576 248.339 50.9841 248.799 50.7491 249.184C50.5891 249.43 50.3695 249.634 50.1099 249.776C49.8502 249.918 49.5588 249.995 49.2615 250Z" fill="#257D61"/>
<path d="M53.2724 316C52.933 316.005 52.6 315.911 52.3184 315.731L42.8485 310.087C42.6473 309.974 42.4723 309.823 42.3342 309.644C42.1961 309.464 42.0976 309.26 42.0448 309.043C41.9919 308.827 41.9858 308.602 42.0268 308.383C42.0677 308.164 42.1549 307.955 42.2831 307.769C42.5366 307.396 42.9356 307.133 43.3926 307.038C43.8496 306.944 44.3275 307.026 44.7212 307.266L54.1912 312.909C54.5089 313.104 54.7524 313.391 54.8861 313.727C55.0197 314.063 55.0362 314.431 54.9334 314.777C54.8306 315.123 54.6137 315.429 54.3147 315.649C54.0158 315.869 53.6504 315.992 53.2724 316Z" fill="#257D61"/>
<path d="M78.6637 311.998C78.1978 311.961 77.7642 311.737 77.4541 311.373C77.1441 311.01 76.9819 310.536 77.0016 310.051L77.4613 301.748C77.4847 301.26 77.6935 300.803 78.0417 300.475C78.3899 300.148 78.8491 299.978 79.318 300.002C79.787 300.027 80.2274 300.244 80.5424 300.605C80.8575 300.967 81.0212 301.444 80.9978 301.931L80.5381 310.271C80.5019 310.756 80.2862 311.206 79.9366 311.528C79.5869 311.85 79.1306 312.019 78.6637 311.998Z" fill="#257D61"/>
<path d="M111 340C110.47 340 109.961 339.822 109.586 339.506C109.211 339.189 109 338.76 109 338.313V330.687C109 330.24 109.211 329.811 109.586 329.494C109.961 329.178 110.47 329 111 329C111.53 329 112.039 329.178 112.414 329.494C112.789 329.811 113 330.24 113 330.687V338.313C113 338.76 112.789 339.189 112.414 339.506C112.039 339.822 111.53 340 111 340Z" fill="#257D61"/>
<path d="M99.2487 375H98.9347L89.4443 373.321C89.2152 373.28 88.9969 373.197 88.8019 373.076C88.6069 372.956 88.4391 372.8 88.3078 372.618C88.1766 372.436 88.0846 372.232 88.0372 372.016C87.9897 371.801 87.9877 371.579 88.0312 371.363C88.0747 371.146 88.1629 370.94 88.2908 370.757C88.4187 370.573 88.5838 370.414 88.7766 370.29C88.9693 370.167 89.186 370.08 89.4144 370.035C89.6427 369.99 89.8781 369.988 90.1072 370.029L99.5976 371.741C99.823 371.776 100.038 371.854 100.231 371.971C100.423 372.087 100.588 372.24 100.715 372.418C100.842 372.597 100.93 372.799 100.972 373.011C101.014 373.223 101.009 373.44 100.958 373.65C100.892 374.031 100.682 374.376 100.369 374.624C100.055 374.872 99.6576 375.005 99.2487 375Z" fill="#257D61"/>
<path d="M93.8173 275H93.4941C93.0289 274.924 92.6135 274.674 92.3379 274.306C92.0624 273.938 91.9487 273.481 92.0215 273.033L93.4222 265.441C93.4613 265.216 93.5463 265.001 93.6724 264.808C93.7985 264.615 93.9632 264.448 94.1569 264.316C94.3506 264.185 94.5695 264.092 94.801 264.042C95.0324 263.992 95.2718 263.987 95.5054 264.026C95.9735 264.11 96.3891 264.367 96.664 264.74C96.9389 265.114 97.0515 265.576 96.978 266.028L95.5772 273.619C95.5009 274.012 95.2823 274.366 94.9601 274.619C94.638 274.872 94.2331 275.007 93.8173 275Z" fill="#257D61"/>
<path d="M201.556 352.999C201.253 352.971 200.965 352.852 200.727 352.658C200.546 352.534 200.391 352.375 200.271 352.189C200.151 352.003 200.068 351.794 200.028 351.575C199.988 351.356 199.991 351.13 200.037 350.912C200.083 350.694 200.171 350.488 200.296 350.305L205.87 341.917C205.978 341.703 206.129 341.516 206.314 341.366C206.498 341.217 206.71 341.11 206.938 341.051C207.165 340.993 207.402 340.984 207.633 341.027C207.864 341.069 208.083 341.161 208.277 341.297C208.47 341.433 208.634 341.609 208.756 341.815C208.878 342.02 208.957 342.25 208.987 342.489C209.016 342.728 208.996 342.971 208.928 343.201C208.86 343.432 208.745 343.645 208.591 343.826L203.016 352.214C202.861 352.465 202.644 352.668 202.388 352.806C202.132 352.944 201.845 353.01 201.556 352.999Z" fill="#257D61"/>
<path d="M226.673 388C226.283 387.995 225.905 387.871 225.595 387.645C225.255 387.363 225.044 386.966 225.006 386.538C224.968 386.109 225.107 385.684 225.392 385.352L233.012 376.599C233.149 376.433 233.32 376.295 233.514 376.194C233.708 376.092 233.922 376.029 234.142 376.008C234.362 375.987 234.584 376.008 234.796 376.071C235.007 376.134 235.203 376.237 235.372 376.373C235.546 376.508 235.691 376.674 235.797 376.863C235.904 377.052 235.97 377.259 235.992 377.472C236.014 377.686 235.991 377.901 235.925 378.106C235.859 378.311 235.751 378.502 235.608 378.666L227.988 387.419C227.827 387.601 227.625 387.748 227.398 387.848C227.171 387.949 226.924 388.001 226.673 388Z" fill="#257D61"/>
<path d="M193.826 411C193.398 411.005 192.982 410.879 192.649 410.644C192.278 410.362 192.048 409.964 192.007 409.535C191.965 409.105 192.117 408.679 192.428 408.346L200.74 399.578C201.06 399.254 201.509 399.05 201.995 399.008C202.48 398.966 202.965 399.089 203.351 399.351C203.722 399.633 203.952 400.031 203.993 400.46C204.035 400.889 203.883 401.316 203.572 401.648L195.26 410.417C195.085 410.602 194.866 410.75 194.617 410.851C194.369 410.952 194.099 411.003 193.826 411Z" fill="#257D61"/>
<path d="M149.104 378C148.736 378.001 148.375 377.906 148.067 377.727C147.758 377.548 147.515 377.292 147.368 376.992L143.253 368.521C143.12 368.316 143.037 368.089 143.01 367.854C142.983 367.619 143.011 367.382 143.094 367.157C143.176 366.933 143.311 366.727 143.489 366.552C143.668 366.377 143.885 366.237 144.128 366.142C144.371 366.047 144.633 365.999 144.899 366C145.164 366.001 145.426 366.053 145.668 366.15C145.909 366.248 146.125 366.389 146.301 366.566C146.477 366.743 146.609 366.951 146.688 367.176L150.841 375.647C150.941 375.85 150.995 376.069 151 376.29C151.004 376.512 150.96 376.732 150.869 376.938C150.777 377.144 150.641 377.332 150.468 377.492C150.295 377.651 150.088 377.778 149.859 377.866C149.62 377.955 149.364 378.001 149.104 378Z" fill="#257D61"/>
<path d="M158.385 474C157.97 473.993 157.575 473.799 157.284 473.461L153.449 469.045C153.161 468.709 153 468.258 153 467.788C153 467.318 153.161 466.867 153.449 466.531C153.595 466.363 153.769 466.229 153.961 466.138C154.152 466.047 154.358 466 154.565 466C154.773 466 154.978 466.047 155.17 466.138C155.361 466.229 155.535 466.363 155.681 466.531L159.548 470.912C159.838 471.253 160 471.711 160 472.186C160 472.662 159.838 473.119 159.548 473.461C159.396 473.636 159.214 473.773 159.014 473.866C158.815 473.958 158.6 474.004 158.385 474Z" fill="#257D61"/>
<path d="M202.868 470C202.587 469.997 202.31 469.937 202.055 469.827C201.616 469.631 201.277 469.281 201.111 468.852C200.945 468.424 200.966 467.951 201.168 467.537L205.492 459.002C205.591 458.795 205.734 458.609 205.911 458.454C206.088 458.3 206.297 458.18 206.524 458.102C206.751 458.025 206.993 457.991 207.235 458.002C207.476 458.014 207.713 458.071 207.931 458.169C208.153 458.266 208.352 458.403 208.517 458.573C208.682 458.743 208.809 458.941 208.892 459.158C208.974 459.374 209.01 459.603 208.998 459.833C208.985 460.062 208.924 460.287 208.818 460.494L204.531 468.994C204.38 469.29 204.145 469.541 203.851 469.718C203.558 469.896 203.217 469.993 202.868 470Z" fill="#257D61"/>
<path d="M156.213 515.999C155.967 516.008 155.723 515.96 155.498 515.858C155.272 515.756 155.071 515.602 154.909 515.409L150.436 510.138C150.283 509.958 150.166 509.748 150.092 509.52C150.018 509.291 149.988 509.05 150.004 508.81C150.021 508.569 150.083 508.335 150.187 508.12C150.292 507.905 150.436 507.714 150.612 507.558C150.77 507.382 150.961 507.242 151.173 507.146C151.385 507.049 151.614 507 151.845 507C152.076 507 152.305 507.049 152.517 507.146C152.729 507.242 152.92 507.382 153.078 507.558L157.516 512.792C157.755 513.051 157.914 513.379 157.974 513.734C158.033 514.088 157.991 514.453 157.85 514.782C157.71 515.111 157.48 515.388 157.188 515.579C156.896 515.769 156.556 515.864 156.213 515.852V515.999Z" fill="#257D61"/>
<path d="M214.634 521.995C214.359 521.997 214.088 521.927 213.847 521.794C213.47 521.574 213.19 521.213 213.068 520.787C212.946 520.361 212.99 519.903 213.191 519.51L217.913 510.877C218.122 510.485 218.474 510.194 218.893 510.068C219.311 509.942 219.761 509.992 220.143 510.206C220.526 510.419 220.81 510.78 220.933 511.208C221.056 511.637 221.008 512.098 220.799 512.49L216.142 521.189C215.99 521.455 215.767 521.671 215.501 521.813C215.234 521.956 214.934 522.019 214.634 521.995Z" fill="#257D61"/>
<path d="M182.253 561C181.98 560.997 181.712 560.935 181.468 560.818C181.224 560.701 181.011 560.532 180.845 560.323L176.303 554.641C176.052 554.284 175.951 553.849 176.022 553.424C176.093 552.999 176.33 552.616 176.685 552.353C177.039 552.09 177.485 551.966 177.931 552.008C178.377 552.05 178.789 552.253 179.085 552.577L183.661 558.26C183.933 558.622 184.048 559.071 183.982 559.512C183.916 559.953 183.675 560.353 183.309 560.628C183.012 560.864 182.639 560.996 182.253 561Z" fill="#257D61"/>
<path d="M227.72 575C227.353 574.999 226.995 574.891 226.688 574.69C226.323 574.416 226.082 574.008 226.017 573.555C225.953 573.103 226.07 572.644 226.344 572.278L231.882 564.698C232.156 564.335 232.56 564.092 233.009 564.021C233.459 563.951 233.918 564.057 234.29 564.319C234.473 564.452 234.628 564.62 234.747 564.814C234.865 565.007 234.944 565.222 234.979 565.446C235.014 565.67 235.005 565.899 234.952 566.12C234.898 566.34 234.802 566.548 234.668 566.731L229.096 574.311C228.934 574.523 228.726 574.695 228.487 574.815C228.249 574.934 227.986 574.997 227.72 575Z" fill="#257D61"/>
<path d="M157.267 580C156.83 579.997 156.411 579.829 156.098 579.532L147.637 571.972C147.453 571.827 147.303 571.648 147.194 571.444C147.085 571.241 147.021 571.018 147.004 570.789C146.988 570.56 147.02 570.331 147.098 570.115C147.177 569.898 147.301 569.7 147.461 569.532C147.622 569.365 147.817 569.231 148.033 569.139C148.249 569.048 148.482 569 148.718 569C148.954 569 149.187 569.047 149.403 569.138C149.62 569.229 149.814 569.362 149.976 569.53L158.437 577.09C158.695 577.317 158.875 577.616 158.955 577.946C159.034 578.275 159.009 578.621 158.882 578.936C158.755 579.252 158.533 579.522 158.245 579.712C157.956 579.902 157.616 580.002 157.267 580Z" fill="#257D61"/>
<path d="M184.724 598.966C184.529 599.011 184.325 599.011 184.13 598.966C183.915 598.891 183.718 598.775 183.55 598.625C183.382 598.476 183.247 598.295 183.152 598.094C183.058 597.892 183.006 597.675 183.001 597.454C182.995 597.234 183.035 597.014 183.118 596.808L185.631 590.067C185.798 589.659 186.123 589.33 186.537 589.149C186.951 588.969 187.421 588.951 187.849 589.1C188.276 589.25 188.626 589.554 188.824 589.948C189.023 590.343 189.054 590.797 188.912 591.213L186.364 597.955C186.23 598.264 186.001 598.527 185.707 598.707C185.414 598.888 185.071 598.978 184.724 598.966Z" fill="#257D61"/>
<path d="M145.277 626C144.919 625.986 144.573 625.866 144.283 625.656L136.706 620.117C136.524 619.984 136.37 619.816 136.252 619.623C136.134 619.429 136.056 619.215 136.021 618.991C135.986 618.768 135.995 618.539 136.048 618.319C136.101 618.099 136.196 617.892 136.329 617.709C136.462 617.526 136.63 617.371 136.822 617.253C137.015 617.135 137.228 617.056 137.451 617.021C137.674 616.986 137.901 616.995 138.121 617.048C138.34 617.101 138.547 617.197 138.729 617.33L146.305 622.869C146.667 623.143 146.908 623.548 146.979 623.997C147.049 624.446 146.943 624.905 146.683 625.277C146.519 625.498 146.308 625.678 146.064 625.803C145.82 625.929 145.551 625.996 145.277 626Z" fill="#257D61"/>
<path d="M213.673 609C213.389 609.001 213.11 608.933 212.861 608.8C212.469 608.577 212.182 608.21 212.062 607.78C211.942 607.35 211.998 606.891 212.219 606.501L217.832 596.839C218.056 596.454 218.426 596.173 218.861 596.058C219.295 595.942 219.759 596.001 220.149 596.222C220.539 596.443 220.824 596.808 220.941 597.236C221.059 597.664 220.999 598.12 220.774 598.505L215.161 608.167C215.01 608.424 214.793 608.636 214.532 608.782C214.27 608.929 213.974 609.004 213.673 609Z" fill="#257D61"/>
<path d="M477.255 642.02C415.387 624.518 345 660 294 663.897L369.5 703.5L670 663.897C631.53 663.897 539.124 659.521 477.255 642.02Z" fill="#F5F5F5"/>
<path d="M148.5 652.5C116.908 642.733 105 645.332 105 645.332L165 690.5L297 645.332C277.356 645.332 180.092 662.267 148.5 652.5Z" fill="#F5F5F5"/>
</svg>
