<svg width="1606" height="1072" viewBox="0 0 1606 1072" fill="none" xmlns="http://www.w3.org/2000/svg">
<path d="M803 1071.39C1246.48 1071.39 1606 1040.47 1606 1002.33C1606 964.196 1246.48 933.278 803 933.278C359.515 933.278 0 964.196 0 1002.33C0 1040.47 359.515 1071.39 803 1071.39Z" fill="#F5F5F5"/>
<path d="M1354.25 90.0642C1344.05 177.838 1292.03 237.205 1254.03 269.693C1253.42 178.909 1251.74 111.842 1248.27 85.219C1238.89 12.7453 1207.16 0.0458984 1171 0.0458984C1133.92 0.0458984 1104.09 37.1752 1104.7 82.4139C1103.27 147.696 1105.31 302.538 1108.52 487.981C1086.99 455.407 1073.61 418.129 1069.51 379.296C1060.07 287.492 963.119 304.119 969.545 399.187C974.645 476.658 1011.77 585.445 1111.02 626.094C1113.17 741.256 1115.51 862.029 1117.6 976.579H1250.21C1251.74 775.682 1254.19 547.092 1254.24 370.064C1400.87 349.664 1448.71 209.46 1462.43 114.086C1477.22 11.6743 1365.98 -9.54249 1354.25 90.0642Z" fill="#407BFF"/>
<path opacity="0.2" d="M1354.25 90.0642C1344.05 177.838 1292.03 237.205 1254.03 269.693C1253.42 178.909 1251.74 111.842 1248.27 85.219C1238.89 12.7453 1207.16 0.0458984 1171 0.0458984C1133.92 0.0458984 1104.09 37.1752 1104.7 82.4139C1103.27 147.696 1105.31 302.538 1108.52 487.981C1086.99 455.407 1073.61 418.129 1069.51 379.296C1060.07 287.492 963.119 304.119 969.545 399.187C974.645 476.658 1011.77 585.445 1111.02 626.094C1113.17 741.256 1115.51 862.029 1117.6 976.579H1250.21C1251.74 775.682 1254.19 547.092 1254.24 370.064C1400.87 349.664 1448.71 209.46 1462.43 114.086C1477.22 11.6743 1365.98 -9.54249 1354.25 90.0642Z" fill="white"/>
<path d="M1220.58 369.352C1227.51 383.887 1246.08 396.536 1254.24 401.738C1254.24 390.959 1254.24 380.402 1254.24 370.066C1243.02 370.762 1231.76 370.523 1220.58 369.352Z" fill="#407BFF"/>
<path d="M1111.02 626.094C1111.33 641.632 1111.64 657.29 1111.94 673.066C1118.11 667.048 1142.54 643.893 1150.35 627.165C1137.34 629.929 1123.86 629.562 1111.02 626.094Z" fill="#407BFF"/>
<path d="M1121.63 84.9125C1121.06 84.9052 1120.5 84.7079 1120.05 84.3514L1108.47 75.1201C1107.95 74.6829 1107.62 74.0641 1107.55 73.3907C1107.47 72.7174 1107.66 72.0404 1108.06 71.499C1108.5 70.9778 1109.13 70.6486 1109.8 70.5819C1110.48 70.5152 1111.16 70.7162 1111.69 71.142L1123.21 80.3733C1123.48 80.5775 1123.7 80.833 1123.87 81.1248C1124.03 81.4166 1124.13 81.7388 1124.17 82.0719C1124.21 82.405 1124.18 82.7423 1124.09 83.0639C1123.99 83.3854 1123.83 83.6845 1123.62 83.9434C1123.38 84.2386 1123.07 84.4781 1122.73 84.6453C1122.39 84.8126 1122.01 84.9037 1121.63 84.9125Z" fill="#407BFF"/>
<path d="M1213.84 25.1913C1213.42 25.1873 1213 25.0824 1212.62 24.8853C1212.03 24.5531 1211.6 24.0016 1211.42 23.3515C1211.24 22.7014 1211.32 22.0058 1211.65 21.4172L1217.57 10.8598C1217.72 10.5489 1217.94 10.2725 1218.2 10.0475C1218.46 9.82256 1218.77 9.65373 1219.1 9.55133C1219.43 9.44893 1219.78 9.41509 1220.12 9.45195C1220.47 9.48881 1220.8 9.59562 1221.11 9.76573C1221.41 9.93584 1221.67 10.1657 1221.88 10.4414C1222.09 10.717 1222.24 11.0327 1222.33 11.369C1222.41 11.7052 1222.43 12.0551 1222.37 12.3972C1222.32 12.7394 1222.19 13.0666 1222 13.3589L1216.09 23.9162C1215.86 24.3092 1215.53 24.6345 1215.14 24.8587C1214.74 25.0828 1214.3 25.1976 1213.84 25.1913Z" fill="#407BFF"/>
<path d="M1165.14 72.672C1164.71 72.7311 1164.27 72.6776 1163.87 72.5167C1163.47 72.3557 1163.11 72.0929 1162.84 71.754L1157.74 64.1547C1157.55 63.8785 1157.42 63.567 1157.35 63.2388C1157.29 62.9105 1157.29 62.5722 1157.35 62.2439C1157.42 61.9156 1157.55 61.6041 1157.74 61.3278C1157.93 61.0515 1158.17 60.8161 1158.46 60.6356C1159.02 60.2665 1159.7 60.1345 1160.36 60.2682C1161.02 60.4019 1161.6 60.7906 1161.98 61.3496L1167.08 68.9489C1167.44 69.5111 1167.58 70.1964 1167.44 70.8554C1167.31 71.5145 1166.92 72.0941 1166.36 72.468C1165.98 72.64 1165.56 72.7102 1165.14 72.672Z" fill="#407BFF"/>
<path d="M1133.82 19.9359C1133.2 19.9379 1132.59 19.7007 1132.14 19.2729L1124.59 12.6936C1124.17 12.2316 1123.94 11.6331 1123.93 11.0109C1123.93 10.3887 1124.15 9.78572 1124.56 9.3155C1124.96 8.84529 1125.53 8.5403 1126.15 8.45798C1126.76 8.37565 1127.39 8.52163 1127.91 8.86849L1135.5 15.4478C1136.01 15.899 1136.32 16.5301 1136.37 17.2065C1136.42 17.8829 1136.2 18.5511 1135.76 19.0689C1135.51 19.3391 1135.21 19.5556 1134.88 19.7048C1134.55 19.854 1134.19 19.9327 1133.82 19.9359Z" fill="#407BFF"/>
<path d="M1230.11 121.838C1229.52 121.828 1228.94 121.612 1228.48 121.226C1228.22 121.014 1228.01 120.753 1227.85 120.458C1227.7 120.162 1227.6 119.838 1227.58 119.506C1227.55 119.173 1227.59 118.838 1227.69 118.52C1227.79 118.202 1227.96 117.908 1228.18 117.656L1235.11 109.394C1235.57 108.963 1236.17 108.715 1236.79 108.697C1237.42 108.679 1238.03 108.892 1238.51 109.296C1238.99 109.699 1239.3 110.265 1239.39 110.885C1239.48 111.505 1239.34 112.136 1238.99 112.658L1232.1 120.92C1231.86 121.211 1231.56 121.445 1231.21 121.604C1230.87 121.762 1230.49 121.842 1230.11 121.838Z" fill="#407BFF"/>
<path d="M1167.94 182.173C1167.41 182.177 1166.9 182.017 1166.46 181.714L1159.53 176.614C1159.25 176.42 1159.02 176.174 1158.84 175.89C1158.66 175.605 1158.53 175.288 1158.48 174.956C1158.42 174.624 1158.43 174.284 1158.5 173.956C1158.58 173.628 1158.72 173.318 1158.91 173.044C1159.32 172.506 1159.92 172.146 1160.59 172.042C1161.25 171.937 1161.93 172.095 1162.48 172.483L1169.42 177.583C1169.96 177.98 1170.31 178.57 1170.42 179.228C1170.52 179.886 1170.37 180.558 1169.98 181.102C1169.76 181.434 1169.45 181.706 1169.1 181.892C1168.74 182.079 1168.34 182.176 1167.94 182.173Z" fill="#407BFF"/>
<path d="M1157.23 132.957C1156.68 132.96 1156.14 132.781 1155.7 132.446L1145.81 124.847C1145.52 124.652 1145.27 124.4 1145.09 124.106C1144.9 123.812 1144.77 123.483 1144.72 123.14C1144.66 122.796 1144.68 122.444 1144.77 122.107C1144.85 121.77 1145.01 121.454 1145.22 121.178C1145.43 120.903 1145.7 120.673 1146 120.505C1146.31 120.337 1146.64 120.232 1146.99 120.199C1147.34 120.165 1147.69 120.202 1148.02 120.309C1148.35 120.415 1148.66 120.589 1148.92 120.818L1158.81 128.417C1159.22 128.747 1159.52 129.196 1159.67 129.702C1159.81 130.209 1159.8 130.748 1159.62 131.245C1159.45 131.743 1159.13 132.175 1158.7 132.481C1158.27 132.787 1157.76 132.954 1157.23 132.957Z" fill="#407BFF"/>
<path d="M1109.75 216.805C1109.4 216.81 1109.05 216.74 1108.72 216.6C1108.39 216.459 1108.1 216.251 1107.86 215.989L1096.95 203.748C1096.48 203.272 1096.22 202.631 1096.22 201.963C1096.22 201.296 1096.48 200.655 1096.95 200.178C1097.19 199.939 1097.47 199.749 1097.78 199.62C1098.09 199.49 1098.42 199.424 1098.76 199.424C1099.1 199.424 1099.43 199.49 1099.74 199.62C1100.05 199.749 1100.33 199.939 1100.57 200.178L1111.43 212.368C1111.78 212.726 1112.01 213.179 1112.1 213.67C1112.18 214.161 1112.12 214.666 1111.92 215.121C1111.72 215.576 1111.38 215.96 1110.96 216.223C1110.54 216.487 1110.04 216.618 1109.55 216.601L1109.75 216.805Z" fill="#407BFF"/>
<path d="M1246.64 210.735C1246.04 210.743 1245.46 210.524 1245.01 210.123C1244.49 209.695 1244.16 209.08 1244.09 208.411C1244.03 207.743 1244.23 207.075 1244.65 206.553L1255.87 193.19C1256.08 192.932 1256.35 192.719 1256.64 192.563C1256.94 192.407 1257.27 192.311 1257.6 192.28C1257.93 192.249 1258.27 192.284 1258.59 192.384C1258.91 192.483 1259.21 192.644 1259.47 192.859C1259.72 193.073 1259.94 193.336 1260.09 193.633C1260.25 193.929 1260.35 194.254 1260.38 194.588C1260.41 194.922 1260.37 195.258 1260.27 195.579C1260.17 195.899 1260.01 196.197 1259.8 196.454L1248.58 209.817C1248.34 210.104 1248.05 210.335 1247.71 210.494C1247.38 210.653 1247.01 210.735 1246.64 210.735Z" fill="#407BFF"/>
<path d="M1220.22 76.8547C1219.64 76.8739 1219.08 76.6735 1218.64 76.2936C1218.38 76.0857 1218.16 75.8273 1218 75.5336C1217.84 75.24 1217.74 74.9171 1217.71 74.5841C1217.67 74.2512 1217.71 73.9149 1217.81 73.5953C1217.9 73.2757 1218.07 72.9792 1218.28 72.7235L1224.86 64.6143C1225.29 64.0965 1225.91 63.7685 1226.57 63.7016C1227.24 63.6348 1227.91 63.8344 1228.43 64.2572C1228.7 64.4697 1228.91 64.7327 1229.08 65.0307C1229.24 65.3287 1229.34 65.6558 1229.37 65.9929C1229.4 66.33 1229.37 66.6703 1229.27 66.9941C1229.17 67.3178 1229.01 67.6184 1228.79 67.8784L1222.21 75.9367C1221.97 76.2279 1221.66 76.4613 1221.32 76.6201C1220.97 76.7789 1220.6 76.8591 1220.22 76.8547Z" fill="#407BFF"/>
<path d="M1280.15 250.771C1279.47 250.771 1278.82 250.502 1278.34 250.024C1277.86 249.546 1277.6 248.897 1277.6 248.221V237C1277.6 236.324 1277.86 235.675 1278.34 235.197C1278.82 234.719 1279.47 234.45 1280.15 234.45C1280.82 234.463 1281.46 234.736 1281.93 235.212C1282.41 235.687 1282.68 236.328 1282.7 237V248.221C1282.7 248.897 1282.43 249.546 1281.95 250.024C1281.47 250.502 1280.82 250.771 1280.15 250.771Z" fill="#407BFF"/>
<path d="M1327.73 197.374C1327.37 197.367 1327.02 197.286 1326.7 197.137C1326.37 196.988 1326.08 196.773 1325.84 196.507L1314.98 184.317C1314.74 184.08 1314.55 183.798 1314.42 183.488C1314.29 183.177 1314.22 182.843 1314.22 182.507C1314.22 182.17 1314.29 181.837 1314.42 181.526C1314.55 181.215 1314.74 180.933 1314.98 180.696C1315.46 180.229 1316.1 179.967 1316.76 179.967C1317.43 179.967 1318.07 180.229 1318.55 180.696L1329.46 192.886C1329.93 193.371 1330.2 194.02 1330.2 194.696C1330.2 195.372 1329.93 196.022 1329.46 196.507C1329.02 197.013 1328.4 197.324 1327.73 197.374Z" fill="#407BFF"/>
<path d="M1438.91 76.8552C1438.46 76.864 1438.02 76.7398 1437.64 76.4981C1437.05 76.166 1436.62 75.6145 1436.44 74.9644C1436.26 74.3143 1436.34 73.6187 1436.67 73.03L1443.35 61.5546C1443.68 60.967 1444.23 60.535 1444.89 60.3534C1445.54 60.1717 1446.23 60.2552 1446.82 60.5856C1447.4 60.9262 1447.82 61.4815 1447.99 62.1309C1448.16 62.7803 1448.07 63.4713 1447.74 64.0537L1441.16 75.6311C1440.92 76.0146 1440.59 76.3298 1440.2 76.5447C1439.81 76.7596 1439.36 76.8667 1438.91 76.8552Z" fill="#407BFF"/>
<path d="M1372.92 53.9052C1372.42 53.8962 1371.93 53.7421 1371.51 53.4616C1371.1 53.181 1370.77 52.786 1370.58 52.3242L1363.64 35.1366C1363.39 34.5076 1363.4 33.8049 1363.67 33.1832C1363.93 32.5615 1364.44 32.0717 1365.07 31.8214C1365.7 31.5712 1366.4 31.5811 1367.02 31.8489C1367.64 32.1167 1368.13 32.6205 1368.38 33.2495L1375.32 50.3861C1375.44 50.6975 1375.5 51.0303 1375.5 51.3656C1375.49 51.7008 1375.42 52.0319 1375.29 52.3398C1375.16 52.6477 1374.97 52.9265 1374.73 53.1601C1374.49 53.3937 1374.2 53.5776 1373.89 53.7013C1373.59 53.8459 1373.26 53.9158 1372.92 53.9052Z" fill="#407BFF"/>
<path d="M1420.76 37.3787C1420.44 37.4277 1420.11 37.4277 1419.79 37.3787C1419.48 37.2505 1419.19 37.0611 1418.95 36.8217C1418.71 36.5823 1418.52 36.2976 1418.39 35.9843C1418.27 35.671 1418.2 35.3352 1418.21 34.9967C1418.21 34.6582 1418.28 34.3237 1418.41 34.0127L1423.51 22.1292C1423.64 21.8222 1423.83 21.5438 1424.06 21.3104C1424.3 21.0769 1424.58 20.8931 1424.89 20.7696C1425.2 20.6461 1425.53 20.5854 1425.86 20.5912C1426.2 20.597 1426.52 20.669 1426.83 20.8031C1427.14 20.926 1427.42 21.1103 1427.66 21.345C1427.9 21.5796 1428.09 21.8599 1428.22 22.1691C1428.35 22.4784 1428.41 22.8102 1428.41 23.145C1428.41 23.4799 1428.34 23.8109 1428.2 24.1183L1422.95 36.0527C1422.74 36.4511 1422.42 36.7848 1422.04 37.0182C1421.65 37.2517 1421.21 37.3763 1420.76 37.3787Z" fill="#407BFF"/>
<path d="M1398.98 171.311C1398.57 171.305 1398.17 171.205 1397.81 171.019C1397.45 170.834 1397.13 170.567 1396.89 170.24C1396.69 169.963 1396.56 169.65 1396.49 169.32C1396.42 168.989 1396.41 168.648 1396.47 168.316C1396.53 167.984 1396.66 167.667 1396.85 167.385C1397.03 167.102 1397.27 166.859 1397.55 166.67L1408.41 159.07C1408.69 158.858 1409 158.704 1409.34 158.617C1409.67 158.53 1410.02 158.513 1410.36 158.565C1410.7 158.617 1411.03 158.739 1411.33 158.922C1411.62 159.105 1411.87 159.346 1412.07 159.63C1412.27 159.914 1412.41 160.236 1412.47 160.575C1412.54 160.914 1412.54 161.263 1412.47 161.602C1412.4 161.941 1412.27 162.262 1412.07 162.546C1411.87 162.83 1411.62 163.07 1411.32 163.252L1400.46 170.852C1400.02 171.148 1399.51 171.308 1398.98 171.311Z" fill="#407BFF"/>
<path d="M1374.25 119.543C1373.73 119.544 1373.24 119.387 1372.82 119.096C1372.4 118.804 1372.08 118.39 1371.9 117.911L1368.58 109.7C1368.33 109.071 1368.33 108.366 1368.59 107.739C1368.86 107.113 1369.36 106.616 1369.99 106.359C1370.62 106.102 1371.32 106.106 1371.95 106.369C1372.57 106.632 1373.07 107.133 1373.33 107.762L1376.64 116.024C1376.88 116.654 1376.86 117.351 1376.6 117.97C1376.33 118.588 1375.83 119.079 1375.21 119.339C1374.91 119.48 1374.58 119.55 1374.25 119.543Z" fill="#407BFF"/>
<path d="M1423.26 239.552C1422.79 239.57 1422.32 239.45 1421.91 239.205C1421.5 238.961 1421.17 238.603 1420.96 238.175C1420.81 237.878 1420.71 237.553 1420.68 237.218C1420.66 236.884 1420.7 236.547 1420.8 236.228C1420.91 235.91 1421.07 235.615 1421.29 235.362C1421.52 235.11 1421.78 234.904 1422.09 234.758L1430.5 230.474C1430.8 230.317 1431.12 230.222 1431.46 230.193C1431.79 230.165 1432.13 230.205 1432.45 230.309C1432.77 230.414 1433.06 230.582 1433.32 230.803C1433.57 231.024 1433.77 231.294 1433.92 231.596C1434.22 232.198 1434.27 232.896 1434.06 233.536C1433.85 234.176 1433.4 234.707 1432.8 235.013L1424.38 239.297C1424.04 239.478 1423.65 239.566 1423.26 239.552Z" fill="#407BFF"/>
<path d="M1340.28 290.708C1339.6 290.789 1338.92 290.598 1338.39 290.177C1337.85 289.756 1337.5 289.14 1337.42 288.464C1337.34 287.787 1337.53 287.106 1337.95 286.571C1338.37 286.035 1338.99 285.689 1339.67 285.607L1348.54 283.312C1348.88 283.229 1349.22 283.212 1349.57 283.262C1349.91 283.313 1350.24 283.431 1350.53 283.608C1350.83 283.786 1351.09 284.02 1351.29 284.298C1351.5 284.575 1351.65 284.89 1351.73 285.225C1351.81 285.56 1351.83 285.908 1351.78 286.249C1351.73 286.591 1351.61 286.919 1351.43 287.215C1351.26 287.511 1351.02 287.769 1350.74 287.974C1350.47 288.18 1350.15 288.329 1349.82 288.413L1340.94 290.708H1340.28Z" fill="#407BFF"/>
<path d="M1341.61 252.099C1340.93 252.139 1340.27 251.91 1339.76 251.46C1339.25 251.011 1338.94 250.378 1338.9 249.702C1338.86 249.025 1339.09 248.361 1339.54 247.854C1339.99 247.347 1340.62 247.039 1341.3 246.999L1352.16 245.673C1352.5 245.632 1352.84 245.659 1353.16 245.75C1353.49 245.841 1353.79 245.995 1354.06 246.203C1354.32 246.411 1354.54 246.67 1354.71 246.964C1354.87 247.258 1354.98 247.582 1355.02 247.917C1355.06 248.252 1355.03 248.591 1354.94 248.916C1354.85 249.241 1354.7 249.544 1354.49 249.809C1354.28 250.075 1354.02 250.296 1353.73 250.461C1353.43 250.627 1353.11 250.733 1352.78 250.773L1341.91 252.099H1341.61Z" fill="#407BFF"/>
<path d="M1300.55 361.19H1299.94L1286.47 357.976C1285.82 357.796 1285.26 357.374 1284.91 356.796C1284.56 356.217 1284.44 355.527 1284.58 354.865C1284.75 354.207 1285.17 353.64 1285.75 353.287C1286.34 352.935 1287.03 352.824 1287.7 352.978L1301.16 356.242C1301.81 356.4 1302.38 356.81 1302.73 357.383C1303.09 357.957 1303.2 358.647 1303.05 359.302C1302.9 359.85 1302.57 360.333 1302.12 360.675C1301.67 361.017 1301.11 361.198 1300.55 361.19Z" fill="#407BFF"/>
<path d="M1282.54 321.358C1282.12 321.365 1281.7 321.263 1281.33 321.062C1280.95 320.861 1280.63 320.568 1280.4 320.211C1280.18 319.854 1280.04 319.444 1280.01 319.02C1279.99 318.596 1280.07 318.172 1280.25 317.788L1286.17 304.579C1286.45 303.973 1286.97 303.502 1287.59 303.265C1288.22 303.027 1288.91 303.041 1289.53 303.304C1289.84 303.437 1290.12 303.63 1290.35 303.871C1290.59 304.113 1290.77 304.398 1290.89 304.711C1291.02 305.024 1291.08 305.358 1291.07 305.694C1291.07 306.03 1290.99 306.362 1290.86 306.67L1284.89 319.879C1284.68 320.326 1284.35 320.703 1283.94 320.966C1283.52 321.228 1283.04 321.364 1282.54 321.358Z" fill="#407BFF"/>
<path d="M1454.73 128.927C1454.31 128.928 1453.91 128.825 1453.54 128.63C1453.18 128.434 1452.87 128.15 1452.64 127.805C1452.44 127.527 1452.31 127.215 1452.24 126.884C1452.17 126.554 1452.16 126.213 1452.22 125.881C1452.28 125.549 1452.41 125.232 1452.6 124.949C1452.78 124.667 1453.02 124.424 1453.3 124.234L1462.38 118.165C1462.94 117.787 1463.63 117.646 1464.29 117.775C1464.96 117.904 1465.54 118.292 1465.92 118.854C1466.3 119.415 1466.44 120.104 1466.31 120.769C1466.18 121.433 1465.8 122.02 1465.24 122.398L1456.16 128.468C1455.74 128.763 1455.24 128.923 1454.73 128.927Z" fill="#407BFF"/>
<path d="M1377.05 215.173C1376.39 215.16 1375.75 214.895 1375.28 214.43C1374.8 213.965 1374.53 213.337 1374.5 212.674L1374.19 196.2C1374.18 195.863 1374.23 195.527 1374.35 195.212C1374.47 194.897 1374.65 194.61 1374.89 194.367C1375.12 194.124 1375.4 193.93 1375.71 193.799C1376.02 193.667 1376.36 193.599 1376.69 193.599C1377.03 193.592 1377.36 193.652 1377.67 193.773C1377.98 193.895 1378.27 194.078 1378.51 194.31C1378.75 194.542 1378.95 194.819 1379.08 195.126C1379.21 195.433 1379.29 195.763 1379.29 196.098L1379.6 212.572C1379.61 212.907 1379.55 213.24 1379.43 213.552C1379.3 213.864 1379.12 214.149 1378.89 214.39C1378.66 214.632 1378.38 214.825 1378.07 214.959C1377.77 215.094 1377.44 215.166 1377.1 215.173H1377.05Z" fill="#407BFF"/>
<path d="M1107.1 270.664C1106.53 270.667 1105.97 270.489 1105.52 270.154L1096.54 262.758C1096.01 262.338 1095.68 261.726 1095.6 261.057C1095.52 260.389 1095.71 259.717 1096.13 259.188C1096.34 258.922 1096.59 258.7 1096.88 258.535C1097.17 258.37 1097.5 258.265 1097.83 258.227C1098.16 258.189 1098.5 258.218 1098.82 258.313C1099.14 258.408 1099.44 258.567 1099.7 258.78L1108.93 266.022C1109.34 266.352 1109.64 266.801 1109.79 267.307C1109.93 267.814 1109.92 268.353 1109.75 268.85C1109.57 269.348 1109.25 269.78 1108.82 270.086C1108.39 270.392 1107.88 270.559 1107.35 270.562L1107.1 270.664Z" fill="#407BFF"/>
<path d="M1162.84 298.254C1162.49 298.259 1162.14 298.189 1161.81 298.049C1161.49 297.908 1161.2 297.7 1160.96 297.438L1150.76 285.911C1150.52 285.674 1150.33 285.392 1150.2 285.081C1150.07 284.771 1150 284.437 1150 284.101C1150 283.764 1150.07 283.431 1150.2 283.12C1150.33 282.809 1150.52 282.527 1150.76 282.29C1150.99 282.053 1151.27 281.864 1151.57 281.735C1151.88 281.606 1152.21 281.54 1152.54 281.54C1152.87 281.54 1153.2 281.606 1153.51 281.735C1153.82 281.864 1154.09 282.053 1154.33 282.29L1164.53 293.817C1164.87 294.175 1165.1 294.628 1165.19 295.119C1165.28 295.61 1165.21 296.115 1165.01 296.57C1164.81 297.025 1164.47 297.409 1164.05 297.672C1163.63 297.936 1163.14 298.067 1162.64 298.05L1162.84 298.254Z" fill="#407BFF"/>
<path d="M1200.79 251.434C1200.36 251.436 1199.94 251.331 1199.56 251.128C1199.27 250.968 1199.01 250.751 1198.8 250.49C1198.59 250.229 1198.43 249.928 1198.33 249.606C1198.24 249.284 1198.21 248.946 1198.25 248.612C1198.28 248.278 1198.38 247.954 1198.54 247.66L1205.12 235.777C1205.46 235.181 1206.01 234.742 1206.66 234.556C1207.32 234.369 1208.02 234.451 1208.62 234.782C1209.21 235.113 1209.65 235.668 1209.84 236.323C1210.02 236.978 1209.94 237.68 1209.61 238.276L1203.03 250.261C1202.79 250.628 1202.45 250.928 1202.06 251.133C1201.67 251.338 1201.23 251.441 1200.79 251.434Z" fill="#407BFF"/>
<path d="M1113.37 379.755C1112.98 379.752 1112.59 379.658 1112.24 379.481C1111.88 379.304 1111.57 379.049 1111.33 378.735L1100.47 364.557C1100.24 364.295 1100.07 363.989 1099.96 363.657C1099.85 363.326 1099.82 362.976 1099.85 362.63C1099.88 362.283 1099.99 361.947 1100.16 361.643C1100.32 361.338 1100.55 361.071 1100.83 360.858C1101.1 360.646 1101.42 360.491 1101.76 360.406C1102.1 360.32 1102.45 360.304 1102.79 360.359C1103.13 360.414 1103.46 360.539 1103.76 360.726C1104.05 360.912 1104.3 361.157 1104.5 361.446L1115.41 375.624C1115.62 375.886 1115.78 376.188 1115.87 376.512C1115.96 376.835 1115.99 377.174 1115.94 377.507C1115.9 377.84 1115.79 378.161 1115.62 378.451C1115.45 378.741 1115.22 378.994 1114.95 379.194C1114.5 379.551 1113.95 379.748 1113.37 379.755Z" fill="#407BFF"/>
<path d="M1137.34 359.609C1136.77 359.602 1136.21 359.405 1135.76 359.048C1135.23 358.635 1134.88 358.027 1134.79 357.358C1134.71 356.689 1134.89 356.013 1135.3 355.478L1140.91 348.236C1141.33 347.71 1141.94 347.373 1142.61 347.296C1143.28 347.22 1143.95 347.411 1144.48 347.828C1144.75 348.028 1144.98 348.281 1145.15 348.571C1145.32 348.861 1145.43 349.182 1145.47 349.515C1145.51 349.849 1145.49 350.187 1145.4 350.511C1145.3 350.834 1145.15 351.136 1144.94 351.398L1139.33 358.589C1139.1 358.902 1138.8 359.157 1138.46 359.334C1138.11 359.511 1137.73 359.605 1137.34 359.609Z" fill="#407BFF"/>
<path d="M1237.41 359.609C1237 359.597 1236.59 359.49 1236.23 359.295C1235.87 359.1 1235.55 358.824 1235.32 358.487C1234.94 357.931 1234.8 357.25 1234.93 356.591C1235.05 355.933 1235.43 355.35 1235.98 354.968L1244.5 349.052C1245.06 348.67 1245.74 348.52 1246.41 348.634C1247.07 348.748 1247.67 349.118 1248.07 349.664C1248.26 349.941 1248.4 350.254 1248.47 350.584C1248.54 350.914 1248.54 351.255 1248.48 351.587C1248.42 351.92 1248.29 352.236 1248.11 352.519C1247.92 352.801 1247.68 353.045 1247.4 353.234L1238.89 359.15C1238.45 359.447 1237.94 359.607 1237.41 359.609Z" fill="#407BFF"/>
<path d="M1241.69 447.333C1241.27 447.329 1240.86 447.225 1240.49 447.03C1240.11 446.835 1239.79 446.554 1239.55 446.211C1239.36 445.932 1239.23 445.617 1239.17 445.287C1239.11 444.957 1239.11 444.617 1239.18 444.289C1239.26 443.96 1239.39 443.649 1239.59 443.375C1239.78 443.1 1240.03 442.868 1240.32 442.692L1254.8 433.103C1255.36 432.734 1256.05 432.602 1256.71 432.736C1257.37 432.87 1257.94 433.258 1258.32 433.817C1258.69 434.388 1258.82 435.081 1258.69 435.748C1258.56 436.416 1258.17 437.004 1257.6 437.388L1243.12 446.925C1242.7 447.206 1242.2 447.348 1241.69 447.333Z" fill="#407BFF"/>
<path d="M1110.72 445.394C1110.25 445.39 1109.8 445.26 1109.41 445.018C1109.01 444.775 1108.69 444.429 1108.47 444.017L1103.88 435.092C1103.68 434.794 1103.54 434.457 1103.48 434.103C1103.41 433.748 1103.43 433.384 1103.51 433.034C1103.6 432.685 1103.76 432.357 1103.98 432.074C1104.21 431.791 1104.49 431.558 1104.81 431.391C1105.13 431.224 1105.48 431.127 1105.84 431.106C1106.2 431.084 1106.56 431.139 1106.89 431.267C1107.23 431.395 1107.54 431.593 1107.79 431.848C1108.05 432.103 1108.24 432.409 1108.37 432.746L1113.01 441.671C1113.17 441.968 1113.27 442.293 1113.29 442.628C1113.32 442.962 1113.28 443.299 1113.18 443.618C1113.07 443.937 1112.91 444.231 1112.68 444.484C1112.46 444.737 1112.19 444.942 1111.89 445.088C1111.53 445.291 1111.13 445.397 1110.72 445.394Z" fill="#407BFF"/>
<path d="M1155.9 455.289C1155.56 455.291 1155.22 455.219 1154.9 455.078C1154.58 454.938 1154.3 454.731 1154.07 454.473L1143.87 443.916C1143.63 443.683 1143.44 443.405 1143.31 443.099C1143.18 442.792 1143.12 442.463 1143.12 442.131C1143.12 441.798 1143.18 441.469 1143.31 441.163C1143.44 440.856 1143.63 440.578 1143.87 440.346C1144.11 440.107 1144.39 439.917 1144.7 439.787C1145.01 439.658 1145.34 439.591 1145.68 439.591C1146.02 439.591 1146.35 439.658 1146.66 439.787C1146.97 439.917 1147.25 440.107 1147.49 440.346L1157.69 450.903C1157.93 451.14 1158.12 451.422 1158.25 451.733C1158.38 452.044 1158.44 452.377 1158.44 452.714C1158.44 453.05 1158.38 453.384 1158.25 453.694C1158.12 454.005 1157.93 454.287 1157.69 454.524C1157.21 454.996 1156.58 455.269 1155.9 455.289Z" fill="#407BFF"/>
<path d="M1193.44 426.881C1193.05 426.9 1192.67 426.812 1192.32 426.626C1192.02 426.49 1191.74 426.293 1191.52 426.047C1191.29 425.802 1191.12 425.512 1191.01 425.197C1190.9 424.881 1190.85 424.547 1190.88 424.214C1190.9 423.881 1190.99 423.557 1191.15 423.26L1198.03 409.031C1198.34 408.431 1198.87 407.973 1199.51 407.754C1200.14 407.535 1200.84 407.572 1201.45 407.858C1202.05 408.164 1202.51 408.692 1202.73 409.329C1202.95 409.967 1202.91 410.664 1202.62 411.275L1195.69 425.453C1195.49 425.882 1195.18 426.245 1194.78 426.499C1194.38 426.752 1193.92 426.885 1193.44 426.881Z" fill="#407BFF"/>
<path d="M1051.35 350.378H1050.64C1050.31 350.307 1050 350.17 1049.73 349.976C1049.46 349.782 1049.22 349.534 1049.05 349.249C1048.87 348.963 1048.75 348.645 1048.7 348.313C1048.65 347.982 1048.67 347.643 1048.75 347.318L1052.68 330.488C1052.76 330.153 1052.9 329.836 1053.1 329.557C1053.3 329.277 1053.55 329.039 1053.84 328.856C1054.13 328.674 1054.46 328.551 1054.8 328.494C1055.14 328.437 1055.48 328.447 1055.82 328.524C1056.15 328.601 1056.47 328.743 1056.75 328.943C1057.03 329.142 1057.27 329.394 1057.45 329.686C1057.63 329.977 1057.75 330.301 1057.81 330.64C1057.87 330.979 1057.86 331.326 1057.78 331.661L1053.8 348.491C1053.67 349.035 1053.35 349.516 1052.91 349.859C1052.46 350.201 1051.92 350.384 1051.35 350.378Z" fill="#407BFF"/>
<path d="M982.752 372.667C982.281 372.656 981.822 372.515 981.426 372.259L966.126 362.517C965.801 362.362 965.513 362.139 965.281 361.865C965.048 361.59 964.876 361.269 964.777 360.924C964.677 360.578 964.652 360.215 964.702 359.859C964.753 359.502 964.878 359.161 965.07 358.856C965.262 358.552 965.516 358.292 965.816 358.093C966.116 357.894 966.455 357.76 966.81 357.701C967.165 357.642 967.528 357.659 967.876 357.751C968.224 357.843 968.549 358.007 968.829 358.233L984.129 367.923C984.695 368.29 985.096 368.862 985.248 369.518C985.4 370.175 985.292 370.865 984.946 371.443C984.71 371.812 984.386 372.117 984.003 372.331C983.62 372.544 983.191 372.66 982.752 372.667Z" fill="#407BFF"/>
<path d="M988.721 470.438C988.231 470.446 987.751 470.303 987.344 470.03L973.676 461.462C973.385 461.29 973.133 461.06 972.934 460.788C972.734 460.515 972.592 460.205 972.516 459.876C972.44 459.548 972.431 459.207 972.49 458.874C972.549 458.542 972.675 458.225 972.86 457.943C973.226 457.375 973.802 456.976 974.461 456.833C975.121 456.689 975.811 456.813 976.379 457.178L990.047 465.746C990.506 466.042 990.858 466.477 991.05 466.987C991.243 467.498 991.267 468.057 991.119 468.582C990.97 469.107 990.657 469.571 990.226 469.905C989.794 470.239 989.267 470.426 988.721 470.438Z" fill="#407BFF"/>
<path d="M1026.97 463.857C1026.3 463.805 1025.68 463.494 1025.23 462.989C1024.78 462.485 1024.55 461.827 1024.58 461.154L1025.24 449.627C1025.27 448.951 1025.57 448.316 1026.08 447.862C1026.58 447.407 1027.24 447.171 1027.92 447.205C1028.59 447.239 1029.23 447.54 1029.68 448.042C1030.14 448.544 1030.37 449.206 1030.34 449.883L1029.68 461.46C1029.62 462.132 1029.31 462.757 1028.81 463.204C1028.3 463.652 1027.65 463.885 1026.97 463.857Z" fill="#407BFF"/>
<path d="M1075.12 506.699C1074.44 506.699 1073.79 506.43 1073.31 505.952C1072.84 505.474 1072.57 504.825 1072.57 504.149V492.622C1072.57 491.946 1072.84 491.297 1073.31 490.819C1073.79 490.341 1074.44 490.072 1075.12 490.072C1075.79 490.072 1076.44 490.341 1076.92 490.819C1077.4 491.297 1077.67 491.946 1077.67 492.622V504.149C1077.67 504.825 1077.4 505.474 1076.92 505.952C1076.44 506.43 1075.79 506.699 1075.12 506.699Z" fill="#407BFF"/>
<path d="M1057.63 558.823H1057.17L1043.3 556.221C1042.96 556.158 1042.64 556.029 1042.36 555.842C1042.07 555.655 1041.83 555.414 1041.63 555.132C1041.44 554.85 1041.31 554.533 1041.24 554.2C1041.17 553.866 1041.17 553.522 1041.23 553.187C1041.29 552.852 1041.42 552.533 1041.61 552.248C1041.8 551.963 1042.04 551.717 1042.32 551.526C1042.6 551.334 1042.92 551.199 1043.25 551.13C1043.59 551.061 1043.93 551.058 1044.26 551.121L1058.14 553.773C1058.47 553.828 1058.78 553.949 1059.06 554.129C1059.34 554.31 1059.58 554.546 1059.77 554.823C1059.96 555.1 1060.08 555.412 1060.15 555.741C1060.21 556.069 1060.2 556.406 1060.13 556.732C1060.03 557.321 1059.72 557.857 1059.26 558.24C1058.81 558.624 1058.23 558.831 1057.63 558.823Z" fill="#407BFF"/>
<path d="M1048.75 409.745H1048.29C1047.63 409.632 1047.04 409.264 1046.65 408.72C1046.26 408.176 1046.1 407.5 1046.2 406.838L1048.19 395.617C1048.24 395.285 1048.37 394.967 1048.54 394.682C1048.72 394.396 1048.96 394.149 1049.23 393.955C1049.51 393.761 1049.82 393.623 1050.15 393.549C1050.48 393.475 1050.82 393.468 1051.15 393.526C1051.81 393.651 1052.4 394.029 1052.79 394.581C1053.18 395.134 1053.34 395.816 1053.24 396.484L1051.25 407.705C1051.14 408.285 1050.83 408.809 1050.37 409.182C1049.92 409.555 1049.34 409.755 1048.75 409.745Z" fill="#407BFF"/>
<path d="M1210.02 526.181C1209.56 526.139 1209.11 525.962 1208.75 525.671C1208.47 525.487 1208.23 525.248 1208.05 524.97C1207.86 524.692 1207.73 524.38 1207.67 524.052C1207.61 523.724 1207.61 523.387 1207.69 523.06C1207.76 522.734 1207.89 522.425 1208.08 522.152L1216.65 509.606C1216.82 509.286 1217.05 509.005 1217.33 508.782C1217.62 508.559 1217.94 508.398 1218.29 508.311C1218.64 508.223 1219.01 508.211 1219.36 508.274C1219.72 508.338 1220.05 508.475 1220.35 508.679C1220.65 508.882 1220.9 509.146 1221.09 509.453C1221.28 509.76 1221.4 510.104 1221.44 510.462C1221.49 510.819 1221.46 511.182 1221.35 511.527C1221.25 511.872 1221.07 512.19 1220.83 512.462L1212.27 525.008C1212.03 525.382 1211.69 525.687 1211.3 525.893C1210.91 526.099 1210.47 526.198 1210.02 526.181Z" fill="#407BFF"/>
<path d="M1246.95 577.947C1246.36 577.94 1245.78 577.743 1245.31 577.386C1244.8 576.942 1244.48 576.314 1244.42 575.638C1244.37 574.961 1244.58 574.289 1245.01 573.765L1256.53 559.943C1256.74 559.681 1257 559.463 1257.29 559.303C1257.59 559.143 1257.91 559.043 1258.24 559.009C1258.58 558.976 1258.91 559.01 1259.23 559.109C1259.55 559.208 1259.85 559.371 1260.11 559.586C1260.37 559.799 1260.59 560.062 1260.75 560.36C1260.91 560.658 1261.01 560.985 1261.04 561.322C1261.08 561.659 1261.04 562 1260.94 562.323C1260.84 562.647 1260.68 562.948 1260.46 563.208L1248.94 577.029C1248.69 577.318 1248.39 577.549 1248.04 577.708C1247.7 577.866 1247.32 577.948 1246.95 577.947Z" fill="#407BFF"/>
<path d="M1198.54 612.375C1197.95 612.383 1197.37 612.185 1196.91 611.814C1196.4 611.37 1196.08 610.742 1196.02 610.066C1195.96 609.389 1196.17 608.717 1196.61 608.193L1208.13 594.371C1208.58 593.861 1209.2 593.54 1209.87 593.474C1210.55 593.407 1211.22 593.601 1211.75 594.014C1212.27 594.458 1212.59 595.086 1212.64 595.763C1212.7 596.439 1212.49 597.111 1212.06 597.635L1200.53 611.457C1200.29 611.748 1199.99 611.981 1199.64 612.14C1199.3 612.299 1198.92 612.379 1198.54 612.375Z" fill="#407BFF"/>
<path d="M1131.17 563.106C1130.67 563.108 1130.18 562.964 1129.77 562.692C1129.35 562.42 1129.02 562.032 1128.82 561.576L1123.26 548.724C1123.09 548.413 1122.97 548.069 1122.94 547.712C1122.9 547.356 1122.94 546.996 1123.05 546.655C1123.16 546.315 1123.34 546.001 1123.58 545.736C1123.82 545.47 1124.12 545.259 1124.45 545.115C1124.77 544.97 1125.13 544.897 1125.49 544.899C1125.85 544.901 1126.2 544.979 1126.53 545.127C1126.85 545.275 1127.14 545.49 1127.38 545.758C1127.62 546.026 1127.8 546.342 1127.91 546.684L1133.52 559.536C1133.65 559.844 1133.72 560.176 1133.73 560.512C1133.74 560.848 1133.68 561.182 1133.55 561.495C1133.43 561.808 1133.25 562.093 1133.01 562.335C1132.78 562.576 1132.5 562.769 1132.19 562.902C1131.87 563.038 1131.52 563.108 1131.17 563.106Z" fill="#407BFF"/>
<path d="M1145.35 704.942C1144.68 704.932 1144.04 704.657 1143.56 704.177L1137.34 697.904C1136.87 697.427 1136.61 696.786 1136.61 696.119C1136.61 695.451 1136.87 694.81 1137.34 694.334C1137.58 694.094 1137.86 693.905 1138.17 693.775C1138.48 693.646 1138.82 693.579 1139.15 693.579C1139.49 693.579 1139.82 693.646 1140.13 693.775C1140.44 693.905 1140.73 694.094 1140.96 694.334L1147.24 700.556C1147.71 701.041 1147.97 701.69 1147.97 702.366C1147.97 703.042 1147.71 703.692 1147.24 704.177C1146.99 704.425 1146.7 704.62 1146.37 704.752C1146.05 704.883 1145.7 704.948 1145.35 704.942Z" fill="#407BFF"/>
<path d="M1212.01 699.333C1211.62 699.328 1211.24 699.241 1210.89 699.078C1210.28 698.791 1209.81 698.276 1209.59 697.646C1209.36 697.017 1209.38 696.322 1209.66 695.712L1215.63 683.166C1215.77 682.861 1215.96 682.588 1216.21 682.36C1216.45 682.133 1216.74 681.957 1217.06 681.843C1217.37 681.729 1217.7 681.679 1218.04 681.696C1218.37 681.713 1218.7 681.797 1219 681.942C1219.3 682.084 1219.58 682.286 1219.81 682.535C1220.03 682.785 1220.21 683.077 1220.32 683.394C1220.44 683.712 1220.49 684.05 1220.47 684.387C1220.45 684.724 1220.37 685.055 1220.22 685.359L1214.3 697.854C1214.1 698.289 1213.77 698.658 1213.37 698.919C1212.96 699.18 1212.49 699.324 1212.01 699.333Z" fill="#407BFF"/>
<path d="M1142.44 767.572C1142.09 767.585 1141.73 767.518 1141.41 767.377C1141.08 767.236 1140.79 767.024 1140.56 766.756L1134.08 759.463C1133.86 759.214 1133.69 758.923 1133.58 758.607C1133.47 758.291 1133.43 757.957 1133.45 757.624C1133.48 757.291 1133.57 756.967 1133.72 756.669C1133.87 756.372 1134.08 756.108 1134.33 755.893C1134.56 755.649 1134.84 755.454 1135.15 755.322C1135.45 755.189 1135.78 755.12 1136.12 755.12C1136.45 755.12 1136.78 755.189 1137.09 755.322C1137.4 755.454 1137.67 755.649 1137.9 755.893L1144.33 763.135C1144.68 763.493 1144.91 763.947 1144.99 764.438C1145.08 764.928 1145.02 765.433 1144.81 765.888C1144.61 766.343 1144.28 766.727 1143.85 766.991C1143.43 767.255 1142.94 767.386 1142.44 767.368V767.572Z" fill="#407BFF"/>
<path d="M1229.15 777.162C1228.72 777.164 1228.3 777.059 1227.92 776.856C1227.33 776.523 1226.9 775.975 1226.71 775.328C1226.52 774.681 1226.59 773.985 1226.9 773.388L1234.25 760.28C1234.57 759.685 1235.12 759.243 1235.77 759.052C1236.42 758.86 1237.12 758.935 1237.71 759.26C1238.31 759.585 1238.75 760.132 1238.94 760.783C1239.13 761.433 1239.06 762.133 1238.73 762.728L1231.49 775.938C1231.25 776.341 1230.91 776.669 1230.49 776.886C1230.08 777.102 1229.61 777.198 1229.15 777.162Z" fill="#407BFF"/>
<path d="M1180.34 835.56C1179.94 835.556 1179.55 835.462 1179.2 835.285C1178.85 835.109 1178.54 834.854 1178.3 834.54L1171.72 825.972C1171.35 825.434 1171.21 824.778 1171.31 824.137C1171.41 823.496 1171.76 822.919 1172.27 822.522C1172.78 822.125 1173.43 821.939 1174.08 822.002C1174.72 822.065 1175.32 822.372 1175.75 822.86L1182.38 831.429C1182.77 831.974 1182.94 832.651 1182.84 833.316C1182.75 833.982 1182.4 834.585 1181.87 834.999C1181.44 835.355 1180.9 835.553 1180.34 835.56Z" fill="#407BFF"/>
<path d="M1248.27 855.96C1247.73 855.958 1247.19 855.799 1246.74 855.501C1246.2 855.095 1245.84 854.491 1245.75 853.821C1245.65 853.152 1245.82 852.472 1246.23 851.931L1254.44 840.71C1254.85 840.172 1255.45 839.813 1256.11 839.708C1256.78 839.604 1257.46 839.762 1258.01 840.149C1258.28 840.346 1258.51 840.595 1258.69 840.881C1258.86 841.168 1258.98 841.486 1259.03 841.818C1259.09 842.149 1259.07 842.488 1258.99 842.814C1258.91 843.141 1258.77 843.448 1258.57 843.719L1250.31 854.94C1250.07 855.253 1249.76 855.508 1249.41 855.685C1249.05 855.862 1248.66 855.956 1248.27 855.96Z" fill="#407BFF"/>
<path d="M1143.05 863.916C1142.4 863.912 1141.78 863.656 1141.32 863.202L1128.77 851.676C1128.5 851.456 1128.28 851.182 1128.12 850.872C1127.95 850.562 1127.86 850.222 1127.83 849.873C1127.81 849.524 1127.86 849.174 1127.97 848.844C1128.09 848.515 1128.27 848.213 1128.51 847.957C1128.75 847.701 1129.04 847.497 1129.36 847.357C1129.68 847.218 1130.03 847.145 1130.38 847.145C1130.72 847.145 1131.07 847.216 1131.39 847.355C1131.71 847.494 1132 847.697 1132.24 847.953L1144.79 859.479C1145.17 859.826 1145.44 860.282 1145.55 860.784C1145.67 861.287 1145.63 861.814 1145.45 862.294C1145.26 862.775 1144.93 863.188 1144.5 863.478C1144.07 863.767 1143.57 863.92 1143.05 863.916Z" fill="#407BFF"/>
<path d="M1184.06 891.304C1183.77 891.374 1183.48 891.374 1183.19 891.304C1182.88 891.191 1182.59 891.016 1182.34 890.789C1182.1 890.563 1181.9 890.289 1181.76 889.985C1181.62 889.68 1181.55 889.351 1181.54 889.017C1181.53 888.683 1181.59 888.351 1181.71 888.04L1185.38 877.84C1185.63 877.222 1186.1 876.724 1186.71 876.451C1187.31 876.177 1188 876.151 1188.62 876.377C1189.25 876.602 1189.76 877.063 1190.05 877.66C1190.34 878.257 1190.39 878.944 1190.18 879.574L1186.46 889.774C1186.26 890.243 1185.92 890.64 1185.5 890.913C1185.07 891.187 1184.57 891.323 1184.06 891.304Z" fill="#407BFF"/>
<path d="M1125.46 931.34C1124.93 931.319 1124.41 931.142 1123.98 930.83L1112.71 922.619C1112.44 922.421 1112.21 922.172 1112.03 921.886C1111.86 921.599 1111.74 921.281 1111.69 920.95C1111.64 920.618 1111.65 920.28 1111.73 919.953C1111.81 919.627 1111.95 919.32 1112.15 919.048C1112.34 918.777 1112.59 918.548 1112.88 918.373C1113.17 918.198 1113.48 918.081 1113.81 918.029C1114.15 917.976 1114.48 917.99 1114.81 918.069C1115.14 918.148 1115.45 918.29 1115.72 918.487L1126.99 926.699C1127.53 927.105 1127.88 927.704 1127.99 928.37C1128.09 929.036 1127.94 929.717 1127.55 930.269C1127.31 930.596 1126.99 930.863 1126.63 931.049C1126.27 931.234 1125.87 931.334 1125.46 931.34Z" fill="#407BFF"/>
<path d="M1228.18 907.114C1227.75 907.116 1227.33 907.011 1226.95 906.808C1226.36 906.466 1225.93 905.905 1225.75 905.247C1225.57 904.588 1225.65 903.885 1225.98 903.289L1234.45 888.498C1234.79 887.91 1235.35 887.48 1236 887.303C1236.66 887.126 1237.35 887.216 1237.94 887.555C1238.53 887.893 1238.96 888.451 1239.14 889.106C1239.32 889.761 1239.22 890.46 1238.89 891.048L1230.42 905.839C1230.19 906.232 1229.87 906.557 1229.47 906.781C1229.08 907.005 1228.63 907.12 1228.18 907.114Z" fill="#407BFF"/>
<path d="M816.438 584.278L308.138 581.823L306.086 1006.71L814.386 1009.17L816.438 584.278Z" fill="#407BFF"/>
<path opacity="0.3" d="M460.834 582.511L308.062 581.773L306.01 1006.67L458.782 1007.4L460.834 582.511Z" fill="white"/>
<path opacity="0.3" d="M513.82 612.279L411.337 612.134L411.297 640.7L513.78 640.845L513.82 612.279Z" fill="white"/>
<path opacity="0.3" d="M509.784 942.629L407.322 942.134L407.184 970.695L509.646 971.189L509.784 942.629Z" fill="white"/>
<rect x="526.682" y="726.574" width="223" height="223" rx="15.5" transform="rotate(0.223102 526.682 726.574)" fill="white" stroke="black" stroke-width="7"/>
<path d="M571.259 771.498L593.509 771.584L593.422 793.834L571.172 793.747L571.259 771.498Z" fill="black"/>
<path d="M615.845 749.421L615.585 816.171L548.836 815.911L549.096 749.161L615.845 749.421ZM604.677 760.503L560.177 760.329L560.004 804.829L604.504 805.002L604.677 760.503ZM593.076 882.833L570.826 882.747L570.739 904.997L592.989 905.083L593.076 882.833Z" fill="black"/>
<path d="M615.412 860.67L615.152 927.42L548.402 927.16L548.662 860.41L615.412 860.67ZM559.744 871.579L559.571 916.078L604.07 916.252L604.243 871.752L559.744 871.579ZM682.508 771.931L704.758 772.018L704.671 794.267L682.421 794.181L682.508 771.931Z" fill="black"/>
<path d="M660.345 749.594L660.085 816.344L726.834 816.604L727.094 749.854L660.345 749.594ZM715.926 760.936L715.753 805.436L671.253 805.262L671.426 760.763L715.926 760.936ZM638.052 760.633L638.095 749.508L649.22 749.551L649.133 771.801L638.008 771.758L637.922 794.007L626.797 793.964L626.927 760.589L638.052 760.633ZM637.835 816.257L637.922 794.007L649.047 794.051L648.96 816.301L637.835 816.257ZM615.499 838.42L615.542 827.295L626.667 827.339L626.71 816.214L637.835 816.257L637.748 838.507L648.873 838.55L648.917 827.425L704.541 827.642L704.498 838.767L659.998 838.594L659.955 849.719L626.58 849.589L626.624 838.464L615.499 838.42ZM615.499 838.42L615.455 849.545L570.956 849.372L570.999 838.247L559.874 838.204L559.831 849.329L548.706 849.285L548.792 827.036L582.167 827.166L582.124 838.29L615.499 838.42ZM726.704 849.978L715.58 849.935L715.666 827.685L726.791 827.729L726.704 849.978ZM715.58 849.935L704.455 849.892L704.368 872.142L726.618 872.228L726.661 861.103L715.536 861.06L715.58 849.935ZM671.08 849.762L693.33 849.849L693.286 860.973L682.162 860.93L682.118 872.055L670.993 872.012L671.08 849.762ZM693.2 883.223L693.243 872.098L682.118 872.055L682.075 883.18L670.95 883.137L670.907 894.262L648.657 894.175L648.613 905.3L681.988 905.43L682.075 883.18L693.2 883.223ZM693.2 883.223L726.575 883.353L726.531 894.478L704.281 894.392L704.238 905.516L693.113 905.473L693.2 883.223ZM648.743 871.925L648.7 883.05L659.825 883.093L659.912 860.843L626.537 860.714L626.494 871.838L648.743 871.925Z" fill="black"/>
<path d="M626.45 882.963L637.575 883.007L637.445 916.381L681.945 916.555L681.901 927.68L626.277 927.463L626.45 882.963ZM726.488 905.603L726.401 927.853L693.026 927.723L693.07 916.598L715.32 916.685L715.363 905.56L726.488 905.603Z" fill="black"/>
<path d="M569.912 655.852C570.719 639.291 584.415 626.298 600.996 626.362L714.151 626.803C731.817 626.871 745.854 641.667 744.994 659.312V659.312C744.186 675.873 730.49 688.867 713.91 688.802L600.754 688.362C583.088 688.293 569.051 673.497 569.912 655.852V655.852Z" fill="white"/>
<path d="M597.829 703.59C595.825 704.794 593.275 703.344 593.284 701.006L593.341 686.333L626.341 686.461L597.829 703.59Z" fill="white"/>
</svg>
