<svg width="42" height="50" viewBox="0 0 42 50" fill="none" xmlns="http://www.w3.org/2000/svg">
<path d="M41 21C41 29.1334 36.5675 36.1469 31.7173 41.1812C29.3012 43.6891 26.8104 45.6746 24.7812 47.0273C23.7659 47.7042 22.8782 48.2146 22.1838 48.5514C21.8359 48.7201 21.5493 48.8389 21.3282 48.9136C21.0871 48.9949 20.9917 49 21 49C21.0011 49 21.0004 48.9999 20.998 48.9996C20.9814 48.9974 20.882 48.9844 20.6718 48.9136C20.4507 48.8389 20.1641 48.7201 19.8162 48.5514C19.1218 48.2146 18.2341 47.7042 17.2188 47.0273C15.1896 45.6746 12.6988 43.6891 10.2827 41.1812C5.43251 36.1469 1 29.1334 1 21C1 9.95431 9.95431 1 21 1C32.0457 1 41 9.95431 41 21Z" fill="white" stroke="black" stroke-width="2"/>
<path d="M12.3662 33V29.5548H15.0986V15.6552H12.3662V12.21H23.0582C24.3254 12.21 25.4243 12.4278 26.3549 12.8634C27.3053 13.2792 28.0379 13.8831 28.5527 14.6751C29.0873 15.4473 29.3546 16.3779 29.3546 17.4669V17.7639C29.3546 18.7143 29.1764 19.4964 28.82 20.1102C28.4636 20.7042 28.0379 21.1695 27.5429 21.5061C27.0677 21.8229 26.6123 22.0506 26.1767 22.1892V22.7238C26.6123 22.8426 27.0875 23.0703 27.6023 23.4069C28.1171 23.7237 28.5527 24.189 28.9091 24.8028C29.2853 25.4166 29.4734 26.2185 29.4734 27.2085V27.5055C29.4734 28.6539 29.2061 29.6439 28.6715 30.4755C28.1369 31.2873 27.3944 31.911 26.444 32.3466C25.5134 32.7822 24.4244 33 23.177 33H12.3662ZM19.019 29.436H22.7018C23.5532 29.436 24.2363 29.2281 24.7511 28.8123C25.2857 28.3965 25.553 27.8025 25.553 27.0303V26.7333C25.553 25.9611 25.2956 25.3671 24.7808 24.9513C24.266 24.5355 23.573 24.3276 22.7018 24.3276H19.019V29.436ZM19.019 20.7636H22.6424C23.4542 20.7636 24.1175 20.5557 24.6323 20.1399C25.1669 19.7241 25.4342 19.1499 25.4342 18.4173V18.1203C25.4342 17.3679 25.1768 16.7937 24.662 16.3977C24.1472 15.9819 23.474 15.774 22.6424 15.774H19.019V20.7636Z" fill="black"/>
</svg>
