<svg width="42" height="50" viewBox="0 0 42 50" fill="none" xmlns="http://www.w3.org/2000/svg">
<path d="M41 21C41 29.1334 36.5675 36.1469 31.7173 41.1812C29.3012 43.6891 26.8104 45.6746 24.7812 47.0273C23.7659 47.7042 22.8782 48.2146 22.1838 48.5514C21.8359 48.7201 21.5493 48.8389 21.3282 48.9136C21.0871 48.9949 20.9917 49 21 49C21.0011 49 21.0004 48.9999 20.998 48.9996C20.9814 48.9974 20.882 48.9844 20.6718 48.9136C20.4507 48.8389 20.1641 48.7201 19.8162 48.5514C19.1218 48.2146 18.2341 47.7042 17.2188 47.0273C15.1896 45.6746 12.6988 43.6891 10.2827 41.1812C5.43251 36.1469 1 29.1334 1 21C1 9.95431 9.95431 1 21 1C32.0457 1 41 9.95431 41 21Z" fill="#25E9A1" stroke="black" stroke-width="2"/>
<path d="M22.64 12C24.56 12 25.99 12.45 26.93 13.35C27.87 14.25 28.34 15.58 28.34 17.34C28.34 18.28 28.11 19.11 27.65 19.83C27.19 20.53 26.51 21.08 25.61 21.48C24.71 21.86 23.6 22.05 22.28 22.05L22.4 20.7C23.02 20.7 23.73 20.79 24.53 20.97C25.33 21.13 26.1 21.43 26.84 21.87C27.6 22.29 28.22 22.89 28.7 23.67C29.2 24.43 29.45 25.41 29.45 26.61C29.45 27.93 29.23 29.01 28.79 29.85C28.37 30.69 27.81 31.34 27.11 31.8C26.41 32.26 25.66 32.58 24.86 32.76C24.06 32.92 23.29 33 22.55 33H15.08C14.56 33 14.12 32.83 13.76 32.49C13.42 32.13 13.25 31.69 13.25 31.17V13.83C13.25 13.31 13.42 12.88 13.76 12.54C14.12 12.18 14.56 12 15.08 12H22.64ZM22.1 15.54H16.76L17.15 15.06V20.49L16.79 20.22H22.19C22.77 20.22 23.29 20.03 23.75 19.65C24.21 19.27 24.44 18.72 24.44 18C24.44 17.14 24.22 16.52 23.78 16.14C23.36 15.74 22.8 15.54 22.1 15.54ZM22.34 23.76H16.88L17.15 23.52V29.85L16.85 29.55H22.55C23.47 29.55 24.2 29.31 24.74 28.83C25.28 28.33 25.55 27.59 25.55 26.61C25.55 25.71 25.37 25.06 25.01 24.66C24.65 24.26 24.22 24.01 23.72 23.91C23.22 23.81 22.76 23.76 22.34 23.76Z" fill="black"/>
</svg>
