<svg width="314" height="416" viewBox="0 0 314 416" fill="none" xmlns="http://www.w3.org/2000/svg">
<path d="M0 71.7743H86.76C86.76 71.7743 82.09 60.9143 66.49 64.2943C66.49 64.2943 63.21 51.9443 51.31 53.6543C51.31 53.6543 41.46 42.9743 27.09 47.1143C12.72 51.2543 13.96 64.2943 13.96 64.2943C13.96 64.2943 3.33 61.5143 0 71.7743Z" fill="#FAFAFA"/>
<path d="M249.75 25.6144H163C163 25.6144 167.66 14.7444 183.26 18.1244C183.26 18.1244 186.54 5.77435 198.45 7.48435C198.45 7.48435 208.3 -3.18564 222.66 0.954355C237.02 5.09436 235.8 18.1244 235.8 18.1244C235.8 18.1244 246.47 15.3544 249.75 25.6144Z" fill="#FAFAFA"/>
<path d="M247 78.9371H313.37C313.37 78.9371 310.83 69.8271 301.23 72.8271C301.23 72.8271 303.23 60.5671 296.15 59.1471C289.07 57.7271 286.82 67.0571 286.82 67.0571C285.2 65.2209 283.099 63.8736 280.755 63.1669C278.41 62.4602 275.915 62.4222 273.55 63.0571C271.224 63.6626 269.105 64.8841 267.416 66.593C265.726 68.3019 264.529 70.4348 263.95 72.7671C263.95 72.7671 252.13 65.9971 247 78.9371Z" fill="#FAFAFA"/>
<path d="M115.647 415.314C178.352 415.314 226 410.246 226 403.994C226 397.742 178.352 392.674 115.647 392.674C52.9426 392.674 2.11035 397.742 2.11035 403.994C2.11035 410.246 52.9426 415.314 115.647 415.314Z" fill="black" fill-opacity="0.1"/>
<path d="M281.239 161.413L141.877 163.724L143.258 247.022L282.62 244.711L281.239 161.413Z" fill="#407BFF"/>
<path opacity="0.3" d="M211.524 162.559L141.764 163.715L143.145 247.014L212.905 245.857L211.524 162.559Z" fill="white"/>
<path opacity="0.3" d="M222.036 168.171L201.946 168.573L202.058 174.173L222.148 173.771L222.036 168.171Z" fill="white"/>
<path opacity="0.3" d="M222.632 232.946L202.545 233.279L202.638 238.878L222.725 238.545L222.632 232.946Z" fill="white"/>
<path d="M106.385 348.089C108.125 349.419 143.055 345.659 134.025 283.689C134.025 283.689 150.595 287.899 152.375 287.619C152.375 287.619 176.685 324.889 158.985 343.349C141.285 361.809 114.905 362.939 114.905 362.939L106.385 348.089Z" fill="#407BFF"/>
<path opacity="0.3" d="M106.385 348.089C108.125 349.419 143.055 345.659 134.025 283.689C134.025 283.689 150.595 287.899 152.375 287.619C152.375 287.619 176.685 324.889 158.985 343.349C141.285 361.809 114.905 362.939 114.905 362.939L106.385 348.089Z" fill="black"/>
<path d="M145.095 293.279C145.185 293.279 135.335 293.469 132.035 289.369C128.735 285.269 126.505 277.939 132.505 272.939C138.505 267.939 170.74 250.874 187.33 249.174C203.92 247.474 224.675 253.639 224.675 253.639L202.955 269.699L156.185 281.019L145.095 293.279Z" fill="#263238"/>
<path d="M113.245 338.329L114.155 347.289L124.915 346.379L123.295 337.169L113.245 338.329Z" fill="#FFC3BD"/>
<path d="M111.154 346.639L126.764 346.419L127.874 354.299C127.874 354.299 113.254 354.499 107.244 353.699C101.234 352.899 102.174 349.769 102.174 349.769C102.174 349.769 109.214 349.939 111.154 346.639Z" fill="#263238"/>
<path d="M187.745 238.229C187.745 238.229 189.365 275.399 167.745 276.459C146.125 277.519 122.895 275.149 122.895 275.149L129.705 341.939L109.435 343.189C109.435 343.189 94.8846 286.529 92.5946 272.289C90.3046 258.049 92.2946 247.979 107.325 241.659C122.355 235.339 187.745 238.229 187.745 238.229Z" fill="#407BFF"/>
<path d="M221.383 367.319C223.713 344.413 209.053 324.16 188.637 322.082C168.221 320.005 149.782 336.89 147.451 359.797C145.12 382.703 159.781 402.956 180.196 405.034C200.612 407.111 219.052 390.226 221.383 367.319Z" fill="#263238"/>
<path opacity="0.3" d="M222.187 366.893C224.518 343.986 210.954 323.844 191.892 321.905C172.829 319.965 155.487 336.962 153.156 359.868C150.825 382.775 164.389 402.917 183.451 404.856C202.514 406.796 219.857 389.799 222.187 366.893Z" fill="black"/>
<path opacity="0.2" d="M206.305 363.939C205.935 376.519 197.695 386.489 187.895 386.199C186.576 386.165 185.269 385.94 184.015 385.529C176.145 383.029 170.485 373.769 170.805 362.909C171.105 352.419 176.895 343.729 184.505 341.319C186.026 340.83 187.618 340.604 189.215 340.649C199.025 340.939 206.665 351.379 206.305 363.939Z" fill="#FAFAFA"/>
<path d="M197.275 363.939C196.955 374.669 191.275 383.499 184.015 385.549C176.145 383.049 170.485 373.789 170.805 362.929C171.105 352.439 176.895 343.749 184.505 341.339C192.075 343.389 197.595 352.809 197.275 363.939Z" fill="#263238"/>
<path d="M66.7545 356.159L93.6845 277.939L129.684 238.199C129.684 238.199 98.2645 238.319 83.1645 246.999C68.0645 255.679 67.5045 266.109 64.7345 278.519C61.9645 290.929 50.8545 349.669 50.8545 349.669L66.7545 356.159Z" fill="#407BFF"/>
<path opacity="0.7" d="M187.744 238.23C187.744 238.23 154.284 236.74 129.744 238.23C129.744 238.23 98.3245 238.35 83.2245 247.03C68.1245 255.71 67.5045 266.11 64.7345 278.52C61.9645 290.93 50.8545 349.67 50.8545 349.67L66.7545 356.16L93.6845 277.94C98.2145 299.62 109.434 343.15 109.434 343.15L129.704 341.94L122.884 275.19C122.884 275.19 146.104 277.56 167.734 276.5C189.364 275.44 187.744 238.23 187.744 238.23Z" fill="black"/>
<path d="M132.505 177.939L120.075 179.449C120.075 179.449 117.915 202.299 115.905 206.739C115.905 206.739 58.6746 212.989 43.0146 212.539L48.0647 215.939L53.7847 216.329L61.5747 226.559L64.0847 220.609C64.0847 220.609 69.3447 220.379 70.5647 217.419C70.5647 217.419 111.185 227.229 126.145 216.029C126.165 216.039 135.185 202.789 132.505 177.939Z" fill="#FFC3BD"/>
<path d="M168.125 116.75C168.125 116.75 172.015 121.75 170.535 126.08C170.126 127.314 169.406 128.423 168.445 129.299C167.483 130.175 166.312 130.788 165.045 131.08C165.045 131.08 164.315 138.01 160.225 138.21C156.135 138.41 157.505 122.94 157.505 122.94L168.125 116.75Z" fill="#263238"/>
<path d="M136.635 238.4L133.905 193.73L116.965 182.47C116.965 182.47 122.505 162.94 133.105 159.63C143.705 156.32 166.825 148.73 180.845 152.5C194.865 156.27 193.255 172.81 190.845 185.08L188.145 185.72C188.145 185.72 187.725 234.07 187.705 238.23L136.635 238.4Z" fill="#263238"/>
<path d="M167.115 155.259C161.565 160.629 150.245 163.829 147.115 161.159C143.985 158.489 147.935 156.039 150.875 153.019C152.465 151.359 152.415 148.249 152.045 145.769C151.85 144.52 151.562 143.286 151.185 142.079C140.795 141.509 136.485 136.649 136.055 128.079C135.625 119.509 139.505 109.559 139.505 109.559L146.845 103.299C146.845 103.299 156.845 104.799 164.845 110.299C169.605 113.539 168.195 119.919 166.225 124.629C165.39 126.634 164.387 128.564 163.225 130.399C162.105 142.129 167.115 155.259 167.115 155.259Z" fill="#FFC3BD"/>
<path d="M141.835 130.439C141.835 130.439 145.835 130.629 147.585 128.149" stroke="#263238" stroke-linecap="round" stroke-linejoin="round"/>
<path d="M148.205 120.32C148.205 121.08 147.745 121.68 147.205 121.67C146.665 121.66 146.275 121.03 146.295 120.27C146.315 119.51 146.755 118.91 147.295 118.92C147.835 118.93 148.235 119.56 148.205 120.32Z" fill="#263238"/>
<path d="M139.085 120.559C139.085 121.319 138.625 121.919 138.085 121.909C137.545 121.899 137.155 121.269 137.175 120.509C137.195 119.749 137.635 119.149 138.175 119.159C138.715 119.169 139.115 119.809 139.085 120.559Z" fill="#263238"/>
<path d="M142.255 126.77L141.845 120.64L138.915 126.46C139.372 126.848 139.938 127.087 140.536 127.142C141.134 127.198 141.734 127.068 142.255 126.77Z" fill="#ED847E"/>
<path d="M147.725 115.519C148.492 115.309 149.309 115.377 150.03 115.712C150.752 116.047 151.331 116.627 151.665 117.349" stroke="#263238" stroke-linecap="round" stroke-linejoin="round"/>
<path d="M136.265 116.649C136.265 116.649 138.105 114.649 140.265 115.159" stroke="#263238" stroke-linecap="round" stroke-linejoin="round"/>
<path d="M166.295 124.63C154.855 125.04 153.435 112.07 153.435 112.07C147.775 115.07 139.545 109.57 139.545 109.57L146.885 103.29C146.885 103.29 156.885 104.81 164.885 110.29C169.675 113.54 168.265 119.94 166.295 124.63Z" fill="#263238"/>
<path d="M135.865 113.369C135.865 113.369 129.945 109.429 132.555 106.589C135.165 103.749 151.155 109.149 163.105 115.769C163.105 115.769 135.735 97.4594 128.295 103.249C122.145 108.039 135.785 114.689 135.375 114.679L135.865 113.369Z" fill="#407BFF"/>
<path d="M169.255 112.029C169.238 114.103 168.845 116.156 168.095 118.089L141.215 105.089C142.329 103.804 143.663 102.727 145.155 101.909C146.746 100.999 148.475 100.358 150.275 100.009C152.183 99.6446 154.136 99.5772 156.065 99.8094C165.895 100.939 169.305 108.499 169.255 112.029Z" fill="#407BFF"/>
<path d="M111.369 231.599C109.619 233.429 92.9895 228.739 89.0395 230.839C87.3695 231.719 86.6395 234.839 84.9595 238.259C82.6695 242.909 78.5994 248.009 67.9595 248.349C49.4796 248.939 52.7095 230.189 51.2495 224.099C51.2495 224.099 40.7495 222.909 39.8295 219.839C38.9095 216.769 40.0395 216.309 40.0395 216.309C40.0395 216.309 51.8301 220.674 57.8095 212.849C58.6193 212.058 59.5686 211.424 60.6095 210.979C63.0088 209.925 65.5896 209.344 68.2095 209.269C75.8195 208.869 85.0995 211.009 87.6995 215.829C92.9795 225.659 109.62 223.449 111.699 226.029C113.779 228.609 113.119 229.769 111.369 231.599Z" fill="#407BFF"/>
<path d="M50.215 244.41C50.215 244.41 19.855 286.41 44.855 351.06" stroke="#263238" stroke-linecap="round" stroke-linejoin="round"/>
<path d="M90.2845 266.229C90.2845 266.229 90.2845 266.309 90.2845 266.469C90.2845 266.629 90.2845 266.719 90.2845 266.899V266.999C89.9234 271.044 89.2548 275.056 88.2845 278.999C86.9045 284.829 85.0745 290.379 83.5645 294.839C77.1645 313.789 77.9045 334.209 77.9045 334.209C75.7845 331.569 71.9045 329.689 67.0545 328.369C49.3945 323.519 19.4145 326.119 19.4145 326.119C13.5345 305.489 21.9196 274.174 34.4845 255.119C45.3294 238.674 56.5545 243.119 56.5545 243.119C56.5545 243.119 65.6801 242.404 67.8301 242.174C71.3357 242.174 82.9177 243.538 86.8301 244.174C100.05 246.594 91.0545 254.499 90.2845 266.229Z" fill="#407BFF"/>
<path d="M222.095 344.939C192.095 372.019 161.5 380 126 380C90.5 380 67.9548 328.429 67.9548 328.429L57.1748 310.839L88.5948 268.489L90.2548 266.259C90.2548 266.259 90.2548 266.339 90.2548 266.499C90.2548 266.659 90.2548 266.749 90.2548 266.929V267.029C89.8248 274.579 87.0448 335.169 109.255 350.029L109.435 350.159C112.44 352.101 115.927 353.168 119.505 353.239C160.255 354.419 159.115 301.239 148.755 289.849L219.465 275.639C219.465 275.639 210.83 298.174 222.095 344.939Z" fill="#407BFF"/>
<path d="M143.445 278.319C143.445 278.319 136.815 283.819 140.235 291.199C143.655 298.579 176.625 284.249 189.605 281.639C202.585 279.029 217.605 276.479 224.065 275.149C230.525 273.819 229.965 255.289 224.685 253.649C219.405 252.009 167.685 261.149 159.105 266.169C153.439 269.61 148.185 273.686 143.445 278.319Z" fill="#263238"/>
<path d="M160.045 129.21C159.414 128.53 159.032 127.657 158.961 126.733C158.89 125.808 159.135 124.887 159.655 124.12C161.255 121.72 164.485 117.91 167.585 120.76C171.925 124.76 164.515 132.03 161.445 130.27C160.931 129.984 160.459 129.627 160.045 129.21Z" fill="#FFC3BD"/>
<path d="M33.0005 344C46.6005 369.6 86 380 126 380L71.5002 325.5C62.5002 322.667 19.4005 318.4 33.0005 344Z" fill="#407BFF"/>
<path opacity="0.2" d="M135.865 113.369C135.865 113.369 129.945 109.429 132.555 106.589C133.715 105.329 137.185 105.589 141.875 106.929C144.891 107.741 147.845 108.767 150.715 109.999C154.835 111.789 159.215 114.079 163.105 115.769C163.105 115.769 135.735 97.4594 128.295 103.249C122.145 108.039 134.935 114.249 135.385 114.669L135.605 113.859L135.865 113.369Z" fill="black"/>
<path d="M138.675 111.66C138.675 111.66 132.675 112.66 136.815 119.12L138.675 111.66Z" fill="#263238"/>
<path d="M144.425 107.719C144.425 107.719 135.375 104.539 132.855 106.339C130.335 108.139 132.975 111.569 135.855 113.339L138.165 113.639L139.525 109.539L143.045 109.109L144.425 107.719Z" fill="#263238"/>
<path opacity="0.3" d="M156.755 102.83L154.585 106.04L145.155 101.94C146.746 101.03 148.476 100.388 150.275 100.04L156.755 102.83Z" fill="white"/>
<path opacity="0.1" d="M154.655 141.199C154.03 142.859 153.135 144.403 152.005 145.769C151.81 144.52 151.522 143.286 151.145 142.079C152.357 141.994 153.545 141.697 154.655 141.199Z" fill="black"/>
<path d="M67.8329 229.139C67.4329 236.069 64.4329 241.739 60.7529 243.139C60.1161 243.385 59.4341 243.49 58.7529 243.449C54.2129 243.189 50.9129 236.379 51.3729 228.249C51.8329 220.119 55.8929 213.739 60.4329 213.999C62.2829 214.099 63.9129 215.289 65.1829 217.199C67.0529 219.939 68.1029 224.319 67.8329 229.139Z" fill="#F5F5F5"/>
<path d="M67.833 229.139C67.433 236.069 64.433 241.739 60.753 243.139C56.553 242.899 53.503 236.609 53.933 229.139C54.363 221.669 58.103 215.739 62.303 215.979C63.3852 216.06 64.4094 216.5 65.213 217.229C67.053 219.939 68.103 224.319 67.833 229.139Z" fill="white"/>
<path d="M76.4377 367.986C78.7685 345.08 64.9393 324.911 45.5493 322.938C26.1593 320.965 8.55107 337.935 6.22028 360.842C3.88948 383.748 17.7187 403.917 37.1087 405.89C56.4987 407.863 74.1069 390.893 76.4377 367.986Z" fill="#263238"/>
<path opacity="0.3" d="M76.7441 368.047C74.8216 387.743 61.9698 403.031 46.5227 405.614C44.0153 406.035 41.4653 406.112 38.9385 405.843H38.7463C35.2268 405.449 31.8064 404.391 28.6533 402.721C15.6669 395.89 7.44836 379.296 9.24587 360.947C11.4856 338.12 28.3745 321.216 47.0033 323.151H47.0514C50.8338 323.547 54.5045 324.709 57.8557 326.571C59.95 327.739 61.9133 329.144 63.7097 330.76C72.9087 339.057 78.2628 352.979 76.7441 368.047Z" fill="black"/>
<path d="M75 341.551C74.5201 340.632 73.9721 339.767 73.3626 338.967C69.7031 332.973 61.3362 330.732 55.8592 331.263C51.6606 331.755 47.6294 333.49 44.1275 336.314C40.1323 339.419 37.2751 344.175 33.3127 347.437C25.7972 353.667 14.393 353.49 6.84471 347.074C6.41905 346.71 6.01425 346.313 5.63306 345.885C4.8638 344.923 4.35073 343.709 4.15943 342.396C3.87064 340.757 3.97569 339.053 4.46235 337.483C6.09971 331.96 11.5603 327.106 15.007 324.148C21.9947 318.231 30.2137 314.758 38.7488 314.115C63.0882 312.101 73.4691 337.051 75 341.551Z" fill="#407BFF"/>
<g opacity="0.3">
<path d="M18.125 321.179C22.4612 318.098 27.3399 315.862 32.505 314.589C37.6752 313.273 43.0295 312.834 48.345 313.289C53.6519 313.8 58.8491 315.122 63.755 317.209L65.575 318.009L67.355 318.899C68.555 319.459 69.685 320.159 70.845 320.799C72.005 321.439 73.075 322.229 74.185 322.939C75.295 323.649 76.335 324.479 77.395 325.269C73.0338 322.347 68.3784 319.891 63.505 317.939C58.6411 315.988 53.5159 314.765 48.295 314.309C43.0849 313.811 37.8286 314.149 32.725 315.309C30.1628 315.877 27.6511 316.653 25.215 317.629C22.7427 318.581 20.3682 319.77 18.125 321.179Z" fill="black"/>
</g>
<g opacity="0.3">
<path d="M44.5683 311.641C44.3061 307.296 44.5595 302.936 45.3231 298.651C45.99 294.36 46.9146 290.108 47.9882 285.923C49.0618 281.737 50.3489 277.561 51.7243 273.446L53.9094 267.323C54.7116 265.303 55.4749 263.274 56.3528 261.282L52.4999 273.731L50.6704 279.958C50.119 282.047 49.4995 284.12 48.9968 286.221C47.8453 290.388 46.9373 294.612 46.098 298.894C45.6732 301.013 45.348 303.145 45.0715 305.288C44.7588 307.392 44.5907 309.515 44.5683 311.641Z" fill="black"/>
</g>
<path opacity="0.3" d="M109.205 349.939C88.3249 336.509 85.29 308.86 86 286C86.13 282.07 86.6666 271 88 265.229C89.5549 258.5 92.0492 252.247 91.8301 249.174C91.5046 244.609 82.5049 243.609 82.5049 243.609L88.5549 244.609C99 247 91.0249 254.499 90.2549 266.229C90.2549 266.229 90.2549 266.309 90.2549 266.469C90.2549 266.629 90.2549 266.719 90.2549 266.899V266.999C89.8049 274.549 87.0249 335.139 109.205 349.939Z" fill="black"/>
<path opacity="0.2" d="M111.11 231.599C109.36 233.429 92.7301 228.739 88.7801 230.839C87.1101 231.719 86.3801 235.839 84.7001 239.259C79.9801 246.759 74.3401 246.939 73.9301 246.999C81.8501 240.999 83.0601 226.559 79.1301 217.429C75.2001 208.299 61.1301 210.669 60.3301 210.939C62.7294 209.885 65.3102 209.304 67.9301 209.229C75.5401 208.829 84.8201 210.969 87.4201 215.789C92.7001 225.619 109.34 223.409 111.42 225.989C113.5 228.569 112.86 229.769 111.11 231.599Z" fill="black"/>
<path d="M96.4031 221.674C94.7005 224.342 94.0212 227.394 94.4599 230.405L112.186 232.674C113.399 231.483 114.295 230.083 114.814 228.571C115.333 227.059 115.463 225.47 115.193 223.912C115.193 223.912 97.6902 221.905 96.4031 221.674Z" fill="#263238"/>
<path d="M50.8848 224.674C50.8848 224.674 48.6468 219.668 51.3301 216.499C45.3308 215.932 41.6164 215.266 37.7497 214.674C37.1755 216.512 36.8943 218.275 38.9214 221.074C40.9485 223.873 50.8848 224.674 50.8848 224.674Z" fill="#263238"/>
<path d="M43.6702 239.674C41.2549 240.235 39.0343 241.433 37.2402 243.144" stroke="#407BFF" stroke-linecap="round" stroke-linejoin="round"/>
<path d="M183.985 186.52L168.365 188.06C168.365 188.06 166.165 211.25 164.125 215.76C164.125 215.76 120.315 221.1 104.405 220.63L96.335 229.11L100.055 236.65L109.965 238.88L106.515 232.88C106.515 232.88 111.855 229.65 113.085 226.64C113.085 226.64 159.325 236.64 174.515 225.24C174.505 225.2 181.985 210.174 183.985 186.52Z" fill="#FFC3BD"/>
<path opacity="0.2" d="M65.7758 364.939C65.4158 377.519 57.1758 387.479 47.3658 387.199C46.0474 387.16 44.7411 386.934 43.4858 386.529C35.6258 384.029 29.9658 374.759 30.2758 363.909C30.5858 353.409 36.3758 344.729 43.9858 342.319C45.5064 341.83 47.0992 341.604 48.6958 341.649C58.5058 341.939 66.1458 352.399 65.7758 364.939Z" fill="#FAFAFA"/>
<path d="M56.7458 364.94C56.4358 375.68 50.7458 384.51 43.4858 386.56C35.6258 384.06 29.9658 374.79 30.2758 363.94C30.5858 353.44 36.3758 344.76 43.9858 342.35C51.5458 344.4 57.0558 353.82 56.7458 364.94Z" fill="#263238"/>
<path d="M233.765 347.799C233.935 360.169 229.105 371.359 197.595 376.519C189.101 378.013 180.421 378.114 171.895 376.819C157.895 374.509 151.055 368.589 151.055 368.589C151.055 368.589 149.33 312.674 189.845 302.419C208.83 297.614 219.83 306.174 227.065 318.849C233.765 331.674 233.715 343.839 233.765 347.799Z" fill="#407BFF"/>
<g opacity="0.3">
<path d="M153.095 350.78C153.743 344.96 155.131 339.248 157.225 333.78C159.284 328.255 162.126 323.055 165.665 318.34C167.453 315.996 169.462 313.829 171.665 311.87C173.847 309.878 176.253 308.147 178.835 306.71C183.971 303.813 189.663 302.037 195.535 301.5C192.657 301.982 189.827 302.711 187.075 303.68C185.685 304.1 184.375 304.749 183.075 305.299C181.77 305.924 180.499 306.615 179.265 307.37C178.005 308.09 176.845 308.96 175.655 309.77C174.465 310.58 173.365 311.539 172.315 312.549C170.179 314.49 168.234 316.63 166.505 318.94C162.992 323.564 160.129 328.648 157.995 334.049C156.887 336.74 155.932 339.491 155.135 342.29C154.286 345.076 153.605 347.911 153.095 350.78Z" fill="black"/>
</g>
<path d="M105.814 336.659L107.894 343.719L129.704 341.899L129.994 332.029L105.814 336.659Z" fill="#407BFF"/>
<path d="M37.3301 222.919L42.7301 211.674L52.3301 213.408L48.5301 216.408L48.1301 222.341L49.3301 225.808L42.1301 226.674L37.3301 222.919Z" fill="#FFC3BD"/>
<g clip-path="url(#clip0_1294_6984)">
<path d="M234.531 197.004L239.781 196.936L239.847 202.06L234.598 202.128L234.531 197.004Z" fill="white"/>
<path d="M244.964 191.743L245.163 207.117L229.414 207.321L229.215 191.947L244.964 191.743ZM242.372 194.339L231.873 194.476L232.006 204.725L242.505 204.588L242.372 194.339ZM240.113 222.559L234.863 222.627L234.93 227.751L240.179 227.683L240.113 222.559Z" fill="white"/>
<path d="M245.296 217.366L245.495 232.74L229.746 232.944L229.547 217.57L245.296 217.366ZM232.205 220.098L232.338 230.347L242.837 230.211L242.704 219.962L232.205 220.098ZM260.779 196.663L266.028 196.595L266.095 201.72L260.845 201.788L260.779 196.663Z" fill="white"/>
<path d="M255.463 191.607L255.662 206.981L271.411 206.776L271.211 191.403L255.463 191.607ZM268.62 193.999L268.753 204.248L258.254 204.384L258.121 194.135L268.62 193.999ZM250.246 194.237L250.213 191.675L252.838 191.641L252.904 196.765L250.28 196.8L250.346 201.924L247.721 201.958L247.622 194.271L250.246 194.237ZM250.412 207.049L250.346 201.924L252.971 201.89L253.037 207.015L250.412 207.049ZM245.229 212.241L245.196 209.679L247.821 209.645L247.788 207.083L250.412 207.049L250.479 212.173L253.104 212.139L253.07 209.577L266.194 209.407L266.228 211.969L255.728 212.105L255.762 214.667L247.887 214.77L247.854 212.207L245.229 212.241ZM245.229 212.241L245.263 214.804L234.763 214.94L234.73 212.377L232.105 212.411L232.139 214.974L229.514 215.008L229.447 209.883L237.322 209.781L237.355 212.343L245.229 212.241ZM271.51 214.463L268.886 214.497L268.819 209.373L271.444 209.339L271.51 214.463ZM268.886 214.497L266.261 214.531L266.327 219.656L271.577 219.588L271.544 217.025L268.919 217.059L268.886 214.497ZM258.386 214.633L263.636 214.565L263.669 217.128L261.045 217.162L261.078 219.724L258.453 219.758L258.386 214.633ZM263.736 222.252L263.703 219.69L261.078 219.724L261.111 222.286L258.486 222.32L258.519 224.883L253.27 224.951L253.303 227.513L261.177 227.411L261.111 222.286L263.736 222.252ZM263.736 222.252L271.61 222.15L271.643 224.712L266.394 224.78L266.427 227.343L263.802 227.377L263.736 222.252ZM253.203 219.826L253.237 222.388L255.861 222.354L255.795 217.23L247.921 217.332L247.954 219.894L253.203 219.826Z" fill="white"/>
<path d="M247.987 222.457L250.612 222.423L250.712 230.109L261.211 229.973L261.244 232.535L248.12 232.706L247.987 222.457ZM271.677 227.275L271.743 232.399L263.869 232.501L263.836 229.939L269.085 229.871L269.052 227.309L271.677 227.275Z" fill="white"/>
</g>
<path d="M229.347 175.616C229.474 171.88 232.514 168.903 236.252 168.854L263.578 168.5C267.573 168.448 270.8 171.744 270.665 175.736V175.736C270.538 179.473 267.498 182.45 263.76 182.499L236.434 182.853C232.439 182.905 229.212 179.609 229.347 175.616V175.616Z" fill="white"/>
<path d="M236.716 185.72C236.061 186.202 235.135 185.74 235.125 184.927L235.085 181.87L242.085 181.78L236.716 185.72Z" fill="white"/>
<path d="M235.33 284.654L283.32 282.704" stroke="#407BFF" stroke-linecap="round" stroke-linejoin="round"/>
<path d="M299.18 273.964L306.31 273.674" stroke="#407BFF" stroke-linecap="round" stroke-linejoin="round"/>
<path d="M258.33 275.625L293.71 274.185" stroke="#407BFF" stroke-linecap="round" stroke-linejoin="round"/>
<path d="M283.09 300.464L312.74 299.264" stroke="#407BFF" stroke-linecap="round" stroke-linejoin="round"/>
<path d="M264.76 301.215L277.68 300.685" stroke="#407BFF" stroke-linecap="round" stroke-linejoin="round"/>
<defs>
<clipPath id="clip0_1294_6984">
<rect width="42" height="41" fill="white" transform="translate(229.215 191.947) rotate(-0.743045)"/>
</clipPath>
</defs>
</svg>
