<svg width="1598" height="2117" viewBox="0 0 1598 2117" fill="none" xmlns="http://www.w3.org/2000/svg">
<path d="M0 365.858H442.246C442.246 365.858 418.441 310.501 338.922 327.73C338.922 327.73 322.203 264.778 261.545 273.495C261.545 273.495 211.336 219.055 138.087 240.158C64.8382 261.261 71.1589 327.73 71.1589 327.73C71.1589 327.73 16.9742 313.56 0 365.858Z" fill="#FAFAFA"/>
<path d="M1273.06 130.565H830.869C830.869 130.565 854.623 75.157 934.141 92.3861C934.141 92.3861 950.861 29.4339 1011.57 38.1503C1011.57 38.1503 1061.78 -16.2383 1134.98 4.86468C1208.17 25.9677 1201.96 92.3861 1201.96 92.3861C1201.96 92.3861 1256.34 78.2664 1273.06 130.565Z" fill="#FAFAFA"/>
<path d="M1259.04 402.37H1597.35C1597.35 402.37 1584.41 355.933 1535.47 371.225C1535.47 371.225 1545.67 308.732 1509.58 301.493C1473.49 294.255 1462.02 341.813 1462.02 341.813C1453.76 332.454 1443.05 325.586 1431.1 321.984C1419.15 318.381 1406.43 318.188 1394.38 321.424C1382.52 324.511 1371.72 330.737 1363.11 339.448C1354.5 348.159 1348.39 359.031 1345.44 370.919C1345.44 370.919 1285.19 336.41 1259.04 402.37Z" fill="#FAFAFA"/>
<path d="M589.495 2117C909.123 2117 1152 2091.17 1152 2059.3C1152 2027.43 909.123 2001.6 589.495 2001.6C269.867 2001.6 10.7578 2027.43 10.7578 2059.3C10.7578 2091.17 269.867 2117 589.495 2117Z" fill="black" fill-opacity="0.1"/>
<path d="M1433.58 822.777L723.199 834.557L730.24 1259.16L1440.62 1247.38L1433.58 822.777Z" fill="#407BFF"/>
<path opacity="0.3" d="M1078.22 828.619L722.623 834.515L729.664 1259.12L1085.26 1253.22L1078.22 828.619Z" fill="white"/>
<path opacity="0.3" d="M1131.8 857.229L1029.39 859.277L1029.96 887.822L1132.37 885.774L1131.8 857.229Z" fill="white"/>
<path opacity="0.3" d="M1134.84 1187.41L1032.44 1189.1L1032.92 1217.65L1135.31 1215.95L1134.84 1187.41Z" fill="white"/>
<path d="M542.283 1774.33C551.153 1781.11 729.203 1761.95 683.174 1446.06C683.174 1446.06 767.637 1467.52 776.71 1466.1C776.71 1466.1 900.627 1656.07 810.404 1750.17C720.181 1844.27 585.713 1850.03 585.713 1850.03L542.283 1774.33Z" fill="#407BFF"/>
<path opacity="0.3" d="M542.283 1774.33C551.153 1781.11 729.203 1761.95 683.174 1446.06C683.174 1446.06 767.637 1467.52 776.71 1466.1C776.71 1466.1 900.627 1656.07 810.404 1750.17C720.181 1844.27 585.713 1850.03 585.713 1850.03L542.283 1774.33Z" fill="black"/>
<path d="M739.601 1494.95C740.06 1494.95 689.851 1495.92 673.03 1475.02C656.208 1454.12 644.841 1416.75 675.425 1391.27C706.009 1365.78 870.323 1278.79 954.888 1270.13C1039.45 1261.46 1145.25 1292.89 1145.25 1292.89L1034.53 1374.75L796.13 1432.45L739.601 1494.95Z" fill="#263238"/>
<path d="M577.252 1724.58L581.89 1770.26L636.738 1765.62L628.48 1718.67L577.252 1724.58Z" fill="#FFC3BD"/>
<path d="M566.593 1766.94L646.163 1765.82L651.821 1805.99C651.821 1805.99 577.298 1807.01 546.662 1802.93C516.027 1798.85 520.819 1782.9 520.819 1782.9C520.819 1782.9 556.704 1783.76 566.593 1766.94Z" fill="#263238"/>
<path d="M956.999 1214.34C956.999 1214.34 965.257 1403.81 855.052 1409.21C744.848 1414.61 626.436 1402.53 626.436 1402.53L661.149 1742.98L557.826 1749.35C557.826 1749.35 483.66 1460.54 471.987 1387.95C460.314 1315.37 470.458 1264.04 547.071 1231.82C623.684 1199.61 956.999 1214.34 956.999 1214.34Z" fill="#407BFF"/>
<path d="M1128.47 1857.36C1140.35 1740.59 1065.62 1637.35 961.552 1626.77C857.486 1616.18 763.493 1702.25 751.612 1819.01C739.731 1935.77 814.462 2039.01 918.527 2049.6C1022.59 2060.19 1116.59 1974.12 1128.47 1857.36Z" fill="#263238"/>
<path opacity="0.3" d="M1132.57 1855.18C1144.45 1738.42 1075.31 1635.75 978.141 1625.86C880.973 1615.97 792.571 1702.61 780.69 1819.37C768.809 1936.14 837.948 2038.81 935.117 2048.69C1032.29 2058.58 1120.69 1971.94 1132.57 1855.18Z" fill="black"/>
<path opacity="0.2" d="M1051.61 1840.13C1049.72 1904.25 1007.72 1955.07 957.766 1953.59C951.042 1953.42 944.38 1952.27 937.988 1950.18C897.872 1937.43 869.021 1890.23 870.652 1834.88C872.181 1781.4 901.695 1737.11 940.485 1724.82C948.236 1722.33 956.355 1721.18 964.494 1721.41C1014.5 1722.89 1053.44 1776.1 1051.61 1840.13Z" fill="#FAFAFA"/>
<path d="M1005.58 1840.12C1003.95 1894.82 974.995 1939.83 937.988 1950.28C897.872 1937.53 869.021 1890.33 870.652 1834.98C872.181 1781.51 901.695 1737.21 940.485 1724.92C979.072 1735.37 1007.21 1783.39 1005.58 1840.12Z" fill="#263238"/>
<path d="M340.272 1815.47L477.544 1416.75L661.048 1214.19C661.048 1214.19 500.89 1214.8 423.92 1259.04C346.95 1303.29 344.095 1356.45 329.976 1419.71C315.856 1482.97 259.225 1782.39 259.225 1782.39L340.272 1815.47Z" fill="#407BFF"/>
<path opacity="0.7" d="M957 1214.34C957 1214.34 786.443 1206.74 661.354 1214.34C661.354 1214.34 501.196 1214.95 424.226 1259.2C347.256 1303.44 344.095 1356.45 329.976 1419.71C315.856 1482.97 259.225 1782.39 259.225 1782.39L340.272 1815.47L477.544 1416.76C500.635 1527.27 557.827 1749.15 557.827 1749.15L661.15 1742.99L626.386 1402.74C626.386 1402.74 744.747 1414.82 855.002 1409.42C965.258 1404.01 957 1214.34 957 1214.34Z" fill="black"/>
<path d="M675.425 907.02L612.065 914.716C612.065 914.716 601.055 1031.19 590.809 1053.82C590.809 1053.82 299.088 1085.68 219.264 1083.39L245.005 1100.72L274.162 1102.71L313.87 1154.85L326.665 1124.52C326.665 1124.52 353.477 1123.35 359.696 1108.26C359.696 1108.26 566.75 1158.27 643.006 1101.18C643.108 1101.23 689.086 1033.69 675.425 907.02Z" fill="#FFC3BD"/>
<path d="M856.992 595.114C856.992 595.114 876.821 620.601 869.277 642.672C867.195 648.966 863.526 654.618 858.624 659.082C853.723 663.547 847.753 666.672 841.292 668.159C841.292 668.159 837.571 703.483 816.723 704.503C795.875 705.522 802.858 626.666 802.858 626.666L856.992 595.114Z" fill="#263238"/>
<path d="M696.478 1215.21L682.562 987.507L596.213 930.111C596.213 930.111 624.452 830.56 678.484 813.688C732.516 796.816 850.366 758.127 921.831 777.344C993.296 796.561 985.089 880.871 972.805 943.415L959.042 946.677C959.042 946.677 956.901 1193.13 956.799 1214.34L696.478 1215.21Z" fill="#263238"/>
<path d="M851.845 791.412C823.554 818.784 765.852 835.096 749.898 821.486C733.943 807.876 754.078 795.388 769.064 779.994C777.169 771.532 776.914 755.679 775.028 743.038C774.034 736.668 772.569 730.381 770.644 724.229C717.683 721.323 695.713 696.55 693.521 652.866C691.329 609.182 711.107 558.463 711.107 558.463L748.522 526.554C748.522 526.554 799.495 534.2 840.274 562.235C864.537 578.751 857.35 611.272 847.308 635.28C843.054 645.5 837.938 655.339 832.016 664.692C826.307 724.484 851.845 791.412 851.845 791.412Z" fill="#FFC3BD"/>
<path d="M722.984 664.896C722.984 664.896 743.374 665.864 752.294 653.223" stroke="#263238" stroke-linecap="round" stroke-linejoin="round"/>
<path d="M755.455 613.312C755.455 617.186 753.11 620.244 750.357 620.193C747.605 620.142 745.617 616.931 745.719 613.057C745.821 609.183 748.063 606.124 750.816 606.175C753.569 606.226 755.607 609.438 755.455 613.312Z" fill="#263238"/>
<path d="M708.962 614.534C708.962 618.408 706.617 621.466 703.865 621.415C701.112 621.364 699.124 618.153 699.226 614.279C699.328 610.405 701.571 607.347 704.324 607.398C707.076 607.449 709.115 610.711 708.962 614.534Z" fill="#263238"/>
<path d="M725.125 646.19L723.035 614.943L708.1 644.609C710.431 646.591 713.316 647.805 716.363 648.088C719.409 648.371 722.469 647.708 725.125 646.19Z" fill="#ED847E"/>
<path d="M753.004 588.844C756.914 587.77 761.078 588.118 764.756 589.826C768.434 591.534 771.386 594.491 773.087 598.172" stroke="#263238" stroke-linecap="round" stroke-linejoin="round"/>
<path d="M694.59 594.604C694.59 594.604 703.969 584.409 714.979 587.009" stroke="#263238" stroke-linecap="round" stroke-linejoin="round"/>
<path d="M847.663 635.281C789.349 637.371 782.111 571.258 782.111 571.258C753.26 586.55 711.309 558.515 711.309 558.515L748.723 526.503C748.723 526.503 799.697 534.251 840.475 562.185C864.892 578.751 857.704 611.374 847.663 635.281Z" fill="#263238"/>
<path d="M692.552 577.884C692.552 577.884 662.376 557.8 675.68 543.324C688.984 528.847 770.491 556.373 831.404 590.118C831.404 590.118 691.89 496.785 653.965 526.299C622.617 550.715 692.144 584.612 690.054 584.561L692.552 577.884Z" fill="#407BFF"/>
<path d="M862.754 571.054C862.669 581.624 860.665 592.09 856.841 601.944L719.824 535.678C725.501 529.124 732.302 523.634 739.908 519.469C748.017 514.83 756.834 511.558 766.006 509.784C775.733 507.924 785.688 507.581 795.52 508.764C845.627 514.524 863.009 553.06 862.754 571.054Z" fill="#407BFF"/>
<path d="M567.688 1180.54C558.768 1189.87 473.999 1165.96 453.865 1176.67C445.352 1181.15 441.631 1197.06 433.067 1214.49C421.395 1238.19 400.648 1264.19 346.413 1265.92C252.214 1268.93 268.678 1173.36 261.236 1142.31C261.236 1142.31 207.714 1136.25 203.024 1120.6C198.335 1104.95 204.095 1102.6 204.095 1102.6C204.095 1102.6 264.195 1124.85 294.675 1084.97C298.802 1080.94 303.642 1077.7 308.947 1075.44C321.177 1070.06 334.332 1067.1 347.687 1066.72C386.478 1064.68 433.781 1075.59 447.034 1100.16C473.948 1150.26 558.768 1139 569.37 1152.15C579.973 1165.3 576.609 1171.21 567.688 1180.54Z" fill="#407BFF"/>
<path d="M255.967 1245.84C255.967 1245.84 101.212 1459.93 228.645 1789.47" stroke="#263238" stroke-linecap="round" stroke-linejoin="round"/>
<path d="M460.214 1357.06C460.214 1357.06 460.214 1357.47 460.214 1358.29C460.214 1359.1 460.214 1359.56 460.214 1360.48V1360.99C458.373 1381.61 454.965 1402.06 450.019 1422.16C442.985 1451.87 433.657 1480.16 425.96 1502.9C393.337 1599.49 397.109 1703.58 397.109 1703.58C386.302 1690.12 366.525 1680.54 341.803 1673.81C251.784 1649.09 98.9651 1662.34 98.9651 1662.34C68.9928 1557.19 111.735 1397.56 175.782 1300.43C231.062 1216.6 288.281 1239.26 288.281 1239.26C288.281 1239.26 334.797 1235.62 345.756 1234.45C363.625 1234.45 422.663 1241.4 442.606 1244.64C509.993 1256.98 464.139 1297.27 460.214 1357.06Z" fill="#407BFF"/>
<path d="M1132.1 1758.28C979.175 1896.31 823.223 1936.99 642.267 1936.99C461.311 1936.99 346.391 1674.12 346.391 1674.12L291.441 1584.46L451.6 1368.58L460.062 1357.22C460.062 1357.22 460.062 1357.62 460.062 1358.44C460.062 1359.26 460.062 1359.71 460.062 1360.63V1361.14C457.87 1399.63 443.699 1708.47 556.911 1784.22L557.829 1784.88C573.148 1794.78 590.923 1800.22 609.159 1800.58C816.876 1806.6 811.065 1535.52 758.256 1477.46L1118.69 1405.03C1118.69 1405.03 1074.68 1519.9 1132.1 1758.28Z" fill="#407BFF"/>
<path d="M731.19 1418.69C731.19 1418.69 697.394 1446.73 714.827 1484.34C732.26 1521.96 900.319 1448.92 966.483 1435.61C1032.65 1422.31 1109.21 1409.31 1142.14 1402.53C1175.07 1395.75 1172.21 1301.3 1145.3 1292.94C1118.38 1284.58 854.749 1331.17 811.014 1356.76C782.135 1374.3 755.353 1395.08 731.19 1418.69Z" fill="#263238"/>
<path d="M815.808 658.627C812.592 655.164 810.645 650.713 810.284 646.001C809.923 641.289 811.169 636.594 813.82 632.681C821.976 620.448 838.441 601.027 854.242 615.554C876.365 635.944 838.594 673.001 822.945 664.03C820.323 662.574 817.921 660.755 815.808 658.627Z" fill="#FFC3BD"/>
<path d="M168.218 1753.49C237.542 1883.98 438.374 1936.99 642.269 1936.99L364.464 1659.19C318.588 1644.74 98.8939 1623 168.218 1753.49Z" fill="#407BFF"/>
<path opacity="0.2" d="M692.555 577.884C692.555 577.884 662.378 557.8 675.682 543.324C681.595 536.901 699.283 538.227 723.19 545.057C738.563 549.196 753.621 554.425 768.25 560.706C789.251 569.83 811.578 581.503 831.406 590.118C831.406 590.118 691.892 496.785 653.968 526.299C622.619 550.715 687.814 582.37 690.108 584.51L691.229 580.382L692.555 577.884Z" fill="black"/>
<path d="M706.879 569.169C706.879 569.169 676.295 574.266 697.398 607.195L706.879 569.169Z" fill="#263238"/>
<path d="M736.186 549.084C736.186 549.084 690.055 532.874 677.209 542.05C664.364 551.225 677.821 568.709 692.501 577.731L704.276 579.26L711.208 558.361L729.151 556.169L736.186 549.084Z" fill="#263238"/>
<path opacity="0.3" d="M799.039 524.159L787.978 540.522L739.91 519.622C748.019 514.984 756.837 511.712 766.009 509.938L799.039 524.159Z" fill="white"/>
<path opacity="0.1" d="M788.329 719.743C785.148 728.202 780.583 736.075 774.821 743.038C773.828 736.668 772.363 730.381 770.438 724.228C776.619 723.796 782.675 722.278 788.329 719.743Z" fill="black"/>
<path d="M345.769 1168C343.73 1203.33 328.438 1232.23 309.68 1239.37C306.434 1240.62 302.957 1241.16 299.485 1240.95C276.343 1239.62 259.522 1204.91 261.867 1163.47C264.211 1122.03 284.907 1089.5 308.049 1090.83C317.479 1091.34 325.787 1097.41 332.261 1107.14C341.793 1121.11 347.145 1143.43 345.769 1168Z" fill="#F5F5F5"/>
<path d="M345.77 1168C343.731 1203.33 328.439 1232.23 309.681 1239.37C288.272 1238.14 272.725 1206.08 274.917 1168C277.109 1129.93 296.173 1099.7 317.582 1100.92C323.098 1101.33 328.319 1103.58 332.415 1107.29C341.794 1121.11 347.146 1143.43 345.77 1168Z" fill="white"/>
<path d="M389.632 1875.75C401.513 1758.99 331.02 1656.18 232.183 1646.13C133.345 1636.07 43.5903 1722.57 31.7095 1839.33C19.8286 1956.1 90.321 2058.9 189.159 2068.96C287.996 2079.02 377.751 1992.52 389.632 1875.75Z" fill="#263238"/>
<path opacity="0.3" d="M391.194 1876.06C381.394 1976.46 315.884 2054.39 237.145 2067.55C224.364 2069.7 211.366 2070.09 198.486 2068.72H197.506C179.566 2066.71 162.131 2061.32 146.058 2052.81C79.8626 2017.99 37.9696 1933.4 47.1322 1839.87C58.5487 1723.51 144.638 1637.35 239.595 1647.21H239.84C259.12 1649.23 277.831 1655.16 294.913 1664.65C305.589 1670.6 315.596 1677.76 324.753 1686C371.644 1728.29 398.935 1799.25 391.194 1876.06Z" fill="black"/>
<path d="M382.304 1741.01C379.858 1736.32 377.065 1731.91 373.958 1727.83C355.304 1697.28 312.655 1685.86 284.737 1688.56C263.335 1691.07 242.787 1699.92 224.936 1714.31C204.571 1730.14 190.007 1754.38 169.81 1771.01C131.5 1802.76 73.3691 1801.86 34.8931 1769.16C32.7233 1767.3 30.6599 1765.28 28.7169 1763.09C24.7956 1758.2 22.1804 1752 21.2053 1745.31C19.7332 1736.96 20.2686 1728.27 22.7493 1720.27C31.0955 1692.12 58.9302 1667.37 76.4989 1652.3C112.118 1622.13 154.013 1604.43 197.519 1601.16C321.585 1590.89 374.5 1718.06 382.304 1741.01Z" fill="#407BFF"/>
<g opacity="0.3">
<path d="M92.3926 1637.16C114.496 1621.46 139.364 1610.06 165.692 1603.57C192.047 1596.86 219.339 1594.62 246.434 1596.95C273.486 1599.55 299.977 1606.29 324.984 1616.93L334.262 1621L343.335 1625.54C349.452 1628.4 355.212 1631.96 361.125 1635.23C367.037 1638.49 372.492 1642.52 378.15 1646.13C383.808 1649.75 389.109 1653.98 394.512 1658.01C372.282 1643.12 348.551 1630.59 323.71 1620.65C298.917 1610.7 272.792 1604.47 246.179 1602.14C219.622 1599.61 192.829 1601.33 166.814 1607.24C153.753 1610.14 140.951 1614.09 128.533 1619.07C115.93 1623.92 103.827 1629.98 92.3926 1637.16Z" fill="black"/>
</g>
<g opacity="0.3">
<path d="M227.182 1588.54C225.845 1566.4 227.137 1544.17 231.029 1522.33C234.429 1500.45 239.142 1478.78 244.614 1457.45C250.087 1436.11 256.648 1414.83 263.658 1393.85L274.796 1362.64C278.886 1352.34 282.777 1342 287.251 1331.84L267.612 1395.3L258.286 1427.04C255.476 1437.69 252.318 1448.26 249.755 1458.97C243.886 1480.21 239.257 1501.74 234.979 1523.57C232.814 1534.37 231.156 1545.24 229.747 1556.16C228.153 1566.88 227.296 1577.7 227.182 1588.54Z" fill="black"/>
</g>
<path opacity="0.3" d="M556.656 1783.76C450.223 1715.31 434.753 1574.37 438.372 1457.84C439.035 1437.81 441.771 1381.38 448.567 1351.97C456.493 1317.66 469.207 1285.79 468.09 1270.13C466.431 1246.86 420.557 1241.76 420.557 1241.76L451.396 1246.86C504.638 1259.05 463.986 1297.27 460.061 1357.06C460.061 1357.06 460.061 1357.47 460.061 1358.29C460.061 1359.1 460.061 1359.56 460.061 1360.48V1360.99C457.767 1399.47 443.597 1708.32 556.656 1783.76Z" fill="black"/>
<path opacity="0.2" d="M566.367 1180.54C557.446 1189.87 472.677 1165.96 452.543 1176.67C444.03 1181.15 440.309 1202.16 431.746 1219.59C407.686 1257.82 378.937 1258.74 376.847 1259.04C417.218 1228.46 423.386 1154.85 403.354 1108.31C383.321 1061.77 311.601 1073.86 307.523 1075.23C319.754 1069.85 332.909 1066.89 346.263 1066.51C385.054 1064.48 432.357 1075.38 445.61 1099.95C472.524 1150.06 557.344 1138.8 567.947 1151.95C578.549 1165.1 575.287 1171.21 566.367 1180.54Z" fill="black"/>
<path d="M491.403 1129.95C482.724 1143.55 479.261 1159.11 481.498 1174.45L571.853 1186.02C578.036 1179.95 582.605 1172.81 585.251 1165.11C587.896 1157.4 588.555 1149.3 587.184 1141.36C587.184 1141.36 497.964 1131.13 491.403 1129.95Z" fill="#263238"/>
<path d="M259.382 1145.24C259.382 1145.24 247.974 1119.73 261.652 1103.57C231.071 1100.68 212.138 1097.29 192.428 1094.27C189.501 1103.64 188.068 1112.62 198.401 1126.89C208.733 1141.16 259.382 1145.24 259.382 1145.24Z" fill="#263238"/>
<path d="M222.602 1221.7C210.291 1224.56 198.971 1230.67 189.826 1239.39" stroke="#407BFF" stroke-linecap="round" stroke-linejoin="round"/>
<path d="M937.839 950.756L858.218 958.606C858.218 958.606 847.004 1076.81 836.606 1099.8C836.606 1099.8 613.291 1127.02 532.192 1124.63L491.057 1167.85L510.019 1206.29L560.533 1217.65L542.948 1187.07C542.948 1187.07 570.167 1170.6 576.437 1155.26C576.437 1155.26 812.138 1206.23 889.567 1148.13C889.516 1147.92 927.644 1071.33 937.839 950.756Z" fill="#FFC3BD"/>
<path opacity="0.2" d="M335.283 1860.22C333.448 1924.35 291.446 1975.12 241.441 1973.69C234.721 1973.49 228.062 1972.34 221.663 1970.27C181.598 1957.53 152.747 1910.28 154.328 1854.97C155.908 1801.45 185.421 1757.21 224.212 1744.92C231.963 1742.43 240.082 1741.27 248.221 1741.51C298.226 1742.98 337.169 1796.3 335.283 1860.22Z" fill="#FAFAFA"/>
<path d="M289.254 1860.22C287.674 1914.97 258.67 1959.98 221.663 1970.43C181.598 1957.68 152.747 1910.43 154.328 1855.13C155.908 1801.6 185.421 1757.36 224.212 1745.07C262.748 1755.52 290.834 1803.54 289.254 1860.22Z" fill="#263238"/>
<path d="M1191.58 1772.85C1192.45 1835.91 1167.83 1892.95 1007.21 1919.25C963.915 1926.86 919.67 1927.38 876.209 1920.78C804.846 1909 769.98 1878.83 769.98 1878.83C769.98 1878.83 761.19 1593.81 967.706 1541.54C1064.48 1517.04 1120.55 1560.68 1157.43 1625.29C1191.58 1690.66 1191.33 1752.67 1191.58 1772.85Z" fill="#407BFF"/>
<g opacity="0.3">
<path d="M780.377 1788.05C783.682 1758.38 790.756 1729.26 801.429 1701.39C811.924 1673.23 826.413 1646.73 844.451 1622.69C853.565 1610.74 863.807 1599.7 875.035 1589.71C886.161 1579.56 898.425 1570.73 911.583 1563.41C937.764 1548.64 966.776 1539.59 996.708 1536.85C982.041 1539.31 967.613 1543.02 953.585 1547.96C946.499 1550.1 939.822 1553.41 933.195 1556.22C926.546 1559.4 920.064 1562.92 913.775 1566.77C907.352 1570.44 901.439 1574.87 895.373 1579C889.307 1583.13 883.7 1588.03 878.348 1593.17C867.463 1603.07 857.547 1613.97 848.732 1625.75C830.826 1649.32 816.231 1675.23 805.354 1702.77C799.706 1716.48 794.839 1730.5 790.776 1744.77C786.45 1758.97 782.978 1773.43 780.377 1788.05Z" fill="black"/>
</g>
<path d="M539.377 1716.07L549.979 1752.06L661.153 1742.78L662.631 1692.47L539.377 1716.07Z" fill="#407BFF"/>
<path d="M190.289 1136.29L217.815 1078.98L266.749 1087.81L247.379 1103.11L245.34 1133.35L251.457 1151.02L214.756 1155.44L190.289 1136.29Z" fill="#FFC3BD"/>
<path d="M1199.56 1450.98L1444.18 1441.04" stroke="#407BFF" stroke-linecap="round" stroke-linejoin="round"/>
<path d="M1525.02 1396.49L1561.37 1395.01" stroke="#407BFF" stroke-linecap="round" stroke-linejoin="round"/>
<path d="M1316.8 1404.95L1497.14 1397.61" stroke="#407BFF" stroke-linecap="round" stroke-linejoin="round"/>
<path d="M1443.01 1531.57L1594.14 1525.45" stroke="#407BFF" stroke-linecap="round" stroke-linejoin="round"/>
<path d="M1349.57 1535.39L1415.43 1532.69" stroke="#407BFF" stroke-linecap="round" stroke-linejoin="round"/>
<rect x="1156.61" y="959.095" width="223" height="223" rx="15.5" transform="rotate(-0.815142 1156.61 959.095)" fill="white" stroke="black" stroke-width="7"/>
<path d="M1202 1003.2L1224.25 1002.89L1224.56 1025.13L1202.31 1025.45L1202 1003.2Z" fill="black"/>
<path d="M1246.18 980.323L1247.13 1047.07L1180.38 1048.02L1179.43 981.272L1246.18 980.323ZM1235.21 991.605L1190.72 992.238L1191.35 1036.73L1235.84 1036.1L1235.21 991.605ZM1225.83 1114.13L1203.58 1114.44L1203.9 1136.69L1226.14 1136.37L1225.83 1114.13Z" fill="black"/>
<path d="M1247.76 1091.56L1248.71 1158.3L1181.97 1159.25L1181.02 1092.51L1247.76 1091.56ZM1192.3 1103.48L1192.93 1147.97L1237.43 1147.34L1236.79 1102.84L1192.3 1103.48ZM1313.24 1001.62L1335.48 1001.3L1335.8 1023.55L1313.55 1023.87L1313.24 1001.62Z" fill="black"/>
<path d="M1290.67 979.69L1291.62 1046.43L1358.37 1045.48L1357.42 978.74L1290.67 979.69ZM1346.45 990.022L1347.08 1034.52L1302.59 1035.15L1301.95 990.655L1346.45 990.022ZM1268.58 991.13L1268.42 980.006L1279.55 979.848L1279.86 1002.1L1268.74 1002.25L1269.06 1024.5L1257.93 1024.66L1257.46 991.288L1268.58 991.13ZM1269.37 1046.75L1269.06 1024.5L1280.18 1024.34L1280.5 1046.59L1269.37 1046.75ZM1247.44 1069.31L1247.28 1058.19L1258.41 1058.03L1258.25 1046.91L1269.37 1046.75L1269.69 1069L1280.81 1068.84L1280.66 1057.72L1336.28 1056.92L1336.43 1068.05L1291.94 1068.68L1292.1 1079.8L1258.73 1080.28L1258.57 1069.16L1247.44 1069.31ZM1247.44 1069.31L1247.6 1080.44L1203.11 1081.07L1202.95 1069.95L1191.82 1070.11L1191.98 1081.23L1180.86 1081.39L1180.54 1059.14L1213.91 1058.66L1214.07 1069.79L1247.44 1069.31ZM1358.84 1078.86L1347.72 1079.01L1347.4 1056.77L1358.52 1056.61L1358.84 1078.86ZM1347.72 1079.01L1336.59 1079.17L1336.91 1101.42L1359.16 1101.1L1359 1089.98L1347.87 1090.14L1347.72 1079.01ZM1303.22 1079.65L1325.47 1079.33L1325.63 1090.45L1314.5 1090.61L1314.66 1101.74L1303.54 1101.89L1303.22 1079.65ZM1325.94 1112.7L1325.78 1101.58L1314.66 1101.74L1314.82 1112.86L1303.7 1113.02L1303.85 1124.14L1281.61 1124.46L1281.76 1135.58L1315.14 1135.11L1314.82 1112.86L1325.94 1112.7ZM1325.94 1112.7L1359.31 1112.23L1359.47 1123.35L1337.23 1123.67L1337.38 1134.79L1326.26 1134.95L1325.94 1112.7ZM1281.29 1102.21L1281.45 1113.33L1292.57 1113.18L1292.26 1090.93L1258.88 1091.4L1259.04 1102.53L1281.29 1102.21Z" fill="black"/>
<path d="M1259.2 1113.65L1270.32 1113.49L1270.8 1146.86L1315.29 1146.23L1315.45 1157.36L1259.83 1158.15L1259.2 1113.65ZM1359.63 1134.47L1359.95 1156.72L1326.58 1157.2L1326.42 1146.07L1348.67 1145.76L1348.51 1134.63L1359.63 1134.47Z" fill="black"/>
<path d="M1198.56 887.602C1199.06 871.029 1212.52 857.789 1229.1 857.553L1342.25 855.944C1359.91 855.692 1374.21 870.231 1373.67 887.889V887.889C1373.16 904.462 1359.71 917.701 1343.13 917.937L1229.98 919.547C1212.32 919.798 1198.02 905.26 1198.56 887.602V887.602Z" fill="white"/>
<path d="M1227.33 934.826C1225.35 936.066 1222.78 934.663 1222.74 932.326L1222.53 917.653L1255.53 917.184L1227.33 934.826Z" fill="white"/>
</svg>
