<svg width="100" height="100" viewBox="0 0 100 100" fill="none" xmlns="http://www.w3.org/2000/svg">
<rect width="100" height="100" rx="12" fill="#F9FAFC"/>
<path d="M17.0966 40.25H20.8007L11.6573 65H7.96993L10.9899 56.75L5 40.25H8.78749L12.7252 52.0475L17.0966 40.25ZM30.0522 57.179C28.5172 57.179 27.1157 56.7885 25.8476 56.0075C24.5907 55.2265 23.584 54.1815 22.8276 52.8725C22.0823 51.5525 21.7097 50.095 21.7097 48.5C21.7097 47.29 21.9266 46.1625 22.3604 45.1175C22.7942 44.0615 23.3893 43.1375 24.1457 42.3455C24.9132 41.5425 25.8031 40.9155 26.8153 40.4645C27.8275 40.0135 28.9065 39.788 30.0522 39.788C31.3314 39.788 32.5049 40.052 33.5727 40.58C34.6406 41.097 35.5527 41.8175 36.3091 42.7415C37.0655 43.6545 37.6216 44.7105 37.9776 45.9095C38.3335 47.0975 38.4392 48.3625 38.2946 49.7045H25.4305C25.5751 50.4635 25.8532 51.151 26.2647 51.767C26.6874 52.372 27.2213 52.8505 27.8665 53.2025C28.5228 53.5545 29.2513 53.736 30.0522 53.747C30.8976 53.747 31.6651 53.538 32.3547 53.12C33.0555 52.702 33.6284 52.1245 34.0733 51.3875L37.5938 52.196C36.9264 53.659 35.9198 54.858 34.5738 55.793C33.2279 56.717 31.7207 57.179 30.0522 57.179ZM25.3137 47.081H34.7907C34.6795 46.289 34.3959 45.574 33.9398 44.936C33.4949 44.287 32.9332 43.7755 32.2546 43.4015C31.5872 43.0165 30.8531 42.824 30.0522 42.824C29.2625 42.824 28.5283 43.011 27.8498 43.385C27.1824 43.759 26.6262 44.2705 26.1813 44.9195C25.7475 45.5575 25.4583 46.278 25.3137 47.081ZM56.0744 46.4045V56.75H52.6039V47.246C52.6039 46.509 52.4203 45.838 52.0533 45.233C51.6973 44.628 51.2135 44.1495 50.6017 43.7975C50.001 43.4345 49.3225 43.253 48.5661 43.253C47.832 43.253 47.159 43.4345 46.5472 43.7975C45.9354 44.1495 45.446 44.628 45.0789 45.233C44.7119 45.838 44.5283 46.509 44.5283 47.246V56.75H41.0579V40.25H44.5283V41.999C45.1067 41.317 45.8186 40.778 46.664 40.382C47.5094 39.986 48.4215 39.788 49.4004 39.788C50.635 39.788 51.7585 40.085 52.7707 40.679C53.7829 41.273 54.5838 42.0705 55.1734 43.0715C55.774 44.0725 56.0744 45.1835 56.0744 46.4045ZM72.0766 32H75.5471V56.75H72.0766V54.3245C71.5316 55.1825 70.8197 55.8755 69.9409 56.4035C69.0622 56.9205 68.0333 57.179 66.8542 57.179C65.6417 57.179 64.5072 56.9535 63.4505 56.5025C62.3937 56.0515 61.4594 55.43 60.6474 54.638C59.8465 53.835 59.218 52.911 58.762 51.866C58.3059 50.821 58.0779 49.699 58.0779 48.5C58.0779 47.301 58.3059 46.179 58.762 45.134C59.218 44.078 59.8465 43.154 60.6474 42.362C61.4594 41.559 62.3937 40.932 63.4505 40.481C64.5072 40.03 65.6417 39.8045 66.8542 39.8045C68.0333 39.8045 69.0622 40.0685 69.9409 40.5965C70.8197 41.1135 71.5316 41.7955 72.0766 42.6425V32ZM66.8876 53.8625C67.8664 53.8625 68.7229 53.626 69.4571 53.153C70.1912 52.669 70.7585 52.02 71.1589 51.206C71.5705 50.392 71.7763 49.49 71.7763 48.5C71.7763 47.499 71.5705 46.5915 71.1589 45.7775C70.7474 44.9635 70.1745 44.32 69.4404 43.847C68.7173 43.363 67.8664 43.121 66.8876 43.121C65.9198 43.121 65.0355 43.363 64.2347 43.847C63.4449 44.331 62.8109 44.98 62.3326 45.794C61.8654 46.608 61.6318 47.51 61.6318 48.5C61.6318 49.501 61.8709 50.4085 62.3492 51.2225C62.8387 52.0255 63.4783 52.669 64.268 53.153C65.0689 53.626 65.9421 53.8625 66.8876 53.8625ZM86.6575 57.179C85.1225 57.179 83.7209 56.7885 82.4529 56.0075C81.1959 55.2265 80.1893 54.1815 79.4329 52.8725C78.6876 51.5525 78.315 50.095 78.315 48.5C78.315 47.29 78.5319 46.1625 78.9657 45.1175C79.3995 44.0615 79.9946 43.1375 80.751 42.3455C81.5185 41.5425 82.4084 40.9155 83.4206 40.4645C84.4328 40.0135 85.5118 39.788 86.6575 39.788C88.1925 39.788 89.5885 40.1785 90.8454 40.9595C92.1135 41.7405 93.1202 42.791 93.8654 44.111C94.6218 45.431 95 46.894 95 48.5C95 49.699 94.7831 50.821 94.3493 51.866C93.9155 52.911 93.3148 53.835 92.5473 54.638C91.7909 55.43 90.9066 56.0515 89.8944 56.5025C88.8933 56.9535 87.8143 57.179 86.6575 57.179ZM86.6575 53.747C87.5807 53.747 88.4094 53.505 89.1436 53.021C89.8777 52.537 90.4561 51.899 90.8788 51.107C91.3126 50.304 91.5295 49.435 91.5295 48.5C91.5295 47.543 91.3071 46.663 90.8621 45.86C90.4283 45.057 89.8443 44.419 89.1102 43.946C88.3761 43.462 87.5585 43.22 86.6575 43.22C85.7454 43.22 84.9167 43.462 84.1714 43.946C83.4373 44.43 82.8533 45.0735 82.4195 45.8765C81.9968 46.6795 81.7855 47.554 81.7855 48.5C81.7855 49.479 82.008 50.3645 82.4529 51.1565C82.8978 51.9485 83.4874 52.581 84.2215 53.054C84.9668 53.516 85.7788 53.747 86.6575 53.747Z" fill="#039768"/>
</svg>
