<svg width="100" height="100" viewBox="0 0 100 100" fill="none" xmlns="http://www.w3.org/2000/svg">
<path d="M0 13.5135C0 6.0502 6.0502 0 13.5135 0H86.4865C93.9498 0 100 6.0502 100 13.5135V86.4865C100 93.9498 93.9498 100 86.4865 100H13.5135C6.0502 100 0 93.9498 0 86.4865V13.5135Z" fill="#F9FAFC"/>
<path d="M9.24609 55.135V42.7539H12.9434L12.7974 45.308C13.3164 44.3512 13.965 43.6539 14.7434 43.2161C15.5218 42.7782 16.3488 42.5593 17.2245 42.5593C18.0839 42.5593 18.8542 42.7782 19.5353 43.2161C20.2164 43.6377 20.7353 44.3269 21.092 45.2836C21.6434 44.3593 22.3407 43.6782 23.1839 43.2404C24.0434 42.7864 24.911 42.5593 25.7866 42.5593C27.2461 42.5593 28.3407 43.062 29.0704 44.0674C29.8001 45.0566 30.1569 46.4836 30.1407 48.3485L30.092 55.135H26.3704L26.4191 48.4215C26.4191 47.6755 26.2812 47.0918 26.0056 46.6701C25.7299 46.2323 25.3083 46.0134 24.7407 46.0134C24.3029 46.0134 23.8893 46.1512 23.5001 46.4269C23.1272 46.7026 22.7947 47.1809 22.5029 47.862C22.211 48.5431 21.9758 49.4755 21.7974 50.6593C21.6353 51.8431 21.538 53.335 21.5056 55.135H17.8083V48.4215C17.8083 47.6755 17.6785 47.0918 17.4191 46.6701C17.1596 46.2323 16.7461 46.0134 16.1785 46.0134C15.7407 46.0134 15.3272 46.1512 14.938 46.4269C14.565 46.7026 14.2326 47.1809 13.9407 47.862C13.6488 48.5431 13.4137 49.4755 13.2353 50.6593C13.0569 51.8431 12.9596 53.335 12.9434 55.135H9.24609Z" fill="#8000FF"/>
<path d="M36.5082 42.7539V55.135H32.7865V42.7539H36.5082ZM34.6352 41.2945C33.9217 41.2945 33.3541 41.0755 32.9325 40.6377C32.5109 40.1999 32.3 39.6809 32.3 39.0809C32.3 38.4809 32.5027 37.962 32.9082 37.5242C33.3298 37.0864 33.9054 36.8674 34.6352 36.8674C35.3487 36.8674 35.9163 37.0864 36.3379 37.5242C36.7595 37.962 36.9703 38.4809 36.9703 39.0809C36.9703 39.6809 36.7595 40.1999 36.3379 40.6377C35.9163 41.0755 35.3487 41.2945 34.6352 41.2945Z" fill="#8000FF"/>
<path d="M45.0103 55.3782C43.7292 55.3782 42.6184 55.135 41.6778 54.6485C40.7373 54.1458 40.0076 53.4323 39.4886 52.508C38.9697 51.5836 38.7103 50.4809 38.7103 49.1999C38.7103 47.8864 38.9859 46.735 39.5373 45.7458C40.1049 44.7404 40.8832 43.962 41.8724 43.4107C42.8616 42.8431 44.013 42.5593 45.3265 42.5593C46.3968 42.5593 47.3454 42.7701 48.1724 43.1918C48.9995 43.6134 49.6643 44.2701 50.167 45.162L47.54 47.1566C47.2805 46.6864 46.9724 46.3458 46.6157 46.135C46.2751 45.9242 45.8454 45.8188 45.3265 45.8188C44.5319 45.8188 43.8751 46.1269 43.3562 46.7431C42.8373 47.3431 42.5778 48.1377 42.5778 49.1269C42.5778 50.0836 42.8049 50.8215 43.2589 51.3404C43.7292 51.8593 44.4022 52.1188 45.2778 52.1188C45.7481 52.1188 46.1778 52.0134 46.567 51.8026C46.9724 51.5755 47.313 51.2269 47.5886 50.7566L50.1427 52.7999C49.5913 53.7404 48.8616 54.4053 47.9535 54.7945C47.0616 55.1836 46.0805 55.3782 45.0103 55.3782Z" fill="#8000FF"/>
<path d="M51.4336 55.135V42.7539H55.1309L54.9849 45.308C55.5039 44.3512 56.1525 43.6539 56.9309 43.2161C57.7093 42.7782 58.5363 42.5593 59.412 42.5593C60.2714 42.5593 61.0417 42.7782 61.7228 43.2161C62.4039 43.6377 62.9228 44.3269 63.2795 45.2836C63.8309 44.3593 64.5282 43.6782 65.3714 43.2404C66.2309 42.7864 67.0985 42.5593 67.9741 42.5593C69.4336 42.5593 70.5282 43.062 71.2579 44.0674C71.9877 45.0566 72.3444 46.4836 72.3282 48.3485L72.2795 55.135H68.5579L68.6066 48.4215C68.6066 47.6755 68.4687 47.0918 68.1931 46.6701C67.9174 46.2323 67.4958 46.0134 66.9282 46.0134C66.4904 46.0134 66.0768 46.1512 65.6877 46.4269C65.3147 46.7026 64.9822 47.1809 64.6904 47.862C64.3985 48.5431 64.1633 49.4755 63.9849 50.6593C63.8228 51.8431 63.7255 53.335 63.6931 55.135H59.9958V48.4215C59.9958 47.6755 59.866 47.0918 59.6066 46.6701C59.3471 46.2323 58.9336 46.0134 58.366 46.0134C57.9282 46.0134 57.5147 46.1512 57.1255 46.4269C56.7525 46.7026 56.4201 47.1809 56.1282 47.862C55.8363 48.5431 55.6012 49.4755 55.4228 50.6593C55.2444 51.8431 55.1471 53.335 55.1309 55.135H51.4336Z" fill="#8000FF"/>
<path d="M78.6957 42.7539V55.135H74.974V42.7539H78.6957ZM76.8227 41.2945C76.1092 41.2945 75.5416 41.0755 75.12 40.6377C74.6984 40.1999 74.4875 39.6809 74.4875 39.0809C74.4875 38.4809 74.6902 37.962 75.0957 37.5242C75.5173 37.0864 76.093 36.8674 76.8227 36.8674C77.5362 36.8674 78.1038 37.0864 78.5254 37.5242C78.947 37.962 79.1578 38.4809 79.1578 39.0809C79.1578 39.6809 78.947 40.1999 78.5254 40.6377C78.1038 41.0755 77.5362 41.2945 76.8227 41.2945Z" fill="#8000FF"/>
<path d="M87.1978 55.3782C85.9167 55.3782 84.8059 55.135 83.8653 54.6485C82.9248 54.1458 82.1951 53.4323 81.6761 52.508C81.1572 51.5836 80.8978 50.4809 80.8978 49.1999C80.8978 47.8864 81.1734 46.735 81.7248 45.7458C82.2924 44.7404 83.0707 43.962 84.0599 43.4107C85.0491 42.8431 86.2005 42.5593 87.514 42.5593C88.5843 42.5593 89.5329 42.7701 90.3599 43.1918C91.187 43.6134 91.8518 44.2701 92.3545 45.162L89.7275 47.1566C89.468 46.6864 89.1599 46.3458 88.8032 46.135C88.4626 45.9242 88.0329 45.8188 87.514 45.8188C86.7194 45.8188 86.0626 46.1269 85.5437 46.7431C85.0248 47.3431 84.7653 48.1377 84.7653 49.1269C84.7653 50.0836 84.9924 50.8215 85.4464 51.3404C85.9167 51.8593 86.5897 52.1188 87.4653 52.1188C87.9356 52.1188 88.3653 52.0134 88.7545 51.8026C89.1599 51.5755 89.5005 51.2269 89.7761 50.7566L92.3302 52.7999C91.7788 53.7404 91.0491 54.4053 90.141 54.7945C89.2491 55.1836 88.268 55.3782 87.1978 55.3782Z" fill="#8000FF"/>
</svg>