<svg width="100" height="100" viewBox="0 0 100 100" fill="none" xmlns="http://www.w3.org/2000/svg">
<rect width="100" height="100" rx="12" fill="#F9FAFC"/>
<path d="M16.9097 37.5H20.8628L11.1048 63H7.16956L10.3925 54.5L4 37.5H8.04208L12.2444 49.655L16.9097 37.5ZM29.6689 54.942C28.0307 54.942 26.535 54.5397 25.1817 53.735C23.8403 52.9303 22.7659 51.8537 21.9587 50.505C21.1634 49.145 20.7657 47.6433 20.7657 46C20.7657 44.7533 20.9972 43.5917 21.4601 42.515C21.9231 41.427 22.5582 40.475 23.3654 39.659C24.1845 38.8317 25.1342 38.1857 26.2145 37.721C27.2947 37.2563 28.4462 37.024 29.6689 37.024C31.0341 37.024 32.2865 37.296 33.4261 37.84C34.5657 38.3727 35.5392 39.115 36.3464 40.067C37.1536 41.0077 37.7472 42.0957 38.127 43.331C38.5069 44.555 38.6197 45.8583 38.4654 47.241H24.7365C24.8909 48.023 25.1876 48.7313 25.6269 49.366C26.078 49.9893 26.6478 50.4823 27.3363 50.845C28.0367 51.2077 28.8142 51.3947 29.6689 51.406C30.5711 51.406 31.3902 51.1907 32.1262 50.76C32.8741 50.3293 33.4855 49.7343 33.9603 48.975L37.7175 49.808C37.0052 51.3153 35.9309 52.5507 34.4945 53.514C33.0581 54.466 31.4496 54.942 29.6689 54.942ZM24.6119 44.538H34.726C34.6073 43.722 34.3046 42.9853 33.8179 42.328C33.343 41.6593 32.7435 41.1323 32.0194 40.747C31.3071 40.3503 30.5237 40.152 29.6689 40.152C28.8261 40.152 28.0426 40.3447 27.3185 40.73C26.6062 41.1153 26.0127 41.6423 25.5378 42.311C25.0749 42.9683 24.7662 43.7107 24.6119 44.538ZM56.373 43.841V54.5H52.6693V44.708C52.6693 43.9487 52.4734 43.2573 52.0816 42.634C51.7018 42.0107 51.1854 41.5177 50.5325 41.155C49.8914 40.781 49.1673 40.594 48.3601 40.594C47.5766 40.594 46.8584 40.781 46.2055 41.155C45.5526 41.5177 45.0303 42.0107 44.6385 42.634C44.2468 43.2573 44.0509 43.9487 44.0509 44.708V54.5H40.3471V37.5H44.0509V39.302C44.6682 38.5993 45.4279 38.044 46.3301 37.636C47.2323 37.228 48.2058 37.024 49.2504 37.024C50.5681 37.024 51.7671 37.33 52.8473 37.942C53.9276 38.554 54.7823 39.3757 55.4115 40.407C56.0525 41.4383 56.373 42.583 56.373 43.841ZM72.949 29H76.6528V54.5H72.949V52.001C72.3673 52.885 71.6076 53.599 70.6698 54.143C69.732 54.6757 68.6339 54.942 67.3756 54.942C66.0816 54.942 64.8708 54.7097 63.743 54.245C62.6153 53.7803 61.6181 53.14 60.7515 52.324C59.8968 51.4967 59.2261 50.5447 58.7394 49.468C58.2527 48.3913 58.0093 47.2353 58.0093 46C58.0093 44.7647 58.2527 43.6087 58.7394 42.532C59.2261 41.444 59.8968 40.492 60.7515 39.676C61.6181 38.8487 62.6153 38.2027 63.743 37.738C64.8708 37.2733 66.0816 37.041 67.3756 37.041C68.6339 37.041 69.732 37.313 70.6698 37.857C71.6076 38.3897 72.3673 39.0923 72.949 39.965V29ZM67.4112 51.525C68.4558 51.525 69.3699 51.2813 70.1534 50.794C70.9369 50.2953 71.5423 49.6267 71.9696 48.788C72.4089 47.9493 72.6285 47.02 72.6285 46C72.6285 44.9687 72.4089 44.0337 71.9696 43.195C71.5304 42.3563 70.9191 41.6933 70.1356 41.206C69.364 40.7073 68.4558 40.458 67.4112 40.458C66.3784 40.458 65.4346 40.7073 64.5799 41.206C63.7371 41.7047 63.0604 42.3733 62.55 43.212C62.0514 44.0507 61.8021 44.98 61.8021 46C61.8021 47.0313 62.0573 47.9663 62.5678 48.805C63.0901 49.6323 63.7727 50.2953 64.6156 50.794C65.4703 51.2813 66.4021 51.525 67.4112 51.525ZM87.0967 54.942C85.4585 54.942 83.9628 54.5397 82.6095 53.735C81.2681 52.9303 80.1937 51.8537 79.3865 50.505C78.5912 49.145 78.1935 47.6433 78.1935 46C78.1935 44.7533 78.425 43.5917 78.8879 42.515C79.3509 41.427 79.986 40.475 80.7932 39.659C81.6123 38.8317 82.562 38.1857 83.6423 37.721C84.7225 37.2563 85.874 37.024 87.0967 37.024C88.7349 37.024 90.2247 37.4263 91.5662 38.231C92.9195 39.0357 93.9938 40.118 94.7891 41.478C95.5964 42.838 96 44.3453 96 46C96 47.2353 95.7685 48.3913 95.3055 49.468C94.8426 50.5447 94.2015 51.4967 93.3824 52.324C92.5752 53.14 91.6315 53.7803 90.5512 54.245C89.4828 54.7097 88.3313 54.942 87.0967 54.942ZM87.0967 51.406C88.082 51.406 88.9664 51.1567 89.7499 50.658C90.5334 50.1593 91.1507 49.502 91.6018 48.686C92.0648 47.8587 92.2962 46.9633 92.2962 46C92.2962 45.014 92.0588 44.1073 91.584 43.28C91.121 42.4527 90.4978 41.7953 89.7143 41.308C88.9308 40.8093 88.0583 40.56 87.0967 40.56C86.1233 40.56 85.2389 40.8093 84.4436 41.308C83.6601 41.8067 83.0369 42.4697 82.5739 43.297C82.1228 44.1243 81.8972 45.0253 81.8972 46C81.8972 47.0087 82.1347 47.921 82.6095 48.737C83.0843 49.553 83.7135 50.2047 84.497 50.692C85.2923 51.168 86.1589 51.406 87.0967 51.406Z" fill="#039768"/>
</svg>
