<svg width="100" height="100" viewBox="0 0 100 100" fill="none" xmlns="http://www.w3.org/2000/svg">
    <rect width="100" height="100" rx="12" fill="#F9FAFC"/>
    <path d="M21.2754 41.2002H24.6054L16.3854 63.7002H13.0704L15.7854 56.2002L10.4004 41.2002H13.8054L17.3454 51.9252L21.2754 41.2002ZM32.9226 56.5902C31.5426 56.5902 30.2826 56.2352 29.1426 55.5252C28.0126 54.8152 27.1076 53.8652 26.4276 52.6752C25.7576 51.4752 25.4226 50.1502 25.4226 48.7002C25.4226 47.6002 25.6176 46.5752 26.0076 45.6252C26.3976 44.6652 26.9326 43.8252 27.6126 43.1052C28.3026 42.3752 29.1026 41.8052 30.0126 41.3952C30.9226 40.9852 31.8926 40.7802 32.9226 40.7802C34.0726 40.7802 35.1276 41.0202 36.0876 41.5002C37.0476 41.9702 37.8676 42.6252 38.5476 43.4652C39.2276 44.2952 39.7276 45.2552 40.0476 46.3452C40.3676 47.4252 40.4626 48.5752 40.3326 49.7952H28.7676C28.8976 50.4852 29.1476 51.1102 29.5176 51.6702C29.8976 52.2202 30.3776 52.6552 30.9576 52.9752C31.5476 53.2952 32.2026 53.4602 32.9226 53.4702C33.6826 53.4702 34.3726 53.2802 34.9926 52.9002C35.6226 52.5202 36.1376 51.9952 36.5376 51.3252L39.7026 52.0602C39.1026 53.3902 38.1976 54.4802 36.9876 55.3302C35.7776 56.1702 34.4226 56.5902 32.9226 56.5902ZM28.6626 47.4102H37.1826C37.0826 46.6902 36.8276 46.0402 36.4176 45.4602C36.0176 44.8702 35.5126 44.4052 34.9026 44.0652C34.3026 43.7152 33.6426 43.5402 32.9226 43.5402C32.2126 43.5402 31.5526 43.7102 30.9426 44.0502C30.3426 44.3902 29.8426 44.8552 29.4426 45.4452C29.0526 46.0252 28.7926 46.6802 28.6626 47.4102ZM56.3168 46.7952V56.2002H53.1968V47.5602C53.1968 46.8902 53.0318 46.2802 52.7018 45.7302C52.3818 45.1802 51.9468 44.7452 51.3968 44.4252C50.8568 44.0952 50.2468 43.9302 49.5668 43.9302C48.9068 43.9302 48.3018 44.0952 47.7518 44.4252C47.2018 44.7452 46.7618 45.1802 46.4318 45.7302C46.1018 46.2802 45.9368 46.8902 45.9368 47.5602V56.2002H42.8168V41.2002H45.9368V42.7902C46.4568 42.1702 47.0968 41.6802 47.8568 41.3202C48.6168 40.9602 49.4368 40.7802 50.3168 40.7802C51.4268 40.7802 52.4368 41.0502 53.3468 41.5902C54.2568 42.1302 54.9768 42.8552 55.5068 43.7652C56.0468 44.6752 56.3168 45.6852 56.3168 46.7952ZM70.703 33.7002H73.823V56.2002H70.703V53.9952C70.213 54.7752 69.573 55.4052 68.783 55.8852C67.993 56.3552 67.068 56.5902 66.008 56.5902C64.918 56.5902 63.898 56.3852 62.948 55.9752C61.998 55.5652 61.158 55.0002 60.428 54.2802C59.708 53.5502 59.143 52.7102 58.733 51.7602C58.323 50.8102 58.118 49.7902 58.118 48.7002C58.118 47.6102 58.323 46.5902 58.733 45.6402C59.143 44.6802 59.708 43.8402 60.428 43.1202C61.158 42.3902 61.998 41.8202 62.948 41.4102C63.898 41.0002 64.918 40.7952 66.008 40.7952C67.068 40.7952 67.993 41.0352 68.783 41.5152C69.573 41.9852 70.213 42.6052 70.703 43.3752V33.7002ZM66.038 53.5752C66.918 53.5752 67.688 53.3602 68.348 52.9302C69.008 52.4902 69.518 51.9002 69.878 51.1602C70.248 50.4202 70.433 49.6002 70.433 48.7002C70.433 47.7902 70.248 46.9652 69.878 46.2252C69.508 45.4852 68.993 44.9002 68.333 44.4702C67.683 44.0302 66.918 43.8102 66.038 43.8102C65.168 43.8102 64.373 44.0302 63.653 44.4702C62.943 44.9102 62.373 45.5002 61.943 46.2402C61.523 46.9802 61.313 47.8002 61.313 48.7002C61.313 49.6102 61.528 50.4352 61.958 51.1752C62.398 51.9052 62.973 52.4902 63.683 52.9302C64.403 53.3602 65.188 53.5752 66.038 53.5752ZM83.8114 56.5902C82.4314 56.5902 81.1714 56.2352 80.0314 55.5252C78.9014 54.8152 77.9964 53.8652 77.3164 52.6752C76.6464 51.4752 76.3114 50.1502 76.3114 48.7002C76.3114 47.6002 76.5064 46.5752 76.8964 45.6252C77.2864 44.6652 77.8214 43.8252 78.5014 43.1052C79.1914 42.3752 79.9914 41.8052 80.9014 41.3952C81.8114 40.9852 82.7814 40.7802 83.8114 40.7802C85.1914 40.7802 86.4464 41.1352 87.5764 41.8452C88.7164 42.5552 89.6214 43.5102 90.2914 44.7102C90.9714 45.9102 91.3114 47.2402 91.3114 48.7002C91.3114 49.7902 91.1164 50.8102 90.7264 51.7602C90.3364 52.7102 89.7964 53.5502 89.1064 54.2802C88.4264 55.0002 87.6314 55.5652 86.7214 55.9752C85.8214 56.3852 84.8514 56.5902 83.8114 56.5902ZM83.8114 53.4702C84.6414 53.4702 85.3864 53.2502 86.0464 52.8102C86.7064 52.3702 87.2264 51.7902 87.6064 51.0702C87.9964 50.3402 88.1914 49.5502 88.1914 48.7002C88.1914 47.8302 87.9914 47.0302 87.5914 46.3002C87.2014 45.5702 86.6764 44.9902 86.0164 44.5602C85.3564 44.1202 84.6214 43.9002 83.8114 43.9002C82.9914 43.9002 82.2464 44.1202 81.5764 44.5602C80.9164 45.0002 80.3914 45.5852 80.0014 46.3152C79.6214 47.0452 79.4314 47.8402 79.4314 48.7002C79.4314 49.5902 79.6314 50.3952 80.0314 51.1152C80.4314 51.8352 80.9614 52.4102 81.6214 52.8402C82.2914 53.2602 83.0214 53.4702 83.8114 53.4702Z" fill="#039768"/>
</svg>