<svg xmlns="http://www.w3.org/2000/svg" viewBox="0 0 113.57 123.99" class="dish__image">
        <defs>
          <style>
            .cls-1 {
              fill: #3b4954;
            }
          </style>
        </defs>
        <title>Asset 3wok</title>
        <g id="Layer_2" data-name="Layer 2">
          <g id="PRINT">
            <path class="cls-1" d="M112.73,72.41c-.11-.08-.24.08-.17.17A2.28,2.28,0,0,1,113,74.4c-.15.69-.73,1.06-1.09,1.61a.19.19,0,0,0,0,.19c-2.6,2.09-6.91,2.74-10,3.38a93.36,93.36,0,0,1-13.84,1.73A271.34,271.34,0,0,1,60.82,81c-9.34-.4-18.68-.51-28-1.22-4.87-.38-9.74-.83-14.61-1.19-2.88-.21-7,.05-8.16-3.21a3,3,0,0,1-.08-.62A2.49,2.49,0,0,1,10.86,73c.06-.06,0-.15-.09-.11a2.5,2.5,0,0,0-.83,3.59.15.15,0,0,0,.09,0c.71,1.62,2.62,2.22,4.47,2.44,4.37.54,8.79.75,13.18,1.13,10.37.88,20.72,1.13,31.11,1.56,10,.41,20,.89,30,.25a101.69,101.69,0,0,0,14-1.85c3.29-.68,8-1.39,10.3-4.09a.28.28,0,0,0,0-.3A2.38,2.38,0,0,0,112.73,72.41Z" />
            <path class="cls-1" d="M85.15,115.91a7.85,7.85,0,0,1-4.41,5.65A19.86,19.86,0,0,1,73.1,123c-4.29.19-8.56-.17-12.85.1-6.88.43-22.07,1.78-22.23-8.34l.52.1c.31.06.45-.4.13-.49a32.49,32.49,0,0,1-12.9-6.9.21.21,0,0,0,.12-.08,2.89,2.89,0,0,0,.69-1.81c0-.13-.22-.17-.24,0a4.51,4.51,0,0,1-.82,1.63.15.15,0,0,0,0,0,36.44,36.44,0,0,1-5.66-6.4c-.51-.73-1-1.49-1.46-2.25a.15.15,0,0,0,.1,0,4.05,4.05,0,0,0,2.44-2c.12-.19-.16-.41-.31-.24l-.18.2a2.78,2.78,0,0,0-3.15-1.77c-.24,0-.18.43.06.42a3.47,3.47,0,0,1,2.94,1.52c-.21.22-.41.44-.64.65-.4.35-.88.56-1.29.9a.16.16,0,0,0,0,.16A88.45,88.45,0,0,1,14,90.32a43.81,43.81,0,0,1-3.55-12.49s-.06,0-.06,0C10,82,11.7,86.26,13.33,90a73.94,73.94,0,0,0,6.31,11.67c4.15,6.11,10.68,11.51,18,13.09-1.25,10.55,15.9,9.42,22.26,9,5.08-.3,10.19.21,15.26-.25,4.54-.41,9.9-2.29,10.41-7.54C85.64,115.71,85.22,115.67,85.15,115.91Z" />
            <path class="cls-1" d="M113.2,78.35A23.76,23.76,0,0,0,110,85.5a45.94,45.94,0,0,1-3.92,9.15,64.45,64.45,0,0,1-4.46,6.76c-.74-.51-1.65-.48-2.28-1.25a.34.34,0,0,0-.53.07A8,8,0,0,1,95,103.7a.13.13,0,0,0,.07.24,6.82,6.82,0,0,0,4.15-3,6,6,0,0,0,2.11,1,39.68,39.68,0,0,1-7.87,7.77c-9.51,6.93-21.47,8-32.83,8.49a.19.19,0,0,0,0,.38c11.21.34,23.25-1.62,32.67-8,5.16-3.51,9-8.57,12.33-13.79A39.93,39.93,0,0,0,109.81,88a74.83,74.83,0,0,1,3.49-9.59A.06.06,0,0,0,113.2,78.35Z" />
            <path class="cls-1" d="M105.08,86.91C101,87.59,97,88.5,92.81,89c-3.86.45-7.74.68-11.62.8-7.78.25-15.57-.06-23.35-.31S42.41,89,34.71,88.32q-6-.52-12-1.5c-3.38-.56-6.79-1.08-9.9-2.61a.05.05,0,0,0-.05.09c2.62,1.67,5.64,2.25,8.66,2.79,3.7.67,7.43,1.16,11.18,1.55,8.16.85,16.36,1.09,24.55,1.37,8,.27,16.05.58,24.08.36s16.43-.67,24-3A.22.22,0,0,0,105.08,86.91Z" />
            <path class="cls-1" d="M16.22,72.85c-.27.57-.67,1.31-1.42,1.19s-1.2-.76-1.62-1.24c-.11-.14-.31,0-.23.18a2.78,2.78,0,0,0,2,1.61c.92.09,1.32-.95,1.42-1.68C16.39,72.83,16.27,72.75,16.22,72.85Z" />
            <path class="cls-1" d="M16.71,72.09s-.12,0-.09.07a3.83,3.83,0,0,1,.47,1.27,9.32,9.32,0,0,0,.19,1.39.16.16,0,0,0,.3,0A3.27,3.27,0,0,0,16.71,72.09Z" />
            <path class="cls-1" d="M21.52,74.32c-.15-.25-.32-.49-.47-.74l.07-.1c.06-.09-.07-.19-.15-.11l0,0a1.92,1.92,0,0,1-.24-.71.06.06,0,0,0-.11,0,2.25,2.25,0,0,0,.19.88,1.94,1.94,0,0,1-2.93,0,.06.06,0,0,0-.08.08,2.46,2.46,0,0,0,1.8.94,1.8,1.8,0,0,0,1.32-.83,4.75,4.75,0,0,0,.41.65C21.4,74.57,21.61,74.46,21.52,74.32Z" />
            <path class="cls-1" d="M26.76,75.18c-.86-.27-1.71-.45-2.54-.8l0-.07c-.07-.11-.27,0-.22.09a.59.59,0,0,1,.07.34c0,.09-.12.15-.19.2a.19.19,0,0,0,.19.33.54.54,0,0,0,.34-.41.58.58,0,0,0-.06-.31,6.9,6.9,0,0,0,2.42.9C26.87,75.46,26.89,75.23,26.76,75.18Z" />
            <path class="cls-1" d="M22.68,72c-.2-.31-.57-.44-.77-.75a.15.15,0,0,0-.26.15,1.89,1.89,0,0,0,.81.81A.16.16,0,0,0,22.68,72Z" />
            <path class="cls-1" d="M19.26,70.36A1.38,1.38,0,0,0,19.05,72a.1.1,0,0,0,.18,0c0-.23-.09-.46-.11-.69a1.06,1.06,0,0,1,.25-.77C19.43,70.4,19.33,70.29,19.26,70.36Z" />
            <path class="cls-1" d="M17.78,70.52a.1.1,0,0,0,0,.19c.11,0,.29,0,.32.12s.18.07.17,0A.36.36,0,0,0,17.78,70.52Z" />
            <path class="cls-1" d="M21,67.17c-.19-.42-.87-.91-1.34-.74a.22.22,0,0,0-.1.36c.24.24.62.28.88.52a.74.74,0,0,1,.09,1c-.08.16.13.33.25.19A1.12,1.12,0,0,0,21,67.17Z" />
            <path class="cls-1" d="M20.95,64.83c-.11.05,0,.23.08.19a1.46,1.46,0,0,1,1.86.8,4,4,0,0,1,.24,2.31.16.16,0,0,0,.29.08C24.27,66.66,22.87,63.93,20.95,64.83Z" />
            <path class="cls-1" d="M27.46,70.81a1.9,1.9,0,0,1-1.12-.33A.68.68,0,0,1,26.1,70l.06,0a.12.12,0,0,0,0-.23c0-.09,0-.17.06-.25s-.06-.08-.08,0a1.7,1.7,0,0,0-.11.3,3.17,3.17,0,0,1-1.5,0,1.7,1.7,0,0,1-.93-1.4c0-.09-.17-.07-.16,0a2,2,0,0,0,.79,1.57,2.2,2.2,0,0,0,1.75.11.91.91,0,0,0,.17.59,1.51,1.51,0,0,0,1.35.5A.14.14,0,0,0,27.46,70.81Z" />
            <path class="cls-1" d="M29.32,73.26c-.29-.3-.84-.48-1-.88s.32-.5.51-.61a.08.08,0,0,0,0-.14c-.43,0-1,.16-1,.67s.73,1.23,1.31,1.31A.21.21,0,0,0,29.32,73.26Z" />
            <path class="cls-1" d="M32.61,75.22a2.16,2.16,0,0,0-1.65,0c0-.24,0-.47,0-.71a.24.24,0,0,0-.47-.06c-.05.14-.14.54-.38.46l-.3-.11c-.09,0-.17.1-.1.17s.33.39.54.37a.68.68,0,0,0,.21-.07c0,.13,0,.26,0,.39a.26.26,0,0,0,.4.23,2.74,2.74,0,0,1,1.76-.54C32.67,75.37,32.68,75.25,32.61,75.22Z" />
            <path class="cls-1" d="M33.66,74.83c-.08-.14-.33,0-.27.11a1.37,1.37,0,0,1,.1.53,3.9,3.9,0,0,1-.12.52c0,.15.16.3.28.16A1.19,1.19,0,0,0,33.66,74.83Z" />
            <path class="cls-1" d="M30.16,68.83a3.18,3.18,0,0,0-1.64-1.75c.13-.16.28-.37.17-.55a.13.13,0,0,0-.11-.06c-.23,0-.27.27-.36.45a.35.35,0,0,1,0,.06.2.2,0,0,0-.17.26,1,1,0,0,1-.25.22.11.11,0,0,0,.1.18,1.36,1.36,0,0,0,.34-.22A6.34,6.34,0,0,1,30,68.9C30.09,69,30.2,68.9,30.16,68.83Z" />
            <path class="cls-1" d="M23.92,71.64c-.08-.06-.19,0-.14.14a2.33,2.33,0,0,1,.27.65,2.8,2.8,0,0,1,0,.82.22.22,0,0,0,.41.11A1.34,1.34,0,0,0,23.92,71.64Z" />
            <path class="cls-1" d="M31.53,70.27c-.11-.13-.3,0-.22.18a10.77,10.77,0,0,1,.52,1.09c.14.34.2.71.36,1a.23.23,0,0,0,.42-.12A4.49,4.49,0,0,0,31.53,70.27Z" />
            <path class="cls-1" d="M37.12,75.48a29.87,29.87,0,0,1-2-2.7c-.05-.08-.2,0-.16.07a7.2,7.2,0,0,0,1.82,3A.25.25,0,0,0,37.12,75.48Z" />
            <path class="cls-1" d="M39.28,73.48a5.52,5.52,0,0,0-1.87-1.61.21.21,0,0,0-.25.33,12.86,12.86,0,0,0,2,1.44A.11.11,0,0,0,39.28,73.48Z" />
            <path class="cls-1" d="M39.46,71a1.77,1.77,0,0,0-2.21.47.08.08,0,0,0,.11.11,1.88,1.88,0,0,1,2-.29A.15.15,0,0,0,39.46,71Z" />
            <path class="cls-1" d="M42.17,71.88a.13.13,0,0,0-.25-.07A3.19,3.19,0,0,0,41.68,74c.1.24.42,0,.39-.17A6.22,6.22,0,0,1,42.17,71.88Z" />
            <path class="cls-1" d="M48.74,73a1.61,1.61,0,0,1-.41,0,.88.88,0,0,0-.5.16c-.39.25-.14.61,0,.95.35,1.25-1.32,1.34-2.13,1.34-.19,0-.24.3,0,.34.93.18,2.14.19,2.69-.73a1.74,1.74,0,0,0,0-1.44,1.13,1.13,0,0,1,.24-.1l.31-.11a.29.29,0,0,0,.19-.27A.17.17,0,0,0,48.74,73Z" />
            <path class="cls-1" d="M50.65,75a.07.07,0,0,0-.15,0,1.11,1.11,0,0,1-.22.77c-.23.21.21.5.32.24A2.15,2.15,0,0,0,50.65,75Z" />
            <path class="cls-1" d="M55.48,72.82a.21.21,0,0,0-.36,0,2.26,2.26,0,0,0-.22.72,3.46,3.46,0,0,1-.44.84c-.06.09.06.22.15.15a2.71,2.71,0,0,0,.69-.71C55.48,73.56,55.68,73.12,55.48,72.82Z" />
            <path class="cls-1" d="M112,73.43l-.73.41a.28.28,0,0,0,0-.14,2.38,2.38,0,0,1-.48-1.52c0-.16-.21-.29-.29-.12a1.94,1.94,0,0,0,.32,2l0,0c-3.47,1.7-7.46,2.06-11.25,2.52-3.35.41-6.71.65-10.08.8a.4.4,0,0,0,.12-.25,6.85,6.85,0,0,0,0-1.95.22.22,0,0,0-.41,0c-.09.38-.21.77-.28,1.17a1.38,1.38,0,0,0-.33-.16,4.63,4.63,0,0,1-1.19-.31c-.13-.08-.28.12-.16.21a3.28,3.28,0,0,0,.79.5,1.5,1.5,0,0,1,.88.72l.06.08-2.9.11-1.57,0c0-.28-.47-.71-.59-.87a1.37,1.37,0,0,0-1.15-.52c.1-.21.21-.43.29-.64a.11.11,0,0,0-.18-.11c-.2.32-.46.58-.67.89a.23.23,0,0,0,.2.34,1.16,1.16,0,0,1,1.09.36c.16.18.27.39.43.56-8.29.17-16.59-.1-24.89-.21l.18-.1c.2-.12.06-.46-.16-.37a2.28,2.28,0,0,1-1.21.22.91.91,0,0,1-.6-.63,1.4,1.4,0,0,0,.37-.83,1.86,1.86,0,0,0-.08-1.06.14.14,0,0,0-.28.08,1.35,1.35,0,0,1-.11.9c-.13.27-.37.46-.36.77a.23.23,0,0,0,.18.22,1.48,1.48,0,0,0,.38.79l-2.59,0h0a1.55,1.55,0,0,0,.29-.61c0-.1.07-.2.1-.3a.07.07,0,0,0,0-.06s0-.08,0-.1v0s0,0,0,0a.16.16,0,0,0-.1-.23c-.22-.06-.38.21-.46.36l-.19.36-.09.16,0,.06s0,0,0,0a.29.29,0,0,0,0,.41l-2.66,0a2.41,2.41,0,0,0,.46-.23.18.18,0,0,0-.14-.32,1.81,1.81,0,0,1-.84.08c-.2-.06-.17-.5-.16-.66s-.15-.12-.18,0c-.1.35-.26.84.1,1.1l.09,0-6.84,0,.18,0c.29-.07.23-.55-.07-.52a2.44,2.44,0,0,1-1-.08,1.37,1.37,0,0,1-.71-.87c-.06-.15-.3-.07-.29.08a1.48,1.48,0,0,0,1.28,1.41l-4.79-.06a1.64,1.64,0,0,0,1-2.18c-.08-.16-.29-.06-.3.08a5.47,5.47,0,0,1-.14,1.06,1.8,1.8,0,0,1-.89.91.11.11,0,0,0-.06.12c-2.3,0-4.6-.1-6.9-.19-4.3-.16-8.6-.41-12.9-.6-2.39-.11-6.45.22-7.72-2.33,0,0,0,0,0,0C11,76,13.38,76.39,15,76.6c3.76.49,7.61.58,11.39.78C36.23,77.92,46.1,78,56,78s19.56.45,29.35.21c5-.12,10-.44,14.9-1,4-.49,8.67-.77,12-3.33C112.48,73.68,112.26,73.25,112,73.43Z" />
            <path class="cls-1" d="M61.89,76a1.86,1.86,0,0,1-1.55-.15c-.16-.13-.38.08-.23.23a1.74,1.74,0,0,0,1.86.22A.16.16,0,0,0,61.89,76Z" />
            <path class="cls-1" d="M64.62,74.65a2.15,2.15,0,0,0-1.93-1c-.17,0-.23.29,0,.31a2.07,2.07,0,0,1,1.44.81,3.07,3.07,0,0,0-.26,1.11.19.19,0,0,0,.24.18c.51-.17.29-.84.55-1.19A.25.25,0,0,0,64.62,74.65Z" />
            <path class="cls-1" d="M67.65,75.09c0-.22-.42-.22-.45,0a2.63,2.63,0,0,1-.32,1.29c-.14.2.15.37.31.24A1.52,1.52,0,0,0,67.65,75.09Z" />
            <path class="cls-1" d="M76.47,74.17A3.27,3.27,0,0,0,74,73.3a.11.11,0,0,0-.09.1.23.23,0,0,0-.29.28c.16.86.73,1.88-.41,2.34a2.46,2.46,0,0,1-2.54-.72,1.35,1.35,0,0,0-.59-1.59c-.87-.5-2,.06-2.77.54a.18.18,0,0,0,.19.31,3.53,3.53,0,0,1,2.06-.35c.74.16.48,1,.49,1.5,0,.16.23.29.34.14a1.39,1.39,0,0,0,.09-.14,2.68,2.68,0,0,0,3.09.87,1.9,1.9,0,0,0,.59-3,6,6,0,0,1,2.19,1.21c-.13.28-.48.46-.64.74a.26.26,0,0,0,.35.34,1.79,1.79,0,0,0,.84-.84C77.09,74.61,76.82,74.44,76.47,74.17Z" />
            <path class="cls-1" d="M77.84,75.27a.78.78,0,0,1-.49-.09c-.15-.1-.28.12-.18.24a.82.82,0,0,0,.67.31A.23.23,0,0,0,77.84,75.27Z" />
            <path class="cls-1" d="M80.51,73.08c-.27-.47-1.37-1.92-1.82-.86a.09.09,0,0,0,.15.11c.22-.18.48.15.62.3s.42.52.65.75A.26.26,0,0,0,80.51,73.08Z" />
            <path class="cls-1" d="M82.59,71c-.14,0-.23.17-.1.24.5.28.87.66.6,1.24s-.73.74-.93,1.24c-.07.17.13.32.28.27a2.14,2.14,0,0,0,1.3-1.7C83.74,71.56,83.2,71.21,82.59,71Z" />
            <path class="cls-1" d="M90.44,72.24a.25.25,0,0,0-.25-.42,1.38,1.38,0,0,0-.8,1c0,.45.34.78.69,1a.1.1,0,0,0,.13-.13,4.25,4.25,0,0,1-.28-.71C89.85,72.66,90.22,72.4,90.44,72.24Z" />
            <path class="cls-1" d="M94.25,74.72a.18.18,0,0,0-.1,0,2,2,0,0,0,.22-2,.28.28,0,0,0-.26-.19c-1.13-.06-1.1-.9-1.22-1.81,0-.11-.21-.17-.23,0-.18,1.23-.14,2.24,1.22,2.36.14.83-.37,1.19-.74,1.9a.25.25,0,0,0,.34.34,2.23,2.23,0,0,0,.45-.35,2.18,2.18,0,0,1,.19.79c0,.3-.22.55-.24.85a.24.24,0,0,0,.36.2C94.94,76.36,94.74,75.21,94.25,74.72Z" />
            <path class="cls-1" d="M99.76,73.51a2.39,2.39,0,0,0-1.66-1.06c-.2-.47-.8-.86-1.23-.58a.17.17,0,0,0,0,.28c.28.21.55.28.72.58a2.8,2.8,0,0,1-1.24.83c-.18.08-.11.35.08.3a5.06,5.06,0,0,0,1-.34c.24-.12.76-.45.76-.76a.69.69,0,0,0,0-.23,2.51,2.51,0,0,1,1.48.9c.55.75-.16,1.47-.56,2.05-.14.2.17.43.33.25A1.92,1.92,0,0,0,99.76,73.51Z" />
            <path class="cls-1" d="M102.56,75.13a3.36,3.36,0,0,1-1.59.14.14.14,0,0,0-.07.27,2.44,2.44,0,0,0,1.81.12A.27.27,0,0,0,102.56,75.13Z" />
            <path class="cls-1" d="M104.45,73.11a2,2,0,0,0-1.25-.39.21.21,0,0,0,0,.42,6.42,6.42,0,0,1,1.08.39C104.54,73.61,104.65,73.25,104.45,73.11Z" />
            <path class="cls-1" d="M107.86,72.8a1.44,1.44,0,0,0-1.48-.55.11.11,0,0,0,0,.21,5.67,5.67,0,0,1,.94.54c.26.26,0,.7-.1,1a.19.19,0,0,0,.3.23A1.08,1.08,0,0,0,107.86,72.8Z" />
            <path class="cls-1" d="M35.65,68c-.12,0-.28.11-.16.21.44.34.16,1.13,0,1.54a.27.27,0,0,0,.5.21C36.39,69.32,36.39,68.29,35.65,68Z" />
            <path class="cls-1" d="M33.42,67.72a2.69,2.69,0,0,0-.7-.25,1.48,1.48,0,0,0-.54,0s0,0,0,0,.25.16.36.22.46.21.68.32S33.66,67.84,33.42,67.72Z" />
            <path class="cls-1" d="M24.87,64.57a.17.17,0,0,0-.23.23,4.53,4.53,0,0,1,.44.81,2.19,2.19,0,0,1,.06,1c0,.27.36.28.44.06A1.73,1.73,0,0,0,24.87,64.57Z" />
            <path class="cls-1" d="M28.75,61.37a1.89,1.89,0,0,0-2.8-.31.28.28,0,0,0-.05.44,4.91,4.91,0,0,1,.61.89,4.24,4.24,0,0,0-1.06,1.35c0,.08.08.13.14.08.48-.41,1-.78,1.46-1.19a.28.28,0,0,0,0-.34,6.44,6.44,0,0,0-.59-.94,1.34,1.34,0,0,1,1-.24,2.66,2.66,0,0,1,1,.57C28.63,61.8,28.89,61.55,28.75,61.37Z" />
            <path class="cls-1" d="M30.87,58.08c-.29-.12-.67.2-.85.4a1,1,0,0,0-.25.72c0,.12.19.16.21,0a.71.71,0,0,1,.34-.46c.19-.15.54-.21.66-.43A.19.19,0,0,0,30.87,58.08Z" />
            <path class="cls-1" d="M34,60.4a5.66,5.66,0,0,0-1.81-1.11c-.1,0-.18.11-.1.18.48.47,1,.94,1.44,1.41a3,3,0,0,0,1.24,1,.2.2,0,0,0,.25-.25A2.6,2.6,0,0,0,34,60.4Z" />
            <path class="cls-1" d="M37.66,59.08a2.65,2.65,0,0,0-1.29.18,3.32,3.32,0,0,0-.86.64c-.06.06,0,.14.08.11a3.73,3.73,0,0,1,1.62-.44c.31,0,.56,0,.33.29a.63.63,0,0,0-.14.46.25.25,0,0,0,.48.06c.06-.24.39-.34.37-.64A.61.61,0,0,0,37.66,59.08Z" />
            <path class="cls-1" d="M38.66,60.5a.07.07,0,0,0-.13,0,11.52,11.52,0,0,1-.23,1.86.12.12,0,0,0,.23.06A6.3,6.3,0,0,0,38.66,60.5Z" />
            <path class="cls-1" d="M31.33,62.35c-.07-.15-.28,0-.25.11a3.94,3.94,0,0,1,.05.84c0,.35-.14.67-.14,1a.23.23,0,0,0,.42.11A2.47,2.47,0,0,0,31.33,62.35Z" />
            <path class="cls-1" d="M35.59,66.33c-.17-.64-.72-1-1.19-1.41a.21.21,0,0,0-.25,0A2.52,2.52,0,0,1,30.9,65c-.11-.08-.24.09-.14.17a2.55,2.55,0,0,0,3.47.18,7.17,7.17,0,0,1,1,1.16A.2.2,0,0,0,35.59,66.33Z" />
            <path class="cls-1" d="M38.05,65.18a.21.21,0,0,0-.41.12,3.81,3.81,0,0,1,0,1.11,3.74,3.74,0,0,1-.28.84c-.1.27.29.48.47.27A2.44,2.44,0,0,0,38.05,65.18Z" />
            <path class="cls-1" d="M41.19,67.87a.22.22,0,0,0-.24,0,.75.75,0,0,0-.22,0c-.16,0-.32.12-.47.17s-.68.17-.78.5a.09.09,0,0,0,0,.1c.36.2,1,0,1.34-.11S41.61,68.08,41.19,67.87Z" />
            <path class="cls-1" d="M33.56,69.84c-.17,0-.28.2-.12.28A1,1,0,0,1,34,71.31a.25.25,0,0,0,.46.12C34.89,70.75,34.22,70,33.56,69.84Z" />
            <path class="cls-1" d="M39.32,56.72A5.13,5.13,0,0,0,38.16,56a2.8,2.8,0,0,0-.48-.18.37.37,0,0,0-.2,0s-.16.07-.07.05a.1.1,0,0,0,0,.18s-.07-.08,0,0a.33.33,0,0,0,.1.1l.42.27a11.64,11.64,0,0,0,1.12.67C39.26,57.23,39.54,56.91,39.32,56.72Z" />
            <path class="cls-1" d="M41.15,55.31c-.08-.14-.32,0-.26.11a2.59,2.59,0,0,1-.26,2.29c-.13.25.2.53.4.3A2.33,2.33,0,0,0,41.15,55.31Z" />
            <path class="cls-1" d="M42.44,59.66c-.37-.12-.77-.07-1.15-.15s-.45-.13-.49-.42,0-.46,0-.68-.22-.17-.24,0a9.18,9.18,0,0,0-.21.94.73.73,0,0,0,.39.64,2.2,2.2,0,0,0,1.72.21A.26.26,0,0,0,42.44,59.66Z" />
            <path class="cls-1" d="M42.27,60.67a.09.09,0,0,0-.17,0A6.47,6.47,0,0,0,42,62.8a.17.17,0,0,0,.32,0A6.48,6.48,0,0,0,42.27,60.67Z" />
            <path class="cls-1" d="M42.32,65c-.33-.17-.7-.24-1-.42a1.15,1.15,0,0,1-.48-1.08.13.13,0,0,0-.26,0,1.42,1.42,0,0,0,.25,1.41,1.84,1.84,0,0,0,1.4.56C42.42,65.44,42.54,65.13,42.32,65Z" />
            <path class="cls-1" d="M43.22,66.62c-.33-.24-.37-.74-.55-1.08-.05-.1-.23,0-.18.08.18.43.14,1,.64,1.23C43.26,66.91,43.32,66.69,43.22,66.62Z" />
            <path class="cls-1" d="M44.69,68.51A7.2,7.2,0,0,1,44,69.58c-.22.27-.61.51-.68.87a.27.27,0,0,0,.33.32c.38-.07.61-.54.81-.84A9.55,9.55,0,0,0,45,68.72C45.15,68.48,44.82,68.28,44.69,68.51Z" />
            <path class="cls-1" d="M45.83,72.72a2,2,0,0,1-1.63-.45c-.15-.11-.29.12-.18.24a1.61,1.61,0,0,0,1.94.66C46.17,73.08,46.08,72.68,45.83,72.72Z" />
            <path class="cls-1" d="M48.81,70a1.62,1.62,0,0,0-.65-.81c-.75-.4-1.13.63-1.28,1.14a.08.08,0,0,0,.15.06c.19-.29.63-1,1-.59a2,2,0,0,1,.36.74c.1.28.1.57.37.73a.2.2,0,0,0,.27-.07C49.25,70.81,49,70.3,48.81,70Z" />
            <path class="cls-1" d="M54.07,74.37a4.52,4.52,0,0,0-2.22-2,10.9,10.9,0,0,0-.58-1.92c0-.17-.28-.12-.28,0,0,.68.35,1.32.21,2a.34.34,0,0,0,.16.38,12.34,12.34,0,0,1,2.24,1.79C53.78,74.82,54.18,74.66,54.07,74.37Z" />
            <path class="cls-1" d="M56.43,69.71A1.62,1.62,0,0,0,54.71,69c-.13,0-.18.22,0,.24.46.06,1.06.18,1.25.66s-.13,1-.13,1.49a.25.25,0,0,0,.43.18A1.79,1.79,0,0,0,56.43,69.71Z" />
            <path class="cls-1" d="M60.6,73.24a1.73,1.73,0,0,0-.5,0c-.36.08-.38,0-.43-.41a.22.22,0,0,0-.31-.13,2.53,2.53,0,0,1-1.23.31c-.17-.49-.27-1-.46-1.47a.12.12,0,0,0-.22.07c.13.57.13,1.16.25,1.74a.25.25,0,0,0,.25.19,2.43,2.43,0,0,0,1.29-.27.62.62,0,0,0,.35.58c.36.16.72-.09,1.07-.16S60.85,73.25,60.6,73.24Z" />
            <path class="cls-1" d="M62.53,70.84a1.79,1.79,0,0,1-.87-.34,1.54,1.54,0,0,1-.39-1,.11.11,0,0,0-.23,0,1.78,1.78,0,0,0,.28,1.26,1.2,1.2,0,0,0,1.21.41A.17.17,0,0,0,62.53,70.84Z" />
            <path class="cls-1" d="M65.11,71.31a1.69,1.69,0,0,0-1.06-1.16c-.11-.05-.24.09-.13.18a1.46,1.46,0,0,1,.65,1c0,.43-.31.77-.42,1.17a.25.25,0,0,0,.36.27A1.42,1.42,0,0,0,65.11,71.31Z" />
            <path class="cls-1" d="M68.08,69.28a.22.22,0,0,0-.26,0,.6.6,0,0,0-.11.54,5.16,5.16,0,0,1,0,.92c0,.24-.05.48-.07.72s.08.16.07.24a.09.09,0,0,0,.17,0c0-.09.16-.12.2-.23a3.94,3.94,0,0,0,.18-.71C68.32,70.42,68.53,69.56,68.08,69.28Z" />
            <path class="cls-1" d="M73.6,72.09a1.81,1.81,0,0,1-1.55-.42,2.51,2.51,0,0,0-.45-1.45,2.8,2.8,0,0,0-2.31-.8,0,0,0,0,0,0,.09,2.25,2.25,0,0,1,2,.88c.42.71-.08,1.38,0,2.1,0,.19.28.38.44.18A1.4,1.4,0,0,0,72,72a1.44,1.44,0,0,0,1.69.45A.2.2,0,0,0,73.6,72.09Z" />
            <path class="cls-1" d="M77.29,69.81a.71.71,0,0,0-.67-.2,1.72,1.72,0,0,0-.79.49c-.12.1,0,.27.16.21a1.69,1.69,0,0,1,.66-.19c.11,0,.15,0,.18.09.19.47-.24,1,0,1.44a.26.26,0,0,0,.36.09c.34-.23.34-.72.34-1.1A1.25,1.25,0,0,0,77.29,69.81Z" />
            <path class="cls-1" d="M81.28,68.83a4.55,4.55,0,0,0-2.16.33.08.08,0,0,0,0,.15,7.1,7.1,0,0,1,1.09-.07,4.87,4.87,0,0,0,1,0A.22.22,0,0,0,81.28,68.83Z" />
            <path class="cls-1" d="M85.68,69.1c-.12-.1-.36,0-.24.19a5.93,5.93,0,0,1,.49.78,5.06,5.06,0,0,0,.43.82c.14.17.41,0,.41-.17A2.45,2.45,0,0,0,85.68,69.1Z" />
            <path class="cls-1" d="M79.32,76.24a1.07,1.07,0,0,1-.17.41,1.17,1.17,0,0,0-.21.54c0,.22.26.28.4.16a1.41,1.41,0,0,0,.43-1.11A.22.22,0,0,0,79.32,76.24Z" />
            <path class="cls-1" d="M47.24,65.84a5.68,5.68,0,0,0-1.6-1.26c-.06,0-.14.06-.08.1a7.32,7.32,0,0,1,.71.63,9.52,9.52,0,0,0,.74.75A.16.16,0,0,0,47.24,65.84Z" />
            <path class="cls-1" d="M50.6,66.85c-.16-.34-.39-.63-.57-.94a.07.07,0,0,0-.12.07,9.25,9.25,0,0,0,.52.87,5.26,5.26,0,0,1-1.6.42s0,0,0,0A6.74,6.74,0,0,0,50.56,67,.08.08,0,0,0,50.6,66.85Z" />
            <path class="cls-1" d="M50.32,64.71c-.1,0-.09.2,0,.19.75-.07,1.58.17,1.65,1a.25.25,0,0,0,.49,0C52.48,64.77,51.26,64.46,50.32,64.71Z" />
            <path class="cls-1" d="M53.19,69a1,1,0,0,1-.16-.58.21.21,0,0,0-.42,0,1,1,0,0,0,.23.93A.25.25,0,0,0,53.19,69Z" />
            <path class="cls-1" d="M47.89,67.17h-.08a.58.58,0,0,0-.31,0,1.6,1.6,0,0,0-.73.46.25.25,0,0,0,.36.36c.19-.16.38-.3.58-.45a.62.62,0,0,0,.2-.17v0h0C48,67.32,48,67.16,47.89,67.17Z" />
            <path class="cls-1" d="M45,61.44a0,0,0,0,0,0,0,2.47,2.47,0,0,1-1-.12.18.18,0,0,0-.25.11,1.09,1.09,0,0,0,0,1,2,2,0,0,0,.81.54c.22.11.49-.19.27-.36s-.4-.26-.58-.41a.8.8,0,0,1-.17-.63A3.14,3.14,0,0,1,45,61.44Z" />
            <path class="cls-1" d="M47.6,61.87a3.38,3.38,0,0,0-1.23-.51c-.06,0-.09.07,0,.1a3.33,3.33,0,0,0,1.12.67C47.59,62.15,47.72,62,47.6,61.87Z" />
            <path class="cls-1" d="M52.23,60.05A.28.28,0,0,0,52,60a19.32,19.32,0,0,0-3.4,1.3c-.11.07-.07.29.08.26a17.93,17.93,0,0,0,3.27-.94,4.51,4.51,0,0,0,.33.89c.11.16.42.12.4-.11A2.19,2.19,0,0,0,52.23,60.05Z" />
            <path class="cls-1" d="M53.62,62.78a1.32,1.32,0,0,0-.38.78c0,.26,0,.65.24.79a.15.15,0,0,0,.22-.09,2.07,2.07,0,0,0-.07-.56.92.92,0,0,1,.23-.68C54,62.85,53.78,62.62,53.62,62.78Z" />
            <path class="cls-1" d="M56.84,65.14a1.55,1.55,0,0,1-.83-.33,1.24,1.24,0,0,1-.25-1c0-.13-.18-.14-.22,0a1.62,1.62,0,0,0,0,1.27,1.17,1.17,0,0,0,1.21.49C57,65.54,57.1,65.18,56.84,65.14Z" />
            <path class="cls-1" d="M57.56,66.1a1.9,1.9,0,0,1-.56,1,.25.25,0,0,0,.35.34,1.65,1.65,0,0,0,.56-1.31A.18.18,0,0,0,57.56,66.1Z" />
            <path class="cls-1" d="M60.75,65.53a.25.25,0,0,0-.36.36c.28.34.22.81.32,1.21a.26.26,0,0,0,.5,0A1.66,1.66,0,0,0,60.75,65.53Z" />
            <path class="cls-1" d="M66.26,65.32a4.75,4.75,0,0,1-1,1,2.88,2.88,0,0,1-1.69.36c-.22,0-.27.34-.05.38a2.76,2.76,0,0,0,3.11-1.4C66.76,65.38,66.47,65.08,66.26,65.32Z" />
            <path class="cls-1" d="M71.32,67.51A4.75,4.75,0,0,0,70,66.92a8.52,8.52,0,0,1,0-1.38.19.19,0,0,0-.38-.1c-.18.55-.12,1.13-.31,1.67a.33.33,0,0,0,.31.41A3.77,3.77,0,0,1,71,68C71.37,68.15,71.65,67.7,71.32,67.51Z" />
            <path class="cls-1" d="M74.26,64.29a.25.25,0,0,0-.31.24c0,.38.39.65.31,1.06a1.07,1.07,0,0,1-.33.48c-.14.15-.21.36-.35.49s0,.17.08.14.28,0,.42-.08a1.46,1.46,0,0,0,.34-.21,1.55,1.55,0,0,0,.47-.65A1.21,1.21,0,0,0,74.26,64.29Z" />
            <path class="cls-1" d="M74.53,63.46a2.55,2.55,0,0,0-1.47-.84.21.21,0,0,0-.14.35A8.41,8.41,0,0,1,75,64.78a.14.14,0,0,0,.25-.11A2.27,2.27,0,0,0,74.53,63.46Z" />
            <path class="cls-1" d="M57,59.67a.38.38,0,0,0,0,.75A.38.38,0,0,0,57,59.67Z" />
            <path class="cls-1" d="M60.11,63a16.38,16.38,0,0,1-.77-1.72c-.14-.36-.24-.82-.59-1a.2.2,0,0,0-.29.17c0,.41.3.86.5,1.21.28.51.59,1,.91,1.5A.14.14,0,0,0,60.11,63Z" />
            <path class="cls-1" d="M64.61,62.76a4.31,4.31,0,0,0-1.33.09,4.5,4.5,0,0,1-2.06-.33.18.18,0,0,0-.18.32,4.53,4.53,0,0,0,1.87.61c.52.07,1.42.2,1.85-.19A.3.3,0,0,0,64.61,62.76Z" />
            <path class="cls-1" d="M64.55,60a3.17,3.17,0,0,0-1-1,2.88,2.88,0,0,1,.39-.08.25.25,0,0,0,.06-.48,11.37,11.37,0,0,1-1.72-.78.09.09,0,0,0-.09.16c.37.28.83.47,1.22.73l-.45.18c-.12.05-.17.28,0,.3a2.17,2.17,0,0,1,1.54,1A0,0,0,1,0,64.55,60Z" />
            <path class="cls-1" d="M60.25,57.8a2.43,2.43,0,0,1-.73-.86c-.08-.15-.29,0-.22.13a1.74,1.74,0,0,0,.83,1C60.31,58.19,60.4,57.91,60.25,57.8Z" />
            <path class="cls-1" d="M57.53,57.76a4.49,4.49,0,0,0-2.1-1.27.16.16,0,0,0-.08.29c.32.14.65.24,1,.35a5.19,5.19,0,0,1,1.18.66S57.54,57.77,57.53,57.76Z" />
            <path class="cls-1" d="M52.7,56.47A5.1,5.1,0,0,1,51.5,59c-.09.13.1.32.22.22a3.34,3.34,0,0,0,1.12-2.8A.08.08,0,0,0,52.7,56.47Z" />
            <path class="cls-1" d="M50.32,58.66c-.63-.06-1.23-.32-1.86-.42a.14.14,0,0,0-.07.27,4.77,4.77,0,0,0,1.93.33A.09.09,0,0,0,50.32,58.66Z" />
            <path class="cls-1" d="M46.15,57.92a1.44,1.44,0,0,0-.33,0l-.12,0a.27.27,0,0,0-.17,0c-.22.13-.16.46,0,.63a.13.13,0,0,0,.23-.1.22.22,0,0,1,0-.18c0-.05.08-.07.1-.13s.24-.13.34-.14A.09.09,0,0,0,46.15,57.92Z" />
            <path class="cls-1" d="M45.57,59.09c-1.11.33-1.66-.86-2.05-1.6s.45-.87,1-1.09a.3.3,0,0,0,.18-.43,11.26,11.26,0,0,1-1.1-2.75,10.16,10.16,0,0,1,1.72.54.13.13,0,0,0,.13-.22,5.33,5.33,0,0,0-2.09-.86.23.23,0,0,0-.25.33c.46.95.37,2.15.94,3-.32.25-.64.5-1,.73a.12.12,0,0,0,0,.15c.48,1,1.15,2.89,2.59,2.26C45.68,59.17,45.63,59.07,45.57,59.09Z" />
            <path class="cls-1" d="M49.14,51.92c.22-.18-.06-.53-.3-.39A2.05,2.05,0,0,0,48,53.65c.08.8.66,1.91-.07,2.36-.31-.9-1.12-1.17-1.73-2,0-.06-.13,0-.09.06.51.82,1.21,1.39,1.22,2.43a.36.36,0,0,0,.45.34,1.33,1.33,0,0,0,1.19-1.68C48.74,54,48,52.85,49.14,51.92Z" />
            <path class="cls-1" d="M54.56,51.37c-1.13-.8-3.13-1.45-4.35-.53-.14.1-.06.38.13.31a3.14,3.14,0,0,1,2.26-.25c.64.2,1.17.62,1.81.83C54.63,51.8,54.72,51.49,54.56,51.37Z" />
            <path class="cls-1" d="M59.43,49.33A3.62,3.62,0,0,0,57,49.14a2.16,2.16,0,0,0-1.49,1.8c0,.1.11.16.16.07A3.35,3.35,0,0,1,57,49.61a3.49,3.49,0,0,1,2.33-.05C59.47,49.58,59.57,49.39,59.43,49.33Z" />
            <path class="cls-1" d="M63.62,47.63c-.24-.25-.62-.34-.68-.71a.18.18,0,0,0-.22-.12l-.11,0a.19.19,0,0,0-.08.13,4.2,4.2,0,0,0-1.66-.55.18.18,0,0,0-.17.23,3.2,3.2,0,0,1,0,1.61,1.35,1.35,0,0,0,0,.89c.08.16.32.07.33-.09,0-.36-.1-.71-.07-1.08s.06-.78.06-1.18a9.41,9.41,0,0,1,1.57.4c.11.37.49.39.84.64C63.59,47.91,63.72,47.73,63.62,47.63Z" />
            <path class="cls-1" d="M69.12,49.23c-.47-.23-1.2,0-1.4-.65a.23.23,0,0,0-.33-.13,2.49,2.49,0,0,1-3.21-.25c-.09-.11-.26,0-.19.15.9,1.42,2,1.13,3.35.61.24.83.86.42,1.63.63C69.18,49.64,69.32,49.33,69.12,49.23Z" />
            <path class="cls-1" d="M71.3,49.91a2.18,2.18,0,0,0-.84-1,.15.15,0,0,0-.21.21c.25.3.46.63.7.94S71.37,50.13,71.3,49.91Z" />
            <path class="cls-1" d="M59,54.16c-2.18.34-4.29-.56-6.42-.26l.19-.37a.17.17,0,0,0-.27-.21c-.44.35-.56.43-.48.94a.23.23,0,0,0,.29.17,7,7,0,0,1,4,.15,4.44,4.44,0,0,0,2.86,0A.21.21,0,0,0,59,54.16Z" />
            <path class="cls-1" d="M65.21,55.08s-.07,0-.12,0a.28.28,0,0,0-.31.13l0,0a.27.27,0,0,0,0,.29h0c-.42-.08-.85-.23-1.26-.34a7.08,7.08,0,0,1-1.59-.57h0a2.64,2.64,0,0,0,0-2.3,2.68,2.68,0,0,0-2.35-1.39c-.17,0-.25.19-.18.32a9.56,9.56,0,0,0,1.23,2.25c.09.09.28,0,.23-.13-.28-.66-.59-1.3-.9-1.94a2.37,2.37,0,0,1,1.5,1,3.08,3.08,0,0,1,.1,2.28.12.12,0,0,0,.21.11l0,0a6.14,6.14,0,0,0,1.42.6c.6.17,1.24.13,1.84.31a.08.08,0,0,0,.09,0,.67.67,0,0,0,.09-.15.47.47,0,0,0,.18-.12A.21.21,0,0,0,65.21,55.08Z" />
            <path class="cls-1" d="M66.32,56.66c.06-.14-.13-.25-.21-.12-.17.29-.53.81-.16,1.09a.12.12,0,0,0,.18-.14c-.05-.1,0-.23,0-.33A2.67,2.67,0,0,1,66.32,56.66Z" />
            <path class="cls-1" d="M67.05,59.13a1.35,1.35,0,0,1-.48-.39,1.1,1.1,0,0,1-.06-.78.11.11,0,0,0-.2-.06,1.66,1.66,0,0,0-.05,1,.82.82,0,0,0,.69.51C67.09,59.41,67.2,59.21,67.05,59.13Z" />
            <path class="cls-1" d="M68,61.67a3,3,0,0,1-.35-.83.67.67,0,0,0-.48-.37,9.33,9.33,0,0,1,.24-1c0-.06-.08-.1-.1,0-.18.36-.27.74-.46,1.09a.16.16,0,0,0,.09.23c.33.08.52.12.59.46a1,1,0,0,0,.34.58C67.95,61.83,68.07,61.75,68,61.67Z" />
            <path class="cls-1" d="M69.86,61.45a.22.22,0,0,0-.43,0,3.54,3.54,0,0,1-.09.56.38.38,0,0,1-.43.17c-.09,0-.17.12-.07.17a.64.64,0,0,0,.76,0A1,1,0,0,0,69.86,61.45Z" />
            <path class="cls-1" d="M70.77,58.1c0-.22-.33-.26-.37,0a7.45,7.45,0,0,0,.07,3.11c0,.16.28.09.25-.07A11.22,11.22,0,0,1,70.77,58.1Z" />
            <path class="cls-1" d="M72.81,60.74a.15.15,0,0,0-.29,0,10.14,10.14,0,0,0-.24,1.71.21.21,0,0,0,.41,0A10.2,10.2,0,0,0,72.81,60.74Z" />
            <path class="cls-1" d="M72.07,64.26a1,1,0,0,1,0-.83c0-.11-.14-.18-.19-.08-.2.35-.39.81,0,1.12C71.94,64.58,72.19,64.43,72.07,64.26Z" />
            <path class="cls-1" d="M79.24,65.27a.23.23,0,0,0-.18-.42c-.19,0-.26.07-.28-.15a.22.22,0,0,0-.45,0,.77.77,0,0,0,.21.61l.06,0A3.55,3.55,0,0,1,78,66.7c-.12.17.12.31.26.2a1.71,1.71,0,0,0,.59-1.48A.68.68,0,0,0,79.24,65.27Z" />
            <path class="cls-1" d="M80.66,64.26c-.05,0-.11,0-.06.08a1.93,1.93,0,0,1,.74,1.22c.12.55-.15,1-.13,1.58a.21.21,0,0,0,.38.1A2.23,2.23,0,0,0,80.66,64.26Z" />
            <path class="cls-1" d="M85.21,66.32a.22.22,0,0,0-.44.06,6.68,6.68,0,0,0,.15,1.45A3.33,3.33,0,0,1,82.7,67a.23.23,0,0,0-.36.28c.57.93,1.87,1.05,2.85,1.07a.25.25,0,0,0,.25-.25A5.16,5.16,0,0,0,85.21,66.32Z" />
            <path class="cls-1" d="M88.49,68.51a2.24,2.24,0,0,1-1-2,.2.2,0,0,0-.4,0c0,1,.23,1.92,1.31,2.22A.14.14,0,0,0,88.49,68.51Z" />
            <path class="cls-1" d="M89,69.66a.86.86,0,0,1,0-.79c.07-.18-.22-.3-.31-.13-.21.39-.38.91,0,1.22C88.87,70.09,89.08,69.84,89,69.66Z" />
            <path class="cls-1" d="M86.19,72.81a.22.22,0,0,0-.45,0c0,.16,0,.33-.06.49s-.11.38-.14.57.24.46.42.25A1.68,1.68,0,0,0,86.19,72.81Z" />
            <path class="cls-1" d="M91.52,68.25c-.21.12-.27.38-.35.6s-.18.57-.25.87.22.29.29.12a7.87,7.87,0,0,1,.36-.73c.11-.2.31-.43.28-.67A.22.22,0,0,0,91.52,68.25Z" />
            <path class="cls-1" d="M92.55,75.92a.59.59,0,0,1-.09-.66c0-.06-.07-.09-.1,0-.17.3-.39.62-.07.89C92.44,76.22,92.67,76.07,92.55,75.92Z" />
            <path class="cls-1" d="M97.09,68.06a1.56,1.56,0,0,0-1.44-.42c-.59.19-.59.84-.55,1.35a.13.13,0,0,0,.26,0c0-.26.13-.8.47-.84a2.4,2.4,0,0,1,1,.29C97.08,68.52,97.26,68.2,97.09,68.06Z" />
            <path class="cls-1" d="M102.4,72.09a1.33,1.33,0,0,1-.36-.86.18.18,0,0,0-.13-.17,17.49,17.49,0,0,1-1.82-.55c-.19-.07-.45-.24-.66-.12a2.47,2.47,0,0,1-1.44.2,8.86,8.86,0,0,0,0-1c0-.13-.2-.17-.23,0a11.06,11.06,0,0,0-.34,1.28.29.29,0,0,0,.27.35,7.92,7.92,0,0,0,1.4,0c.43-.05.47-.16.89,0a2.76,2.76,0,0,0,1.72.23,1.16,1.16,0,0,0,.45.89C102.3,72.43,102.49,72.22,102.4,72.09Z" />
            <path class="cls-1" d="M104.19,69.76c-.08-.53-.67-.8-1.13-.87-.23,0-.48.26-.25.44l.06,0h0a1.09,1.09,0,0,1,.18.12,1,1,0,0,1,.27.6,0,0,0,0,0,.09,0,3,3,0,0,0,0-.44.49.49,0,0,1,.19.37,2.32,2.32,0,0,0,.18,1.11c.08.13.33.13.36,0A4.17,4.17,0,0,0,104.19,69.76Z" />
            <path class="cls-1" d="M107.6,71c-.7-.13-1.41-.15-2.11-.27a.13.13,0,0,0-.07.26,4.64,4.64,0,0,0,2.18.46C107.84,71.4,107.82,71,107.6,71Z" />
            <path class="cls-1" d="M108.39,70.29c-.18-.1-.39.15-.22.29a1.35,1.35,0,0,1,.46.56,1.52,1.52,0,0,1,0,.64c0,.26.35.34.47.13C109.45,71.21,109,70.63,108.39,70.29Z" />
            <path class="cls-1" d="M93.21,66.83a1.12,1.12,0,0,0-.76-.56c-.34-.1-.45.39-.14.52a.64.64,0,0,1,.47.64c0,.15.16.32.3.17A.7.7,0,0,0,93.21,66.83Z" />
            <path class="cls-1" d="M89.72,64.93a1.65,1.65,0,0,0-1.65.79c-.09.16.13.34.26.2a2.05,2.05,0,0,1,1.39-.78A.1.1,0,0,0,89.72,64.93Z" />
            <path class="cls-1" d="M88,64.09a.18.18,0,0,0-.36,0,7.74,7.74,0,0,0,.27,1.14.1.1,0,0,0,.21,0A7.56,7.56,0,0,0,88,64.09Z" />
            <path class="cls-1" d="M96.6,64.29a2.7,2.7,0,0,0-3.75-.92.17.17,0,0,0,.13.31,3.33,3.33,0,0,1,1.71,0,4.77,4.77,0,0,1,1.5,1C96.45,64.89,96.74,64.53,96.6,64.29Z" />
            <path class="cls-1" d="M101.74,68.13a8,8,0,0,1-.21-1.06.26.26,0,0,0-.33-.25c-1.47.47-2.57-.1-3.91-.51.12-.42.24-.84.4-1.25.09-.24-.29-.39-.41-.17a14.91,14.91,0,0,0-.66,1.55.3.3,0,0,0,.22.38c1.49.31,2.7,1.11,4.14.65a1.09,1.09,0,0,0,.29.94A.28.28,0,0,0,101.74,68.13Z" />
            <path class="cls-1" d="M101.56,64.82a8.27,8.27,0,0,1-.84-.44c-.28-.16-.49-.4-.83-.35a.21.21,0,0,0-.15.26c.08.32.43.43.7.56a4.75,4.75,0,0,0,1,.32C101.61,65.22,101.76,64.91,101.56,64.82Z" />
            <path class="cls-1" d="M85.67,64.66c-.27-.13-.56-.26-.83-.4a4.1,4.1,0,0,0-.74-.37.23.23,0,0,0-.28.28c.22.64,1.09.81,1.68.92C85.74,65.13,85.93,64.78,85.67,64.66Z" />
            <path class="cls-1" d="M85.35,61.3a1.68,1.68,0,0,0-1.2.61,1.48,1.48,0,0,0-.24,1.29c0,.17.27.09.25-.07a1.21,1.21,0,0,1,.27-1,2.71,2.71,0,0,1,1-.49C85.58,61.52,85.5,61.29,85.35,61.3Z" />
            <path class="cls-1" d="M86.26,60a.22.22,0,0,0-.36.15,2.88,2.88,0,0,0,.16.56.66.66,0,0,1-.06.51c-.09.13.1.27.21.16a.93.93,0,0,0,.23-.59A1,1,0,0,0,86.26,60Z" />
            <path class="cls-1" d="M90.3,63.27c-.17-.6-.76-1-1.23-1.34S88,61.17,87.48,60.8c-.08-.06-.19.07-.11.14.47.42.93.86,1.37,1.32s.73,1,1.25,1.25A.22.22,0,0,0,90.3,63.27Z" />
            <path class="cls-1" d="M91.67,62a5,5,0,0,0-1.68-2,.2.2,0,0,0-.24.31,23.53,23.53,0,0,1,1.8,1.8C91.61,62.11,91.71,62,91.67,62Z" />
            <path class="cls-1" d="M92.57,59.77a1.47,1.47,0,0,0-.6-.37,1.38,1.38,0,0,0-.36-.07c-.15,0-.26.08-.4.09s-.17.21,0,.23a3.46,3.46,0,0,1,.51.21,1,1,0,0,1,.39.29,2.35,2.35,0,0,1,.4,1.16.26.26,0,0,0,.5,0A1.8,1.8,0,0,0,92.57,59.77Z" />
            <path class="cls-1" d="M78.73,62.92c-.16,0-.33,0-.49,0a1.06,1.06,0,0,0-.53.22c-.33.24-.73.76-.54,1.17a.28.28,0,0,0,.38.1c.26-.18.26-.54.45-.78a1.33,1.33,0,0,1,.73-.53A.07.07,0,0,0,78.73,62.92Z" />
            <path class="cls-1" d="M76.77,59.38a.22.22,0,0,0,.06.42c.83.07,2.2-.29,2.59.74,0,.06.14.06.13,0C79.38,59.28,77.79,59,76.77,59.38Z" />
            <path class="cls-1" d="M76.68,59a6.43,6.43,0,0,0-1.34-.61c-.14,0-.2.14-.09.21a6.42,6.42,0,0,0,1.37.54C76.7,59.13,76.75,59,76.68,59Z" />
            <path class="cls-1" d="M76.28,61.56c-.12-.28-.36-.41-.57-.61s-.46-.45-.7-.66a.1.1,0,0,0-.14.14,5.89,5.89,0,0,1,.52.76c.17.28.27.55.57.69A.24.24,0,0,0,76.28,61.56Z" />
            <path class="cls-1" d="M82.8,62c-.07-.35-.38-.47-.68-.6a3.71,3.71,0,0,0-.82-.28.32.32,0,0,0-.28.07.14.14,0,0,0-.11.24.27.27,0,0,0,.09.22,5.27,5.27,0,0,0,.73.43c.29.16.52.35.87.28A.3.3,0,0,0,82.8,62Z" />
            <path class="cls-1" d="M82.79,57.9a1.26,1.26,0,0,0-.43,1.52.15.15,0,0,0,.29-.08c-.12-.52.11-.79.39-1.2C83.14,58,82.94,57.79,82.79,57.9Z" />
            <path class="cls-1" d="M86,57.88c-.26.14-.3.48-.55.65a1,1,0,0,1-.84,0c-.13,0-.21.15-.09.22a1.23,1.23,0,0,0,1,.23c.33-.11.76-.54.72-.91A.19.19,0,0,0,86,57.88Z" />
            <path class="cls-1" d="M88.14,57.7c-.49.11-.93.48-1.41.09-.08-.07-.2,0-.12.12a1.13,1.13,0,0,0,1.68,0A.15.15,0,0,0,88.14,57.7Z" />
            <path class="cls-1" d="M88.71,55.6a7.76,7.76,0,0,0-2.86-1.47.14.14,0,0,0-.06-.2c-1.08-.6-2-1.46-3-2.05a.14.14,0,0,0-.17.22,9.74,9.74,0,0,0,3,2.08.14.14,0,0,0,.05.22A18.22,18.22,0,0,1,88.44,56C88.65,56.1,88.9,55.76,88.71,55.6Z" />
            <path class="cls-1" d="M82.26,51.57a.94.94,0,0,1-.86.08c-.23-.14-.17-.5-.36-.67a.11.11,0,0,0-.18,0c-.1.31.23.67.49.81a1.09,1.09,0,0,0,1-.17C82.39,51.63,82.32,51.54,82.26,51.57Z" />
            <path class="cls-1" d="M80.52,55.49a3.91,3.91,0,0,0-.94-.79,1,1,0,0,1-.52-.82c.28-.19.23-.45.15-.77A.13.13,0,0,0,79,53c-.06-.53,0-1,0-1.59a.08.08,0,0,0-.16,0,11.46,11.46,0,0,0-.15,2.27.31.31,0,0,0,.06.14c0,.85.78,1.29,1.62,1.89C80.49,55.85,80.63,55.62,80.52,55.49Z" />
            <path class="cls-1" d="M82.47,55.36a.18.18,0,0,0-.34,0c-.08.33-.15.67-.25,1a7.86,7.86,0,0,0-.37.88.25.25,0,0,0,.3.3C82.61,57.31,82.61,56,82.47,55.36Z" />
            <path class="cls-1" d="M84.78,55.53a1.86,1.86,0,0,0-.82-1A2.66,2.66,0,0,0,82.68,54a.09.09,0,0,0,0,.17,4.26,4.26,0,0,1,1,.61c.33.28.5.68.8,1A.21.21,0,0,0,84.78,55.53Z" />
            <path class="cls-1" d="M78.33,57.2a1.73,1.73,0,0,1-1.57-.71c-.1-.13-.35-.06-.29.12a1.37,1.37,0,0,0,.72.91,1.64,1.64,0,0,0,1.16-.09C78.47,57.38,78.47,57.19,78.33,57.2Z" />
            <path class="cls-1" d="M74.69,55.56a.1.1,0,0,0-.05.06l-.08,0H74.4a3,3,0,0,0-.49,0,.22.22,0,0,0,0,.42A1,1,0,0,0,74.5,56c.16-.07.2-.18.29-.29S74.77,55.5,74.69,55.56Z" />
            <path class="cls-1" d="M73,58.73a2.71,2.71,0,0,1-.65-1.39.12.12,0,0,0-.24,0A2,2,0,0,0,72.69,59C72.87,59.16,73.21,59,73,58.73Z" />
            <path class="cls-1" d="M69.34,57a1,1,0,0,0-.17-.61.16.16,0,0,0-.17,0h-.14a.05.05,0,0,0,0,.1c.05,0,.06,0,0,0a.38.38,0,0,0,0,.15,1.31,1.31,0,0,1,0,.4,2.53,2.53,0,0,0-.05,1,.27.27,0,0,0,.52,0A3.09,3.09,0,0,0,69.34,57Z" />
            <path class="cls-1" d="M67,53.3c-.06-.22-.37-.37-.56-.44a4.13,4.13,0,0,0-.6-.08.23.23,0,0,0-.18.43c.24.17.53.16.77.31,0,.15,0,.3,0,.45s.09.22.06.34.11.16.15.06.23-.2.27-.34A1.47,1.47,0,0,0,67,53.3Z" />
            <path class="cls-1" d="M64.92,50.36a.2.2,0,0,0-.06-.39,1.3,1.3,0,0,0-1.27,2.19,2,2,0,0,0,1.26.53.06.06,0,0,0,0-.12,2.14,2.14,0,0,1-1.33-1.21C63.36,50.64,64.47,50.51,64.92,50.36Z" />
            <path class="cls-1" d="M68.77,51.56a2.7,2.7,0,0,0-1-.57,4.81,4.81,0,0,1-1.29-.72.12.12,0,0,0-.17.17,5.73,5.73,0,0,0,1.11.86,3,3,0,0,0,1.25.53C68.8,51.84,68.85,51.65,68.77,51.56Z" />
            <path class="cls-1" d="M70.1,55.08c-.77-.47-.71-1.27-.35-2a.17.17,0,0,0-.29-.17c-.59.9-.81,2.2.48,2.56A.21.21,0,0,0,70.1,55.08Z" />
            <path class="cls-1" d="M72,54.41c-.27.21-.45.53-.74.72s0,.34.12.27a1.21,1.21,0,0,0,.51-.35c.13-.15.21-.32.32-.48S72.09,54.33,72,54.41Z" />
            <path class="cls-1" d="M72.69,51.14c0-.05,0-.16-.08-.13a1.37,1.37,0,0,0-.78.59c-.17.34.11.67.35.88.08.07.25,0,.17-.13a.57.57,0,0,1-.11-.66A2.65,2.65,0,0,1,72.69,51.14Z" />
            <path class="cls-1" d="M73.65,50.07a1.6,1.6,0,0,0-.16.64c0,.12.16.11.18,0a1.32,1.32,0,0,1,.22-.5C74,50,73.71,49.91,73.65,50.07Z" />
            <path class="cls-1" d="M75,49.43c-.15-.12-.44,0-.3.23a9.48,9.48,0,0,1,.75,1.14c.25.47.36,1,.56,1.47.08.2.41.19.4-.05A4,4,0,0,0,75,49.43Z" />
            <path class="cls-1" d="M76.09,54.7a10,10,0,0,1-1.69-.44h0A2.66,2.66,0,0,0,75.22,53c.07-.16-.15-.3-.24-.14a4.77,4.77,0,0,1-.33.55c-.14.2-.32.36-.45.57a.14.14,0,0,0,0,.14,3.07,3.07,0,0,1-.34-.18c-.16-.1-.3.15-.15.25A6.16,6.16,0,0,0,76,55C76.22,55.07,76.31,54.74,76.09,54.7Z" />
            <path class="cls-1" d="M3.15,2.67A3.92,3.92,0,0,0,.33,4.24a.25.25,0,0,0,.35.35A8.25,8.25,0,0,1,3.21,3.11C3.45,3,3.42,2.66,3.15,2.67Z" />
            <path class="cls-1" d="M47.06,52.65C45.53,48,26.63,4.34,24.11.08a.16.16,0,0,0-.29.12,3.41,3.41,0,0,0-3.43,1.44.06.06,0,0,0-.06.06s0,0,0,0-.1.14-.14.21a.22.22,0,0,0,.12.31,9,9,0,0,0,1,3.41C22,7.28,42.08,50.91,43.1,52.34a.2.2,0,0,0,.36-.16C42.64,49.31,21,5.28,20.5,2.25l.07-.07A3.78,3.78,0,0,1,23.93.49C25.9,5,44.27,48.56,46.8,52.76A.14.14,0,0,0,47.06,52.65Z" />
            <path class="cls-1" d="M34.42,58.62C33.15,56.49,1.74,6.7.24,4.73c-.1-.13-.31,0-.22.13,1.2,2.16,32.63,51.95,34.07,54C34.23,59,34.55,58.83,34.42,58.62Z" />
            <path class="cls-1" d="M37.35,56.44C36.73,55.12,7.71,8.92,6.86,7.75A9.89,9.89,0,0,0,4.5,4.94a0,0,0,0,0-.06,0,12.34,12.34,0,0,0,2,3C7.25,9.22,36,55.55,36.87,56.72A.28.28,0,0,0,37.35,56.44Z" />
            <path class="cls-1" d="M52.07,97.25c-.39-.12-.53.46-.16.61,4,1.6,6.95,5.26,5.66,9.72S51,113.41,47,112c-7.11-2.56-7.16-15.62,1.78-14.56.05,0,.06-.07,0-.09-3.93-1.16-7.18,1.33-7.62,5.34a10.13,10.13,0,0,0,3,8.4.16.16,0,0,0-.17.06,19.46,19.46,0,0,0-1.41,2.6.26.26,0,0,0,.22.39c1.26,0,2.53,0,3.79-.05a.23.23,0,0,0,0-.45c-1.13-.06-2.26,0-3.39,0,.33-.78.65-1.57,1-2.32a.17.17,0,0,0,0-.12,8.53,8.53,0,0,0,2.53,1.62,8.81,8.81,0,0,0,11.52-4.69C60.14,103.27,56.57,98.66,52.07,97.25Z" />
            <path class="cls-1" d="M68.29,103.15c-.55.05-1.73.39-2.1-.21s.08-1.36.25-1.83a22.6,22.6,0,0,1,1.32-2.83c0-.06-.05-.13-.1-.07a9.15,9.15,0,0,0-2.1,3.57c-.58,2,1.29,2.5,2.85,1.76A.21.21,0,0,0,68.29,103.15Z" />
            <path class="cls-1" d="M89.45,96.29a.25.25,0,0,0-.41.24,9.62,9.62,0,0,1,.69,2.68,2.07,2.07,0,0,1-2,2.14l-.07,0c0-.1,0-.21,0-.31a.18.18,0,0,0-.32-.13,3.18,3.18,0,0,0,1.08,4.27,5.25,5.25,0,0,1-4,1.82,4.54,4.54,0,0,1-4.43-2.65c-.1-.25-.55-.34-.6,0a27.25,27.25,0,0,0,0,5.41c-1.42-1.23-1.39-3.15-1.26-4.94,0-.36-.51-.4-.61-.08a13.86,13.86,0,0,1-4,6.47,3.4,3.4,0,0,0,.89-3.82.37.37,0,0,0-.6-.16,4.53,4.53,0,0,1-6,0,3.08,3.08,0,0,0,1.6-3.69.07.07,0,0,0-.13,0c.36,1.62-.7,2.73-2.09,3.27a.33.33,0,0,0-.14.54,5.18,5.18,0,0,0,6.85.71c.38,1.67-.93,2.73-2.2,3.71a.29.29,0,0,0,.29.5,5.56,5.56,0,0,0,1.29-.82l-.37.32c-.08.07,0,.19.11.14a10.37,10.37,0,0,0,4.48-5.27,4.53,4.53,0,0,0,1.93,3.94c.35.23.66-.3.35-.55.2-1.53.05-3.07.17-4.61,2,2.71,7.63,3.53,9.06.07.14,0,.27-.15.14-.26l0,0a.28.28,0,0,0-.33-.31,4.37,4.37,0,0,1-1.08-1.51,3.34,3.34,0,0,1-.14-1.62.28.28,0,0,0,.13,0,2.44,2.44,0,0,0,2.55-1.9A3.81,3.81,0,0,0,89.45,96.29Z" />
            <path class="cls-1" d="M97,105a13.53,13.53,0,0,1-2,.5,4.78,4.78,0,0,1-2.25-.39,3.09,3.09,0,0,0,.88-3.26.16.16,0,0,0,0-.07l.25,0a.24.24,0,0,0,.06-.47c-1-.35-1.74-.59-2-1.75a6,6,0,0,1,.32-2.71c0-.15-.18-.25-.25-.11-.77,1.57-1,5,1.35,5.06a.16.16,0,0,0-.05.16c.24,1.37-.45,2.23-1.31,3.21-.16.18.05.5.27.35l.17-.12a4.36,4.36,0,0,0,4.79.17A.3.3,0,0,0,97,105Z" />
            <path class="cls-1" d="M72.19,102.77a.31.31,0,0,0-.31-.3c-2.57.21-3.71-1.82-2.58-4,0-.08,0-.19-.13-.13a2.58,2.58,0,0,0-.49,3.36,2.87,2.87,0,0,0,1.6,1.24c.37.14,1.36,0,1.28.54-.14,1.08-1.25,1.9-2.07,2.46a.28.28,0,0,0,.28.48A4.12,4.12,0,0,0,72.19,102.77Z" />
            <path class="cls-1" d="M85.57,102.87c-2.59,1.21-4.87.12-6.38-2.2a.36.36,0,0,0-.57-.07c-1.84,2.29-3.52,4.66-6.58,5.26-.16,0-.11.26,0,.27,3,.21,5.07-2.52,6.78-4.67,1.56,2.06,4.86,4.12,7,1.83A.27.27,0,0,0,85.57,102.87Z" />
            <path class="cls-1" d="M66,93.88c-2.08-.8-3.64.77-3.52,2.87a.29.29,0,0,0,.58,0,2.81,2.81,0,0,1,.83-2.2,2,2,0,0,1,1.74-.17c1,.27,2.2,1.29,1.23,2.27a.11.11,0,0,0,.13.17C68.61,96,67.14,94.32,66,93.88Z" />
            <path class="cls-1" d="M92.93,92.39c-1.71-.58-5.58.91-4.08,3.15,0,.06.12,0,.1-.06-.92-2.12,2.45-2.81,3.84-2.56A.28.28,0,0,0,92.93,92.39Z" />
            <path class="cls-1" d="M74.87,91.93a3.94,3.94,0,0,0-4.31,2.72,4.34,4.34,0,0,0-5.94-1.36c-.06,0,0,.14,0,.12a4.15,4.15,0,0,1,5.73,2.28.34.34,0,0,0,.65-.1c.17-2.35,2-2.78,3.88-3.2C75.22,92.33,75.11,92,74.87,91.93Z" />
            <path class="cls-1" d="M77,93.27a4.53,4.53,0,0,0-4,2.07.09.09,0,0,0,.14.1A5.62,5.62,0,0,1,77,93.68.21.21,0,0,0,77,93.27Z" />
            <path class="cls-1" d="M85.59,91.85a5.51,5.51,0,0,0-3.76,2.93A4,4,0,0,0,78.66,93c-.14,0-.16.21,0,.24a3.61,3.61,0,0,1,2.89,2.62.38.38,0,0,0,.74,0c.46-1.85,1.95-2.7,3.54-3.47C86.1,92.22,85.88,91.78,85.59,91.85Z" />
            <path class="cls-1" d="M102.21,89.79a10.42,10.42,0,0,0-4.34,4.61c-.4-.87-1.19-1.08-2.33-1.46-.09,0-.15.12-.07.16,1.07.51,2,.76,2,2.19a.31.31,0,0,0,.58.15,15.88,15.88,0,0,1,4.41-5.32C102.67,90,102.41,89.68,102.21,89.79Z" />
            <path class="cls-1" d="M55.8,106.62c-2.28,2.86-6.68,4.88-10.11,2.83-4.5-2.69-1.61-11,3.46-10.44.13,0,.15-.19,0-.22-5.22-1.45-7.9,6.75-5,10.18,3.31,3.88,9.55,1.71,12-2C56.41,106.69,56,106.37,55.8,106.62Z" />
            <path class="cls-1" d="M53.46,94.77c-.15.25.19.49.39.3a3.51,3.51,0,0,1,3-1.07,3,3,0,0,1,2.35,2.23.15.15,0,0,0,.29,0C59.92,93,54.86,92.41,53.46,94.77Z" />
            <path class="cls-1" d="M47.18,93.13a2.07,2.07,0,0,0-3,1.17c0,.18.17.38.34.26.72-.55,1.18-1.29,2.19-1,.51.16,1.32,1.06,1.05,1.66a.06.06,0,0,0,.1.06C48.46,94.5,48,93.66,47.18,93.13Z" />
            <path class="cls-1" d="M48.52,91.73a4.06,4.06,0,0,0-4.93-.46c-.08,0,0,.17.08.13a4.2,4.2,0,0,1,4.58.68C48.46,92.23,48.71,91.89,48.52,91.73Z" />
            <path class="cls-1" d="M59.14,92.24c-1.85-1.74-5.72-.81-7.42.71-.07.07,0,.16.1.12A10.67,10.67,0,0,1,55.51,92a9,9,0,0,1,3.4.67A.24.24,0,0,0,59.14,92.24Z" />
            <path class="cls-1" d="M35.83,93.88a.27.27,0,0,0,.43.33c2-2.11,4.79-.89,5.75,1.52,0,.12.24.12.24,0C42.25,92.59,37.45,91.24,35.83,93.88Z" />
            <path class="cls-1" d="M28.31,93.3c-.25.2.07.52.32.41,1.55-.71,3.81-1.18,4.68.77a.13.13,0,0,0,.25-.07C33.33,92,29.75,92.1,28.31,93.3Z" />
            <path class="cls-1" d="M26.48,93.45C25.63,91.51,22.89,91,21,91.61c-.22.06-.18.42.06.41,2-.12,3.88-.08,5.26,1.53C26.42,93.61,26.51,93.52,26.48,93.45Z" />
            <path class="cls-1" d="M17.9,88.84a1.52,1.52,0,0,0-1.95.5,0,0,0,0,0,0,.06,1.94,1.94,0,0,1,1.66-.14c.6.29.57.94.8,1.47a.19.19,0,0,0,.36,0A1.68,1.68,0,0,0,17.9,88.84Z" />
            <path class="cls-1" d="M25.55,90.68c-1.63-1.15-4-.5-5.62.31a.07.07,0,0,0,.06.13,10.18,10.18,0,0,1,2.73-.62,7,7,0,0,1,2.7.52C25.62,91.08,25.71,90.79,25.55,90.68Z" />
            <path class="cls-1" d="M33.38,91.4c-1.68-1.48-4.19-.92-6.07-.14a.14.14,0,0,0,.08.28c.85-.16,1.67-.38,2.52-.47a6.2,6.2,0,0,1,3.19.7C33.33,91.86,33.6,91.59,33.38,91.4Z" />
            <path class="cls-1" d="M40.92,90.74c-2-.92-4.47-.2-6.09,1.1-.13.1,0,.28.17.21a7.83,7.83,0,0,1,5.73-.83C41,91.29,41.2,90.87,40.92,90.74Z" />
            <path class="cls-1" d="M40.56,103.47c-2.69-.94-2.86-3.3-3.41-5.71,0-.15-.25-.1-.26,0-.15,2.27.45,4.46,2.19,5.73a11.8,11.8,0,0,1-3.29-.5.26.26,0,0,0-.32.3.16.16,0,0,0-.08.23,7.48,7.48,0,0,0,2.4,3,18.1,18.1,0,0,1-7.42-.59.14.14,0,0,0-.26,0v0a.24.24,0,0,0-.08.32,4.5,4.5,0,0,0,.75,3.21c-.58-.26-1.1-.63-1.71-.92a.27.27,0,0,0-.32.42,4.94,4.94,0,0,0,2.75,1.45.34.34,0,0,0,.32-.56,5.14,5.14,0,0,1-1.47-3.42,14,14,0,0,0,8.5.57c.37-.09.29-.56,0-.68a6.85,6.85,0,0,1-3-2.65,7.93,7.93,0,0,0,4.57.53A.39.39,0,0,0,40.56,103.47Z" />
            <path class="cls-1" d="M35.69,101.68c-.5-1.31-1.07-2.59-1.56-3.91a.13.13,0,0,0-.25.07c.26,1.1.62,2.17.92,3.25a19.26,19.26,0,0,1-2.12-.92.34.34,0,0,0-.51.29,6.46,6.46,0,0,0,2,4.94.3.3,0,0,0,.42-.43,6.56,6.56,0,0,1-1.74-3.87c.74.38,1.55.55,2.29,1C35.42,102.24,35.8,102,35.69,101.68Z" />
            <path class="cls-1" d="M31.76,104.37a7.46,7.46,0,0,1-6-3.28.32.32,0,0,0-.43-.11c-.89.59-1.91.66-2.79,1.22-.21.13-.08.5.17.41a12,12,0,0,0,2.46-.79c.42-.27,1.65,1.31,2,1.57a5.3,5.3,0,0,0,4.63,1.12A.07.07,0,0,0,31.76,104.37Z" />
            <path class="cls-1" d="M20.63,99.12a1.38,1.38,0,0,1-1,.45.2.2,0,0,0,0,.4,1.32,1.32,0,0,0,1.25-.7A.14.14,0,0,0,20.63,99.12Z" />
            <path class="cls-1" d="M63.3,108.68c-1.56-.59-2.9-1.63-3.05-3.4a.25.25,0,0,0,0-.11,5.13,5.13,0,0,0,2.35-.59.29.29,0,0,0,0-.5,4.77,4.77,0,0,1-2.85-4.66c0-.17-.26-.2-.3,0a4.73,4.73,0,0,0,2.35,4.9,10.54,10.54,0,0,1-1.87.39c-.22,0-.22.28-.1.41a.31.31,0,0,0-.12.22c-.18,1.73,1.07,3,2.49,3.73a6.46,6.46,0,0,1-2.38.27.36.36,0,0,0-.34.45,34.16,34.16,0,0,0,1.63,4c-1.82-.28-3.24-1.35-5-1.86-.26-.08-.35.27-.17.41a10.73,10.73,0,0,0,5.8,2.22A.35.35,0,0,0,62,114a23.15,23.15,0,0,1-1.69-4,6.74,6.74,0,0,0,3-.6A.39.39,0,0,0,63.3,108.68Z" />
            <path class="cls-1" d="M83.81,117.28c-3.68.68-7.18,1.78-10.93,2.19a71.85,71.85,0,0,1-10.43.3c-3.48-.12-6.94-.47-10.4-.9s-6.81-1.25-10.21-1.25a0,0,0,0,0,0,.09A56.09,56.09,0,0,0,52,119.52c3.69.48,7.38.84,11.1,1A68.1,68.1,0,0,0,74.26,120,31.88,31.88,0,0,0,84,117.69C84.23,117.57,84,117.24,83.81,117.28Z" />
            <path class="cls-1" d="M13.48,81.63a10.66,10.66,0,0,0-.26-1.76.12.12,0,0,0-.23,0c0,.57.08,1.15.09,1.72a8.13,8.13,0,0,0,.07,1.91.16.16,0,0,0,.31,0A6.41,6.41,0,0,0,13.48,81.63Z" />
            <path class="cls-1" d="M18.53,81a.13.13,0,0,0-.25,0A11.39,11.39,0,0,1,18,83.65a4.18,4.18,0,0,0-.19,1.59.22.22,0,0,0,.4,0,3.48,3.48,0,0,0,.29-1.58A8.73,8.73,0,0,0,18.53,81Z" />
            <path class="cls-1" d="M23.35,82.14a.2.2,0,0,0-.4,0,22.48,22.48,0,0,0-.1,4.16.32.32,0,0,0,.64,0A22.46,22.46,0,0,0,23.35,82.14Z" />
            <path class="cls-1" d="M29.08,86c0-.57,0-1.13,0-1.7,0-.12.11-1.72-.26-1.54s-.28,1.6-.3,2c0,.57-.34,2,.19,2.43a.25.25,0,0,0,.38-.05C29.25,86.85,29.11,86.4,29.08,86Z" />
            <path class="cls-1" d="M35.37,82.44a.11.11,0,0,0-.22,0c0,.7,0,1.4,0,2.09S35,86.21,35.05,87a.23.23,0,0,0,.45.06A10.58,10.58,0,0,0,35.37,82.44Z" />
            <path class="cls-1" d="M42.41,82.63c0-.16-.22-.17-.27,0a11.36,11.36,0,0,0-.51,5,.3.3,0,0,0,.57,0,17.77,17.77,0,0,0,0-2.26A27.37,27.37,0,0,1,42.41,82.63Z" />
            <path class="cls-1" d="M50.17,83.89c0-.15-.28-.11-.27,0,.1,1.51-.06,3,.06,4.54a.28.28,0,0,0,.56,0A18.8,18.8,0,0,0,50.17,83.89Z" />
            <path class="cls-1" d="M58.75,84a.2.2,0,0,0-.39.06,18.24,18.24,0,0,1-.44,4.09.29.29,0,0,0,.56.15A8.67,8.67,0,0,0,58.75,84Z" />
            <path class="cls-1" d="M68.48,83.65a.08.08,0,0,0-.15,0,45.09,45.09,0,0,0-.39,5.3.29.29,0,0,0,.58,0A17.34,17.34,0,0,0,68.48,83.65Z" />
            <path class="cls-1" d="M77.62,84.2a.13.13,0,0,0-.26,0,16.3,16.3,0,0,0,.08,5,.27.27,0,0,0,.53-.08A42.92,42.92,0,0,0,77.62,84.2Z" />
            <path class="cls-1" d="M84.44,84a.13.13,0,0,0-.27,0,30.91,30.91,0,0,0-.32,4.55.28.28,0,0,0,.57,0A30.41,30.41,0,0,0,84.44,84Z" />
            <path class="cls-1" d="M92.33,85.48a7.56,7.56,0,0,0-.39-2.61.2.2,0,0,0-.18-.1c.09,0-.07-.13-.15-.08s-.12.38-.14.51,0,0,.05,0l0-.12a.33.33,0,0,1,0,.06c0,.56.07,1.11.1,1.67a19.16,19.16,0,0,0,.14,3,.31.31,0,0,0,.59,0A9,9,0,0,0,92.33,85.48Z" />
            <path class="cls-1" d="M99.24,82.36a.18.18,0,0,0-.35,0c0,1.46-.11,2.9-.1,4.35a.3.3,0,0,0,.59.08A10.32,10.32,0,0,0,99.24,82.36Z" />
            <path class="cls-1" d="M107.14,80.64c0-.15-.27-.11-.26,0a18.86,18.86,0,0,1,0,2.37,11.4,11.4,0,0,0-.19,2.37.2.2,0,0,0,.4,0,7.4,7.4,0,0,0,.27-2.42A11.9,11.9,0,0,0,107.14,80.64Z" />
            <path class="cls-1" d="M101.42,82.18c-.17.7-.28,1.41-.41,2.11a8.6,8.6,0,0,0-.25,1.89.21.21,0,0,0,.41.06,8.47,8.47,0,0,0,.27-1.89c.07-.72.16-1.43.19-2.14A.11.11,0,0,0,101.42,82.18Z" />
            <path class="cls-1" d="M93.1,83c0-.1-.19-.08-.18,0a15.37,15.37,0,0,1-.4,4.13.14.14,0,0,0,.27.07A8.57,8.57,0,0,0,93.1,83Z" />
            <path class="cls-1" d="M85.92,83.57a25.7,25.7,0,0,0-.66,4.57.2.2,0,0,0,.39.05,26.18,26.18,0,0,0,.46-4.6C86.11,83.49,85.94,83.47,85.92,83.57Z" />
            <path class="cls-1" d="M80.38,83.62a.05.05,0,0,0-.1,0,20.08,20.08,0,0,0-.52,4.56c0,.24.37.29.42.06A22.7,22.7,0,0,0,80.38,83.62Z" />
          </g>
        </g>
      </svg>