     <svg xmlns="http://www.w3.org/2000/svg" viewBox="0 0 146.47 86.85" class="dish__image">
        <defs>
          <style>
            .cls-1 {
              fill: #3b4954;
            }
          </style>
        </defs>
        <title>Asset 4sushi</title>
        <g id="Layer_2" data-name="Layer 2">
          <g id="PRINT">
            <path class="cls-1" d="M93.18,54.58c-.7-3.76-4-5.81-7.31-7-5.06-1.85-10.8-1.67-16.08-1.25A88.55,88.55,0,0,0,55,48.55a43.12,43.12,0,0,0-15.75,7.33c-4.9,3.76-8.66,8.88-14.43,11.42a.25.25,0,0,0-.33-.31c-6.07,3.36-14.25,1.47-19.84,5.7a.45.45,0,0,0,.29.78c4.89-.24,9.83,1.09,14.72,1.44-3,3.61-7.13,6.59-8.18,11.42a.42.42,0,0,0,.49.52c7.9-.84,12.08-9,17.68-13.56a.41.41,0,0,0-.26-.7,64.11,64.11,0,0,1-7.71-.24,20.81,20.81,0,0,1,2.7-4A.39.39,0,0,0,24.5,68h0a18.6,18.6,0,0,0,4.64-2.22A6,6,0,0,0,30,69.07a20.62,20.62,0,0,0,2.07,3.23.37.37,0,0,0,.63-.33,12.8,12.8,0,0,0-1.66-2.79,7.85,7.85,0,0,1-1.36-3.57.31.31,0,0,0-.06-.15A44.74,44.74,0,0,0,34.94,61c-.76,2.42.77,5.2,2.39,6.95a.38.38,0,0,0,.61-.43c-.51-1-1.31-1.94-1.87-3a5.66,5.66,0,0,1-.63-3.74.16.16,0,0,0-.09-.18l.58-.54a47.84,47.84,0,0,1,4.41-3.73.2.2,0,0,0,0,.21c1,2.41,1,6.62,4.24,7.32a.39.39,0,0,0,.32-.7,6.62,6.62,0,0,1-1.76-1.31,6.45,6.45,0,0,1-1-2.2,9,9,0,0,0-1.47-3.32.16.16,0,0,0-.19-.05,39.27,39.27,0,0,1,8.42-4.78c.9-.37,1.82-.71,2.75-1,2.19,2.23,1.16,5,.67,7.74-.35,1.89-.27,4.21,1.51,5.37.35.23.66-.22.44-.52-1.8-2.49-1.12-4.66-.65-7.49.33-2,0-3.91-1.55-5.23a63.43,63.43,0,0,1,12.29-2.62c2.9-.35,5.84-.68,8.77-.81a.11.11,0,0,0,0,.06c2.54,2.22,2,5,1.1,8-.6,2-1.79,4.54-1.17,6.67.11.39.76.37.74-.07-.19-4,4.86-12-.24-14.62a43.64,43.64,0,0,1,7.77.34C86.2,48,92,50.24,92.46,55.88c.33,4-2,7.89-4.78,10.48-3.58,3.3-8.3,3.77-12.95,3.44-4.45-.31-8.8-1-13.28-.89-8.51.3-17.29.73-25.65,2.45-.13,0-.11.24,0,.23,11.44-.72,22.71-3.08,34.19-1.49,4.06.56,8.24,1.09,12.28.16A14.77,14.77,0,0,0,91,63.91,12.78,12.78,0,0,0,93.18,54.58Zm-72.48,18c-.12.27.15.5.38.53a49.74,49.74,0,0,0,7.23.31C23.38,77.83,19.38,84.85,12.46,86c1.31-4.61,5.54-7.54,8.4-11.19a.41.41,0,0,0-.33-.63c-4.6-.21-9.27-.78-13.86-1.36a39.54,39.54,0,0,1,8.87-2.23,23.07,23.07,0,0,0,8-2.39A16.63,16.63,0,0,0,20.7,72.55Z" />
            <path class="cls-1" d="M63.87,62.58c-.69-2.9.45-6,.83-8.85.3-2.28.07-5-2.56-5.62-.13,0-.24.16-.11.23,5.37,2.66-1.26,10.43,1.31,14.44A.29.29,0,0,0,63.87,62.58Z" />
            <path class="cls-1" d="M85.56,55.1c.39-2.19.68-4.63-.28-6.71-.16-.35-.68-.13-.61.23a21.32,21.32,0,0,1-.18,8.12c-.35,2.14-.78,4.52.16,6.55a.11.11,0,0,0,.21,0A37.78,37.78,0,0,1,85.56,55.1Z" />
            <path class="cls-1" d="M51,81.4c-2.28.76-4.12.27-5.18-2a.48.48,0,0,0-.64-.2c-1.69.95-7.77,2.33-6.15-1.35.13-.29-.16-.54-.41-.58-2.81-.39-3.73-2.65-2.83-5.14a.17.17,0,0,0-.3-.14A3.92,3.92,0,0,0,38,78c-1.35,4,4.53,3.41,7.19,2.22,1.25,2.22,3.86,3.43,6.15,1.81C51.66,81.81,51.37,81.29,51,81.4Z" />
            <path class="cls-1" d="M75.29,82.55c-2.26.26-4.45.68-6.73.73s-5.72,0-7.46-1.91a.44.44,0,0,0-.62,0c-2.15,1.95-4.64.85-7,0-.14,0-.21.14-.11.23,2.13,1.68,5.08,2.29,7.34.69,1.71,1.66,4.54,1.85,6.78,1.93,2.52.09,5.67,0,8-1C76,83.05,75.67,82.51,75.29,82.55Z" />
            <path class="cls-1" d="M90.25,68c-.06-.5-.9-.42-.88.09.09,2.21.13,5.87-2.81,6.14a.47.47,0,0,0-.47.44c-.17,2-1.37,3.36-3.49,3.07a.44.44,0,0,0-.45.42,3.58,3.58,0,0,1-3.44,3.55c-.25,0-.19.41,0,.42A3.86,3.86,0,0,0,83,78.64c2.24.18,3.67-1.43,4-3.58C90.07,74.48,90.57,70.74,90.25,68Z" />
            <path class="cls-1" d="M48.66,74.55a5.37,5.37,0,0,1-2.37.26,3.42,3.42,0,0,1-1.91-1.46c-.13-.18-.38,0-.3.21.77,1.75,3.23,3,4.88,1.55A.33.33,0,0,0,48.66,74.55Z" />
            <path class="cls-1" d="M54.26,73.22a1.82,1.82,0,0,0-1.69-1.6c-.12,0-.17.17-.07.23.57.32,1.11.73,1.1,1.44S53,74.56,52.48,75c-.26.26,0,.72.37.53A2.6,2.6,0,0,0,54.26,73.22Z" />
            <path class="cls-1" d="M60.51,76.46a2.63,2.63,0,0,1-4.63.71c-.09-.11-.26,0-.2.14a3.09,3.09,0,0,0,5.65-.6C61.5,76.19,60.7,75.95,60.51,76.46Z" />
            <path class="cls-1" d="M70.83,79.18c-1.48.53-2.22.06-3.41-.78A2.41,2.41,0,0,0,65.12,78c-.11,0,0,.19,0,.19,2.3.24,3.49,3.25,5.94,1.48C71.34,79.52,71.11,79.08,70.83,79.18Z" />
            <path class="cls-1" d="M79.86,74.78c0-.14-.27-.14-.27,0,0,2.43-2.56,1.95-4.21,1.85a.3.3,0,0,0-.17.54C76.95,78.17,80.73,77.4,79.86,74.78Z" />
            <path class="cls-1" d="M70.3,73.06c-1.87,1.71-3.91-.71-5.61-1.37-.3-.12-.5.28-.31.5A7.46,7.46,0,0,0,67.7,74a2.32,2.32,0,0,0,2.8-.81A.13.13,0,0,0,70.3,73.06Z" />
            <path class="cls-1" d="M57.29.32C54.59.05,51.83.06,49.11,0a32.82,32.82,0,0,0-9,.68A.41.41,0,0,0,39.67.4c-4.15,1.09-8.81,1.79-12.35,4.38a.26.26,0,0,0,.27.45A64.63,64.63,0,0,1,38.86,1.39c-4.14,5.85-7.84,13-8.63,20.14-1,9,5.63,15.54,11.21,21.68-3.67,1.35-6.75,4-10.46,5.17-5.48,1.8-10.17-3-12.77-7.23-3.05-5-4.58-11.43-3.12-17.16,1.24-4.86,4.48-8.94,5.79-13.76a.14.14,0,0,0-.26-.1c-2.32,4.73-5.28,9.54-6.46,14.71-1.33,5.8.73,12.3,3.74,17.25,1.93,3.17,5,6.34,8.74,7.22a4.7,4.7,0,0,1-4.87,1.82.43.43,0,0,0-.52.42C21,53.44,19.34,55.84,17.4,54a.39.39,0,0,0-.54,0c-2.45,2.91-6.27-.23-4.2-3.32a.35.35,0,0,0-.22-.5,2.43,2.43,0,0,1-2-3.41,42,42,0,0,1,5.19-5.85c.28-.26-.1-.69-.41-.51-2.57,1.47-4.32,4.22-6,6.6a48.82,48.82,0,0,1-3.37,4.42c-.51.58-1.71,2.15-2.7,1.44a6.11,6.11,0,0,1-2-2.6C7.85,49.19,9.09,40,13.84,36.1c.34-.27-.14-.87-.48-.6C8.68,39.15,7.38,48.76.8,49.59A18.86,18.86,0,0,1,2.13,45.9a.33.33,0,0,0,.41-.05C5.46,43,6.47,38.76,9.57,36a.07.07,0,0,0-.07-.12c-1.44.53-2.35,1.91-3.18,3.13-1.23,1.81-2.19,3.77-3.54,5.48a21.36,21.36,0,0,0,1.47-3.88c.88-3.62.7-7.39,1.58-11,1.85-7.57,7-13.25,13.39-17.39a.17.17,0,0,0-.18-.29C12.61,15,7.89,21.06,5.62,27.72,4.34,31.48,4.4,35.4,3.77,39.27A20.83,20.83,0,0,1,1.9,45,17.25,17.25,0,0,0,0,49.91a.36.36,0,0,0,.35.44l.18,0c.25,1.72,1.68,2.92,3.09,3.88a.39.39,0,0,0,.41,0,25.42,25.42,0,0,0,5.15-5.75l.46-.64a2.94,2.94,0,0,0,2.17,2.93,3.41,3.41,0,0,0,3.82,5.1c.37-.1,1.46-1,1.65-.89a2.35,2.35,0,0,0,2,.52A4.22,4.22,0,0,0,22,52c2.11.27,4.71-.43,5.51-2.55a8.41,8.41,0,0,0,2.06,0c4.41-.49,8.26-4,12.3-5.59a.43.43,0,0,0,.27-.42.2.2,0,0,0,0-.2l0-.06c2,0,3.76-.62,4.6-2.47a6.24,6.24,0,0,0,7-3.48c4,1.26,5.28-2.45,8.34-4.36,2.41-1.5,4.28-2.68,2.7-5.41a3.88,3.88,0,0,0,1.61-5.14c3.59-2.24,4.13-9.86-.48-11.17-.46-.13-.77.61-.31.8,3.78,1.54,3.44,8.08-.08,9.77a.48.48,0,0,0-.16.66,3,3,0,0,1-1.55,4.47.5.5,0,0,0-.17.69c.87,1.29,1.18,2.38-.19,3.36-.79.57-1.7,1-2.51,1.52-2.6,1.81-3.54,5.17-7.36,3.77a.48.48,0,0,0-.57.35,5.33,5.33,0,0,1-6.45,3.24.45.45,0,0,0-.53.32c-.65,2-2.35,2.3-4.17,2.6l-.08,0c-2.26-3.13-5.08-5.82-7.32-9a18.14,18.14,0,0,1-3.39-12.27c.64-7.46,5.07-14.27,9-20.43,4.9,0,9.74-.21,14.64,0a20.82,20.82,0,0,1,5.63.72c2.21.7,3.29,2.57,4.15,4.58.19.45.92.29.76-.21C64,2.27,61.13.71,57.29.32Z" />
            <path class="cls-1" d="M59.4,3.33a65.3,65.3,0,0,1-2.12,7c-3.14.42-6.36.45-9.47,1.05-.12,0-.08.19,0,.2A48.31,48.31,0,0,0,57,11.18c-.17.52-.34,1-.5,1.57C56,14.35,55.68,16,55.22,17.6c-.63,2.19-2.26,2.95-4.32,3.54C44.45,23,37,21.18,31.29,25.4a.16.16,0,0,0,.16.27A29,29,0,0,1,43,23c3.51-.22,7.15-.39,10.42-1.83,2.7-1.19,2.91-4.63,3.58-7.09C58,10.73,60.31,7,60,3.4,59.94,3.08,59.47,3,59.4,3.33Z" />
            <path class="cls-1" d="M66.15,8.09c-2.76,2.51-2.87,7.25-3.76,11.23a26.54,26.54,0,0,0-3-3.87c-.13-.14-.34,0-.25.2.93,1.61,2.05,3.11,3,4.7a12,12,0,0,1-.84,2.25c-1.13-1.3-2.1-2.71-3.12-4.09a.11.11,0,0,0-.19.12,19.94,19.94,0,0,0,2.92,4.66,6,6,0,0,1-1.08,1.27,10.49,10.49,0,0,0-2.17-1.93c-.29-.22-.68.15-.4.42a21.72,21.72,0,0,1,1.91,2,6.63,6.63,0,0,1-2.9.95c-7.84.82-16.94-1.51-23.7,3.79a.26.26,0,0,0,.27.44,29.55,29.55,0,0,1,13.32-3.34c4-.14,8.38.62,12.25-.47a4.63,4.63,0,0,0,1.58-.8.39.39,0,0,0,.18-.14,10,10,0,0,0,2.71-5.12.26.26,0,0,0,0-.07l.18-.68c.95-3.87,1.18-7.9,3.22-11.41C66.35,8.1,66.22,8,66.15,8.09Z" />
            <path class="cls-1" d="M18.87,48.23a3.28,3.28,0,0,1-2.57.21c-1-.42-1.23-1.4-1.44-2.35a.13.13,0,0,0-.25,0c-.75,2.57,2.75,4.34,4.65,2.77C19.54,48.61,19.21,48.11,18.87,48.23Z" />
            <path class="cls-1" d="M45.17,35.17c-.27-.32-.67.06-.62.38.13.86.38,1.41-.14,2.22a5.49,5.49,0,0,1-1.8,1.45.12.12,0,0,0,.06.22C44.52,39.31,46.62,36.92,45.17,35.17Z" />
            <path class="cls-1" d="M52.58,31.61c-.26.26-.25.55-.33.9a2.08,2.08,0,0,1-.56,1c-.68.7-1.67.33-2.36-.14-.17-.12-.32.14-.2.27a2.21,2.21,0,0,0,2.67.73c.76-.39,1.9-1.85,1.28-2.71A.32.32,0,0,0,52.58,31.61Z" />
            <path class="cls-1" d="M54.51,14.39a27.7,27.7,0,0,1-5.31,1.73c-2.06.37-4.16.49-6.21.93a.08.08,0,0,0,0,.15c3.69-.21,8.65.18,11.76-2.21C55,14.78,54.89,14.24,54.51,14.39Z" />
            <path class="cls-1" d="M50.5,5.3a15.08,15.08,0,0,0-6.58.38c-.13,0-.11.25,0,.24,1.14-.09,2.28-.13,3.42-.12a15.24,15.24,0,0,0,3.13,0A.25.25,0,0,0,50.5,5.3Z" />
            <path class="cls-1" d="M60.08,27.53a10.36,10.36,0,0,1-.38,1.28c-.27.5-.86.53-1.36.59a.23.23,0,0,0,0,.45,1.94,1.94,0,0,0,2.44-2.24A.36.36,0,0,0,60.08,27.53Z" />
            <path class="cls-1" d="M42.26,31.13a9.49,9.49,0,0,1-2,1.72,4.83,4.83,0,0,1-2.71.36.28.28,0,0,0-.13.52c1.88,1.09,4.27-.77,5.12-2.39A.17.17,0,0,0,42.26,31.13Z" />
            <path class="cls-1" d="M146.16,29.22a.36.36,0,0,0,.31-.39c-.13-4-3.1-8.88-6.49-11.09a.33.33,0,0,0-.16-.47c-2.31-1-4.94-1.53-7.32-2.45s-5-2.05-7.55-3a46.48,46.48,0,0,0-7.09-2.1,82.14,82.14,0,0,0-8.42-.79c-5.28-.52-10.54-1.35-15.85-.81A36.18,36.18,0,0,0,79.32,13a.18.18,0,0,0-.09.16.18.18,0,0,0-.17.08,14.82,14.82,0,0,0-2.68,10.35.3.3,0,0,0,.24.29,8.72,8.72,0,0,0,2.9,4.87c1.72,1.74,3.64,3.38,5.46,5,.23.21.55-.12.38-.36a22.33,22.33,0,0,0-4.25-4,14.48,14.48,0,0,1-4.24-5.52.32.32,0,0,0,.2-.33,17.41,17.41,0,0,1,2.26-9.84c1.9,2.33,2.9,5.18,4.16,7.87.84,1.78,2,4.12,4,4.78,1.78.59,3.94-.27,5.59-.9,2.43-.94,4.7-2.29,7.19-3.08l1-.29c0,2.14-1,4.17-1.8,6.12,0,.08.09.16.14.08,1-1.6,2.64-4.24,2.36-6.37l.11-.05a42.62,42.62,0,0,1,11.53-1.07c-1.06,2-1.5,4.39-2.47,6.43-.06.14.12.23.22.13,1.56-1.67,2.25-4.37,3-6.54a62.77,62.77,0,0,1,7.52.8,63.3,63.3,0,0,1,11.64,3.42c2.16.81,4.31,1.74,6.5,2.55-.93,2.2-2.5,4.17-3.15,6.48,0,.12.15.2.22.1a36.18,36.18,0,0,0,3.66-6.31A34.17,34.17,0,0,0,144.55,29a.21.21,0,0,0,.23-.09c.31.06.63.13.94.21-.93,3.54-3.35,6.16-4.85,9.42a66.52,66.52,0,0,1-6.31-2.65,41.45,41.45,0,0,0-7.08-2.32q-1.51-.39-3-.72a22.69,22.69,0,0,0,3.05-7.55.11.11,0,0,0-.21-.06,45.39,45.39,0,0,1-3.51,7.34.47.47,0,0,0,0,.11A65.6,65.6,0,0,0,112,31.16a53.43,53.43,0,0,0-13,.79c-1.93.42-3.78,1.16-5.7,1.66a10.2,10.2,0,0,0-4.39,1.9c-.54-.19-.69-.5-.83-1.15a14.64,14.64,0,0,1-.25-2.25c-.05-.77.2-2.58-.42-3.17a.05.05,0,0,0-.08,0,5.74,5.74,0,0,0-.15,2,22,22,0,0,0,.06,2.86c.07.64.49,2.41,1.37,2.5,0,2.36,2.53,3.54,4.71,3.2.44,2,1.94,3.66,4.15,3.25.35-.06.41-.64,0-.66A3.27,3.27,0,0,1,94,39a.4.4,0,0,0-.44-.35c-2.13.5-3.95-.43-4.34-2.55a.27.27,0,0,0,.1-.19,21.61,21.61,0,0,1,3-1.19.4.4,0,0,0,0,.15c.73,1.32,2.79,2.28,4.18,1.46.17-.1.05-.4-.14-.36A3.28,3.28,0,0,1,93,34.5l1.09-.3c2.05-.53,4-1.29,6.1-1.7a48.13,48.13,0,0,1,11-.61c-1,1.07-1.1,3.09.61,3.5.12,0,.18-.14.09-.21a1.82,1.82,0,0,1-.92-1.6,2.36,2.36,0,0,1,.85-1.51.21.21,0,0,0,.07-.15l1.25.06a76.29,76.29,0,0,1,14.21,2.36,43.82,43.82,0,0,1,7.57,2.55,35.49,35.49,0,0,0,6,2.33.39.39,0,0,0,.2.05h.05c.22.05.36-.18.33-.37C143.07,35.88,146.06,32.79,146.16,29.22Zm-2.24-1c-3.09-1.33-6.33-2.42-9.48-3.62-1.74-.66-3.48-1.29-5.25-1.86h0a12.26,12.26,0,0,0-4.11-5.08.06.06,0,0,0-.08.1c1.46,1.3,2.08,3.16,3.19,4.68-1.36-.42-2.74-.8-4.14-1.13a47.27,47.27,0,0,0-9.43-1.19.37.37,0,0,0,0-.26c-1.63-2.67-3.72-5.44-6.63-6.8a.06.06,0,0,0-.06.1,34.75,34.75,0,0,1,6,6.93,57,57,0,0,0-10.26.82c-.5.09-1,.18-1.47.29-1.15-3.38-4.67-6.54-7.87-7.85-.13-.05-.25.13-.13.21a22.87,22.87,0,0,1,7.09,7.58.27.27,0,0,0,0,.15s0,.09,0,.14a26.92,26.92,0,0,0-4.33,1.52C94.46,24,92,25.29,89.41,25.66c-3.3.46-4.78-3.45-5.88-5.89s-2-4.69-4-6.36A101.7,101.7,0,0,1,90,9.53c.34.23.68.45,1,.71s.66.64,1,.94a.1.1,0,0,0,.16-.12,3.73,3.73,0,0,0-1.38-1.73,27,27,0,0,1,3.49-.6,35.83,35.83,0,0,1,5.33-.09.28.28,0,0,0,.08.06c2.15,1,4.18,2.14,6.27,3.26.14.07.23-.12.13-.22a16.61,16.61,0,0,0-4.58-3c2.82.24,5.64.64,8.42.92,2.34.23,4.7.24,7,.6.76.57,1.59,1,2.34,1.62a18.37,18.37,0,0,0,2.15,1.53,0,0,0,0,0,.05-.07,15.31,15.31,0,0,0-2.8-2.75,48.55,48.55,0,0,1,6.53,2.07c2.19.82,4.34,1.74,6.51,2.6l0,0a4.46,4.46,0,0,0,.93.74,10.4,10.4,0,0,1,1.71,1.73,16.47,16.47,0,0,1,2.34,3.86c0,.07.16.07.16,0a6.94,6.94,0,0,0-1.68-3.95,13.92,13.92,0,0,0-1.33-1.63,55.54,55.54,0,0,1,5.49,1.81c2.71,3.07,5.85,6.25,6.27,10.52A9.65,9.65,0,0,0,143.93,28.21Z" />
            <path class="cls-1" d="M109.83,45.5a4.83,4.83,0,0,1-5.07-1.85.39.39,0,0,0-.61,0c-1.44,1.44-3.07.48-4.27-.66-.13-.13-.31.07-.22.21.8,1.33,2.76,2.57,4.29,1.57.59-.39.39-.26.9.2a7.22,7.22,0,0,0,1.83,1.21,3.76,3.76,0,0,0,3.31,0C110.31,46,110.25,45.42,109.83,45.5Z" />
            <path class="cls-1" d="M129.36,46.18c.11-.32-.3-.62-.53-.33-1.06,1.34-2.39,2-3.95.9a.43.43,0,0,0-.59.06,2.28,2.28,0,0,1-3.55.26.4.4,0,0,0-.49,0c-1.36,1-2.73.15-3.71-.83a.39.39,0,0,0-.55.05c-1.06,1.36-2.56.69-3.83.21-.19-.07-.38.2-.19.32.9.59,2.29,1.29,3.39.86.15-.06,1-.56,1-.5a4.11,4.11,0,0,0,1.88,1.06,2.77,2.77,0,0,0,1.56,0c.76-.33,1,0,1.69.32a3,3,0,0,0,3.18-.94C126.38,48.56,128.64,48.23,129.36,46.18Z" />
            <path class="cls-1" d="M139.62,40.57a.28.28,0,0,0-.55,0c-.17,1.38-.57,3.45-2.42,3.28a.41.41,0,0,0-.46.34c-.33,2.31-2.43,2.52-4.34,2.61a.07.07,0,0,0,0,.13,3.62,3.62,0,0,0,5.08-2.26C138.83,44.61,140,42.36,139.62,40.57Z" />
            <path class="cls-1" d="M102.55,37.12a4.8,4.8,0,0,1-1.87.93,12.38,12.38,0,0,1-1.53,0,.07.07,0,0,0-.06.08c.12.65,1.16.63,1.66.6a2.71,2.71,0,0,0,2.31-1.17A.35.35,0,0,0,102.55,37.12Z" />
            <path class="cls-1" d="M111.93,38.84a7.72,7.72,0,0,1-2.52,1.68,5.89,5.89,0,0,1-3.15-.15.14.14,0,0,0-.11.25c1.74,1.4,5.32.68,6.31-1.36A.35.35,0,0,0,111.93,38.84Z" />
            <path class="cls-1" d="M119,43.39a4.08,4.08,0,0,1-2-1.77,2.46,2.46,0,0,1,.39-2.47c.05-.09-.06-.15-.13-.11a2.29,2.29,0,0,0-.91,2.64A3.21,3.21,0,0,0,118.8,44,.3.3,0,0,0,119,43.39Z" />
            <path class="cls-1" d="M126.31,43a10.74,10.74,0,0,1-2,.73,2.43,2.43,0,0,1-2-.9c-.13-.14-.36,0-.3.22a2.33,2.33,0,0,0,2.11,1.4,3.17,3.17,0,0,0,2.6-.93A.33.33,0,0,0,126.31,43Z" />
            <path class="cls-1" d="M135.41,41.5c0-.06-.13,0-.14,0a1.26,1.26,0,0,1-.65,1.09,2.79,2.79,0,0,1-1.41.06,5.79,5.79,0,0,1-1.46-.42,5.15,5.15,0,0,0-1-.46.25.25,0,0,0-.27.34c.31,1.07,2.48,1.3,3.37,1.3C134.92,43.45,136.07,42.63,135.41,41.5Z" />
            <path class="cls-1" d="M133.44,38.31a.35.35,0,0,0-.56-.34c-.53.44-.78.77-1.55.62a3.32,3.32,0,0,1-1.6-1c-.14-.13-.36,0-.29.21a2.83,2.83,0,0,0,1.93,1.54A1.65,1.65,0,0,0,133.44,38.31Z" />
            <path class="cls-1" d="M122.57,35.34a.2.2,0,0,0-.39,0,1.87,1.87,0,0,1-1,1.59,4.67,4.67,0,0,1-1.87.18.34.34,0,0,0-.1.64C120.74,38.32,123,37.22,122.57,35.34Z" />
            <path class="cls-1" d="M106.31,35.44c-1-.23-2.28-.5-2.44-1.74-.06-.45-.77-.37-.7.08a2.49,2.49,0,0,0,3.14,1.86A.1.1,0,0,0,106.31,35.44Z" />
          </g>
        </g>
      </svg>