<svg xmlns="http://www.w3.org/2000/svg" class="dish__image" viewBox="0 0 121.84 116.26">
        <defs>
          <style>
            .cls-1 {
              fill: #3b4954;
            }
          </style>
        </defs>
        <title>Asset 2ramen</title>
        <g id="Layer_2" data-name="Layer 2">
          <g id="PRINT">
            <path class="cls-1" d="M93.21,88.58a.23.23,0,0,0-.2.24.2.2,0,0,0,.21.19c2,0,5.91-1.16,7.64-3.19a3.25,3.25,0,0,0,.85-2.69c-.33-2.11-2.2-2.56-3.71-2.56a11.22,11.22,0,0,0-6.29,2.08.29.29,0,0,0-.41.09.28.28,0,0,0,0,.28c.13.27.26.53.39.78a12.51,12.51,0,0,1,.87,2c.22.68-.19,1.15-.62,1.65a3.6,3.6,0,0,0-.65.93,1,1,0,0,0,.11.63l0,.11c.17.53-.19,1-.55,1.43a4.6,4.6,0,0,0-.34.46,1.16,1.16,0,0,0-.11.79.83.83,0,0,1-.19.68,1.77,1.77,0,0,1-1.29.4,4.42,4.42,0,0,1-.52,0,2,2,0,0,0-1.85.79,3.25,3.25,0,0,0-.3.44c-.23.38-.44.74-.94.74a1.62,1.62,0,0,1-.45-.08l-.2-.06a1.57,1.57,0,0,0-1.24,0l-.3.1A3.61,3.61,0,0,1,82,95a2.55,2.55,0,0,1-.8-.15,6.27,6.27,0,0,0-1.31-.28,3.19,3.19,0,0,0-1.9.67,5.22,5.22,0,0,1-1.12.56,1,1,0,0,0-.28-.69,1.68,1.68,0,0,0-1.24-.36c-.33,0-.67,0-1,.07l-.45,0h-.15a1.19,1.19,0,0,1-.92-.32.82.82,0,0,1-.15-.69,3.91,3.91,0,0,1,.15-.58,2.42,2.42,0,0,0,.16-1c0-.23-.23-.38-.4-.5l-.05,0a1.71,1.71,0,0,1-.77-2,.1.1,0,0,0,0-.08.11.11,0,0,0-.18,0,2,2,0,0,0,.21,2.11,1.41,1.41,0,0,1,.53,1.68,1.59,1.59,0,0,0-.1,1.07,1.44,1.44,0,0,0,1.47.82,7.51,7.51,0,0,0,.8-.06,6.93,6.93,0,0,1,.75-.05,1.06,1.06,0,0,1,1.22,1,.16.16,0,0,0,.17.14.22.22,0,0,0,.21-.18s0,0,0-.06a5.15,5.15,0,0,0,1.68-.4,4.73,4.73,0,0,1,1.63-.38,2.54,2.54,0,0,1,.84.14,2.31,2.31,0,0,0,.76.12A5.71,5.71,0,0,0,83,95.39a5.14,5.14,0,0,1,1.1-.17,1.68,1.68,0,0,1,.62.11,1.56,1.56,0,0,0,2-.74c.63-.81,1-1.06,1.73-1.06a6.41,6.41,0,0,1,.73.06l.23,0a2.42,2.42,0,0,0,1.08-.3,1.29,1.29,0,0,0,.69-1.37,1.46,1.46,0,0,1,.31-1.07A1.92,1.92,0,0,0,92,88.57c-.08-.27.21-.6.52-1l.18-.2.09,0a6.32,6.32,0,0,0,.77,0c2.14,0,5.57-.86,5.67-3.15a1.63,1.63,0,0,0-.4-1.25,2.13,2.13,0,0,0-1.58-.52,8.23,8.23,0,0,0-4.63,1.68l0,0-.42-.78-.33-.6a12.84,12.84,0,0,1,5.9-1.76c1.87,0,3,.73,3.42,2.15a2.16,2.16,0,0,1-.33,1.86C99.41,87.26,94.74,88.4,93.21,88.58Zm-.43-4.13a14.14,14.14,0,0,1,4.55-1.27,1.11,1.11,0,0,1,1.23,1.63c-.52,1.8-3.9,2-5.51,2.13a1.25,1.25,0,0,0,.22-1c0-.12-.06-.24-.1-.36l.57-.22a4.87,4.87,0,0,1,1.79-.46c.29,0,.56.1.58.17s0,.09-.17.17a3.82,3.82,0,0,1-1,.37.23.23,0,0,0-.16.26.22.22,0,0,0,.23.2h0c.3,0,1.56-.29,1.76-.81a.51.51,0,0,0-.18-.55,1.33,1.33,0,0,0-1-.3,3.13,3.13,0,0,0-.61.06,5.23,5.23,0,0,0-1.94.88,9.19,9.19,0,0,0-.38-.89Z" />
            <path class="cls-1" d="M80.47,81a4.44,4.44,0,0,0-1.81,1,7.63,7.63,0,0,1-.93.64,8.18,8.18,0,0,1-1.41.55,5.24,5.24,0,0,0-2.09,1,.11.11,0,0,0,0,.13.13.13,0,0,0,.12.08l.06,0a12,12,0,0,1,2.27-.89,9.52,9.52,0,0,0,2.78-1.22,5,5,0,0,1,2.11-.74c.34-.06.7-.13,1.06-.23a1.92,1.92,0,0,0,.75-.51,1.26,1.26,0,0,1,.82-.46,1.16,1.16,0,0,1,.63.23.26.26,0,0,0,.15,0,.32.32,0,0,0,.29-.22.26.26,0,0,0-.08-.3l0,0a1.72,1.72,0,0,0-1-.48.8.8,0,0,0-.38.09,4.3,4.3,0,0,0-.89.64,2.08,2.08,0,0,1-.9.43v0a.16.16,0,0,0-.14-.18,20.65,20.65,0,0,0-2.16-.15,16.06,16.06,0,0,1-2.49-.21h0a.12.12,0,0,0-.12.1.11.11,0,0,0,.09.12,25.67,25.67,0,0,0,4.14.46L81,81Z" />
            <path class="cls-1" d="M89.13,81.15c.15,0,.35.43.44.62l.07.14a.21.21,0,0,0,.19.12.26.26,0,0,0,.25-.23,1.25,1.25,0,0,0-.34-.83l-.17-.24a.27.27,0,0,0-.29-.12,4.42,4.42,0,0,1-.79.07,3.67,3.67,0,0,1-1.87-.51.13.13,0,0,0-.18.06.12.12,0,0,0,0,.13,2.78,2.78,0,0,0,1.61.79A5.39,5.39,0,0,0,89.13,81.15Z" />
            <path class="cls-1" d="M95.25,78.88a7.09,7.09,0,0,0-1.89.36l-.72.19a5.48,5.48,0,0,0-2.38,1.16.12.12,0,0,0,0,.13.13.13,0,0,0,.13.09h.06a10.8,10.8,0,0,1,4.79-1.34,5.2,5.2,0,0,1,.82.06,1.28,1.28,0,0,0,1-.16l.14-.07.38-.19a3.18,3.18,0,0,1,1.34-.46,1.83,1.83,0,0,1,1.15.49l.12.1a5.56,5.56,0,0,0,.63.45.2.2,0,0,0,.11,0h0a.23.23,0,0,0,.21-.16.19.19,0,0,0-.06-.22l-.37-.29a3.93,3.93,0,0,0-1.84-1l-.29,0a2.64,2.64,0,0,0-1.29.45,2.69,2.69,0,0,1-1.34.46l-.27,0A2.61,2.61,0,0,0,95.25,78.88Z" />
            <path class="cls-1" d="M81.37,88l.08,0h0c.46,0,3-.73,3.4-1.7a.7.7,0,0,0-.08-.74A2.11,2.11,0,0,0,83,84.88,6.19,6.19,0,0,0,79.63,86a4.48,4.48,0,0,0-1.71,2.79,2.21,2.21,0,0,0,.53,1.7,2.39,2.39,0,0,0,1.93.79h0a9.3,9.3,0,0,0,4-1.21c1.5-.77,4-2.41,4.15-4.86a2.47,2.47,0,0,0-.7-1.88,5,5,0,0,0-3.5-1.25h-.16A13.33,13.33,0,0,0,76.77,85a6.89,6.89,0,0,0-2.67,4.12,3,3,0,0,0,.65,2.3.21.21,0,0,0,.35,0,.19.19,0,0,0,0-.21c-1.42-2.31.9-4.87,2.5-6a14.64,14.64,0,0,1,4.36-2c2.15-.64,3.89-.51,5,.39A2.08,2.08,0,0,1,87.87,85c.06,1.37-1.24,2.67-1.63,3a11.14,11.14,0,0,1-4.43,2.38,4.1,4.1,0,0,1-1.13.16,2.32,2.32,0,0,1-1.91-.77,1.79,1.79,0,0,1-.16-1.65c.56-1.8,2.48-2.41,3.58-2.62a4.77,4.77,0,0,1,1.65,0l.26.94a4,4,0,0,1-.73.53,6.89,6.89,0,0,1-1,.53c.57-.42,1.43-1.14,1.34-1.56,0-.15-.16-.24-.39-.28a2.46,2.46,0,0,0-.41,0A3.8,3.8,0,0,0,80.11,87a2.57,2.57,0,0,0-.65,2.09c.11.66.61,1,1.43,1a7.44,7.44,0,0,0,2.57-.66c2.37-1,3.55-2.35,3.5-3.92,0-1.26-.86-1.89-2.43-1.89a17.09,17.09,0,0,0-6.27,1.79c-1.28.67-3.31,3.95-2.9,5.62a1.32,1.32,0,0,0,1.47,1,3.29,3.29,0,0,0,.53,0,.09.09,0,0,0,.08-.09.1.1,0,0,0-.09-.1c-.84-.05-1.36-.38-1.53-1-.4-1.38,1.1-3.87,2.25-4.7A12.5,12.5,0,0,1,84,84.24l.38,0c.93,0,2,.28,2.08,1.6s-1.5,2.3-2.52,2.94l0,0a6.14,6.14,0,0,1-2.68.94A1.21,1.21,0,0,1,80,89a1.2,1.2,0,0,1,0-1,4.31,4.31,0,0,1,2.48-1.69,1.74,1.74,0,0,1,.47-.1c.06,0,.1,0,.1,0s-.2.41-.52.7a5.82,5.82,0,0,1-.83.6l-.3.19a.2.2,0,0,0-.08.23.2.2,0,0,0,.05.09l-.06,0Z" />
            <path class="cls-1" d="M46.06,91.15h0a7.35,7.35,0,0,0,4.77-1.9,11.18,11.18,0,0,0,3.05-4.35,5.66,5.66,0,0,0-.4-5.28,9,9,0,0,0-6.86-3.72.1.1,0,0,0-.08,0,6.8,6.8,0,0,0-5.37,1.86A7.85,7.85,0,0,0,39,82.09a7.66,7.66,0,0,0,5,8.73A6.65,6.65,0,0,0,46.06,91.15Zm6.79-11.46c1.33,1.78.81,4.13.38,5.37A7.83,7.83,0,0,1,46,90.31a7,7,0,0,1-2.36-.41C40.34,88.72,39.07,85,39.5,82a6.75,6.75,0,0,1,5.87-5.82.25.25,0,0,0,0,.1.26.26,0,0,0,.19.11C47.16,76.54,51,77.19,52.85,79.69Z" />
            <path class="cls-1" d="M30.53,79.19a14.37,14.37,0,0,1-.28-8.25,8.19,8.19,0,0,1,5.42-5.69.08.08,0,0,0,.06-.1l0-.07h-.07A6.61,6.61,0,0,0,31,68c-2,3.05-1.88,7.62-1.14,10.6a22.76,22.76,0,0,0,5.36,9.71,18.8,18.8,0,0,0,9.38,5.77h0a.17.17,0,0,0,.16-.14.16.16,0,0,0-.12-.18C38.33,91.94,32.79,86.2,30.53,79.19Z" />
            <path class="cls-1" d="M23.67,62.78a.15.15,0,0,0,.15-.15.15.15,0,0,0-.14-.16l-.52,0c-2.69,0-4.55,1.3-5,3.48a3.36,3.36,0,0,0,.7,2.76c-1.81.91-3.93,2.68-4.54,5a.13.13,0,0,0,0,.12.15.15,0,0,0,.11.06.13.13,0,0,0,.11-.07,9.23,9.23,0,0,1,4.65-4.66,4.38,4.38,0,0,0,3,1.25h.26a.27.27,0,0,0,.26-.27.26.26,0,0,0-.26-.26,4,4,0,0,1-3.1-1.59A3.22,3.22,0,0,1,19,65.33C19.55,63.51,21.77,62.82,23.67,62.78Z" />
            <path class="cls-1" d="M18.17,58.94a7.52,7.52,0,0,1,2.69-.51,5.11,5.11,0,0,1,5.05,3.15,7.64,7.64,0,0,1-1.82,7.65l0,.05,0,0a.09.09,0,0,0,.08.06h0l0,0A7.86,7.86,0,0,0,25.41,68c-.08,1,0,3,1.37,3.86a.17.17,0,0,0,.25-.08.18.18,0,0,0,0-.2,5.32,5.32,0,0,1-1.33-4,7.68,7.68,0,0,0,1-5.66,6,6,0,0,0,1,.09c3.33,0,6.53-2.67,8.1-5.14a.18.18,0,0,0,0-.19.2.2,0,0,0-.31,0c-2.88,3.35-5.69,5-8.58,5h-.31v0l-.06-.21c-.7-2.26-2.76-3.56-5.64-3.56a9.53,9.53,0,0,0-1.43.11,9.62,9.62,0,0,0-6.93,5.34A12.22,12.22,0,0,0,12,73.94a.16.16,0,0,0,.15.09.19.19,0,0,0,.16-.08.17.17,0,0,0,0-.15C10.48,68.45,12.37,61.2,18.17,58.94Z" />
            <path class="cls-1" d="M75.81,60.89a2.26,2.26,0,0,0-.06-1.26.11.11,0,0,0-.19,0,7.33,7.33,0,0,0-.16,1c0,.2,0,.4-.07.59l0,.31c-.08.48-.15,1-.18,1.46a.19.19,0,0,0,.05.15.24.24,0,0,0,.18.08.2.2,0,0,0,.21-.17c.1-.72.18-1.36.24-1.95C75.79,61.07,75.8,61,75.81,60.89Z" />
            <path class="cls-1" d="M104.63,65a.23.23,0,0,0,.29-.17.21.21,0,0,0-.11-.25C101.21,62.68,97,62,92.92,61.33l-2-.34c-1.09-.19-2.2-.41-3.28-.63a45.53,45.53,0,0,0-8.91-1.19,20.26,20.26,0,0,0-2.38.14.12.12,0,0,0-.11.13.11.11,0,0,0,.12.1h0c.45,0,.91,0,1.37,0A45.72,45.72,0,0,1,87,60.8c1.23.26,2.5.53,3.75.75a96.3,96.3,0,0,1,13.2,3.2l-.08.29c0,.14-.08.28-.12.42s-.11.28-.17.42a5,5,0,0,0-.22.57.23.23,0,0,0,0,.21.25.25,0,0,0,.08.07,58.81,58.81,0,0,0-6.81-1.57l-.14,0-1.4-.24,1.21.14h0a.29.29,0,0,0,.05-.56,84.33,84.33,0,0,0-16.25-2,38.21,38.21,0,0,0-4.42.25.13.13,0,0,0-.12.14.13.13,0,0,0,.13.12,95.94,95.94,0,0,1,10.35.64c1.58.19,3.18.44,4.73.68l1.91.29A41.49,41.49,0,0,0,88,64.27h0a.13.13,0,0,0-.14.13.14.14,0,0,0,.13.15,74.37,74.37,0,0,1,9,1.21c1.41.28,2.81.66,4.17,1s2.74.74,4.14,1h0a.18.18,0,0,0,.19-.15.2.2,0,0,0-.12-.23c-.62-.26-1.26-.48-1.91-.69l.08,0a.23.23,0,0,0,.21-.12,3.22,3.22,0,0,0,.45-1.79l.09,0Z" />
            <path class="cls-1" d="M105.74,69.54a4.64,4.64,0,0,0,.46-1.5.15.15,0,0,0,0-.11.17.17,0,0,0-.26,0l-.21.46c-.16.35-.32.71-.51,1.06l-.22.39c-.1.17-.2.34-.29.52a53.2,53.2,0,0,0-11-1.93l-1.85-.2a93.7,93.7,0,0,0-10.39-.63c-1,0-2.05,0-3,.07,0-.19,0-.37.07-.55a9.9,9.9,0,0,1,.16-1,8.87,8.87,0,0,0,.27-1.79.16.16,0,0,0,0-.12.18.18,0,0,0-.13,0,.15.15,0,0,0-.16.13,9.68,9.68,0,0,1-.3,1.18,5,5,0,0,0-.32,2.63.2.2,0,0,0,.2.14.19.19,0,0,0,.19-.15c0-.07,0-.13,0-.2h0l1.07.06c3.84.21,7.82.43,11.72.85,2.22.24,4.53.56,7.07,1,.81.13,1.64.3,2.44.46,1.25.25,2.54.51,3.82.65l0,0a.24.24,0,0,0,0,.22.26.26,0,0,0,.22.1.28.28,0,0,0,.23-.11,6.92,6.92,0,0,0,.69-1.29Z" />
            <path class="cls-1" d="M74.58,71.8a.21.21,0,0,0,.2-.16,13.89,13.89,0,0,0,.63-3.6v0l0,0a.09.09,0,0,0-.07,0h-.06l0,0a14,14,0,0,0-.9,3.53.23.23,0,0,0,.05.19.24.24,0,0,0,.18.08Z" />
            <path class="cls-1" d="M106.39,75.3a.16.16,0,0,0,.16-.15.19.19,0,0,0-.16-.2c-2.87-.38-5.79-.87-8.63-1.35-6.21-1-12.63-2.12-19-2.12-1.06,0-2.12,0-3.13.09a.09.09,0,0,0-.09.1.09.09,0,0,0,.09.09h.44a104.5,104.5,0,0,1,16.81,1.82,130.65,130.65,0,0,0,13.47,1.73Zm0-.08Z" />
            <path class="cls-1" d="M106.63,73.81a8.79,8.79,0,0,0,.44-1.17.16.16,0,0,0,0-.16.19.19,0,0,0-.32,0c-.15.32-.32.7-.52,1.08-.06.11-.13.22-.21.34a2.41,2.41,0,0,0-.33.64.22.22,0,0,0,0,.19.23.23,0,0,0,.18.09.22.22,0,0,0,.12,0,2.1,2.1,0,0,0,.57-.85Z" />
            <path class="cls-1" d="M78.62,73.87a6.34,6.34,0,0,0,.19-1.71.11.11,0,0,0-.11-.1.1.1,0,0,0-.1.08c-.1.47-.22,1-.33,1.38l-.34-.06a19.3,19.3,0,0,0-2.9-.29l-.55,0a.24.24,0,0,0-.23.19c-.2,1.14-.31,2.29-.39,3.26a.24.24,0,0,0,.06.19.3.3,0,0,0,.22.1l1.48.08a7,7,0,0,1-.2,1.44,6.79,6.79,0,0,0-.21,1.48.21.21,0,0,0,.21.21.19.19,0,0,0,.19-.15l.06-.26A6.41,6.41,0,0,0,75.89,77c2.66.2,5.32.62,7.9,1,1.22.2,2.48.4,3.73.57a.25.25,0,0,0,.28-.21.21.21,0,0,0-.17-.23,69.61,69.61,0,0,0-9.2-1.56c-.85-.1-1.68-.16-2.46-.21l-.38,0c-.43,0-.75,0-.91-.22a1.16,1.16,0,0,1-.14-.84c0-.1,0-.19,0-.29.05-.86.09-1.42,1.09-1.43h0c.51,0,1,0,1.53.1l1,.08v0c-.11.43-.22.88-.33,1.32a.24.24,0,0,0,0,.21.27.27,0,0,0,.2.11,95.38,95.38,0,0,1,9.62,1.46c2.53.47,5.15,1,7.76,1.27h0a.26.26,0,0,0,.25-.25.27.27,0,0,0-.2-.3c-3.14-.66-6.51-1.28-10.92-2-1.71-.27-3.48-.48-5.23-.64-.46,0-.75-.09-.84-.22s0-.42,0-.89Z" />
            <path class="cls-1" d="M103.15,78.85a.23.23,0,0,0,.2.12.22.22,0,0,0,.15-.06,2.68,2.68,0,0,0,.75-1.36.24.24,0,0,0-.11-.27A43.44,43.44,0,0,0,95,74h0a.1.1,0,0,0-.1.09.1.1,0,0,0,.07.11l1.53.51c1,.33,2,.67,3,1s1.84.7,2.77,1.11c.54.24,1,.47,1.11.85a1.2,1.2,0,0,1-.26.94A.19.19,0,0,0,103.15,78.85Z" />
            <path class="cls-1" d="M102.5,68.81h0a.18.18,0,0,0,.18-.17.17.17,0,0,0-.14-.2c-1.74-.32-3.52-.5-5.25-.68a56.52,56.52,0,0,1-6.42-.92h0a.1.1,0,0,0,0,.19A68.44,68.44,0,0,0,102.5,68.81Zm0-.08Z" />
            <path class="cls-1" d="M104.83,73.4a50.85,50.85,0,0,0-11.36-1.68.1.1,0,0,0-.1.1.11.11,0,0,0,.1.12,47.45,47.45,0,0,1,5.06.89,38.18,38.18,0,0,0,6.26,1h0a.21.21,0,0,0,0-.41Zm0,.33Z" />
            <path class="cls-1" d="M65.75,56a2.57,2.57,0,0,1,1.34,0h0a.15.15,0,0,0,.15-.12.16.16,0,0,0-.1-.18,2.55,2.55,0,0,0-1.82-.1,1,1,0,0,0-.61.55,1,1,0,0,0,0,.78.28.28,0,0,0,.26.17.25.25,0,0,0,.18-.08.2.2,0,0,0,0-.18A.66.66,0,0,1,65.75,56Z" />
            <path class="cls-1" d="M71,59.48l.08,0a.23.23,0,0,0,.2-.15.24.24,0,0,0,0-.27,5,5,0,0,0-2.84-1,6.82,6.82,0,0,1-2.2-.61.17.17,0,0,0-.23.09.14.14,0,0,0,0,.16,7.32,7.32,0,0,0,3.1,1.25A12.22,12.22,0,0,1,71,59.48Z" />
            <path class="cls-1" d="M71,61.55c.26.07.52.15.77.24a6.47,6.47,0,0,0,1.32.34h0a.26.26,0,0,0,.25-.24.29.29,0,0,0-.2-.32l-.66-.2a10.43,10.43,0,0,0-1.1-.31,4.45,4.45,0,0,0,.15-1,.15.15,0,0,0-.15-.15.16.16,0,0,0-.1,0,1.72,1.72,0,0,0-.39.87,3.79,3.79,0,0,1-.11.39.24.24,0,0,0,0,.2A.29.29,0,0,0,71,61.55Z" />
            <path class="cls-1" d="M68.44,56.32a1,1,0,0,0,0-.26.16.16,0,0,0-.26-.07.62.62,0,0,0-.22.59,1,1,0,0,0,.58.7,3.71,3.71,0,0,0,1.33.2c.3,0,.6,0,.89,0h.12a.23.23,0,0,0,.2-.19.17.17,0,0,0-.11-.2,3.6,3.6,0,0,0-1.36-.22h-.19a2.09,2.09,0,0,1-.79-.14C68.46,56.61,68.45,56.5,68.44,56.32Z" />
            <path class="cls-1" d="M71.83,57.45a1.42,1.42,0,0,0,.28,1,.69.69,0,0,0,.27.16.16.16,0,0,0,0,.16,7.75,7.75,0,0,1,.8,1c.19.26.38.52.61.77a.23.23,0,0,0,.17.08.25.25,0,0,0,.21-.12.26.26,0,0,0,0-.25,4.5,4.5,0,0,0-1.42-1.59h0a.2.2,0,0,0,.16-.2.21.21,0,0,0-.16-.22.83.83,0,0,1-.7-.82.14.14,0,0,0-.14-.13A.13.13,0,0,0,71.83,57.45Z" />
            <path class="cls-1" d="M68.91,55.14a1.54,1.54,0,0,1,1.2-.76.17.17,0,0,0,.16-.18.22.22,0,0,0-.19-.21,1.33,1.33,0,0,0-1.34,1.08.1.1,0,0,0,.1.13A.1.1,0,0,0,68.91,55.14Z" />
            <path class="cls-1" d="M72.92,55.67a2.42,2.42,0,0,0-.75-.93.16.16,0,0,0-.22.08A.15.15,0,0,0,72,55a2.82,2.82,0,0,1,.6,1,3.38,3.38,0,0,0,.53.94,1.19,1.19,0,0,0,.8.34,3.65,3.65,0,0,0,.63,0l.3,0a1.5,1.5,0,0,1,.74.19l.1,0a.23.23,0,0,0,.21-.14.2.2,0,0,0-.05-.23,1.71,1.71,0,0,0-1.27-.37,1.77,1.77,0,0,1-1-.19A2.15,2.15,0,0,1,72.92,55.67Z" />
            <path class="cls-1" d="M73.65,54.14a.14.14,0,0,0,.12.08.18.18,0,0,0,.11,0,.15.15,0,0,0,0-.1,3.4,3.4,0,0,1,.1-.74c0-.11.06-.23.1-.33a2.29,2.29,0,0,0,.13-.5.21.21,0,0,0,0-.17.28.28,0,0,0-.4,0A1.92,1.92,0,0,0,73.65,54.14Z" />
            <path class="cls-1" d="M76.73,53.76a1.5,1.5,0,0,0-1.42-.43.16.16,0,0,0-.14.18.19.19,0,0,0,.18.19,1.16,1.16,0,0,1,.93.41,1.31,1.31,0,0,1,.11,1.13.31.31,0,0,0,.05.27.33.33,0,0,0,.25.13,4.25,4.25,0,0,1,1,.19,4.91,4.91,0,0,0,1,.19h0a.23.23,0,0,0,.23-.21.25.25,0,0,0-.18-.28l-.45-.14A9.08,9.08,0,0,0,77.07,55,1.65,1.65,0,0,0,76.73,53.76Zm2,2.18Z" />
            <path class="cls-1" d="M79.73,56.89a1.27,1.27,0,0,0,.68,1.35l.11,0a.26.26,0,0,0,.25-.19.24.24,0,0,0-.11-.27l-.11-.07a1.77,1.77,0,0,1-.34-.24,1,1,0,0,1-.24-.61.12.12,0,0,0-.24,0Z" />
            <path class="cls-1" d="M82.19,56.22a.11.11,0,0,0,0,.22h0a1.48,1.48,0,0,1,1.17.42,1.1,1.1,0,0,1,.23.63,1.56,1.56,0,0,0,.15.53.24.24,0,0,0,.21.12.22.22,0,0,0,.2-.12,1.39,1.39,0,0,0-.48-1.48A1.85,1.85,0,0,0,82.19,56.22Z" />
            <path class="cls-1" d="M84.37,58.89a.23.23,0,0,0,.15.13l.37.11a6.45,6.45,0,0,0,1.82.38h0a.24.24,0,0,0,.25-.21.28.28,0,0,0-.18-.31,4.88,4.88,0,0,0-.84-.2l-.31-.06c-.25,0-.54-.1-.83-.14a2.61,2.61,0,0,0-.05-.37c0-.08,0-.16,0-.24a.12.12,0,0,0-.13-.11.14.14,0,0,0-.14.13c0,.06,0,.13,0,.19a1,1,0,0,1-.07.49A.23.23,0,0,0,84.37,58.89Zm2.33.54Z" />
            <path class="cls-1" d="M77.81,58.8A.24.24,0,0,0,78,59a.25.25,0,0,0,.21-.11A2,2,0,0,0,78,56.79a.19.19,0,0,0-.3,0,.18.18,0,0,0,0,.18,3,3,0,0,1,.24.9,2.09,2.09,0,0,1,0,.49A2.55,2.55,0,0,0,77.81,58.8Z" />
            <path class="cls-1" d="M74.71,49.17a.3.3,0,0,0-.23.29,1,1,0,0,1-.48.8,2.76,2.76,0,0,0-.35.33.17.17,0,0,0,0,.18.15.15,0,0,0,.14.09l.08,0,.3-.17a2.29,2.29,0,0,0,.53-.34,1.36,1.36,0,0,0,.24-.31.56.56,0,0,1,.45-.35,6.18,6.18,0,0,1,.75-.06,1.92,1.92,0,0,1,.79.15l.34.17a2.71,2.71,0,0,0,.85.31h0a.26.26,0,0,0,.25-.2.19.19,0,0,0-.12-.22A6.14,6.14,0,0,0,74.71,49.17Z" />
            <path class="cls-1" d="M79.33,52.38A.37.37,0,0,0,79,52a.5.5,0,0,0-.19,0,1.36,1.36,0,0,1-.91.14c-.18,0-.2-.22-.2-.48a1.46,1.46,0,0,0,0-.26.15.15,0,0,0-.22-.09.84.84,0,0,0-.34.63.76.76,0,0,0,.22.61,1.41,1.41,0,0,0,1.34.27,6.24,6.24,0,0,0,.58,1.48.32.32,0,0,0,.29.18.4.4,0,0,0,.28-.11.33.33,0,0,0,.09-.24,2.54,2.54,0,0,0-.27-.94A2.63,2.63,0,0,1,79.33,52.38Z" />
            <path class="cls-1" d="M80.72,54.57a.16.16,0,0,0,0,.18,3,3,0,0,0,1.43.82l.17.06.45.17a5,5,0,0,0,1.78.46h0a.27.27,0,0,0,.27-.21.28.28,0,0,0-.12-.32A4.87,4.87,0,0,0,83,55.24a3.82,3.82,0,0,1-2-.72A.16.16,0,0,0,80.72,54.57Zm3.86,1.63Z" />
            <path class="cls-1" d="M89.73,59.34a7,7,0,0,0,.78.12l.38,0a3,3,0,0,1,1.32.64.24.24,0,0,0,.14,0,.28.28,0,0,0,.23-.15.26.26,0,0,0,0-.27A2.12,2.12,0,0,0,91,58.88l-.23,0a3.47,3.47,0,0,1-2.65-1.18.17.17,0,0,0-.28,0,.18.18,0,0,0,0,.17A2.79,2.79,0,0,0,89.73,59.34Z" />
            <path class="cls-1" d="M94.87,59.25a1.78,1.78,0,0,0-.23.67.26.26,0,0,0,.07.2.3.3,0,0,0,.22.09.27.27,0,0,0,.14,0,1.91,1.91,0,0,0,.74-1.29,2.28,2.28,0,0,0-.14-1.49.33.33,0,0,0-.3-.17.27.27,0,0,0-.17.05A14.58,14.58,0,0,0,93.37,59a.14.14,0,0,0,0,.15.14.14,0,0,0,.2.06c.32-.2.63-.43.93-.65l.67-.48a2.1,2.1,0,0,1-.09.71A2.57,2.57,0,0,1,94.87,59.25Z" />
            <path class="cls-1" d="M100.18,59.14a.25.25,0,0,0-.29-.08l-.42.21a5.12,5.12,0,0,1-1.14.47,4,4,0,0,1-1.9,0h0a.1.1,0,0,0-.11.09.12.12,0,0,0,.07.13,4.34,4.34,0,0,0,1.63.33,3.15,3.15,0,0,0,1.6-.4,1.79,1.79,0,0,0,.3,1.76.15.15,0,0,0,.11.05.16.16,0,0,0,.13-.08.17.17,0,0,0,0-.17,2.48,2.48,0,0,1,.05-2.11A.18.18,0,0,0,100.18,59.14Z" />
            <path class="cls-1" d="M106.71,60.71a1.45,1.45,0,0,0-.5-.08,5,5,0,0,0-1.52.36,4.78,4.78,0,0,1-1.42.34,1,1,0,0,1-.72-.25.29.29,0,0,0-.38,0,.8.8,0,0,1-.52.17,2.68,2.68,0,0,1-.38,0l-.37,0a.11.11,0,0,0-.1.09.1.1,0,0,0,.08.11l.33.05a3.67,3.67,0,0,1,1.06.23,1.31,1.31,0,0,0,.94.38h.1a3.62,3.62,0,0,0,1.27-.33l.27-.1a9.64,9.64,0,0,1,1.64-.4l.2,0a.21.21,0,0,0,.18-.19A.27.27,0,0,0,106.71,60.71Z" />
            <path class="cls-1" d="M107.42,61a.14.14,0,0,0-.23,0,.15.15,0,0,0,0,.16,1.18,1.18,0,0,0,.87.53h0a1,1,0,0,0,.81-.55.15.15,0,0,0,0-.16.17.17,0,0,0-.26,0C108.18,61.35,107.79,61.36,107.42,61Z" />
            <path class="cls-1" d="M108.61,60.53a.17.17,0,0,0,.17.13.16.16,0,0,0,.12-.06,1.7,1.7,0,0,0,.34-1.26,1.55,1.55,0,0,0-.56-1.08.24.24,0,0,0-.34.33,2,2,0,0,1,.27,1,3.8,3.8,0,0,1,0,.38A2.41,2.41,0,0,0,108.61,60.53Z" />
            <path class="cls-1" d="M106.14,58.54a1.69,1.69,0,0,1-1.29.55A6.19,6.19,0,0,1,104,59l-.37,0-.38,0a1.3,1.3,0,0,0-1.14.53.23.23,0,0,0,0,.24.25.25,0,0,0,.22.14l.08,0a2.43,2.43,0,0,1,.94-.18,6.52,6.52,0,0,1,.81.07l.55.06h.16a1.89,1.89,0,0,0,1.6-1,.2.2,0,0,0,0-.21A.23.23,0,0,0,106.14,58.54Z" />
            <path class="cls-1" d="M101.19,59.92h.05a.22.22,0,0,0,.2-.19.22.22,0,0,0-.14-.23.68.68,0,0,1-.19-.14l-.05,0a.23.23,0,0,0-.36.07.23.23,0,0,0,0,.25A.61.61,0,0,0,101.19,59.92Z" />
            <path class="cls-1" d="M97.93,57.75l-.44.1h0a.8.8,0,0,0-.19-.06h-.15a1.47,1.47,0,0,0-.95.47.29.29,0,0,0-.07.32.33.33,0,0,0,.3.2.29.29,0,0,0,.21-.09,1.07,1.07,0,0,1,.66-.36,1.87,1.87,0,0,1,.44,0h0a.14.14,0,0,0,.13-.09.12.12,0,0,0,0-.14h0L98,58a.15.15,0,0,0,.08-.17A.17.17,0,0,0,97.93,57.75Z" />
            <path class="cls-1" d="M101.68,57.71a.27.27,0,0,0,.22-.11.25.25,0,0,0,0-.22.81.81,0,0,0-.32-.39.56.56,0,0,1-.25-.3.38.38,0,0,0-.37-.28.34.34,0,0,0-.31.19.94.94,0,0,1-.62.46,1.91,1.91,0,0,0-.5.25.18.18,0,0,0-.07.21.17.17,0,0,0,.21.12,2.91,2.91,0,0,1,.41,0,2.59,2.59,0,0,0,.47,0,.91.91,0,0,0,.37-.16l.08.06a.87.87,0,0,0,.3.13.82.82,0,0,1,.22.09A.29.29,0,0,0,101.68,57.71Z" />
            <path class="cls-1" d="M102.42,57.17a.18.18,0,0,0,.07.21,2.43,2.43,0,0,0,1.49.45,4.51,4.51,0,0,0,2-.51.21.21,0,0,0,.12-.24.26.26,0,0,0-.29-.19,8.14,8.14,0,0,0-.86.2,4.91,4.91,0,0,1-1.29.24,1.89,1.89,0,0,1-1-.26A.17.17,0,0,0,102.42,57.17Z" />
            <path class="cls-1" d="M104.17,56.09l.2,0h.22c.27,0,.55,0,.82,0a.17.17,0,0,0,.16-.14.15.15,0,0,0-.08-.18,2.31,2.31,0,0,0-.91-.24h-.08l-.12,0a3.59,3.59,0,0,0-.45,0,.64.64,0,0,0-.51.17.25.25,0,0,0,0,.35.62.62,0,0,0,.48.17Z" />
            <path class="cls-1" d="M100.49,55.42a.14.14,0,0,0,0,.13.18.18,0,0,0,.14.06.2.2,0,0,0,.16-.08l.06-.09c.19-.29.32-.48.67-.48h0a1.61,1.61,0,0,1,.76.32l.28.16.07,0a.15.15,0,0,0,.13-.07.15.15,0,0,0,0-.14,1.57,1.57,0,0,0-1.31-.7A1,1,0,0,0,100.49,55.42Z" />
            <path class="cls-1" d="M100.23,55.44l-.45-.06a4.5,4.5,0,0,0-.77-.09,1.62,1.62,0,0,0-.69.14,1.27,1.27,0,0,0-.58.44c-.22.36-.39.41-.52.41a1.89,1.89,0,0,1-.68-.23l0,0a.24.24,0,0,0-.29.1.19.19,0,0,0,0,.2,1.47,1.47,0,0,0,1.33.6h.09a.29.29,0,0,0,.2-.1.22.22,0,0,0,.05-.17.6.6,0,0,1,.13-.48c.36-.43,1.34-.48,1.93-.52l.28,0a.1.1,0,0,0,.09-.1A.1.1,0,0,0,100.23,55.44Z" />
            <path class="cls-1" d="M93.51,55.43a.24.24,0,0,0-.15.27.22.22,0,0,0,.22.18h.06a4.44,4.44,0,0,1,.87-.09h.32a.13.13,0,0,0,.13-.11.15.15,0,0,0-.09-.17A1.75,1.75,0,0,0,93.51,55.43Z" />
            <path class="cls-1" d="M93.14,56.21a1.39,1.39,0,0,1-.18.12,1.17,1.17,0,0,0-.23.16,3.26,3.26,0,0,1-.35.28.15.15,0,0,0-.05.16.13.13,0,0,0,.13.09h0a4.11,4.11,0,0,0,.43-.18,1.34,1.34,0,0,0,.39-.35l0-.05a.16.16,0,0,0,0-.17A.16.16,0,0,0,93.14,56.21Z" />
            <path class="cls-1" d="M92.08,57.53a.11.11,0,0,0,0-.12.1.1,0,0,0-.1-.07H91.9s-.12,0-.24-.14a.15.15,0,0,0-.23.05.13.13,0,0,0,0,.15.62.62,0,0,0,.39.18A.34.34,0,0,0,92.08,57.53Z" />
            <path class="cls-1" d="M88.88,56.23a.23.23,0,0,0,0,.25,4.69,4.69,0,0,0,.85.66l.34.23a.14.14,0,0,0,.09,0,.18.18,0,0,0,.15-.1.16.16,0,0,0,0-.16,2.76,2.76,0,0,0-1.2-1A.2.2,0,0,0,88.88,56.23Z" />
            <path class="cls-1" d="M87.51,56.42a.12.12,0,0,0-.12-.1h-.07a1.89,1.89,0,0,0-1.07.31c-.26.21-.7.71-.54,1.11a.26.26,0,0,0,.23.17.2.2,0,0,0,.12,0,.64.64,0,0,0,.24-.36l0-.06a1.36,1.36,0,0,1,.25-.41,1.58,1.58,0,0,1,.86-.49A.12.12,0,0,0,87.51,56.42Z" />
            <path class="cls-1" d="M83.83,54.05h-.31c-.4,0-.63-.09-.73-.28a.13.13,0,0,0-.22,0,.14.14,0,0,0,0,.11c.11.8,1,.85,1.7.89a3.54,3.54,0,0,1,.84.11h.08a.23.23,0,0,0,.21-.15.26.26,0,0,0,0-.27A1.67,1.67,0,0,0,84.07,54Z" />
            <path class="cls-1" d="M87.6,55.29a.24.24,0,0,0,.13,0,.21.21,0,0,0,.16-.08A.29.29,0,0,0,88,55a.78.78,0,0,0-.33-.48,1.22,1.22,0,0,1-.19-.18.22.22,0,0,0-.34,0s0,0-.19,0a2.53,2.53,0,0,1-.35,0l-.17,0a.11.11,0,0,0-.11.11.11.11,0,0,0,.1.12l.22,0h.5a1.1,1.1,0,0,0,.47.57Z" />
            <path class="cls-1" d="M91,53.57a.31.31,0,0,0-.19.18.28.28,0,0,0,0,.25.39.39,0,0,1,0,.33.83.83,0,0,1-.46.44.59.59,0,0,1-.23,0,1.88,1.88,0,0,1-.63-.16h0a.11.11,0,0,0-.1.09.1.1,0,0,0,.05.12,1.91,1.91,0,0,0,.86.26.78.78,0,0,0,.49-.16,1.15,1.15,0,0,0,.41-.68.43.43,0,0,1,.47-.33,2.52,2.52,0,0,1,1.29.52.21.21,0,0,0,.13,0,.2.2,0,0,0,.19-.12.19.19,0,0,0,0-.21A2,2,0,0,0,91,53.57Z" />
            <path class="cls-1" d="M94.18,53.93a.18.18,0,0,0,.09.2l.18.11a1.81,1.81,0,0,0,.77.31,1.21,1.21,0,0,0,.84-.29.7.7,0,0,0,.37.31.39.39,0,0,0,.15,0,1.25,1.25,0,0,0,.43-.11l.22-.07a.22.22,0,0,0,.17-.19A.23.23,0,0,0,97.3,54a.65.65,0,0,0-.4-.1h-.26c-.06,0-.12,0-.24-.2a.27.27,0,0,0-.41-.05,1,1,0,0,1-.69.26,3.07,3.07,0,0,1-.6-.08l-.29-.06A.2.2,0,0,0,94.18,53.93Z" />
            <path class="cls-1" d="M101.12,53.08a1.34,1.34,0,0,0-.59-.13,3.15,3.15,0,0,0-1,.21,3.28,3.28,0,0,1-.94.2,1.29,1.29,0,0,1-.57-.12.2.2,0,0,0-.27.11.18.18,0,0,0,0,.2,1.46,1.46,0,0,0,1,.44,1.66,1.66,0,0,0,.37,0,4,4,0,0,0,.49-.15,3.36,3.36,0,0,1,.41-.13,5.12,5.12,0,0,1,.6-.1l.34-.05a.22.22,0,0,0,.17-.19A.22.22,0,0,0,101.12,53.08Z" />
            <path class="cls-1" d="M102.19,53.43h-.07s-.06,0-.14-.18l0,0a.19.19,0,0,0-.31,0,.19.19,0,0,0,0,.19l0,.07c.1.24.25.61.52.61a.41.41,0,0,0,.25-.11.25.25,0,0,0,.09-.17.3.3,0,0,0-.08-.23A.35.35,0,0,0,102.19,53.43Z" />
            <path class="cls-1" d="M102.9,52.16l0,0c-.15-.2-.35-.48-.64-.48a.31.31,0,0,0-.24.13.25.25,0,0,0,0,.23.72.72,0,0,0,.34.33l.13.08a1.34,1.34,0,0,1,.43.48A.17.17,0,0,0,103,53a.19.19,0,0,0,.15-.07.17.17,0,0,0,0-.15A1.69,1.69,0,0,0,102.9,52.16Z" />
            <path class="cls-1" d="M101.64,50.17a.19.19,0,0,0-.15.19.2.2,0,0,0,.15.2,1.7,1.7,0,0,1,.41.15.68.68,0,0,1,.27.38.19.19,0,0,0,.17.11.16.16,0,0,0,.12-.05.15.15,0,0,0,0-.12,1.24,1.24,0,0,0-.27-.67A.71.71,0,0,0,101.64,50.17Z" />
            <path class="cls-1" d="M100.57,49.69a1.24,1.24,0,0,0-1.45.13,2.51,2.51,0,0,0-.36.39l-.15.19a1.41,1.41,0,0,1-.9.46.16.16,0,0,0-.14.17.2.2,0,0,0,.18.19h.11a2,2,0,0,0,1.23-.59,1.7,1.7,0,0,1,1-.52,1,1,0,0,1,.28,0h.07a.26.26,0,0,0,.25-.21A.23.23,0,0,0,100.57,49.69Z" />
            <path class="cls-1" d="M97.28,51.47c-.08.09-.19.21-.31.19s-.23-.21-.27-.28a.22.22,0,0,0-.37,0,.22.22,0,0,0,0,.21c.16.34.35.51.59.52h0a.78.78,0,0,0,.62-.42.16.16,0,0,0,0-.17A.18.18,0,0,0,97.28,51.47Z" />
            <path class="cls-1" d="M92.42,50a.25.25,0,0,0-.31.16.24.24,0,0,0,.06.27,3.5,3.5,0,0,0,2.09.8h0a.17.17,0,0,0,.18-.14.21.21,0,0,0-.12-.23c-.28-.12-.56-.25-.83-.38A10.09,10.09,0,0,0,92.42,50Zm1.85,1.15Z" />
            <path class="cls-1" d="M98.76,52h0a4,4,0,0,1,.47-.07h.25a.49.49,0,0,0,.29-.08.31.31,0,0,0,.13-.25.3.3,0,0,0-.14-.24.45.45,0,0,0-.24-.07,1.11,1.11,0,0,0-.41.11l0,0a1.71,1.71,0,0,0-.47.29.15.15,0,0,0,0,.17A.17.17,0,0,0,98.76,52Zm0-.08Z" />
            <path class="cls-1" d="M98.23,47.55a.44.44,0,0,0-.34.15.28.28,0,0,0,0,.32.63.63,0,0,0,.47.3.83.83,0,0,1,.3.12.88.88,0,0,1,.2.76.2.2,0,0,0,0,.15.19.19,0,0,0,.13.06.18.18,0,0,0,.17-.12,1.24,1.24,0,0,0,0-1.21A1.34,1.34,0,0,0,98.23,47.55Z" />
            <path class="cls-1" d="M96.48,47.11a1.12,1.12,0,0,0-.77.26.22.22,0,0,0-.08.25.2.2,0,0,0,.19.14l.11,0a1.54,1.54,0,0,1,.68-.19.84.84,0,0,1,.4.1l0,0h0a.11.11,0,0,0,.11-.07.11.11,0,0,0,0-.12A1.29,1.29,0,0,0,96.48,47.11Z" />
            <path class="cls-1" d="M95.33,49.43a3,3,0,0,0,.92-.15.29.29,0,0,0,.19-.32.25.25,0,0,0-.27-.22h-.1a5.93,5.93,0,0,1-.74,0l-.33,0a1.9,1.9,0,0,0-.52-.05.27.27,0,0,0-.23.17.24.24,0,0,0,.06.26,1.41,1.41,0,0,0,1,.35Z" />
            <path class="cls-1" d="M94.59,50.22a1.69,1.69,0,0,0,.89.24h0a1.52,1.52,0,0,0,.4,0,.16.16,0,0,0,.12-.16.17.17,0,0,0-.12-.17L95.63,50l-.29-.08a2.23,2.23,0,0,0-.64-.14.21.21,0,0,0-.21.16A.25.25,0,0,0,94.59,50.22Z" />
            <path class="cls-1" d="M82.84,50.92l-.21,0a1.17,1.17,0,0,0-.9.38.68.68,0,0,0-.13.59.16.16,0,0,0,.16.13.17.17,0,0,0,.17-.12c.1-.33.42-.4.75-.45l.16,0a.24.24,0,0,0,.18-.24A.23.23,0,0,0,82.84,50.92Z" />
            <path class="cls-1" d="M84.23,52.06c.08,1,.92,1.26,1.55,1.34a5.7,5.7,0,0,0,.64,0A5.64,5.64,0,0,0,88.77,53a.27.27,0,0,0,.14-.26.28.28,0,0,0-.2-.25,4.43,4.43,0,0,0-1.49.08,9.43,9.43,0,0,1-1.35.14c-.71,0-1.08-.22-1.17-.69a.22.22,0,0,0-.23-.18.27.27,0,0,0-.19.08A.23.23,0,0,0,84.23,52.06Z" />
            <path class="cls-1" d="M91.23,52.5a.57.57,0,0,0,.47-.2.2.2,0,0,0,0-.31.55.55,0,0,0-.33-.1,1.92,1.92,0,0,0-.3,0l-.2,0a1.94,1.94,0,0,1-1-.25.13.13,0,0,0-.18.08.12.12,0,0,0,.05.14,3.47,3.47,0,0,0,1,.46A2.06,2.06,0,0,0,91.23,52.5Z" />
            <path class="cls-1" d="M88.79,49.84a1.38,1.38,0,0,0-.14-.17,1.93,1.93,0,0,0-.36-.25l-.14-.09a4.14,4.14,0,0,0-1.25-.56.24.24,0,0,0-.29.16.25.25,0,0,0,.1.28c.25.16.51.31.77.46l.24.13L88,50l.15.08a1.26,1.26,0,0,0,.34.12,1.38,1.38,0,0,1,.26.08h.06a.16.16,0,0,0,.15-.11A.13.13,0,0,0,89,50,1.08,1.08,0,0,1,88.79,49.84Z" />
            <path class="cls-1" d="M85.4,51.52l.21,0a.76.76,0,0,0,.3-.06.4.4,0,0,0,.21-.28.64.64,0,0,1,0-.11.14.14,0,0,0-.23-.14s0,0-.07,0a1.17,1.17,0,0,1-.41-.13,2.39,2.39,0,0,1-.25-.17,1.33,1.33,0,0,0-.43-.24.27.27,0,0,0-.29.11.25.25,0,0,0,0,.22A1.37,1.37,0,0,0,85.4,51.52Z" />
            <path class="cls-1" d="M80.63,51.89a2.4,2.4,0,0,0-.54-1.31.18.18,0,0,0-.27,0,.15.15,0,0,0,0,.14,3.85,3.85,0,0,1,.2,1.34c0,.06,0,.12,0,.19a1,1,0,0,0,.23.86.31.31,0,0,0,.19.07.23.23,0,0,0,.21-.13,1.51,1.51,0,0,0,0-1Z" />
            <path class="cls-1" d="M77.58,48.76h0a.2.2,0,0,0,.15-.07.15.15,0,0,0,.11-.14.13.13,0,0,0-.08-.12.21.21,0,0,0-.08-.08,2.69,2.69,0,0,1-.7-.53.24.24,0,0,0-.38,0,.25.25,0,0,0,0,.25A1.21,1.21,0,0,0,77.58,48.76Zm0-.08Z" />
            <path class="cls-1" d="M77.79,46.8a1.92,1.92,0,0,0-1.29.77.13.13,0,0,0,.1.22.12.12,0,0,0,.09,0,1.36,1.36,0,0,1,1-.36l.48,0,.49,0a1.84,1.84,0,0,0,.69-.11.25.25,0,0,0,0-.47,2,2,0,0,0-.77-.14A5.66,5.66,0,0,0,77.79,46.8Z" />
            <path class="cls-1" d="M79,45.34a.16.16,0,0,0,0,.16.56.56,0,0,0,.24.2c.08,0,.12.06.13.09a.13.13,0,0,0,.12.09.11.11,0,0,0,.11-.1.47.47,0,0,0-.46-.53A.17.17,0,0,0,79,45.34Z" />
            <path class="cls-1" d="M79.14,44.85a.16.16,0,0,0,.15.15,4.19,4.19,0,0,1,1.07.29,4,4,0,0,0,1.31.32,1.39,1.39,0,0,0,.36,0,.7.7,0,0,0,.53-.39,1.22,1.22,0,0,0-.21-1,3.89,3.89,0,0,1,2.55,1,.27.27,0,0,0,.4-.14.25.25,0,0,0-.06-.28,3.82,3.82,0,0,0-3-1.14,17.69,17.69,0,0,0,2.25-7.88,16.13,16.13,0,0,0-.23-4.54l1,.17c1.54.26,3.13.52,4,1.91a2.53,2.53,0,0,1,.38,2.13c-.53,1.92-3.19,3.39-4.31,3.93a.21.21,0,0,0-.12.25.24.24,0,0,0,.23.19h.07c2.32-.72,5.34-2.93,4.77-5.6s-3.46-3.35-5.75-3.35h-.32a16.29,16.29,0,0,0-1.24-3.6.12.12,0,0,0-.2,0,.1.1,0,0,0,0,.1,19.36,19.36,0,0,1,1.13,8.41,23,23,0,0,1-1.94,7l-.46,1.16a.23.23,0,0,0,0,.22.28.28,0,0,0,.27.11c.1.16.28.46.22.59s-.06.05-.13.06a2.51,2.51,0,0,1-.64,0l-.22,0-.26,0a5.34,5.34,0,0,0-1.41,0A.14.14,0,0,0,79.14,44.85Z" />
            <path class="cls-1" d="M86,44.42a.21.21,0,0,0-.25.16.19.19,0,0,0,.1.22,2.66,2.66,0,0,0,1.25.34,1.45,1.45,0,0,0,1.09-.42,1.31,1.31,0,0,0,.32-1l.38,0c.33,0,.67.06,1,.06a3.62,3.62,0,0,0,1-.12.25.25,0,0,0,.19-.26.29.29,0,0,0-.26-.26h-.15c-.84-.09-1.7-.18-2.56-.2a.35.35,0,0,0-.28.14.37.37,0,0,0-.07.33.93.93,0,0,1-.07.8C87.42,44.57,86.88,44.62,86,44.42Z" />
            <path class="cls-1" d="M91.37,43.24a.15.15,0,0,0-.18.12.15.15,0,0,0,.1.17,2.91,2.91,0,0,1,1,.71l.2.23a2.12,2.12,0,0,0,.58.51.27.27,0,0,0,.14,0,.28.28,0,0,0,.24-.14.28.28,0,0,0,0-.28A3.42,3.42,0,0,0,91.37,43.24Z" />
            <path class="cls-1" d="M94.43,46.62a2.52,2.52,0,0,0-.75.26.26.26,0,0,0-.12.26.25.25,0,0,0,.19.21,1.54,1.54,0,0,0,.4.05,3.18,3.18,0,0,0,2.27-1.35.13.13,0,0,0,0-.14.15.15,0,0,0-.21-.06l0,0a.27.27,0,0,0,0-.11A.27.27,0,0,0,96,45.5a3.57,3.57,0,0,0-.6-.13,3.55,3.55,0,0,1-.5-.1,2.93,2.93,0,0,1-1.14-.64.15.15,0,0,0-.22.06.13.13,0,0,0,0,.14l.26.22a3.17,3.17,0,0,0,1.83,1h0l.25,0a7,7,0,0,1-1,.48A3.69,3.69,0,0,1,94.43,46.62Z" />
            <path class="cls-1" d="M90.58,48.28c-.32-.08-.65-.15-1-.2a.3.3,0,0,0-.32.22.24.24,0,0,0,.11.27,2.48,2.48,0,0,0,.15.87c0,.15.11.3.15.42a.35.35,0,0,1,0,.1.41.41,0,0,0,.06.2.27.27,0,0,0,.22.11.26.26,0,0,0,.21-.1.23.23,0,0,0,0-.22.32.32,0,0,0-.1-.15l0-.06A.83.83,0,0,1,90,49.5l0-.11a3.79,3.79,0,0,1-.21-.68,5.49,5.49,0,0,0,2.19.46h0a4.73,4.73,0,0,0,.86-.07A.3.3,0,0,0,93,49a.33.33,0,0,0,0-.26,1.41,1.41,0,0,1,0-.76,2.53,2.53,0,0,0,.07-.5.15.15,0,0,0,0-.12.19.19,0,0,0-.13-.05.15.15,0,0,0-.15.13,2,2,0,0,1-.2.53,1.56,1.56,0,0,0-.2.58h-.29A6.24,6.24,0,0,1,90.58,48.28Z" />
            <path class="cls-1" d="M80.45,48.49l-.2.09h0A.68.68,0,0,0,80,48.5a.34.34,0,0,0-.33.14.25.25,0,0,0,0,.23,1.79,1.79,0,0,0,.63.69l.19.15.08.07a1.36,1.36,0,0,0,.79.42h.17l0,0,0-.05a.16.16,0,0,0,0-.15,1.54,1.54,0,0,0-.45-.53L81,49.26l-.16-.18a3.71,3.71,0,0,0-.33-.34l.16,0a2.59,2.59,0,0,0,.87-.4.47.47,0,0,0,.17-.39l.46.2a5.13,5.13,0,0,0,.69.28.27.27,0,0,0,.33-.16.28.28,0,0,0-.05-.3,2.64,2.64,0,0,0-1.79-.8h-.1a.32.32,0,0,0-.29.2.33.33,0,0,0,.06.35.44.44,0,0,1,.14.36C81.06,48.22,80.72,48.37,80.45,48.49Z" />
            <path class="cls-1" d="M83.14,49v.16h.07c.2,0,.41,0,.64.06a7.52,7.52,0,0,0,.9.08,1.85,1.85,0,0,0,1-.22.26.26,0,0,0,.12-.3.26.26,0,0,0-.25-.2h0a2.49,2.49,0,0,0-.7.14l-.35.09a7.92,7.92,0,0,1-1.29.18Z" />
            <path class="cls-1" d="M85,46.77a.23.23,0,0,0,0-.23.25.25,0,0,0-.33-.1l-.12.06a1,1,0,0,0-.51.42.33.33,0,0,0,0,.29.36.36,0,0,0,.23.22.89.89,0,0,1,.44.39,1.74,1.74,0,0,0,.23.28.14.14,0,0,0,.1,0,.15.15,0,0,0,.13-.08.16.16,0,0,0,0-.16.92.92,0,0,1-.15-.37c0-.06,0-.11,0-.17a1.06,1.06,0,0,0-.15-.3l0-.06A2.47,2.47,0,0,0,85,46.77Z" />
            <path class="cls-1" d="M85.56,46.6a.15.15,0,0,0,0,.17l.18.17A3.4,3.4,0,0,0,87.61,48h0a.23.23,0,0,0,.22-.16.28.28,0,0,0-.1-.31A4.1,4.1,0,0,0,87,47.2l-.3-.13a6.31,6.31,0,0,1-1-.55A.16.16,0,0,0,85.56,46.6ZM87.63,48h0Z" />
            <path class="cls-1" d="M91,46.46a1.26,1.26,0,0,0-1.13-.67A4.27,4.27,0,0,0,88,46a.42.42,0,0,0-.24.26.29.29,0,0,0,0,.25.63.63,0,0,1,.1.47,1,1,0,0,0,0,.41.16.16,0,0,0,.15.1.15.15,0,0,0,.11,0,.14.14,0,0,0,0-.11.32.32,0,0,1,.1-.23.58.58,0,0,0,.14-.23.87.87,0,0,0,0-.31l.06,0a6.34,6.34,0,0,1,.74-.23l.15,0a1.47,1.47,0,0,1,.68.25,1.89,1.89,0,0,0,.63.25h0a1.78,1.78,0,0,0,.79.23.89.89,0,0,0,.67-.28.25.25,0,0,0,.06-.27.29.29,0,0,0-.37-.14l-.15.07a1.09,1.09,0,0,1-.41.14,1,1,0,0,1-.32,0Z" />
            <path class="cls-1" d="M92.6,45.73a.27.27,0,0,0-.06-.3,3.66,3.66,0,0,0-.79-.58h0a.28.28,0,0,0-.42.09.24.24,0,0,0,.06.26,3.77,3.77,0,0,0,.35.32l0,0,.23.17,0,0,.1.07h0a.28.28,0,0,0,.19.08A.29.29,0,0,0,92.6,45.73Z" />
            <path class="cls-1" d="M60.11,42.39a20.35,20.35,0,0,0,2-10.38.14.14,0,0,0-.14-.13.13.13,0,0,0-.13.13c-.38,7.86-3.58,13.85-9.24,17.32a.29.29,0,0,0-.12.33.26.26,0,0,0,.24.21h0l.1,0A14.88,14.88,0,0,0,60.11,42.39Z" />
            <path class="cls-1" d="M79.65,41.56a.25.25,0,0,0,.21.13.2.2,0,0,0,.15-.07,13.24,13.24,0,0,0,3.34-8.48,12.91,12.91,0,0,0-3.06-8.54.15.15,0,0,0-.23,0,.13.13,0,0,0,0,.14c3.5,4.91,3.35,11.1-.41,16.57A.2.2,0,0,0,79.65,41.56Z" />
            <path class="cls-1" d="M94.22,24.93A.13.13,0,0,0,94,25a.14.14,0,0,0,0,.15A14.65,14.65,0,0,1,94,43.66a.26.26,0,0,0,.19.42.27.27,0,0,0,.17-.07c2.43-2.07,3.88-6,3.76-10.15C98,30,96.57,26.72,94.22,24.93Z" />
            <path class="cls-1" d="M86.3,21.28a12.48,12.48,0,0,0-2-.17c-1.54,0-3.61.32-4.73,1.84a.11.11,0,0,0,0,.12.13.13,0,0,0,.17.05,9.59,9.59,0,0,1,4.85-1.31c3.2,0,6.4,1.55,9.14,3a.23.23,0,0,0,.12,0,.28.28,0,0,0,.25-.17.23.23,0,0,0-.07-.26C91.72,22.43,88.2,21.6,86.3,21.28Z" />
            <path class="cls-1" d="M68,34.23A5.36,5.36,0,0,1,69.66,34a10.47,10.47,0,0,1,1.19.07A.14.14,0,0,0,71,34a.13.13,0,0,0-.07-.16,4.44,4.44,0,0,0-1.84-.37,4.32,4.32,0,0,0-3.85,2,.25.25,0,0,0,0,.25.27.27,0,0,0,.23.12.28.28,0,0,0,.17-.06l.13-.1A7,7,0,0,1,68,34.23Z" />
            <path class="cls-1" d="M12,28.64a.11.11,0,0,0,0,.1,35.43,35.43,0,0,0,3.48,6.48.2.2,0,0,0,.17.09.22.22,0,0,0,.19-.11.19.19,0,0,0,0-.2c-1.27-2-2.35-4-3.62-6.36A.12.12,0,0,0,12,28.64Z" />
            <path class="cls-1" d="M31.38,13.77a.15.15,0,0,0,0,.15c.55,1,1.12,2.06,1.69,3.06l1.06,1.9c.37.68.72,1.39,1.05,2.07.48,1,1,2,1.56,2.95a.19.19,0,0,0,.17.09.22.22,0,0,0,.17-.08.19.19,0,0,0,0-.17,37.45,37.45,0,0,0-4.57-8.6l-.89-1.39A.16.16,0,0,0,31.38,13.77Z" />
            <path class="cls-1" d="M36.24,16.64a.19.19,0,0,0,.16.09.2.2,0,0,0,.17-.09.2.2,0,0,0,0-.19A58.88,58.88,0,0,0,32,8.2a.15.15,0,0,0-.24,0,.14.14,0,0,0,0,.14c.57,1,1.12,2.1,1.64,3.14A50.08,50.08,0,0,0,36.24,16.64Z" />
            <path class="cls-1" d="M53.18,11.41l-.06,0h-.05l0,.09,0,0a27.63,27.63,0,0,1,2.57,7c.34,1.27.69,2.58,1.15,3.86a.25.25,0,0,0,.24.17.25.25,0,0,0,.2-.1.24.24,0,0,0,0-.21c-.47-2-1-4-1.63-6A10.64,10.64,0,0,0,53.18,11.41Z" />
            <path class="cls-1" d="M58.52,20.44a.19.19,0,0,0,.15-.08.18.18,0,0,0,0-.18,59.35,59.35,0,0,1-2.23-5.7.14.14,0,0,0-.23,0,.12.12,0,0,0,0,.11,19.08,19.08,0,0,0,2.17,5.8A.18.18,0,0,0,58.52,20.44Z" />
            <path class="cls-1" d="M111.32,26.65A62.45,62.45,0,0,0,82.69,7.76a61,61,0,0,0-15.29-3h0c-.26-.93-.53-1.86-.82-2.78a.31.31,0,0,0,.19-.34.29.29,0,0,0-.3-.25A25.34,25.34,0,0,0,59.82,2.7l-1.29.37-2.48.68C54,4.32,51.8,4.92,49.7,5.56a.19.19,0,0,0-.12.21v0A27.27,27.27,0,0,0,46.48.09a.14.14,0,0,0-.22,0,.12.12,0,0,0,0,.13,62.75,62.75,0,0,1,4.54,11.36c.3,1,.58,2.1.85,3.14a38.3,38.3,0,0,0,2.73,8,.28.28,0,0,0,.25.16.35.35,0,0,0,.26-.13.3.3,0,0,0,.06-.26c-.28-1.13-.67-2.25-1-3.34-.25-.73-.5-1.47-.73-2.21s-.51-1.71-.75-2.55c-.34-1.19-.7-2.41-1.07-3.61-.52-1.65-1.08-3.34-1.76-5a.16.16,0,0,0,.14.08h0a48.8,48.8,0,0,0,6.45-1.46l1.34-.37c1.3-.35,2.66-.63,4-.91,1.56-.33,3.17-.66,4.7-1.11A38.26,38.26,0,0,0,67.74,8.6l.24.83c.4,1.36.75,2.75,1.09,4.1s.75,3,1.18,4.43a.29.29,0,0,0,.47.11.23.23,0,0,0,.06-.19,32.53,32.53,0,0,0-1.55-6.67l-.41-1.37c-.24-.79-.46-1.59-.68-2.39,3.09.41,25.24,3.89,40.28,20.95a40.74,40.74,0,0,1,9.92,30.31,42,42,0,0,1-5.86,18.72c1.87-4.56,2.74-10.1,2.66-16.88-.05-4.35-1.36-8.61-2.61-12.72-.52-1.69-1.05-3.44-1.49-5.16a.13.13,0,0,0-.17-.08,7.23,7.23,0,0,0-.59-1.39c-.05-.28-.11-.55-.18-.8-1.1-4-5.32-8.46-9.6-8.46h-.16a.18.18,0,0,0-.17.16,9.21,9.21,0,0,0-2.91-3.9.12.12,0,0,0-.15.19c3.73,3.27,4.32,8.67,1.76,16a.21.21,0,0,0,0,.21.26.26,0,0,0,.21.1.24.24,0,0,0,.21-.11,10.54,10.54,0,0,0,1.47-3.95c2.71,1.25,1.93,4.75,1.36,7.31v0a.24.24,0,0,0,.05.21.27.27,0,0,0,.21.1.21.21,0,0,0,.2-.13c.78-1.84,1.12-4.73.2-6.45a2.79,2.79,0,0,0-1.94-1.48,20.2,20.2,0,0,0,.13-4.76,12.12,12.12,0,0,0-.74-3.27l.06,0a12.43,12.43,0,0,1,9,7.82c1.44,3.65.26,7.46-3.51,11.33a.21.21,0,0,0,0,.23.21.21,0,0,0,.31.1,10.34,10.34,0,0,0,4.34-7.8,10.59,10.59,0,0,1-.5,4.51A19.26,19.26,0,0,1,107.6,53c-.46.73-.94,1.48-1.37,2.26a.21.21,0,0,0,0,.21.22.22,0,0,0,.19.11.19.19,0,0,0,.14-.07c2.26-2.28,4.56-6.35,4.65-10.17.35,1.76.81,3.5,1.27,5.2s1,3.65,1.33,5.52a1.31,1.31,0,0,0-.52-.1,5.69,5.69,0,0,0-2.15.7,4.73,4.73,0,0,1-1.61.56h-.08a.15.15,0,0,0-.15.14.16.16,0,0,0,.12.18,2.58,2.58,0,0,0,1.81-.22l.35-.17a11.08,11.08,0,0,1,1.23-.52c.48-.16.82-.11,1,.14a2.47,2.47,0,0,1,.1,1.8,10.3,10.3,0,0,1-1.51,3,14.78,14.78,0,0,0-1.21,2.11,11.94,11.94,0,0,0-.52,5.53,25.6,25.6,0,0,1,.07,2.6c-.12,2.82-2.19,5.41-6.15,7.69a.21.21,0,0,0-.11.24.25.25,0,0,0,.24.18l.1,0a11.15,11.15,0,0,0,6-6.44,13.26,13.26,0,0,0,.46-4.75c0-2-.1-4,1.06-5.92.15-.25.33-.52.52-.81a16,16,0,0,0,1.38-2.37,40.15,40.15,0,0,1,0,5.69,3.35,3.35,0,0,0-1.27.44.26.26,0,0,0-.11.3.24.24,0,0,0,.32.18l.09,0a8.52,8.52,0,0,1,.92-.33,48.69,48.69,0,0,1-2.71,12.42.25.25,0,0,0,0,.23.32.32,0,0,0,.18.12,24.88,24.88,0,0,1-3.32,3.93c-1.06,1-2.35,2.15-3.85,3.37,0-.07,0-.15,0-.25v0c0-.16,0-.3.07-.44a1.22,1.22,0,0,0,0-.85.33.33,0,0,0,.21-.13.25.25,0,0,0,0-.23c-.13-.31-.27-.6-.4-.89a9.6,9.6,0,0,1-.78-2.12c-.22-1-1-1.19-1.75-1.19h0a.15.15,0,0,0-.14.14.13.13,0,0,0,.11.15c1.08.22,1.22.79,1.41,1.58.06.22.11.44.19.68a7.4,7.4,0,0,0,.48,1.06c.11.2.22.42.32.64a7,7,0,0,0-.29,2.36h0a6.1,6.1,0,0,1-1.24.19,6.8,6.8,0,0,0-2,.38,2.52,2.52,0,0,0-.81,1.25l-.09.22a2.62,2.62,0,0,1-2.22,1.88,2.22,2.22,0,0,0-1.45.75,3,3,0,0,1-2.85,1.11h-.81a.23.23,0,0,0-.23.22.25.25,0,0,0,.22.25l.22,0a10.76,10.76,0,0,0,1.29.1l.33,0c-.82.44-1.67.88-2.54,1.31a67,67,0,0,1-29.57,6.74A83.16,83.16,0,0,1,35.5,96.08C26.36,93,19.94,88.46,15.42,83.57a9.13,9.13,0,0,1,2.08-.24,22.12,22.12,0,0,1,3.36.35l.6.1a10.39,10.39,0,0,0,1.54.13,5.69,5.69,0,0,0,2.29-.43.24.24,0,0,0,.15-.27.34.34,0,0,0-.36-.26,14.17,14.17,0,0,1-2.16.16A22.66,22.66,0,0,1,20,82.89a14.63,14.63,0,0,0-1.87-.14,7.66,7.66,0,0,0-3,.55h0A39.72,39.72,0,0,1,6.47,67.65c-.26-.9-.48-1.8-.68-2.7A26.54,26.54,0,0,1,8.36,54.72a6.46,6.46,0,0,1,4.7-3.89c.56-.14,1.13-.26,1.68-.37s1.18-.23,1.76-.39a13.41,13.41,0,0,0,1.82-.67c.47-.2,1-.41,1.45-.56a7.44,7.44,0,0,1,2.27-.33,20,20,0,0,1,3.12.33l1.19.18,1.11.14c2.23.27,4.16.5,6.08,2.06a14.44,14.44,0,0,1,4.35,6c.83,2.21.73,4.53.32,7.34a.13.13,0,0,0,0,.11l0,0-.26,0a.12.12,0,0,0-.12.11.11.11,0,0,0,.09.12c8.35,1.8,14.11,5.74,17.12,11.7a20.72,20.72,0,0,1,2.18,10.86c-1.16,2.92-3.81,6.32-6.89,6.93a.11.11,0,0,0-.09.12.12.12,0,0,0,.11.11c1.65,0,3.07-1.21,4.35-2.47A14.07,14.07,0,0,0,57,89.28a14.44,14.44,0,0,1-4.18,7.86.13.13,0,0,0,0,.14.14.14,0,0,0,.13.09.13.13,0,0,0,.09,0A14.06,14.06,0,0,0,57.91,88a21,21,0,0,0-1.65-10.56,19.85,19.85,0,0,0-2-3.59c.46-3.34,3.55-4.53,6.06-4.53a7.59,7.59,0,0,1,6.5,3.21,9.24,9.24,0,0,1,.33,8.13A6.86,6.86,0,0,1,62.44,85a.19.19,0,0,0-.15.22.19.19,0,0,0,.2.17h0a6.22,6.22,0,0,0,5.08-3.8,10.77,10.77,0,0,0-.5-9.86c-1.18-1.75-3.79-2.87-6.64-2.87a7.29,7.29,0,0,0-5.15,1.79A4.27,4.27,0,0,0,54,73.55a20.72,20.72,0,0,0-7.66-6.35c-.42-2.2-.71-4.53.6-6.7.93-1.54,2.66-2.31,5.15-2.31a13.28,13.28,0,0,1,1.81.13c5.23.71,9.29,3.85,11.77,6.36,4.11,4.14,6.11,8.24,5.94,12.2-.14,3.25-1.75,7.73-8.62,10.63a.2.2,0,0,0-.12.23.18.18,0,0,0,.24.14,13,13,0,0,0,9.06-10.2,12.43,12.43,0,0,1-2.81,8.55,14.14,14.14,0,0,1-9.61,5.14.21.21,0,0,0-.2.22.2.2,0,0,0,.2.2l.55,0h0A12,12,0,0,0,69.64,87a12.62,12.62,0,0,0,2.68-10.53c.14-3.91-2-8-6.52-12.57-3.94-4-8.91-6.22-13.65-6.22h-.41A6,6,0,0,0,46.83,60a8.18,8.18,0,0,0-.9,7,28.94,28.94,0,0,0-7.54-2.3.12.12,0,0,0,.09-.08c1.4-4.58.12-9.1-3.69-13.07a9.5,9.5,0,0,0-6.06-2.95c-.66-.08-1.33-.19-2-.3a27,27,0,0,0-4.21-.46,9.94,9.94,0,0,0-1.39.09l-.56.1A2.89,2.89,0,0,1,21,45.45a5.4,5.4,0,0,1,4.23-1.84c1.83,0,3.9.88,4.21,3.33a.2.2,0,0,0,.39,0A3.42,3.42,0,0,0,28.63,44a15.63,15.63,0,0,1,2.54-2.38,11.61,11.61,0,0,1,2-1.08c.42-.19.85-.39,1.26-.62a.2.2,0,0,0,.11-.24.24.24,0,0,0-.27-.18c-2.5.41-4.67,2.48-5.88,4.31a5.23,5.23,0,0,0-2.89-.78,6.1,6.1,0,0,0-4.83,2.12,3.16,3.16,0,0,0-.42,2.9,13.13,13.13,0,0,0-2.3.76,21.7,21.7,0,0,1-4,1.14l-1.05.24A7,7,0,0,0,10,51.53c0-.42,0-.85,0-1.26a14.24,14.24,0,0,1,.88-6.09,14.68,14.68,0,0,1,1-1.78c-.72,2.41,0,6,2.16,7.31a.2.2,0,0,0,.29-.09.21.21,0,0,0,0-.23c-1.66-1.82-2.91-4.9-1.95-7.69a26.91,26.91,0,0,1,2-2.51,9.34,9.34,0,0,1,.81-.8.25.25,0,0,0,.2-.08.24.24,0,0,0,.06-.15C17.94,36,22,34.8,26.42,34.8h.19a16.64,16.64,0,0,1,12.21,5.67c1.72,1.89,2.68,3.5,2.44,6.14,0,.46-.07.93-.1,1.38A15.28,15.28,0,0,1,40,53.74.23.23,0,0,0,40,54a.23.23,0,0,0,.39,0,13.24,13.24,0,0,0,1.25-5.79c0-.36,0-.72.08-1.08s.06-.86.06-1.22A18.16,18.16,0,0,1,41.68,53a12.1,12.1,0,0,1-1.19,2.69,9.26,9.26,0,0,0-1.34,3.58.19.19,0,0,0,0,.15.19.19,0,0,0,.15.06.23.23,0,0,0,.22-.14c.29-.71.64-1.44,1-2.15a19.46,19.46,0,0,0,1.86-5.12,15.94,15.94,0,0,0-.67-7.6l0,0a6.6,6.6,0,0,0-1.51-3.17,18.2,18.2,0,0,0-8.26-6,5.62,5.62,0,0,1,4.22-1.93,5,5,0,0,1,4.28,2.27.15.15,0,0,0,0,.17.17.17,0,0,0,.19.1,5.13,5.13,0,0,1,.32,3.6.15.15,0,0,0,.15.19.15.15,0,0,0,.14-.11,4.88,4.88,0,0,0-.25-3.86l.55-.29a10.36,10.36,0,0,1,1-.52,9.48,9.48,0,0,1,2.33-.6.1.1,0,0,0,.09-.11.09.09,0,0,0-.1-.09,7.56,7.56,0,0,0-4.11,1.24,5.75,5.75,0,0,0-4.79-2.55,5.45,5.45,0,0,0-.9.08,5.64,5.64,0,0,1-.39-3.7.1.1,0,0,0,0-.09.1.1,0,0,0-.17,0,4.57,4.57,0,0,0,0,3.21c.05.22.1.44.15.66a5.05,5.05,0,0,0-2.93,2.17.05.05,0,0,0,0,0,17.92,17.92,0,0,0-4.07-.83,20.31,20.31,0,0,0-6.52.55,10.14,10.14,0,0,1,4.36-3.54c.82-.4,1.65-.83,2.44-1.26,1-.54,2.08-1.1,3.15-1.59a13.7,13.7,0,0,1,5.72-1.27,16.07,16.07,0,0,1,7.44,2,13.71,13.71,0,0,1,4.7,3.77C50,34.47,50.1,36.62,50,38.71A25.43,25.43,0,0,1,48.9,45.1c-.82,2.81-2.14,4.17-4.69,4.83a.21.21,0,0,0-.15.23.19.19,0,0,0,.19.17h0c3.78-.44,5.1-4,5.7-7.1A11.35,11.35,0,0,1,49.1,48a7.45,7.45,0,0,1-5.82,4.49.21.21,0,0,0-.17.23.23.23,0,0,0,.23.22h0a6.77,6.77,0,0,0,3-.85h0a13.19,13.19,0,0,1,5-.95,17.38,17.38,0,0,1,2.34.17c.62.08,1.27.22,1.9.35a16.32,16.32,0,0,0,3.32.47,6.77,6.77,0,0,0,.92-.06A17,17,0,0,0,63,51.14a19.67,19.67,0,0,1,2.77-.8,31.21,31.21,0,0,1,5.69-.52c.82,0,1.67,0,2.52.1a.18.18,0,0,0,.18-.17.18.18,0,0,0-.14-.21,16,16,0,0,0-3.24-.32,23.29,23.29,0,0,0-3.42.27A28.05,28.05,0,0,0,63,50.59c-.78.25-1.59.5-2.42.71a6.82,6.82,0,0,1-1.74.21A19.37,19.37,0,0,1,55.1,51l-.94-.18c5.44-.83,8.28-6.37,9.26-8.77a14.74,14.74,0,0,0-.16-12.31,13.33,13.33,0,0,1,3.09-.44l.65,0v.09a.24.24,0,0,0,.06.17.26.26,0,0,0,.19.08.24.24,0,0,0,.24-.18l0-.09a6.39,6.39,0,0,1,1.07.26c2.14.74,3.07,2.93,3.48,4.65.33,1.4.62,4-1.2,6a8.34,8.34,0,0,1-3.8,1.93c-.41.12-.83.25-1.23.4a.24.24,0,0,0-.17.27.25.25,0,0,0,.29.21,9.54,9.54,0,0,0,5.79-2.87c1.5-1.72,1.3-4.13,1-6a7.73,7.73,0,0,0-.45-1.58c2.55-.29,4.39-3.14,5.75-5.23l.36-.56,0-.05,0,0a.09.09,0,0,0-.09-.05h0l0,0a15.7,15.7,0,0,0-1.86,2.05c-.27.34-.55.68-.84,1A8.2,8.2,0,0,1,72,32a5.86,5.86,0,0,0-4.38-3.16c.11-.51.19-1,.26-1.51a9.76,9.76,0,0,1,1.36-4.2.1.1,0,0,0,0-.1.11.11,0,0,0-.17,0c-1.21,1.23-1.9,3.17-2.06,5.76a8.48,8.48,0,0,0-3.91.68c-.16-.28-.31-.53-.47-.76A14.36,14.36,0,0,0,57,24c1-1.55,3.74-4.14,10.62-4.67.49,0,1-.06,1.48-.06a17.11,17.11,0,0,1,4.86.68,9.45,9.45,0,0,1,4.45,3.11.21.21,0,0,0,.16.07.25.25,0,0,0,.19-.1.21.21,0,0,0,0-.19c-.42-1.32-1.77-2.43-4-3.3a16.76,16.76,0,0,0-7.16-.86c-2,.12-8.59.84-11,5.14A18.29,18.29,0,0,0,49,22.11c-4.46,0-8.17,1.67-10.45,4.72a14.38,14.38,0,0,0-2.93-.06,55.52,55.52,0,0,0-4.95-9.63c-.53-.89-1.08-1.81-1.6-2.71-1.18-2-2.36-4.21-3.62-6.62l2.39-1.07c2.24-1,4.55-2.05,6.89-2.94A85.9,85.9,0,0,1,43,1.27l2.25-.6a.32.32,0,0,0,.25-.35A.36.36,0,0,0,45.11,0,55.11,55.11,0,0,0,34.54,3.1a66.8,66.8,0,0,0-9.32,4.23c-1-1.87-1.94-3.78-2.88-5.7a.13.13,0,0,0-.21,0,.12.12,0,0,0,0,.11,46.3,46.3,0,0,0,2.51,5.95h0l-.11.06a.2.2,0,0,0-.1.23.24.24,0,0,0,.31.15l.12-.05h0c1,2,2.11,4,3.19,5.87l.17.3c.92,1.63,1.82,3.33,2.69,5,1.35,2.52,2.74,5.13,4.23,7.6a14.25,14.25,0,0,0-2.88.64,31.42,31.42,0,0,0-4.77,2.22c-.75.4-1.53.82-2.3,1.19-1.74.84-3.67,1.92-4.53,4.11a15.11,15.11,0,0,0-5.43,2.68,44.15,44.15,0,0,0-3.08-5.21c-.6-.91-1.21-1.85-1.76-2.78A77.79,77.79,0,0,1,5.8,21a.14.14,0,0,0-.22,0,.12.12,0,0,0,0,.11,60.59,60.59,0,0,0,4,8.28l.82,1.48A61,61,0,0,0,14.74,38c-.16.14-.32.29-.48.45s-.54.57-.83.91c-.8-1.4-1.73-2.75-2.64-4.06-.38-.55-.77-1.11-1.15-1.68a47,47,0,0,1-3.49-6.45c-1-2.15-1.93-4.36-2.83-6.51s-2-4.63-3-6.91l.07,0A58.93,58.93,0,0,1,10.34,7a56.33,56.33,0,0,1,5.59-2.49c.9-.35,1.84-.64,2.74-.92s2.12-.65,3.14-1.07a.3.3,0,0,0,.2-.34.3.3,0,0,0-.36-.23C17.78,2.52,13.77,4.42,10,6.38a33.7,33.7,0,0,0-9.83,7.2h0a.12.12,0,0,0-.17,0,.12.12,0,0,0,0,.11c.88,2,1.72,4.15,2.53,6.18,1,2.49,2,5.07,3.14,7.57a41.94,41.94,0,0,0,2.49,4.66l0,0c-4.53,5.62-9,21.45-4.4,37.67l-.53.11,0,.08a57.82,57.82,0,0,0,7.13,16.73A63,63,0,0,0,41.92,112.8a53.75,53.75,0,0,0,19.23,3.47,61.44,61.44,0,0,0,31.52-8.87c14.75-8.84,24.67-22.87,27.58-38.81C123.59,55.82,122.13,39.51,111.32,26.65ZM101.85,87l.45,0h.77c-1.06.81-2.21,1.63-3.46,2.46.16-.24.3-.49.44-.74C100.51,87.92,100.94,87.14,101.85,87Zm-5.61,4.55,0-.07a1.57,1.57,0,0,1,1-.87,1.84,1.84,0,0,1,.64-.09h0ZM10.15,35.22l1,1.44c.67,1,1.36,2,2,3.06a21.73,21.73,0,0,0-2.71,4.21c-1.11,2.26-1,5-.84,7.44l0,.49a7.51,7.51,0,0,0-1.18,1.43,19.38,19.38,0,0,0-2.1,5.46l-.24.86a28,28,0,0,0-.74,3.16C3.5,51.62,6,40.54,10.15,35.22Zm-.39-.58c-4.9,6.15-7.7,20.2-3.93,33.19C8.61,77.39,16,90.15,35.29,96.7a83.86,83.86,0,0,0,26.89,4.69A67.76,67.76,0,0,0,108.89,83c5.5-5.23,9.37-14.5,10.1-24.19A41.4,41.4,0,0,0,108.91,28c-15.74-17.85-39.22-21-41-21.2l-.09-.32-.29-1a61.91,61.91,0,0,1,14.94,3,61.79,61.79,0,0,1,28.31,18.69c9.88,11.75,11.84,26.41,9.46,38.5l-.23,0v.08q-.19,1.51-.47,3c-1.79,6.69-4.92,12.37-8.73,16A72.45,72.45,0,0,1,83.31,101a70.81,70.81,0,0,1-21.74,3.38A85.47,85.47,0,0,1,34.16,99.6C14.82,93,7.32,79.79,4.43,69.83-.19,53.91,4.12,38.39,8.54,32.73,8.94,33.37,9.35,34,9.77,34.64Zm24.18,65.58A86.09,86.09,0,0,0,61.58,105a71.52,71.52,0,0,0,21.94-3.42A73.16,73.16,0,0,0,111.3,85.1a30.64,30.64,0,0,0,6.51-9.59,57.49,57.49,0,0,1-25.48,31.31,60.76,60.76,0,0,1-31.18,8.78,53,53,0,0,1-19-3.43A62.29,62.29,0,0,1,10.93,86.42,61,61,0,0,1,4.45,72.1C7.81,81.9,15.66,94,33.95,100.22ZM53.49,50.71l-.82-.12a11.14,11.14,0,0,0-5.27.67,8.85,8.85,0,0,0,1.82-2.2c1.44-2.42,1.39-5,1.32-7.68,0-.78,0-1.59,0-2.38v0a11.89,11.89,0,0,0-.68-5.26,6.37,6.37,0,0,0-1.4-2h.16c2.58,0,4.12.95,4.71,2.9.7,2.34-.83,4.68-1.52,5.58a.16.16,0,0,0,0,.18.2.2,0,0,0,.31.06,6.2,6.2,0,0,0,1.54-6.59,4.17,4.17,0,0,0-4-2.67,6.44,6.44,0,0,0-1.39.16.2.2,0,0,0-.09,0,18.09,18.09,0,0,0-2.49-1.86,17,17,0,0,0-6.49-2.55,13.91,13.91,0,0,1,11-4.09,17.07,17.07,0,0,1,11.59,5.63c2.54,2.9,3.1,7.62,1.51,12.63s-5.15,8.5-9.52,9.34a.22.22,0,0,0-.17.25A.12.12,0,0,0,53.49,50.71ZM49.73,5.84Z" />
            <path class="cls-1" d="M34.38,94.37a.11.11,0,0,0-.1.11.11.11,0,0,0,.1.11A65.26,65.26,0,0,1,46.25,97a50.3,50.3,0,0,0,5.52,1.44,11.34,11.34,0,0,0,2,.24,3.37,3.37,0,0,0,1.5-.3.34.34,0,0,0,.17-.4.34.34,0,0,0-.36-.28c-.37,0-.74.05-1.12.05a25.63,25.63,0,0,1-7.48-1.53L45.64,96a34.79,34.79,0,0,0-8.1-1.67C34,91,31,87.95,29.78,83.59a41.24,41.24,0,0,1-1.13-6.47l0-.17a16.28,16.28,0,0,1,.53-7.12.1.1,0,0,0,0-.09.11.11,0,0,0-.18,0c-1.56,3.34-1,7.42-.27,11a9,9,0,0,0-1.31.38l-.5.17a2.29,2.29,0,0,1-.72.11,5.83,5.83,0,0,1-2-.5l-.29-.11a9.9,9.9,0,0,0-3.6-.62h-.11c-2,0-3.73,0-5-1.78-.26-.36-.48-.74-.7-1.11a7.85,7.85,0,0,0-1.34-1.84.12.12,0,0,0-.18,0,.1.1,0,0,0,0,.11,12.77,12.77,0,0,1,1,1.6A11.12,11.12,0,0,0,15.07,79a4.56,4.56,0,0,0,3.53,1.62c.26,0,.54,0,.88,0h1.71a8.46,8.46,0,0,1,2.71.65l.4.14a4.93,4.93,0,0,0,1.67.3,9.15,9.15,0,0,0,2.64-.53l.19-.05c.06.3.12.6.18.9s.15.77.22,1.14a13.53,13.53,0,0,0,.74,2.4,15.54,15.54,0,0,0-4.62-.8,8.89,8.89,0,0,0-2.43.32.13.13,0,0,0-.1.14.14.14,0,0,0,.13.12h0a7.32,7.32,0,0,1,1.26-.11,15,15,0,0,1,3.21.46,19,19,0,0,0,2.7.45h.07a21.49,21.49,0,0,0,6.6,8.1h-.44A18,18,0,0,0,34.38,94.37ZM30.12,86.1h0Z" />
            <path class="cls-1" d="M64.87,96.12a9.32,9.32,0,0,0-3.74.75.1.1,0,0,0-.06.11.11.11,0,0,0,.1.08h0a7.82,7.82,0,0,1,2.43-.37,18.19,18.19,0,0,1,2.83.29c.68.11,1.39.22,2.12.28h0a.27.27,0,0,0,.27-.25.29.29,0,0,0-.21-.33A14.66,14.66,0,0,0,64.87,96.12Z" />
            <path class="cls-1" d="M53.25,55.25c.61.05,1.41.11,2.21.11a9.27,9.27,0,0,0,3.83-.69.26.26,0,0,0,.15-.3.33.33,0,0,0-.37-.26,24,24,0,0,1-4.85.47c-.65,0-1.31,0-2-.07s-1.24-.06-1.8-.06a16,16,0,0,0-5,.71.14.14,0,0,0,0,.27h0A14.68,14.68,0,0,1,49.21,55c1.25,0,2.48.1,3.78.22Z" />
            <path class="cls-1" d="M67.7,51.39H67.6a12.84,12.84,0,0,0-4.45.86.15.15,0,0,0-.1.17.15.15,0,0,0,.14.12h0A19.17,19.17,0,0,1,67.7,52a.32.32,0,0,0,.31-.33A.31.31,0,0,0,67.7,51.39Z" />
            <path class="cls-1" d="M57.79,56.7a10.72,10.72,0,0,0,1.39,0c.3,0,.62,0,.92-.05a11.79,11.79,0,0,1,2.59.27h0A.21.21,0,0,0,63,56.7a.21.21,0,0,0-.15-.24,10.49,10.49,0,0,0-3.2-.54,6.11,6.11,0,0,0-1.88.27.26.26,0,0,0-.18.28A.26.26,0,0,0,57.79,56.7Z" />
            <path class="cls-1" d="M49,56.67H49a26.37,26.37,0,0,0-6.16,1l-1,.24a.11.11,0,0,0-.08.12.12.12,0,0,0,.11.1h0c1-.16,2-.28,3-.4,1.39-.17,2.82-.33,4.2-.62a.21.21,0,0,0,.17-.23A.22.22,0,0,0,49,56.67Z" />
            <path class="cls-1" d="M63,60a8.81,8.81,0,0,1,3.34,1.1l.1.05a5.54,5.54,0,0,0,2.19.74h0a.25.25,0,0,0,.24-.21.23.23,0,0,0-.13-.28A14.41,14.41,0,0,0,63,59.66h0a.15.15,0,0,0-.16.15A.16.16,0,0,0,63,60Zm5.64,1.82Z" />
            <path class="cls-1" d="M30.27,89.91h-1c-.73,0-1.47-.14-2.18-.24l-.17,0a.13.13,0,0,0-.12.11.12.12,0,0,0,.09.12l.85.18a14.25,14.25,0,0,0,2.94.43l.52,0a.26.26,0,0,0,0-.51A9.16,9.16,0,0,0,30.27,89.91Z" />
          </g>
        </g>
      </svg>