<svg width="200" height="200" viewBox="0 0 500 500" fill="none" xmlns="http://www.w3.org/2000/svg">
<path d="M0 60C0 26.8629 26.8629 0 60 0H440C473.137 0 500 26.8629 500 60V440C500 473.137 473.137 500 440 500H60C26.8629 500 0 473.137 0 440V60Z" fill="#F9FAFC"/>
<path d="M105.38 201H122.03L80.9299 313.5H64.3549L77.9299 276L51.0049 201H68.0299L85.7299 254.625L105.38 201Z" fill="#039768"/>
<path d="M163.616 277.95C156.716 277.95 150.416 276.175 144.716 272.625C139.066 269.075 134.541 264.325 131.141 258.375C127.791 252.375 126.116 245.75 126.116 238.5C126.116 233 127.091 227.875 129.041 223.125C130.991 218.325 133.666 214.125 137.066 210.525C140.516 206.875 144.516 204.025 149.066 201.975C153.616 199.925 158.466 198.9 163.616 198.9C169.366 198.9 174.641 200.1 179.441 202.5C184.241 204.85 188.341 208.125 191.741 212.325C195.141 216.475 197.641 221.275 199.241 226.725C200.841 232.125 201.316 237.875 200.666 243.975H142.841C143.491 247.425 144.741 250.55 146.591 253.35C148.491 256.1 150.891 258.275 153.791 259.875C156.741 261.475 160.016 262.3 163.616 262.35C167.416 262.35 170.866 261.4 173.966 259.5C177.116 257.6 179.691 254.975 181.691 251.625L197.516 255.3C194.516 261.95 189.991 267.4 183.941 271.65C177.891 275.85 171.116 277.95 163.616 277.95ZM142.316 232.05H184.916C184.416 228.45 183.141 225.2 181.091 222.3C179.091 219.35 176.566 217.025 173.516 215.325C170.516 213.575 167.216 212.7 163.616 212.7C160.066 212.7 156.766 213.55 153.716 215.25C150.716 216.95 148.216 219.275 146.216 222.225C144.266 225.125 142.966 228.4 142.316 232.05Z" fill="#039768"/>
<path d="M280.587 228.975V276H264.987V232.8C264.987 229.45 264.162 226.4 262.512 223.65C260.912 220.9 258.737 218.725 255.987 217.125C253.287 215.475 250.237 214.65 246.837 214.65C243.537 214.65 240.512 215.475 237.762 217.125C235.012 218.725 232.812 220.9 231.162 223.65C229.512 226.4 228.687 229.45 228.687 232.8V276H213.087V201H228.687V208.95C231.287 205.85 234.487 203.4 238.287 201.6C242.087 199.8 246.187 198.9 250.587 198.9C256.137 198.9 261.187 200.25 265.737 202.95C270.287 205.65 273.887 209.275 276.537 213.825C279.237 218.375 280.587 223.425 280.587 228.975Z" fill="#039768"/>
<path d="M352.518 163.5H368.118V276H352.518V264.975C350.068 268.875 346.868 272.025 342.918 274.425C338.968 276.775 334.343 277.95 329.043 277.95C323.593 277.95 318.493 276.925 313.743 274.875C308.993 272.825 304.793 270 301.143 266.4C297.543 262.75 294.718 258.55 292.668 253.8C290.618 249.05 289.593 243.95 289.593 238.5C289.593 233.05 290.618 227.95 292.668 223.2C294.718 218.4 297.543 214.2 301.143 210.6C304.793 206.95 308.993 204.1 313.743 202.05C318.493 200 323.593 198.975 329.043 198.975C334.343 198.975 338.968 200.175 342.918 202.575C346.868 204.925 350.068 208.025 352.518 211.875V163.5ZM329.193 262.875C333.593 262.875 337.443 261.8 340.743 259.65C344.043 257.45 346.593 254.5 348.393 250.8C350.243 247.1 351.168 243 351.168 238.5C351.168 233.95 350.243 229.825 348.393 226.125C346.543 222.425 343.968 219.5 340.668 217.35C337.418 215.15 333.593 214.05 329.193 214.05C324.843 214.05 320.868 215.15 317.268 217.35C313.718 219.55 310.868 222.5 308.718 226.2C306.618 229.9 305.568 234 305.568 238.5C305.568 243.05 306.643 247.175 308.793 250.875C310.993 254.525 313.868 257.45 317.418 259.65C321.018 261.8 324.943 262.875 329.193 262.875Z" fill="#039768"/>
<path d="M418.06 277.95C411.16 277.95 404.86 276.175 399.16 272.625C393.51 269.075 388.985 264.325 385.585 258.375C382.235 252.375 380.56 245.75 380.56 238.5C380.56 233 381.535 227.875 383.485 223.125C385.435 218.325 388.11 214.125 391.51 210.525C394.96 206.875 398.96 204.025 403.51 201.975C408.06 199.925 412.91 198.9 418.06 198.9C424.96 198.9 431.235 200.675 436.885 204.225C442.585 207.775 447.11 212.55 450.46 218.55C453.86 224.55 455.56 231.2 455.56 238.5C455.56 243.95 454.585 249.05 452.635 253.8C450.685 258.55 447.985 262.75 444.535 266.4C441.135 270 437.16 272.825 432.61 274.875C428.11 276.925 423.26 277.95 418.06 277.95ZM418.06 262.35C422.21 262.35 425.935 261.25 429.235 259.05C432.535 256.85 435.135 253.95 437.035 250.35C438.985 246.7 439.96 242.75 439.96 238.5C439.96 234.15 438.96 230.15 436.96 226.5C435.01 222.85 432.385 219.95 429.085 217.8C425.785 215.6 422.11 214.5 418.06 214.5C413.96 214.5 410.235 215.6 406.885 217.8C403.585 220 400.96 222.925 399.01 226.575C397.11 230.225 396.16 234.2 396.16 238.5C396.16 242.95 397.16 246.975 399.16 250.575C401.16 254.175 403.81 257.05 407.11 259.2C410.46 261.3 414.11 262.35 418.06 262.35Z" fill="#039768"/>
</svg>